<svg xmlns="http://www.w3.org/2000/svg">
  <symbol xmlns="http://www.w3.org/2000/svg" viewBox="0 0 96 96" id="ferry">
    <path d="M80 84c-6 0-11-2-16-5-10 7-22 7-32 0-5 3-10 5-16 5H8v8h8c6 0 11-1 16-4 10 5 22 5 32 0 5 3 10 4 16 4h8v-8h-8zm-64-8c6 0 12-4 16-8 4 4 10 8 16 8s12-4 16-8c4 4 10 8 16 8l8-27v-3l-3-2-5-2V24c0-4-4-8-8-8H60V4H36v12H24c-4 0-8 4-8 8v18l-5 2a4 4 0 00-3 5l8 27zm8-52h48v16l-24-8-24 8V24z"/>
  </symbol>
  <symbol xmlns="http://www.w3.org/2000/svg" viewBox="0 0 96 96" id="film">
    <path d="M88 3v90H8V3h80zm-4 76h-8v8h8v-8zm-64 0h-8v8h8v-8zm64-14h-8v8h8v-8zm-64 0h-8v8h8v-8zm64-14h-8v8h8v-8zm-64 0h-8v8h8v-8zm64-14h-8v8h8v-8zm-64 0h-8v8h8v-8zm64-14h-8v8h8v-8zm-64 0h-8v8h8v-8zM84 9h-8v8h8V9zM20 9h-8v8h8V9zm52 78V51H24v36h48zm0-42V9H24v36h48z"/>
  </symbol>
  <symbol xmlns="http://www.w3.org/2000/svg" viewBox="0 0 96 96" id="flickr">
    <path fill-rule="evenodd" d="M48 92c25 0 44-19 44-44S73 4 48 4 4 23 4 48s19 44 44 44zM30 63c8 0 14-7 14-15s-6-15-14-15-15 7-15 15 7 15 15 15zm37 0c7 0 14-7 14-15s-7-15-14-15c-9 0-15 7-15 15s6 15 15 15z"/>
  </symbol>
  <symbol xmlns="http://www.w3.org/2000/svg" viewBox="0 0 96 96" id="github">
    <path d="M4 49c0 20 13 36 30 42 2 0 3-1 3-2v-8c-12 3-15-6-15-6-2-5-5-6-5-6-4-3 1-3 1-3 4 1 6 5 6 5 4 7 11 5 13 3l3-5c-10-2-20-5-20-22 0-5 2-9 4-12 0-1-2-6 1-12 0 0 4-1 12 5a42 42 0 0122 0c8-6 12-5 12-5 2 6 1 11 0 12 3 3 5 7 5 12 0 17-10 20-20 22 1 1 3 3 3 7v12c0 1 1 3 3 3A44 44 0 0048 5C24 5 4 25 4 49z"/>
  </symbol>
  <symbol xmlns="http://www.w3.org/2000/svg" viewBox="0 0 96 96" id="linkedin">
    <path d="M65 79V59c0-5 0-12-6-12-7 0-8 6-8 11v21H38V37h12v6c2-4 6-7 13-7 13 0 15 9 15 20v23H65zM24 32a8 8 0 110-16 8 8 0 010 16zm6 47H17V37h13v42zM85 4H10c-3 0-6 3-6 6v76c0 3 3 6 6 6h75c4 0 7-3 7-6V10c0-3-3-6-7-6z"/>
  </symbol>
  <symbol xmlns="http://www.w3.org/2000/svg" viewBox="0 0 96 96" id="microblog">
    <path d="M48 5c24 0 44 18 44 40 0 10-4 18-10 25-7 9-3 18 0 22 1 1-1 1-1 1-11-2-15-9-16-10h-1l-16 2C24 85 4 68 4 45 4 23 24 5 48 5zm0 18h-1l-4 15H27a1 1 0 00-1 2l14 8-6 15a1 1 0 002 1l12-10 12 10a1 1 0 002-1l-6-15 14-8a1 1 0 00-1-2H54l-5-15h-1z"/>
  </symbol>
  <symbol xmlns="http://www.w3.org/2000/svg" viewBox="0 0 96 96" id="national-rail">
    <path d="M17 20l32 14H0v10h49L25 56H0v10h25l30 14h23L46 66h50V56H46l24-12h26V34H70L40 20z"/>
  </symbol>
  <symbol xmlns="http://www.w3.org/2000/svg" viewBox="0 0 96 96" id="photos">
    <path d="M88 89V9h8v88H8v-8h80zM0 1h80v80H0V1z"/>
  </symbol>
  <symbol xmlns="http://www.w3.org/2000/svg" viewBox="0 0 96 96" id="plane">
    <path d="M32 86h8l20-32h22a6 6 0 100-12H60L40 10h-8l10 32H20l-6-8H8l4 14-4 14h6l6-8h22L32 86z"/>
  </symbol>
  <symbol xmlns="http://www.w3.org/2000/svg" viewBox="0 0 96 96" id="train">
    <path d="M48 8c-16 0-32 2-32 16v38c0 8 6 14 14 14l-6 6v2h9l8-8h15l8 8h8v-2l-6-6c8 0 14-6 14-14V24C80 10 66 8 48 8zM30 68a6 6 0 110-12 6 6 0 010 12zm14-28H24V24h20v16zm8 0V24h20v16H52zm14 28a6 6 0 110-12 6 6 0 010 12z"/>
  </symbol>
  <symbol xmlns="http://www.w3.org/2000/svg" viewBox="0 0 96 96" id="twitter">
    <path d="M96 19c-4 2-7 4-11 4 4-2 7-7 8-11l-12 5c-4-4-9-7-15-7-11 0-20 9-20 20l1 5c-16 0-31-9-40-21a20 20 0 006 26l-9-2c0 10 7 18 16 19l-5 2-4-1c3 8 9 13 18 13-7 6-15 9-24 9H0c9 6 19 8 30 8 36 0 56-29 56-55v-3l10-10v-1z"/>
  </symbol>
</svg>
