<svg xmlns="http://www.w3.org/2000/svg">
  <symbol id="canvas" viewBox="0 0 1 1" preserveAspectRatio="none">
    <path fill="#f5f5f5" d="M0 0h1v1H0z"/>
  </symbol>
  <symbol id="logo" viewBox="0 0 256 192" preserveAspectRatio="xMinYMin meet" overflow="visible">
    <path fill="#dedfe3" transform="translate(-128 -96)" d="M0 56h40v136H0Zm84 88a44 44 0 1 0 0-88 44 44 0 0 0 0 88ZM216 0h40v144h-40V0Zm-88 56h40v88h-40V56Zm64 48a24 24 0 1 1 0-48 24 24 0 0 1 0 48Z"/>
  </symbol>
  <use href="#canvas" width="100%" height="100%"/>
  <use href="#logo" height="25%" width="25%" x="50%" y="50%"/>
</svg>
