<svg xmlns="http://www.w3.org/2000/svg" xmlns:xlink="http://www.w3.org/1999/xlink" width="1760" height="700">
  <defs>
    <g id="header">
      <path fill="#EDEDED" d="M.5.5h319v144H.5z"/>
      <path fill="#424242" d="M16 .5h80v32H16z"/>
      <text x="23" y="21" fill="#fff" font-family="Georgia" font-size="16">MATTER</text>
      <text x="16" y="64" font-family="Arial" font-size="22">No Secrets</text>
      <text font-family="Arial" font-size="14">
        <tspan x="16" y="84">Julian Assange’s mission</tspan>
        <tspan x="16" y="100">for total transparency.</tspan>
      </text>
      <text x="16" y="128" font-family="Arial" font-size="12">by Raffi Khatchadourian</text>
    </g>
    <g id="arrow">
      <path stroke="#000" d="M0 0h32"/>
      <path d="M40 0l-8-3v6l8-3z"/>
    </g>
    <rect id="button" width="128" height="36" fill="#06c" rx="4" ry="4"/>
    <rect id="input" width="288" height="36" fill="#fff" stroke="#999" rx="4" ry="4"/>
    <rect id="check" width="18" height="18" fill="#fff" stroke="#999" rx="4" ry="4"/>
    <circle id="radio" cx="9" cy="9" r="9" fill="#fff" stroke="#999"/>
  </defs>
  <use x="1040" y="340" xlink:href="#arrow"/>
  <use x="680" y="340" xlink:href="#arrow"/>
  <use x="320" y="340" xlink:href="#arrow"/>
  <g id="step5">
    <path fill="#fff" stroke="#000" d="M1440 0h320v700h-320V0z"/>
    <path stroke="#000" d="M1456 108h288"/>
    <text font-family="Arial" font-size="12" transform="translate(1440)">
      <tspan x="16" y="28"><tspan font-weight="bold">From:</tspan> team@readmatter.com</tspan>
      <tspan x="16" y="56"><tspan font-weight="bold">To:</tspan> paul.lloyd@clearleft.com</tspan>
      <tspan x="16" y="84"><tspan font-weight="bold">Subject:</tspan> Welcome to MATTER</tspan>
      <tspan x="16" y="140">Dear Paul,</tspan> <tspan x="16" y="168">Thanks for joining MATTER.</tspan>
      <tspan x="16" y="196">To log in to MATTER in the future, just use your email</tspan>
      <tspan x="16" y="210">and the password you provided. If you ever forget it,</tspan>
      <tspan x="16" y="224">you can reset it at <tspan fill="#06c">http://readmatter.com/reset-</tspan></tspan>
      <tspan x="16" y="238">password</tspan> <tspan x="16" y="266">## Kindle Users</tspan>
      <tspan x="16" y="294">If you want to get the latest articles sent direct to your</tspan>
      <tspan x="16" y="308">Kindle, just visit your account settings page to set up</tspan>
      <tspan x="16" y="322">your device: <tspan fill="#06c">http://readmatter.com/account</tspan></tspan>
      <tspan x="16" y="350">Thanks for your support.</tspan>
      <tspan x="16" y="378">Bobbie and Jim</tspan>
    </text>
  </g>
  <g id="step4" transform="translate(1080)">
    <path fill="#fff" stroke="#000" d="M0 0h320v700H0V0z"/>
    <path fill="#ffc" d="M.5.5h319v72H.5V0z"/>
    <text font-family="Arial" font-size="14" font-weight="bold">
      <tspan x="16" y="24">Thanks for supporting MATTER.</tspan>
    </text>
    <text font-family="Arial" font-size="12">
      <tspan x="16" y="40">You now have access to this and all the articles we’ll</tspan>
      <tspan x="16" y="56">be publishing in the next year. <tspan text-decoration="underline">View your account</tspan>.</tspan>
    </text>
    <use y="72" xlink:href="#header"/>
    <text font-family="Arial" font-size="14">
      <tspan x="16" y="248">One day in place far from here lorem ipsum</tspan>
      <tspan x="16" y="264">dolor sit amet, consectetur adipiscing elit. Sed</tspan>
      <tspan x="16" y="280">dictum sagittis elementum. Phasellus tellus</tspan>
      <tspan x="16" y="296">lacus, tristique vitae varius non, convallis eu</tspan>
      <tspan x="16" y="312">ante. Donec imperdiet tristique vestibulum.</tspan>
      <tspan x="16" y="328">Integer eget tortor sit amet quam congue</tspan>
      <tspan x="16" y="344">pharetra. Donec sodales dui quis turpis luctus</tspan>
      <tspan x="16" y="360">semper. Nunc malesuada sollicitudin convallis.</tspan>
      <tspan x="16" y="376">Nullam eget libero dolor. Ut non leo neque.</tspan>
      <tspan x="16" y="392">Aliquam dictum suscipit libero.</tspan>
    </text>
    <text font-family="Arial" font-size="12">
      <tspan x="16" y="432">Lorem ipsum dolor sit amet, consectetur adipiscing</tspan>
      <tspan x="16" y="448">elit. Maecenas ut tortor a sem sodales accumsan et</tspan>
      <tspan x="16" y="464">eu augue. Sed suscipit hendrerit ante, eu mollis purus</tspan>
      <tspan x="16" y="480">lobortis eu. Cras suscipit posuere mi, mattis pharetra</tspan>
      <tspan x="16" y="496">lacus vehicula nec. Donec dignissim lacus a nibh</tspan>
      <tspan x="16" y="512">imperdiet ullamcorper. Vestibulum eu mattis justo. Sed</tspan>
      <tspan x="16" y="528">a mauris orci. Nulla dui felis, ullamcorper laoreet</tspan>
      <tspan x="16" y="544">imperdiet lacinia, gravida ac libero.</tspan>
      <tspan x="16" y="576">Maecenas bibendum justo vulputate enim luctus vel</tspan>
      <tspan x="16" y="592">mollis est dapibus. Aliquam arcu elit, vestibulum ac</tspan>
      <tspan x="16" y="608">venenatis vitae, imperdiet nec enim. Aliquam erat</tspan>
      <tspan x="16" y="624">volutpat. Morbi tincidunt metus quis arcu sodales</tspan>
      <tspan x="16" y="640">volutpat. Praesent at tellus risus, vitae tincidunt risus.</tspan>
      <tspan x="16" y="656">Nunc libero tellus, lacinia eu volutpat vestibulum,</tspan>
      <tspan x="16" y="672">convallis et purus. Nullam at tortor a massa iaculis</tspan>
      <tspan x="16" y="688">imperdiet ut vel nisi sed varius elit a velit placerat</tspan>
    </text>
  </g>
  <g id="step3" transform="translate(720)">
    <path fill="#fff" stroke="#000" d="M0 0h320v700H0V0z"/>
    <use xlink:href="#header"/>
    <text font-family="Arial" font-size="13" font-weight="bold">
      <tspan x="40" y="220">Credit card</tspan>
      <tspan x="200" y="220">PayPal</tspan>
      <tspan x="16" y="248">Card number</tspan>
      <tspan x="16" y="320">Expiry date</tspan>
      <tspan x="176" y="320">Security number</tspan>
    </text>
    <use x="16" y="206" xlink:href="#radio"/>
    <use x="176" y="206" xlink:href="#radio"/>
    <use x="16" y="256" xlink:href="#input"/>
    <rect width="54" height="36" x="16" y="328" fill="#fff" stroke="#999" rx="4" ry="4"/>
    <rect width="72" height="36" x="80" y="328" fill="#fff" stroke="#999" rx="4" ry="4"/>
    <rect width="54" height="36" x="176" y="328" fill="#fff" stroke="#999" rx="4" ry="4"/>
    <path d="M57 347h7l-3.5 7.2L57 347zm7-3.6h-7l3.5-7.2 3.6 7.2zm76 3.6h7l-3.5 7.2-3.6-7.2zm7-3.6h-7l3.5-7.2 3.6 7.2zm-118.5-132c1.7 2 1.7 4.7 0 6.5-1.8 1.3-4.6 1.3-6.4 0-1.3-2-1.3-5 0-6.8 2-1.7 5-1.7 6.8 0"/>
    <text font-family="Arial" font-size="13">
      <tspan x="24" y="350">01</tspan>
      <tspan x="88" y="350">2012</tspan>
      <tspan x="42" y="392">Save these details for later</tspan>
    </text>
    <use x="16" y="378" xlink:href="#check"/>
    <use x="16" y="520" xlink:href="#button"/>
    <text fill="#fff" font-family="Arial" font-size="13" font-weight="bold">
      <tspan x="28" y="542">Purchase Article</tspan>
    </text>
    <path fill="#ddd" d="M150 160v28h153v-28h567z"/>
    <path fill="#eee" d="M16 160v28h141.2l11.8-14.5-11.8-13.5H16z"/>
    <text font-family="Arial" font-size="13" font-weight="bold">
      <tspan x="30" y="178">Create an account</tspan>
      <tspan x="180" y="178">Payment Details</tspan>
    </text>
    <rect width="304" height="88" x="8" y="420" fill="#eee" rx="4" ry="4"/>
    <use x="16" y="428" xlink:href="#check"/>
    <text x="42" y="440" font-family="Arial" font-size="13" font-weight="bold">Automatically purchase future articles</text>
    <text font-family="Arial" font-size="12">
      <tspan x="42" y="460">We’ll set up a recurring payment and send new</tspan>
      <tspan x="42" y="476">articles direct to your e-reader on the day of</tspan>
      <tspan x="42" y="492">publication. You can cancel this at any time.</tspan>
    </text>
  </g>
  <g id="step2" transform="translate(360)">
    <path fill="#fff" stroke="#000" d="M0 0h320v700H0V0z"/>
    <use xlink:href="#header"/>
    <text font-family="Arial" font-size="13" font-weight="bold">
      <tspan x="16" y="220" fill="#06c">Already have an account? Log-in</tspan>
      <tspan x="16" y="248">Email address</tspan>
      <tspan x="16" y="320">Confirm email address</tspan>
      <tspan x="16" y="392">Username</tspan>
      <tspan x="16" y="464">Password</tspan>
    </text>
    <use x="16" y="256" xlink:href="#input"/>
    <use x="16" y="328" xlink:href="#input"/>
    <use x="16" y="400" xlink:href="#input"/>
    <use x="16" y="472" xlink:href="#input"/>
    <use x="16" y="520" xlink:href="#button"/>
    <text fill="#fff" font-family="Arial" font-size="13" font-weight="bold">
      <tspan x="32" y="542">Create Account</tspan>
    </text>
    <path fill="#eee" d="M150 160v28h153v-28H150z"/>
    <path fill="#ddd" d="M16 160v28h141.2l11.8-14.5-11.8-13.5H16z"/>
    <text font-family="Arial" font-size="13" font-weight="bold">
      <tspan x="30" y="178">Create an account</tspan>
      <tspan x="180" y="178">Payment details</tspan>
    </text>
  </g>
  <g id="step1">
    <path fill="#fff" stroke="#000" d="M0 0h320v700H0V0z"/>
    <use xlink:href="#header"/>
    <text font-family="Arial" font-size="12">
      <tspan x="270" y="24" fill="#06c" text-decoration="underline">Log-in</tspan>
      <tspan x="190" y="128" fill="#06c" font-weight="bold">Purchase this article</tspan>
    </text>
    <text font-family="Arial" font-size="14">
      <tspan x="16" y="170">Julian Assange has lorem ipsum dolor sit</tspan>
      <tspan x="16" y="186">amet, consectetur adipiscing elit. Sed dictum</tspan>
      <tspan x="16" y="202">sagittis elementum. Phasellus tellus lacus,</tspan>
      <tspan x="16" y="218">tristique vitae varius non, convallis eu ante.</tspan>
    </text>
    <path stroke="#000" d="M16 238h288"/>
    <text font-family="Georgia" font-size="13" font-style="italic">
      <tspan x="16" y="264">“Julian Assange’s assault on western</tspan>
      <tspan x="16" y="280">governments has lorem ipsum dolor sit amet,</tspan>
      <tspan x="16" y="296">consectetur adipiscing elit lorem ipsum dolor sit</tspan>
      <tspan x="16" y="312">amet, consectetur adipiscing elit. Raffi’s article</tspan>
      <tspan x="16" y="328">get’s to the core of the lorem ipsum.”</tspan>
    </text>
    <text font-family="Arial" font-size="12">
      <tspan x="16" y="348">– Chris Anderson, Editor-in-Chief, Wired Magazine</tspan>
    </text>
    <text font-family="Georgia" font-size="13" font-style="italic">
      <tspan x="16" y="408">“Gripping as much as</tspan>
      <tspan x="16" y="424">it is chilling. Here is a</tspan>
      <tspan x="16" y="440">story that’s been</tspan>
      <tspan x="16" y="456">shamelessly covered-</tspan>
      <tspan x="16" y="472">up—until now.”</tspan>
    </text>
    <text font-family="Arial" font-size="12">
      <tspan x="16" y="492">– @adactio</tspan>
    </text>
    <text font-family="Georgia" font-size="13" font-style="italic">
      <tspan x="176" y="408">“Chilling as much as</tspan>
      <tspan x="176" y="424">it is gripping.This</tspan>
      <tspan x="176" y="440">story has shamelessly</tspan>
      <tspan x="176" y="456">been covered-up—</tspan>
      <tspan x="176" y="472">until now.”</tspan>
    </text>
    <text font-family="Arial" font-size="12">
      <tspan x="176" y="492">– @paulrobertlloyd</tspan>
    </text>
    <text font-family="Arial" font-size="10">
      <tspan x="16" y="384">FROM OUR READERS:</tspan>
    </text>
    <rect width="304" height="114" x="8" y="512" fill="#eee" rx="4" ry="4"/>
    <use x="16" y="520" xlink:href="#button"/>
    <text fill="#fff" font-family="Arial" font-size="13" font-weight="bold">
      <tspan x="34" y="542">Buy this article</tspan>
    </text>
    <text font-family="Arial" font-size="13">
      <tspan x="156" y="542">$0.99</tspan>
    </text>
    <text font-family="Arial" font-size="12">
      <tspan x="16" y="576" font-weight="bold">Why purchase the web edition?</tspan>
      <tspan x="16" y="594">• View on any web enabled device</tspan>
      <tspan x="16" y="612">• Includes downloadable eBook</tspan>
    </text>
    <text font-family="Arial" font-size="12">
      <tspan x="16" y="654" font-family="Lucida Grande" font-size="20" font-weight="bold">a</tspan>
      <tspan x="36" y="652" fill="#06c" text-decoration="underline">Buy Kindle Single Edition</tspan>
      <tspan x="180" y="652">$1.29</tspan>
      <tspan x="16" y="680"></tspan>
      <tspan x="36" y="680" fill="#06c" text-decoration="underline">Buy iBook Edition</tspan>
      <tspan x="140" y="680">$1.29</tspan>
    </text>
  </g>
</svg>
