<svg xmlns="http://www.w3.org/2000/svg" width="440" height="280"><path fill="#fb3" d="M194.8 121.5c9-5.3 18-5.6 27-5.6 4.6.2 9 .4 14 .2 4.7-.3 9.7-1 15-2.7 17-5.7 28.2-13.4 41.6-27.3 0 13-4.8 23-19 34-15.2 11.6-31.7 17.3-50.8 18.5-6.7.5-11-.2-15-.7-4.2-.5-8.5-.7-15 0-11 1.4-17 4-25.5 9.8 7.7-12.7 14.2-18.7 27.8-26.3M77.5 51.3c10.3 5.5 18.2 9 25.6 13 7.5 3.7 14.5 7.8 23 13.8 9.2 6.8 16 17.8 13 32.4-2.2 9.6-6.7 18.3-13.2 27 3-12.8 3-21.2-4-34-5.5-10-18-15.7-31.6-21.7-7-3-14.3-6.2-21.3-9.8-7-4-13.7-8.3-19.4-14C39 48 33.6 38.6 31 24.2 29 14.6 32 5.5 34.6 0c5 22.8 20.6 39.5 42.8 51.3m20 84.5c10.4.8 14.7 5.3 15.5 12.7.4 2.7.2 4.6-.8 7.2-3-3.8-7-5-11.7-5.2-2.4-.3-4.8-.3-7.4-.3-2.3 0-5-.2-7.3-.7-13-2.4-21.5-4.3-37.3-21-3-3.4-5.3-6.8-6.7-9.7-.5-.7-1-1.4-1.2-2 11.2 8.5 31 17 57 19m-23-42l16.8 6.5c5 2.2 10 4.3 14 6.5 8.7 4.8 14.2 10 15.2 17.7.7 4 .4 15.3-4.8 22.5.4-2.6.7-5.2 0-8.8-1.7-9.4-8.2-14.6-15.8-18-4-1.7-8-3-12-4L76 113c-27-7.6-50-20-54.3-41.2-1.5-7-1.7-13.4-1.7-17.4 0-1.7 0-3 .2-4 8.6 23.8 32 34.6 54 43.2m138-5.4c-2 .2-4 .2-6 .2-4 0-8-.5-11.6-1.2-4.4-1-5.8-1.2-10-1.2-16.2 0-32 12-37.5 28.8-12 38-47.8 65.6-90 65.6-21.4 0-42.7-7.2-57.3-19.4-.2 2-.2 3-.2 4.6 0 5 0 9.8 2.2 15.5 3 8 10 15 20 15 19 0 30.4-8.5 50.3-11.8 5.7-1 10.2-1.7 19-1.7h15c30 0 55.4-19.4 64.7-46.5 6.5-20.4 23-37.4 47-45.8.3 0-.8-2.8-5.8-2zM85.6 187.7c-2.4 1.2-4.5 2.2-7.4 4-4 2.7-9 7.5-13.4 12.5-5 4.8-9.7 10-13.3 13.4-3.8 3.6-8.8 5.8-14.3 5.8-4.8 0-9-1.7-12.7-4.3-5.5-4.2-10.5-9.5-14.6-15.2 7.8 4.7 14.7 6.4 24 5 6-.7 11.5-4 16.8-7.2 3-1.7 5.5-3.4 8-5 2.7-1.7 5.4-3.4 8-4.6 7-3.3 11.7-4 19-4.3M64 227.5c3-2.7 5.5-6 7.4-9.4 2.2-3.5 4-7 5.5-10.7 3.2-7 6.6-13.6 12.3-17.2 2.2-1 4.8-1.8 7.4-2 2.2-.3 4.3-.3 6.5-.3-.7.5-1.2.7-1.7 1.2-1.2.6-2.4 1.6-3.6 2.8-3.2 3.3-5 9-6.5 15l-2 8.7c-.6 3-1.4 5.5-2.3 7.6-3.8 8.5-11.5 13.6-20.3 13.6-8 0-14.7-1.5-21.4-4.4 7.4.5 13.8-.2 18.6-4.7m115.5-73c8-2.4 15-1.2 21.7.2 3.6 1 7.2 1.7 10.8 2.2 3.8.3 8 .6 12.2 0 13-1.6 23.2-4.7 31.8-8.3 8-3.3 14.8-7.4 22.2-11.7-6.2 9-15.7 20-31.5 28.5-12 6.5-24.5 10.8-44 9.3-4.2-.2-7.3-1-10.2-2-2.8-.8-5.2-2-7.6-3.2-5-2.2-10.5-4.4-20.6-4-3 0-5 .4-7.6.8 7.4-6 13-9 22.7-12"/><path fill="#222" d="M143 228h-19.5v-35.2h9.2v27.7h12l-1.8 7.5m5.8 0h9.3v-35.2H149V228zm29.5 0H164v-35.2h15.6c5 0 9.2 2 9.2 8.6 0 3.2-1.3 6.5-5.2 7.8 3.5 1 6.5 3.7 6.5 8 0 6.3-3.7 10.8-11.7 10.8zm-1.8-27.8H173v6h3.6c2.2 0 3-1.4 3-3.2 0-1.8-1-2.8-3-2.8zm0 13.3H173v7h3.5c2.2 0 3.2-1.5 3.2-3.7 0-1.7-.5-3.3-3.3-3.3zm18 14.5v-35.2h20.3l-.6 7.4h-10.8v6h8.8v7h-8.8v7.3h12v7.5h-21m42.2 0l-3.7-10c-1.5-3.5-2.3-4-4.2-4v14h-9v-35.2h12c10.4 0 13.7 4.2 13.7 10 0 6-3.2 9.2-7.3 10 1.2.2 2.7 1.8 3.5 3.7 1.2 2.3 4.2 9 5.3 11.5h-10.4zm-5.3-27.8h-2.5v7.2h2.5c3 0 4.2-1.5 4.2-4 0-2.4-1.4-3.2-4.2-3.2zm40.3 27.8l-1.8-6.8h-8.3l-2 6.8h-9.4l11.4-35.2h9.4l10.6 35.2h-9.8zm-5-20.2c-.5-1.5-.7-3.6-.8-5 0 1.4-.3 3.3-1 5.7l-1.3 5.7h4.5l-1.5-6.4zm38.3 20.2h-19.5v-35.2h9.2v27.7h12l-1.8 7.5m-159 46.5c-2.2 2.6-5 4.2-9.7 4.2h-12.8v-35.2H136c2.4 0 5.5.2 8.3 2.2 4 2.7 5.8 7.6 5.8 14.8 0 5.4-.8 10.2-4 14zM135.4 251h-2.8V271h3c2.6 0 4.6-1.3 4.6-11 0-8.2-2-9.3-4.7-9.3zm18.6 27.7v-35.2h20.3l-.6 7.4H163v5.8h8.7v7.2H163v7.2h12v7.5h-21m54.4 0l-.8-14.2c-.2-2.2-.3-4-.3-7-.4 3-.7 4.7-1.3 6.6l-4.2 14.7H194l-3.6-14.2c-.5-2-1-4-1.2-7 0 3 0 5-.2 7.2l-.7 14h-9l3.3-35.2h11l3.5 14c.6 2 1 3.8 1.3 6.6.3-2.6.6-4.3 1.4-7l3.6-13.5H214l3.2 35.2h-8.8m27.2 1.2c-10.2 0-16-6.8-16-17.4 0-12.5 7-19 16.3-19 11.8 0 15.3 9 15.3 16.8 0 10-3.2 19.5-15.7 19.5zm0-29.4c-4 0-5.8 4.3-5.8 11 0 9 2.2 11.2 6 11.2 3.7 0 5.4-2.3 5.4-11.3 0-8.8-1.7-11-5.6-11zm35 29.3c-4.2 0-8.2-1.4-11.4-5-2.8-3-4-7.6-4-12.6 0-4.4.7-7.7 2.4-11 3-5.4 8-8 14.2-8 3.6 0 7.4 1 9 2.7l-3.8 6.7c-1.6-1.2-3.4-1.8-5.3-1.8-1.6 0-3 .3-4 1.2-1.6 1.8-2.2 3.6-2.2 7.8 0 5.8.2 8.6 1.7 10.3 1.2 1.3 2.6 2.2 4.5 2.2 2.3 0 4-.6 6-2.3l4 6c-2.3 2.2-6 3.7-11 3.7m31.7-1.3l-3.7-9.8c-1.4-3.8-2.2-4.2-4-4.2v14h-9.2v-35.3h12c10.5 0 13.8 4.2 13.8 10 0 6-3.2 9.2-7.3 10 1.2.3 2.7 2 3.5 3.7l5.3 11.5h-10.4zM297 251h-2.4v7h2.5c3.2 0 4.3-1.4 4.3-3.7 0-2.6-1.4-3.4-4.2-3.4zm40.5 27.7l-2-6.8h-8.2l-2 6.7H316l11.2-35.2h9.4l10.6 35.2h-9.7zm-5.2-20c-.3-1.7-.6-3.8-.6-5 0 1.2-.4 3-1 5.5l-1.4 5.8h4.5l-1.5-6.4zm39.5-7.7h-8.2v27.7h-9V251h-8.3v-7.5h26.5l-1 7.5m12.8 29c-5.3 0-9.4-1.4-13-3.3l3.2-7c2.5 1.4 6.3 2.8 10 2.8 3.4 0 4.8-1.3 4.8-3.2 0-1.6-1-2.3-3.5-3l-4-1c-5-1.3-8.6-4-8.6-10.2 0-7 5.7-11.5 13.6-11.5 5 0 9.4 1.2 12.6 3.4l-4.4 6.3c-2.3-1.5-5.5-2.4-8-2.4-2.2 0-3.5 1-3.5 2.4 0 1.2.8 2.3 3.5 3l3.5 1c3.8.8 9.3 2.6 9.3 9.6 0 8.5-6.3 13-15.4 13"/></svg>
