<svg xmlns="http://www.w3.org/2000/svg" width="1440" height="720" viewBox="0 0 1440 720">
  <style>
    path, polygon, rect {
      fill: #ccc;
      opacity: 0.5;
    }
    text {
      fill: #333;
      font-family: sans-serif;
      font-size: 1.75rem
    }
  </style>
  <text x="1100" y="710">Containers</text>
  <path d="M1100 510v80h108v-80h-108zm113 0v80h108v-80h-108zm114 0v80h108v-80h-108zm-227 85v60h80v-60h-80zm85 0v60h80v-60h-80zm85 0v60h80v-60h-80zm85 0v60h80v-60h-80zm-255-300v120h250V295h-250zm255 0v120h80V295h-80zm-255 125v60h80v-60h-80zm85 0v60h80v-60h-80zm85 0v60h80v-60h-80zm85 0v60h80v-60h-80zM1100 80v120h335V80h-335zm0 125v60h80v-60h-80zm85 0v60h80v-60h-80zm85 0v60h80v-60h-80zm85 0v60h80v-60h-80z"/>
  <text x="500" y="710">Slices</text>
  <path d="M500 595v60h80v-60h-80zm85 0v60h80v-60h-80zm85 0v60h80v-60h-80zm85 0v60h80v-60h-80zM500 485v80h108v-80H500zm113 0v80h108v-80H613zm114 0v80h108v-80H727zM500 335v120h165V335H500zm170 0v120h165V335H670zM500 185v120h250V185H500zm255 0v120h80V185h-80zM500 35h335v120H500z"/>
  <text x="5" y="710">Items</text>
  <path d="M5 535h165v120H5zm0-110h108v80H5zm0-90h80v60H5z"/>
</svg>
