<svg xmlns="http://www.w3.org/2000/svg" width="100%" viewBox="0 0 885 333">
  <style>
    #trademark {
      fill: #3c4063;
    }
    #wordmark {
      fill: url(#a);
    }
    @media (prefers-color-scheme: dark) {
      #trademark,
      #wordmark {
        fill: #fff;
      }
    }
  </style>
  <defs>
    <linearGradient id="a" x1="50%" x2="50%" y1="10%" y2="75%">
      <stop stop-color="#3c4063" offset="0%"/>
      <stop stop-color="#0a0b0c" offset="100%"/>
    </linearGradient>
    <linearGradient id="b" x1="50%" x2="50%" y1="0%" y2="100%">
      <stop stop-color="#fc0" offset="0%"/>
      <stop stop-color="#f60" offset="75%"/>
    </linearGradient>
    <linearGradient id="c" x1="50%" x2="50%" y1="100%" y2="0%">
      <stop stop-color="#f06" offset="0%"/>
      <stop stop-color="#f06" offset="25%"/>
      <stop stop-color="#f0c" offset="100%"/>
    </linearGradient>
    <linearGradient id="d" x1="50%" x2="50%" y1="0%" y2="100%">
      <stop stop-color="#3cf" offset="0%"/>
      <stop stop-color="#06f" offset="75%"/>
    </linearGradient>
  </defs>
  <path id="wordmark" d="M67.42 202.526h52.437l-26-68.647-26.385 68.64h-.052zm121.41 71.79h-39.78l-.337-.835-16.56-40.63H55.42l-16.047 40.62-.334.85H0l.813-1.87 71.97-165.44c.308-.68 7.54-16.59 20.94-16.59h15.94l.345.81 78.07 181.24.8 1.87-.048-.016zm71.67-98.302c-22.578 0-34.756 18.304-34.756 35.53 0 17.222 12.17 35.527 34.75 35.527s34.76-18.3 34.76-35.52c0-17.22-12.18-35.53-34.76-35.53h.006zm-51.074 156.66h-16.04v-183.9h31.85v16.116c8.85-12.24 23.73-19.184 41.42-19.184 37.09 0 62 26.458 62 65.838 0 38.154-25.53 65.842-60.72 65.842-17.19 0-31.02-5.812-41.16-17.29v55.234c0 .176-.2 17.345-17.34 17.345h-.01zM397 277.388c-34.573 0-41.524-17.16-41.524-44.852v-54.98h-25.34v-28.783h25.34v-33.88h33.388v33.88h33.79v28.78h-33.79v52.42c0 13.41 4.437 18.63 15.817 18.63 5.06 0 12.25-.94 15.85-3.58l2.13-1.56v29.33l-.76.36c-6.5 3.113-17.13 4.23-24.89 4.23l-.01.005zm85.78 0c-28.888 0-46.132-18.585-46.132-49.715v-78.89h33.39v63.54c0 17.19 2.515 34.76 21.187 34.76 16.8 0 26.83-11.17 26.83-29.89V148.79h33.39v125.53h-31.86v-16.56c-7.442 12.7-20.35 19.633-36.8 19.633l-.005-.004zm98.72-3.07h-16.07v-125.54h33.39v16.427c7.412-12.29 20.397-19.502 35.527-19.502 4.36 0 8.368.985 11.37 1.85l.968.27v32.407l-1.656-.413c-5.46-1.364-10.02-2.265-14.53-2.265-31.33 0-31.69 29.347-31.69 29.64v49.803c0 .174-.2 17.322-17.32 17.322h.0zm101.58-76.398h60.048c-.79-16.623-11.863-26.505-29.85-26.505-16.275 0-27.47 9.872-30.197 26.506zm62.764 76.397h-28.216c-40.123 0-68.144-25.812-68.144-62.768 0-38.16 28.66-65.85 68.144-65.85 36.348 0 58.93 26.11 58.93 68.14v9.78H683.06c2.323 14.92 13.72 23.44 31.495 23.44h13.99c17.098 0 17.3 17.12 17.3 17.29v9.96z"/>
  <path id="trademark" d="M758 264.437h-3.647v-1.44h8.826v1.44h-3.64v9.882h-1.53v-9.89m6.41-1.44h2.29l3.6 8.6h.06l3.6-8.6h2.3v11.3h-1.5V265h-.0l-3.8 9.3h-1L766 265h-.0v9.3h-1.5v-11.3"/>
  <rect fill="url(#b)" x="740" y="72" width="48" height="48" rx="9"/>
  <rect fill="url(#c)" x="800" y="96" width="60" height="60" rx="12"/>
  <rect fill="url(#d)" x="800" y="0" width="84" height="84" rx="15"/>
</svg>
