<svg xmlns="http://www.w3.org/2000/svg" width="300" height="260">
  <defs>
    <g id="a">
      <path fill="#ea1f29" d="M6.3 11L4.7 8.7c-.4.2-1.2.3-2.5 0-.6.4-2.4 2-1.3 4.4 1 2.8 3.7 3 4.4 3l.2-.5c.3-1 .8-1.5 1.2-1.8 0-.8-.3-2-.5-2.6zM4.8 7.8c.5-.4 1.4-1.2 2.3-1.7 1-.6 2.2-1 3-1.3-.3-.4-.4-1.3-.6-2.6V2C9 1.2 6.4-.6 4 1.5 1.4 3.5 2.4 6.2 2.8 7l2 .7zm9.6 5.4c-1 0-2.3 0-3.4.3-1.3.3-3 1-3.7 1.4L6.8 16l-.3.5c.4.5 2.2 2.4 5.2 2C15 18 16 15.7 16 15.2V15l-1.4-2zm4-6.3L18 7l-2.2.8c-.2.5-.4 1.3-.4 2 0 1 0 2 .2 2.5.4.3 1 .8 1.5 1.6l.4.6c1 0 3.2-.2 3.7-3.4.6-3.6-1.8-4.4-2.3-4.5zm-5.3-1c1 .6 2 1 2.4 1l1.6-.6 1-.2c0-.4.7-4-2.4-5.5-2.3-1-4 0-5 1v.5c.3 1 .2 2 0 2.6.3.2 1.3 1 2.3 1.4z"/>
      <path fill="#1c5329" d="M6.8 13.7c-.4.3-1 1-1.2 1.8l-.2.5C5 17.2 5 18.2 5 18.2l1.5-1.7.3-.4.7-1.3v-1h-.7zm-2-6L3 7h-.2c-1.7-.2-2.8.2-2.8.2s.4.8 2.4 1.3c1.3.4 2 .3 2.5 0L5 8v-.3zM11 1.2C10.8 0 10.2 0 10.2 0s-.5.2-.5 1.8V2c.2 1.4.3 2.3.6 2.7l.4.2.3-.5c.2-.6.3-1.6 0-2.7v-.6zm7.3 4.6l-1 .3-1.6.7-.7.8.6.3c.5 0 1.3-.4 2.2-.7l1-.3 1.5-1h-2zM17 14c-.7-1-1.2-1.4-1.6-1.7L15 12h-.5v1.1l1.4 2v.2h.3c.8 1 1.5 1 1.5 1s0-.7-.5-1.6L17 14z"/><path fill="#F2BB0E" d="M12.7 8.6c.3 1-.6 2.2-2 2.5-1.3.5-2.7 0-3-1.2-.2-1 .6-2.2 2-2.5 1.4-.4 2.7.2 3 1.3"/>
    </g>
  </defs>
  <g transform="translate(40 0)">
    <path fill="#fff" d="M111 260.8c-35.3-9.6-64.5-25.4-83.2-46.6C10 194 1 168.8 1 140.2V1h220v139.3c0 28.5-9 53.7-26.8 74-18.7 21-48 37-83.2 46.5"/>
    <path fill="#2b57ac" d="M209.6 140.3c0 53-34.3 90.6-98.6 108.4-64.3-17.8-98.3-55.3-98.3-108.4V12.6h197v127.7zM7.2 7.3v133c0 27.2 8.5 50.7 25.3 69.8 17.6 20 44 35 78.5 44.3 34.5-9.3 61-24.2 78.5-44.2 16.8-19 25.3-42.5 25.3-69.7V7.3H7.2z"/>
    <path fill="#ea1f29" d="M40.3 197H40c-2 .2-2.4 1.6-2.7 2.4 0 0 1.2-1 3-.5l1.3.2.7-1.4-.6-.6-1.4-.3zm-1-7l1 .5 1.2-1.2-.4-.8H41l-1.3-.6c-2-.3-2.8 1-3.2 1.6 0 0 1.4-.7 3 .3zm10.2-2.7l-.5-1c-1.2-1.4-2.7-1-3.6-1 0 0 1.7.6 2 2.5l.5 1h1.5l.2-1-.2-.5zm16-20s.7 1.4-.6 2.8v.2l-.7 1 1 1.2 1-.4.5-1 .2-.4c.4-2-.8-3-1.4-3.4zm-6.4-5s1 1 .6 2.7v.4l-.4 1.2 1.4.7.7-.6.2-1.5c-.2-2-1.7-2.6-2.4-3zm-5.6 5.4l-.7-.4c-1.8-.7-3 .2-3.6.7 0 0 1.7-.3 3 1.2l.8 1 1.4-1-.2-1-.6-.5zm91.7 43.5h-.5c-1.7.4-2 1.7-2.4 2.4 0 0 1.2-1 2.8-.5l1.2.3.6-1.3-.6-.6-1-.2zm.5 5l-.7.3-.6.4c-1.4 1-1.2 2.3-1 3 0 0 .4-1.4 2.2-1.6l1-.4v-1.4l-1-.3zm4.7 3.4l-.8.3-.5 1-.2.2c-.3 1.8.8 2.6 1.4 3 0 0-.6-1.2.4-2.5v-.2l.6-1-1-1zm-28.5-9l-.8.3-.5.5-.2.7c-.3 1.7.8 2.6 1.4 3 0 0-.5-1.2.3-2.4l.2-.3.5-1-1-1zm-5-4.7h-.3c-1.6 1-1.5 2.3-1.5 3 0 0 .4-1 1.8-1.3h.5l1-.3.2-1.4-.7-.4-1 .3zm3.6-5.5l-.8-.5h-.5c-1.8-.5-2.7.5-3 1 0 0 1-.4 2.4.5l.2.2 1 .6 1-1-.3-.8z"/>
    <path fill="#2b57ac" d="M174.2 182.6s3-4-7.3-8.2c-7.6-3-18-2.4-24.6-3.3-5.6-.7-6.2-2-6-3.3.8-3 6-1 9.2.6 3.5 2 9.7 2.5 14.2-1.7 1.7-1.5 4-2 4-2s-2.8-1.7-5-.2c-1 .6-1.6 1.3-3.4 1.4-3.3.2-4-.8-4-.8s1.8 1 5.8-1c5.3-2.6 2.2-8.6 2.2-8.6s.3 2.2-2 3.6c-3 2-5.6.2-5.6.2s1.2.6 3 0c2.3-1 3-2.2 2.3-3.8-.2-.6-1.3-1.4-1.3-1.4s2.5 3.3-7.5 2.6c-5-.3-6.8 4.8-6.8 4.8s-2.4-.6-4 0c0-.8 0-2.2-.4-3-.5 2.7-2.5 4.4-3.5 5.5-1 1-3 4-.4 7.4 2.6 3 7.2 3.4 10 3.6 4.3.3 11.4.7 17.6 1.5 8.4 1.2 7 5.2 6 6.5-1 1.3-3 1.4-9-.7-6-2-12-5.7-24.2-5.2-17 .7-29 13-35 12.4 0 0 .2 1.5 0 2.5-.4 4.2-4.3 6.5-4.3 6.5l-.5-.8c-.4 0 0 1-1.4 2-1.2 1-2 2-2.4 4 0 0-.7-1.4-1 0-.6 1.4-1.4 1.5-2 1.7l-.3-.8c-.5 0-.7 3.4-6.6 3h-.5c-4.3.7-5-3.6-6.6-5-1-1-2.2.7-2.2.7s-.8-.8-.7-2.5c0-1.7.4-2.3-.3-3.5-.5-1-2.8-2.8-2-6-1 0-3-1-3.8-7l.7.2c-.2-1-1-1.3-1-2.4-.4-1.4-.6-4.4.3-5.5 1.3-1.6 5-2.2 3.2-5.4l-.6 1-.8.4-1-1.2.5-1c-.7 0-1.3 0-1.6.2 0-.7 1.2-4.3-2-5.2v1.5l-.7.6-1.5-.7.3-1.2v-.4c-3 .3-2.3 4.2-2.2 4.8 0-1-2-3.3-3.7-2.2h-.2l.6.7.2 1-1.4.8-1-.7c-.6.7-.5 2.2 1.2 3.4 2.5 2 3.3 9.6 3 10.6-.6 1.3-2-.6-2-.6s0 1.7 1 3.5c2.3 3.2 3 4.6 1.4 4l-1-.6s0 1.6 2 3.2c.8.7.7 1 0 1-.5 0-1-.5-1-.5s.5 1.4 1.5 2.8c1.7 2.4 3.2 3.4 3.2 3.4s-2-.2-4.7-1.8c-4.2-2.4-2.4-4-3.6-7-1.3-2.7-2-3.2-3.3-3.4v.7l-.2.7-1.6.2-.5-1.2c-1.2.6-1.2 1.8-1 2.4-1-1-2.4-2-3.4-2.3-.6-.2-1.3 0-2 .3h-.2l.3.2.5.8-1 1.2-1-.5H39c-.7 1.2-.5 3.7 3.8 5 0 0-2 .4-2.7 2l1.4.2.6.6-.7 1.4-1.2-.2h-.2c.5 2 2.2 2.4 3.7 2.4 6.3 0 11.3 3 11.3 3s-1.4 0-2.2 1c-.7 1-.5 1.7-.5 1.7s.6-.4 2.2-.7c1.7-.3 2 .3 2 .3s-2.4 1-1.5 3.5c0 0 1-1 2.6-1.5 1.2-.4 2.7-.4 3.3.5 1 1-2.5 2.3-2.5 2.3 2.4 1.4 7.6.7 7.6.7s-3.6.7-3.5 3c0 0 2.2-1.7 6.7 0 6.7 2.7 15 4 25.8-.5 13.6-5.5 14-17.3 33-23.5.5 1 4.8 5 10 7 4.4 1.5 10.5 2.5 12.3 3 2.7.6 7.4 1.6 4.6 6.8-1.4 2.4-2.7 3-3.8 4l-3.7-1.2c-1.2-.4-2-.2-2.4.6l1 .2.6.6-.6 1.3-1-.2h-.2c.2 1.5 1.4 1.7 1.4 1.7s-1.4.5-1.4 1.8h1.5v1.5l-1 .4h.2c.8 1 3.2.3 3.2.3s-.5 1.3.2 2.2l.4-1 .8-.4 1 1-.5 1h.3c1.2 0 2.8-1 3.6-3.7 1-3 2-3.6 2-3.6s2.4-2.3 1.4 1.8c2.4-.6 2-3.3 2-3.3l2.7.3c.8-.6 0-2.5 1-4 1-1.4 1.6.4 1.2 1.6 0 0 1.4-.6 1.5-2.5 0-1.3-.5-2.7.7-3.8 1-.7 1 .4 1 1.4 0 0 1 0 1.2-2 0-1-.2-1.5.2-1.7l.7 1s1-2.3-1-3.7c-3.6-2.3-12.7-.7-18-9.2-2-3-.6-4.6-.6-4.6s9.7 4.6 14.8 3.8c6.3-1 6.4-4.3 6.4-4.3s1 .2 0 2.3c0 0 1-.3 1.6-1.8 1-3-1-5-1-5 1.5 0 1.6 1.8 1.6 1.8zM146.5 202c-11-2-13.2-3.5-17.7-7.8-.4.2-2.2 3.3 2.5 7.8 1.8 1.7 3.6 2.3 3.6 2.3s-3.3-.6-7.4-.2c-2-.4-3.4-3-6-4-.8-.2-1.5-.2-2 0l.6.5.4.8-1 1-1-.6-.2-.2c-.2.7 0 1.6 1 2.4-1.3 0-2.4.5-2.7 2l1-.4.8.4v1.4l-1.2.2h-.5v.2c1 2.5 4.6.7 4.6.7s-2 1.4-1 3l.5-.6.7-.5 1 1-.5 1-.2.3c2.6 1 4.7-3 4.7-3 0 2.8 2 3.4 2 3.4s-.2-1.2 1-2c1.3-1 3.3-.6 3.4-.6-.2 1.4.3 2 1 2.3.3-3 6-3.2 6-3.2.3 1 1.6 1.5 1.6 1.5s0-1.6 1-2.5c1.4-1 3.4-1 5.5-2.2 2.7-1.4 2-4-1.5-4.6zm-80.2-20c.6 5 3.3 2.4 3.3 2.4-.5 3.3-3.4 1.5-3.4 1.5.8 5 3 3.3 3 3.3-1 4.2.6 5.3 1.2 6 .7 1 1 1.6.8 3.4-.3 1.6-.2 2.2-.2 2.2s1.3-1.4 2.2-.4c1.4 1.5 2.3 6 5.5 5.4 0 0-.4-2 .3-2l1 1.7c.8.2 3.2.5 4.6-1.2.8-1 1-2.5 1.8-2.5.7 0 .7 1.3.7 1.3.7-.3.8-.7 1-2 .4-1.8 1.3 0 1.3 0 .2-1.2 1-2.4 2-3.2 1.6-.8 1.2-3.5 2-4 1-1 1.3 2 1.3 2s3.3-2.6 2-7c-.4-2-1-3.6-.3-3.8.6 0 .5 1.8 1.8 2.5 1 .6 2.4-.2 2.4-.2-1.7-2-1.4-5-1.2-7 .5-4-2.2-3.7-2.2-3.7s1-.7 1.4-2.2c.7-2.4-.8-5.6-.8-5.6s-1.5 2.7-3.2.8c0 0 1-1 .8-3.5-.2.7-5.7 5-7.3-2.6-3.2.7-3 3.7-5 3.5-1 0-2-1-1-3 0 0-3 .2-3.4 3.2-.5 3.6-2.3-1.2-4.7-1 0 0-2 1.8-1.8 6-2 0-3 1.7-3.3 4.4-.7 7.7-2.8 5.2-2.7 5.3zm19 0c.6-1.5 2-1.5 2-1.5v.8c0 .7.6 1.2 1.3 1.2.7 0 1.2-.7 1-1.4v-.4H92v.2c-.2.3-1 2.3-3 2.5h-.2c-1.3 0-2.5-.8-2.5-.8s-.2 0-.4 1.5c-.2 1.2-1 1.2-1 1.2s0-1.8.3-3zm-3 4.8c1.5.2 2.8-.4 2.8-.4s.4 1-.8 1.2c-.6 0-1.5 0-1.7 1-.3 2.5 3.5 2 4.6 1.8l1.5-.3c-.8 1.2-2.2 1.4-3.6 2.6-1.6 1.3-1.3 3.3-1.7 4.7-.4 1.6-2 2.5-3.6 2-1.4 0-2.8-1-3-2.5 0-1.8 3-4 1-6.2-1.5-1.8-1.4-2.7-1.4-2.7s.4.5 1.4 1c.3.2 3.3 1.6 4-.7l-.8-1.2-.8-.4v-1s.7 1 2.2 1.2zm-6.4-9.2v-.2l2.2 1-.4.4c-.3.7 0 1.4.5 1.8l1.8-.6.2-.8s1.4.5 1.3 2.3c0 1.3-1 3-1 3s-.7-.4-.3-1.6c.4-1.5.2-1.5.2-1.5s-1.5.3-2.6-.3c-1.8-1.2-1.8-3.3-1.8-3.6v.2-.2z"/>
    <path fill="#ea1f29" d="M79.4 198.5c3.3.8 3.3-2.6 3.3-3.2.3-3.5 2.6-3.8 3-4-1 0-3.3 0-4-1.3-.8.4-2 .6-3.6 0l1 1.4c.3 1 0 2-.3 2.7-.3.8-2.3 3.7.7 4.5M123 140l-.4-.7-.8-.5-.6-.2c-2-.4-3 .8-3.4 1.5 0 0 1.4-.5 2.7.4l.3.2 1 .6 1.2-1zm-5.4 6.2l-.5.3c-1.5 1-1.4 2.6-1.3 3.4 0 0 .6-1.5 2.3-1.8h.3l1-.4v-1.5l-.7-.4-1 .2zm6 5.4l-1 .2-.5.7-.2.6c-.7 2 .3 3 .8 3.7 0 0-.3-1.5 1-2.7v-.2l1-1-1-1.2zm-49.6-20c3.6 1.4 4-2.5 4-3.2.7-4 3.4-4 4-4.4-1.4.2-4 0-4.6-1.7-1 .4-2.4.6-4-.3l.8 1.7c.2 1-.2 2-.6 3-.5.8-3 4 .4 5"/>
    <path fill="#2b57ac" d="M132.6 132.4s-3 5 9 10.3c0 0-4-.7-6.3-.8-2.6-.2-5.5.3-5.5.3s-3-2.8-5.2-3.6c-.7-.2-1.8-.5-2.8 0l.8.6.4.8-1 1.2-1.2-.6-.3-.2c-.5 1.4.4 2.4 1 2.8-3 .7-4 1.4-4 3l1-.3 1 .3v1.5l-1.2.3-.3.2c.7 1 2 1.7 4 1l1-.4s-1.6 2-1 3.7l.7-.7 1-.2.8 1.3-.8.8-.2.2.8.3c1.7.5 3-1 4.2-2.3 2.3-2.8 4.6-2 4.6-2-1.5 1.6 0 3.4 0 3.4s1.3-3 3.3-2c-.4 1.7 1.4 2.7 1.4 2.7s1-2.8 2.5-2.8c2 0 1 2.8 1 2.8s1 0 2.5-1.7c1-1 2-2.2 4-2 0 .3.4 2.3 2.3 3.2 0-7 9.8-8 11.4-8.2 4.7-1 4.2-4.5 4.2-4.5-26.3-1-33-8.4-33-8.4zM64.2 116c-.4 1.8-3.3-.5-3.3-.5 0 3.8 1.7 4 2.4 6.4.6 2-.6 3.2.4 6.2 1 3.2.3 4.4.3 4.4 2.2 0 3.6-1.5 3.6-1.5-.4 4 1.5 6 1.5 6s1.3-2.5 1.8-.8c1.3 4.4 3.5 6 3.5 6s2 0 5.5-3.8c2.5-2.6 1.4.7 1.4.7s1.7.3 5.3-6.3c1-2 3-3.3 3.7 0 4-4.3 2.7-9 2.7-10.7 0-1.5.6-1.6.7-1 .4 4 4.6 2.7 4.6 2.7s-1.7-1.7 0-8c1-3-.8-6-.8-6l1-1.8c1-2.7-.2-7.6-.2-7.6s-2.2 3.4-4 1.6c-1.8-1.8 0-4.5 0-4.5-2-.7-4 2.2-6.5.8-1.8-1 .3-4.4.3-4.4s-2.3 0-4.2.8c-1.8 1-2.7 1.6-4 1.6-1.7 0-1-3-1-3s-2.2 0-3.4 2c-1.2 2.3-2.6 2.8-2.6 2.8-.6-1-1.8-1-2.8-1.2-1-.3-1.8-.8-1.8-.8s-2 3.8-1 7c-1.5.3-2 2-2 2.7-1.8 6-4.4 3.4-4.4 3.6.5 5.4 3.7 5.3 3.4 6.5zm18-2.3c.8-1.8 2.5-1.6 2.5-1.6l-.3 1c0 .8.7 1.4 1.5 1.4.7 0 1.4-.6 1.4-1.4l-.2-.7 2.6.2h.2v.2h-.2c0 .4-1.3 2.5-3.6 2.6-1.5 0-3-1-3-1s0 0-.4 1.5c-.3 1.4-1 1.4-1 1.4s-.2-2 .4-3.5zM72 108v-.5l2.4 1.3-.4.5c-.5.7-.2 1.6.4 2 .7.4 1.6.2 2-.5l.2-1s1.6 1 1.3 2.8c-.3 1.5-1.5 3.2-1.5 3.2s-.7-.4-.2-1.7c.6-1.5.4-1.5.4-1.5s-1.7.2-3-.6c-2-1.4-1.8-3.8-1.8-4zm.8 14.6c-1.5-2.2-1.4-3-1.4-3s.4.5 1.5 1.2c.3.2 3.5 2 4.4-.4.2-.7-.3-1-.7-1.4l-.7-.7V117s1 1.3 2.4 1.7c1.7.4 3.2-.2 3.2-.2s.3 1.2-1 1.3c-.8 0-2 0-2 .8-.8 3 3.6 2.7 5 2.6 1 0 1.5-.2 1.5-.2-1 1.2-2.5 1.3-4.2 2.5-2 1.4-1.7 3.7-2.2 5.2-.7 2-2.4 2.7-4.3 2-1.6-.3-3-1.4-3-3 0-2 3.4-4.5 1.5-7zm124 15.3s.2-4-2.5-5c-3.5-1.2-8.2.5-17.3-.3-22.2-2-19.5-10-19.5-10s14 6 20 3.2c3.2-1.7 3-4.6 3-4.6 1 1 0 3.2 0 3.2s5.6-4.2-1.2-10.7c-2.5-2.5-7-4.3-10.4-4.7-10-1.3-13.6-.8-20.5-1.7-5.8-.8-7-3-6.8-4.5 1-4.6 11.6 2 17.5-.5 1.6-.7 3-1.8 4.3-2 1.4-.4 3 0 3 0s-1.5-2.5-6-1.5c-3.8.7-4-.5-4-.5s1.6 0 4-1.2c1.4-.8 1.8-2.7 3.4-3.4 1.8-1 3.8-.2 3.8-.2s-2.5-4.3-7.5-1.8c-3.3 2.2-4.6.6-4.6.6l4-2.8c1.3-2.5 3-3 3-3s-2.6-1-4.7 1c-1.4 1.3-3.4 1.7-7 1.6-4.3 0-6 5.2-6 5.2s-1.8 0-3.3 1c-1.3.5-2.8 2-2.8 2l.5-1.7s-3.3 1.5-3.4 6.5c0 8.4 9 9 12 9.3 4.5.4 13 .6 19.5 1.5 8.8 1.2 9 5.3 8 7.2-1.4 2-5 1-11-1.2-6.2-2-11.4-5.6-23.8-5.2-19.5.7-40 14.6-46 11 .2 2.3-.3 7-5.4 11-.2-3.4-1.3-3-2.5-.8-3.2 6-6.6 6.4-6.6 6.4s.6-2-1.6 0-4.8 2.2-4.8 2.2-3-2.2-3.8-5.7l-.6 1.2c-2.6-1.2-3.2-5.4-3.2-5.4s-1.3.8-4 .4c0 0 1.5-1.8-.3-6.4-3.7 0-18-2.4-19.6-9.7-.7-2.7-1.5-4-3.2-4l.3.4v1l-1.4.7-.8-1-.2-.3c-1.4 1-1 3.4-1 3.4-1.6-1.2-4.8-3.5-6.8-2l1 .5.4 1c0 .6-.6 1.2-1.3 1.2L28 118l-.4-.3c-1.7 2.7 3.8 5.7 3.8 5.7-2 0-5 1.5-5 3.4l1-.3.8.3.2 1.6-1.2.5H27c.5 1 1.5 1.8 4.2 1 6.4-1.8 11-.6 11-.6s-.3 2.2-3.3 1.6c-.2 0 1 1.7 3.7 1.7 3.5 0 5.3-1.4 5.4-1.4 0 0 .3.8-.7 1.3-2 1-.7 3.3-.7 3.3 1-2.6 3.2-1.6 3.2-1.6-.4.5-1 2 .4 3 0 0 0-1.4 2.4-2 1.6-.3 3 .2 3 .2s-1.4 2 .3 4c0 0 .5-3 2.7-2 1 .3.8 1.3.5 1.7l-1.4.7c3.4 1.6 4.2-1 6.8 1.4-3.3 1.5-7.5 1.8-11.3 1.6-8-.7-9.7-2.3-11.6-4-2.6-2.5-4.6-2.7-5.8-2.3l.3.3.4 1c0 .6-.5 1.2-1.2 1.2l-1.2-.7-.3-.2c-.7 1.2.6 2.3 1 3l-1.5-.4c-1.7-.5-3.2 0-3.6 1.4h1.3l.8.8-.5 1.7-1.4-.2h-.4c.5 2 3 2.4 5 2.4-1 .6-2 1.4-1.7 2.7l.8-.6h1l.4 1.5-1 .6h-.4c1.6 1.8 5.4-.4 6.5-1 3-1.7 5.6-1.4 7-.6 3 1.4-1 2.5-1 2.5 1 .8 2.6.4 3.5 0 1-.4 1.7-1 2-.4.3.4.2 1-.4 1.7l-1.2.5c3.5 1.4 6.8-2 6.8-2s.3.6 0 1.4c-.6 1.4-2 2-2 2 4 1 6-3.5 6-3.5s1.7 1.5-.5 3.5c3 0 3.5-2.5 5-1.5 1 .6.5 2-.8 2.2 3.6 1.2 3.3-2 7.6-1.3 6 1 13.3 1.8 24-2.4 16.8-6.4 18.5-21 36.8-23 0 0 1.6 3 14.2 6.5 13.2 3.6 33.6 1 32.7 7.2-.6 3.2-9.7-1.4-10.8 1.8v.2h1l.7.4-.4 1.6h-1.4c.4.7 1 1 2 1.2-1.2.6-2 1-2 2.5v.3l.7-.4h.8l.5 1.4-1 .7v.2c.6.6 1.5 1 2.4.6 1-.3 1.4-.6 1.6-1-.3.7-1 2-.6 2.8l.5 1 .4-1.2.8-.4 1.2 1-.4 1v.2c2.2 0 4.3-3 4.7-5.8.4-3.4 1.5-3 1.5-3l.7 1.4 1.3.7c0-2.4 1.7-3 2.4-2.4.7.7 0 2 0 2s1.2.6 2.6-1.8c.8-1.3.8-3 1.7-3 1.3 0 .8 1.5.8 1.5 3-1.6 1.2-6.2 2.3-6.8 1-.3.5 1.4.5 1.4s2-1 1.4-3c-.8-3 .6-.5.6-.5z"/>
    <path fill="#ea1f29" d="M27.3 126.5l-1 .3-.6.4c-1.6 1.3-1.3 2.8-1 3.7 0 0 .4-1.7 2.2-2h.2l1.2-.6-.2-1.6-1-.3zm2-10.6l-.8-.3c-2.2-.4-3.3 1-3.8 1.7 0 0 1.4-.6 3 .3l.4.4 1.3.7c.7 0 1.3-.6 1.3-1.3l-.4-1-1-.5zm10.2-1.6l-.3-.5-1-.8c-1.7-1-3-.2-3.8.2 0 0 1.5 0 2.6 1.3l.2.4 1 1 1.4-.6v-1zm-5.7 35l-1 .5-.3.3c-1.2 1.5-.6 3-.3 3.7 0 0 0-1.5 1.6-2.3h.4l1-.8-.5-1.6h-1zm2.5-12.4l-.4-.3-1.4-.5c-2-.4-3.2 1-3.8 1.7 0 0 1.6-.8 3.2.3l.3.2 1.2.7c.7 0 1.2-.6 1.2-1.3l-.4-1zm-4.2 6.2l-.7-.7h-2c-2 .6-2.5 2.3-2.7 3.2 0 0 1-1.2 3-1h.4l1.5.2c.6-.4 1-1.2.6-1.8zm137.2 4h1.4l.3-1.6-.8-.5-1 .2h-.6c-1.8.8-2 2.3-2 3 0 0 .8-1.2 2.6-1zm.7 3.7l-.7.3-.7.6c-1.2 1.4-.5 2.8-.2 3.5 0 0 0-1.6 1.8-2.3l1-.7-.4-1.5h-1zm5.4 4l-.8.4-.4 1v.6c-.2 2 1.2 2.7 1.8 3 0 0-.8-1.3 0-2.8l.2-.2.4-1-1.2-1zm-54.2-82l1 .8 1.2-1-.3-1-1.3-.7c-2-.4-3 .7-3.4 1.3 0 0 1.2-.4 2.5.5l.4.3zm-5.5 5.5c-1.8.6-2 2-2 3 0 0 .6-1 2-1.2h1.8l.6-1.4-.7-.7-1.6.2zm5 6.8l-.2.5-.2 1c0 2 1.4 2.7 2 3 0 0-.5-1-.2-2.2l.4-.8.4-1.2-1.3-1-.7.7zM73.3 66.6c3.7 1.2 4-2.7 4-3.4.6-4 3.3-4 3.8-4.5-1.3.2-3.8 0-4.5-1.6-1 .5-2.4.7-4 0l.8 1.5c.3 1 0 2-.5 3s-3 4 .4 5"/>
    <path fill="#ea1f29" d="M29.6 48.7l-1-.8c-2.2-1-3.5 0-4.3.6 0 0 2-.3 3.3 1.5l1 1c.6 0 1.3-.3 1.5-1v-1l-.4-.3zM27.2 59l-1.4.5-.2.2c-1.6 1.2-1.3 2.8-1.2 3.7 0 0 .5-1.4 2-2h.6l1.2-.5v-1.7l-1-.3zm12.3-12.7l-1-1c-1.5-1.4-3-.8-3.8-.5 0 0 1.7.2 2.4 2h.2L38 48l1.5-.4v-1.3zm-3 22.6l-.6-.7c-1.7-1.3-3-.7-4-.4 0 0 1.8 0 2.5 2v.3l.7.8 1.6-.3v-1l-.3-.8zM30 75l-1.4-.3h-.3c-2.2.4-2.8 2-3 3 0 0 1-1 2.8-.8h.7l1.4.3c.8-.3 1-1 1-1.7l-1-.7zm4 7.5l-1 .5-.5.3c-1.6 1.5-1.2 3.2-1 4 0 0 .5-1.8 2.7-2.3l1.2-.5-.2-1.8-1-.3z"/>
    <path fill="#2b57ac" d="M133.5 66.7s-3.8 6 5.7 9.7c0 0-1.8-.5-4-.6l-4-.3s-2-3-5.5-3.7c-1 0-2-.2-2.8 0l.4 1-1.2 1-1-.7-.4-.2c-.7.8-1 1.7-.5 3-3.2.3-4.3 1.3-4.6 2.7l1.6-.2.8.6-.4 1.4h-2c.5 1.7 2.5 3 5.8 1.5.8-.4-2 1-1 3.8l.4-.5.7-.6 1.3 1-.4 1-.3 1c3 1 5.8-2.3 6.2-3.8 0 0 .3 2 1.5 2.8 0 0 .2-1 .8-1.6 1.3-1.3 1 .2 1 .2 0 2.5 1.6 3 1.6 3s0-3 2-3.4c1 3 4.2-1.5 4-.2-1 3 .5 4 .5 4s.2-3.7 7.5-4c0 .3.2 2.3 2 3.3.5-7 10.4-7 12-7.2 4.8-.8 3-5 3-5-23-.8-30.5-9-30.5-9zm-75-14.3c1.4 5.5 4.7 3.2 4.7 3.2-2.4 4-.6 7.2.7 10.3C65 68.7 65 71 65 71s1.6-.8 2.4-.8c1.2 0 .8 1.3 1 3 0 2.2.8 3 .8 3l.6-1c.6-1 1-1 1-1s-.4 3 1.5 4.4c0 0 2.6-4 4-3.6 1 .2 1.7 2.6 1.7 2.6 7.7-5 8.7-15.5 10-11.8.5 1 .6 2 .6 2s4.6-3 4.2-13.3c0 0 .8 1 2.2 1.3 1.5.4 2.3 0 2.3 0s-2-2.8-.7-9c.8-4-2-4-2-4s1-.8 1.6-2.4c1-2.8-.7-6.5-.7-6.5s-1 3-4 1.5c0 0 1.5-1.7.3-5-.3.7-1 1.5-1.8 2-1.6 1-3.4.7-4-.4-.6-1 0-2.3 1-3.3-.4 0-2.3-.6-4 0-2 .5-5 2.4-5 2.4s-1.8-1.4-.8-3.6c0 0-3-.3-4 3-.4 1.5-1.7 1.7-1.7 1.7s-.2-2.3-2.3-3c0 0-4 2.8-4 8-1.4.6-2 2.3-2 3-2 11-4.7 5.8-4.7 6 .6 5.4 4.3 4.6 4.3 4.6-.6 3.8-4.6 1.8-4.6 1.8zm22.7-4c.7-1.8 2.5-1.6 2.5-1.6l-.3.8c0 .8.7 1.5 1.5 1.5.7 0 1.3-.6 1.3-1.4L86 47H89l-.2.3c-.2.4-1.3 2.6-3.6 2.7-1.6 0-3-1-3-1s0-.2-.4 1.6c-.2 1.3-1 1.3-1 1.3s-.2-2.2.4-3.6zM71 42.6v-.4l2.4 1.3-.5.5c-.5.6-.2 1.5.4 2 .7.4 1.6 0 2-.6l.2-1s1.6 1 1.3 2.8c-.3 1.5-1.4 3.3-1.4 3.3s-.7-.4-.2-1.7c.6-1.6.3-1.7.3-1.7s-1.7.4-3-.4c-2-1.3-2-3.7-1.8-4zm1 15C70.3 55 70.5 54 70.5 54s.4.7 1.5 1.3c.5.2 3.7 2 4.5-.5.3-.6-.2-1-.6-1.4l-1-.6v-1.3s1 1.3 2.6 1.6c1.6.4 3-.2 3-.2s.4 1.3-1 1.4c-.7 0-1.7 0-2 1-.6 2.8 3.8 2.5 5 2.3 1.2 0 1.7-.2 1.7-.2-1 1.2-2.6 1.4-4.2 2.6v.3c-2 1.4-1.7 3.7-2.2 5.2-.6 2-2.4 2.7-4.2 2.2-1.7-.4-3-1.5-3.2-3.2 0-2 3.5-4.4 1.5-7zM193 67.7c-1.6-.8-4.2-.5-7.3 0-2.5 0-5.2.4-8 0-18.5-1.8-20-8.6-19.3-8 0 0 4 2 10 3 16.6 3.3 16.8-5.8 16.8-5.8s.5.4.7 1.4c0 1.2-.6 2.8-.6 2.8s2-1.6 2-4c0-3.3-2.2-4.5-2.2-4.5s.4 0 1.3.7c.8.7 1.3 2.4 1.3 2.4s.8-2.8-2.3-5.5c-9-7.4-28-6-35.5-7-6.5-1-8.2-3.6-7.7-6.4.8-4.6 6.8-4.7 6.8-4.7-.3 5 5.8 8 11.6 7 3.2-1 5-2 7.5-3.8 1.7-1.4 3-2 3-2-3-.6-4.8.5-6 1-1.3.6-2.7 1-4 1-3.7.4-4-2-4-2s2.7 1.3 6.2.5c10-2.4 6.8-11.8 6.8-11.8s-1 3.6-4 5c-3 1-5.5-.8-5.5-.8s4.8.5 6-3.3c.5-2-1.6-3.2-1.6-3.2s.5 4.8-11.2 4c-5-.2-5 4-5 4s-1 0-3 .8c-1.8.5-3 1.4-3 1.4.4-1.4 2.4-2 2.4-2-2.7 0-5 2-5 2l.5-1.3c0 .2-3 2.6-3.6 7.8-.3 2.6.5 5.2 2.2 7.2 2.8 3.3 8 3.7 11.3 4 4.7.3 12.6.8 19.6 1.7 9.5 1.3 10 4.5 8.8 6.5-1.4 2.2-5.6 2.2-12 0-6.7-2.4-20-7.2-29.3-7-25 0-36.2 10.6-43.6 8.6.2 9.6-6.7 13.4-6.7 13.4-1-5.3-.3 4.3-10.5 9.3 0 0 0-2.4-1-2.6-1.5-.2-3.4 3.5-3.4 3.5-2.2-1.5-3-3.7-3-3.7l-.4 1s-1.7-1-2-2.8c-.4-2 0-3.2-.7-3.3-1 0-3 1.3-3 1.3s.4-3-1-6.4c-.8-2-2-4-2.2-6.3-8-1.5-18-4.8-18-8-.3-2.8.2-5.7-3-6.7v1.3L38 48l-.8-1v-.3c-2 1-1.2 4.5-1.2 4.5-1.4-1.5-4.5-4.3-6.4-2.5l.3.3v1c0 .7-.8 1.2-1.4 1l-1-1c-2 3 2 6.2 2 6.2-.5.3-3.7 1-3.8 3.3l1.4-.5 1 .3V61l-1.2.4h-.5c1.2 1.7 3 1.7 4 1.2 5.2-2.2 6.5-1 8.8-.4 1.6.3 3 0 3 1 0 .6-.7 1.2-3 1 0 0 .5 1.4 3 1.7 4 .4 5.3-.6 5.8 0 1 1.3-2.7 1.8-2.7 1.8 3 2.4 7.2.6 7.2.6.2 1.3-2.7 1.6-2.7 1.6s1 1.3 3.5.8L55 70s-.8 2.4 1.2 3.6c0 0 1.2-4 2.8-3 .8.6 1 1.4.6 2-.6.5-1.3.4-1.3.4.4 1.2 2.5 1.2 2.5 1.2s-2.5 1.6-9.5 1.5C42 75 42.5 74 40.3 71c-2-2.3-3-2.4-3.8-2l.4.7-.2 1-1.6.4-.6-.7c-1 1-1 2-.4 3-.5 0-5-.6-5.6 1.4l1.5.2 1 .6c0 .7-.2 1.4-1 1.7l-1.3-.2H28c0 3 4.4 3.2 6.6 3.3-1 .5-2 1.4-1.7 2.7l1-.5 1.2.2.2 1.8-1.2.5c3 2 5-.7 6-1.3 3-1.7 7.8-1.5 9-.3.8 1-1 2-1 2 2 .4 3.6-1 3.6-1s-.4.5-.6 1.5c-.2 1.3.8 2 .8 2 1.7-3.3 3-3 3.8-2.4.8.7-1 2-1 2 2.2 1 5-1.2 5-1.2s-.3 1.8.7 2.7c1.3-2.3 4.3-2 6.3-2 0 0-2.8 2-1.8 4.5 1.8-1.7 4-2.4 7-2 6.2.8 18 4.3 38.2-14.5C124 62.4 133 64 133 64c12 9.8 35.4 10 41.4 10.5 3 .2 3 2 1.7 3.5-.7 1-1.8 1.2-1.8 1.2s-5.8-2.4-8 .8h1.2l.7.6-.3 1.4H166c.3 1 1.2 1.3 1.7 1.5l.2.2c-1.3 1-1.3 2.3-1.3 2.7l1-.4.8.2.3 1.5-1 .5h-.4c.7 1 1.7 1.6 3.4 1 1.3-.5 1.6-.8 1.7-1 0 .4-.5 1.3 0 2v.3l.8-1.2.8-.4 1 1-.5 1-.2.4h1.4c1.8-.4 3.2-2 3.6-5.7.2-1.3.4-2 .8-2.3.7-.7 2-1.2 2-1.2s.6 1.5-.4 2.6c3.5.6 4-5 4-5s.4 1 1.2 1.8c.8.8 2 1 2 1-.8-4 .8-5.4 1.5-5.6 1.5-.4 1.5 1.4 1.5 1.4s1.3-.8 1-2.6c-.2-1-.7-2-.7-2s1.4-.6 2 1c0 0 1.4-2 0-3.2h.8l.6.4s.6-3-2.2-4.2z"/>
    <path fill="#ea1f29" d="M166.6 82h1l.5-1.4-.6-.6H166c-2 .8-2 2.2-2.3 3 0 0 1-1 2.4-1h.6zm1 4l-1 .4-.3.4c-1.3 1.4-1 2.8-.6 3.5 0 0 .2-1.4 1.7-2h.4l1-.6-.3-1.5-1-.2zm6.5 3l-.7.3-.7 1.2v.2c-.4 1.8.7 2.7 1.3 3.2 0 0-.6-1.3.3-2.6l.2-.4.6-1-1-1z"/>
    <use href="#a" x="26" y="23"/>
    <use href="#a" x="100" y="23"/>
    <use href="#a" x="175" y="23"/>
    <use href="#a" x="26" y="91"/>
    <use href="#a" x="100" y="91"/>
    <use href="#a" x="175" y="91"/>
    <use href="#a" x="27" y="159"/>
    <use href="#a" x="100" y="159"/>
    <use href="#a" x="174" y="159"/>
    <use href="#a" x="100" y="217"/>
  </g>
</svg>
