<svg xmlns="http://www.w3.org/2000/svg" width="220" height="140">
  <g transform="translate(20 0)">
    <path fill="#134b8f" d="M45.53 20.05l1.13 3.6s.38.77-.94 1.33l-5.84 2.47-.57 3.03s-.18 1.9-1.88 2.65l-3.58 2.85s-3 1.32-.56 4.36l3.4 3.78 1.7-.18s6.02-3.8 8.85-.57c0 0 2.84 2.84-2.07 4.17 0 0-3.77 1.32-5.46.57 0 0-2.08 4.93 3.77 8.15 0 0 0-4.93 6.4-3.98 0 0-7.53 7.4-1.87 17.06 0 0 1.32-6.64 3.96-6.83 0 0-8.3 12.9 1.9 21.8 0 0-2.1-11.37 3.76-13.65 0 0-6.6 12.32 2.26 18 0 0-.94-11.75 3.02-14.78 0 0-2.82 24.26-3.4 26.16 0 0 0 2.08-1.5 2.46 0 0-7.54-1.15-9.6 6.82h18.28s-.57-1.9 2.45-5.7c0 0-2.27-3.6 7.16-16.3 0 0 .17-10.6 3-13.26 0 0 2.27 6.44-.75 14.02l10.75-1.33-.75 3.03s10.56-4.36 15.08-9.67c0 0 5.28-5.67 10.56-6.06 0 0-7.55 4.37-8.68 7.6 0 0 3.96 9.27 10.56 14.58l-3.4 5.68s-11.3-2.45-11.3 7.4l15.65-.2s2.45-7.4 9.6-10.04c0 0-1.3-5.88.76-10.43 0 0-9.44-4.73-8.7-12.88 0 0 3.98 9.28 18.12 14.2 0 0 5.85 2.47 7.36 6.26 0 0-1.7 2.47-.94 4.75 0 0-9.8.38-10.37 7.96h16.78s.2-6.06 5.28-9.85c0 0-2.46-8.53-1.33-11 0 0-9.43-6.25-8.1-11.55 0 0-.2-9.1-3.78-14.6 0 0 13.95-7.77 7.72-23.3 0 0-5.47-9.48-21.5-7.58 0 0-8.86 0-22.82 4.37 0 0-12.07 1.5-9.62-7.02 0 0 2.26-5.88 16.8-5.7 0 0 14.7-1.32 17.7.2 0 0 4.73 8.14 15.3 3.97 0 0 5.46-2.28 6.2-4.37 0 0-1.7.76-3.2 0 0 0 8.3-4.93 8.1-11.56 0 0-7.53 5.88-12.06 4.93 0 0 2.83-1.7 2.08-4.36 0 0-3.78 2.08-6.04 2.08 0 0-6.03-.2-10 4.55 0 0-18.47-3.4-28.66.58 0 0-18.85 5.14-12.8 17.26 0 0 5.27 11.18 29.22 3.97 0 0 21.5-5.5 22.63 5.68 0 0 .2 5.3-5.1 7.2 0 0-6.03-7.75-18.48-6.6 0 0-9.24 1.3-17.17 4.73 0 0-9.8 4.36-15.46-3.4 0 0 5.1-.4 7.54 3.02 0 0 0-6.06-7.15-9.28 0 0-4.34-.38-5.85-3.6 0 0 3.58-.76 5.28 1.9 0 0-.57-7-9.25-11.94 0 0-8.48-2.08-6.4-3.22 0 0 2.63-1.13 4.33.77 0 0 .37-4.17-10.56-5.1l-16.97-.02zM44.8 60.2S42.7 66.8 47.6 71.92c0 0-3.96 3.4-3.4 6.25 0 0-8.1-4.37-17.72 0 0 0-10-7.58-19.8 1.33l-.94-.38S4.63 73.1 7.83 69.3L15 65.88s6.03 3.03 14.14.37l15.65-6.07z"/>
    <path fill="#fff" d="M45.9 30.26v3.6s1.14-1.9 5.3-1.14c0 0 0-2.46-5.3-2.46"/>
    <path fill="#e24f3b" d="M4.44 83.72h2.64l1.32 6.25-4.52 4.74L1.43 93s-.38-5.3 3-9.28zM5 103.05l1.33-2.46 4.72 1.5 3.77 3.98-.37 1.9s3.58.75 5.47 0l4.33-6.83 4.9-.57 1.9-5.5-3.8-4.54.2-5.7.75-1.12s-3.02-3.42-4.9-4.36l-.57 1.5-5.47 2.3-5.47-2.1 1.12-3.22s16.78-5.3 20.56 14.6c0 0 1.14 7.76-6.02 13.83l15.46 3.2-42.05.03 8.48-2.1-1.13-1.13-3.2-3.22zm6.42-12.13l6.03-4.74 6.6 4.73-2.25 7.6h-7.92l-2.46-7.58z"/>
    <path fill="#058449" d="M160 114.18v-2.98H0v2.98h160m0 25.82v-2.98H0V140h160"/>
    <path fill="#058449" d="M160 116.17H0v18.86h160v-18.86z"/>
    <path fill="#fff" d="M7.8 130.88c-.32-.03-.64-.07-.97-.07-.32 0-.63.05-.95.08v-7.93c-.92 0-1.72.1-2.4.18.03-.17.07-.35.07-.55 0-.18-.04-.36-.07-.54h6.6c-.02.18-.06.36-.06.54 0 .2.04.38.07.56-.77-.1-1.52-.18-2.3-.18v7.92zm3.66-8.85c.32.03.64.07.96.07.32 0 .64-.04.96-.07v3.5c.66.02 1.32.06 1.97.06.65 0 1.3-.05 1.96-.07v-3.5c.33.03.65.07.97.07.32 0 .64-.04.96-.06v8.83c-.32-.02-.64-.06-.96-.06-.32 0-.64.05-.96.07v-4.3c-.65-.04-1.3-.08-1.95-.08-.65 0-1.3.03-1.97.06v4.3c-.3 0-.63-.05-.95-.05-.33 0-.65.05-.97.07v-8.84zm14.76 0c-.03.18-.07.38-.07.56 0 .17.04.36.07.54-.8-.1-1.66-.2-2.96-.18v2.77h1.33c.57 0 1.1-.05 1.57-.12-.03.2-.06.4-.06.57 0 .18.04.37.07.55-.48-.06-1-.1-1.58-.1h-1.34v3.26c1.3 0 2.18-.07 2.96-.18-.03.18-.06.37-.06.56 0 .18.03.37.06.55h-4.88v-8.76h4.88zm7 8.84c-.3-.03-.63-.07-.95-.07-.32 0-.64.04-.96.07v-8.84h4.9c-.03.18-.07.37-.07.55 0 .18.04.38.06.55-.8-.08-1.62-.17-2.97-.17v2.77h1.36c.5 0 1-.05 1.54-.12-.02.2-.06.4-.06.57 0 .18.04.37.06.55-.54-.05-1.05-.1-1.56-.1h-1.35v4.25zm2.82-1.04c0-.56.47-1.05 1.03-1.05.57 0 1.07.47 1.07 1.05 0 .6-.48 1.06-1.07 1.06-.57 0-1.03-.5-1.03-1.07zm7.8-2.44l-1.14-3.02-1.2 3h2.35zm-2.7.86c-.32 1-.64 1.78-.9 2.68-.2-.02-.38-.04-.6-.04-.2 0-.4.02-.6.04L42.7 122c.17.03.32.04.5.04.15 0 .3 0 .47-.04l3.58 8.96c-.37-.03-.73-.07-1.1-.07-.37 0-.73.03-1.1.06-.3-.95-.57-1.83-.9-2.7h-3zm7 1.57c0-.57.5-1.06 1.05-1.06.56 0 1.06.48 1.06 1.06 0 .6-.48 1.06-1.07 1.06-.6 0-1.05-.5-1.05-1.07m8.5-3.46c.27-.02.57-.03.84-.1.82-.23 1.13-.96 1.13-1.75 0-1.03-.53-1.7-1.2-1.7h-.8v3.55zm-.1 4.5c-.32 0-.65-.05-.96-.05-.34 0-.65.04-.98.06v-8.84h3.16c1.78 0 2.74.72 2.74 2.18 0 2.3-1.67 2.8-3.97 2.8v3.87zm7.07-4.9c1.35.13 2-.5 2-1.84 0-.18 0-.37-.05-.64-.2-1.08-1.17-.97-1.95-.97v3.45zm-1.93-3.86h2.72c.6 0 1.54-.02 2.08.27.73.38 1.12.96 1.12 1.84 0 1.28-.8 2.07-2 2.33.7 1.24 1.5 2.42 2.27 3.62l.5.8c-.4-.03-.78-.06-1.18-.06-.38 0-.77.03-1.15.05l-1.53-2.7-.84-1.43h-.08v4.13c-.32-.02-.64-.06-.96-.06-.32 0-.64.03-.96.05v-8.84zm12.56 0c-.03.2-.06.38-.06.56 0 .18.03.38.06.56-.78-.1-1.65-.2-2.96-.18v2.77h1.33c.58 0 1.1-.04 1.58-.1 0 .17-.06.36-.06.55 0 .18.05.37.07.55-.46-.06-1-.12-1.57-.12H71.3v3.28c1.3-.02 2.18-.08 2.96-.2-.02.2-.06.4-.06.57 0 .18.04.37.06.55h-4.88v-8.77h4.88m9.46 0c.18.03.36.07.54.07.18 0 .37-.04.55-.06.4 3.47.7 6.28 1.14 8.84-.36-.02-.7-.06-1.06-.06-.36 0-.68.04-1.04.06-.1-2.05-.36-4.02-.55-6-1 1.97-1.95 3.94-2.86 5.94-.16-.02-.32-.04-.5 0-.8-1.78-1.82-3.77-2.8-5.8-.3 2.27-.5 4.06-.53 5.87-.2-.03-.4-.07-.6-.07-.2 0-.38.04-.58.06.46-2.6.87-5.57 1.3-8.84.18.03.35.07.53.07.18 0 .35-.04.54-.07.9 2.03 1.92 4.04 2.93 6.06.93-1.83 2.02-3.85 3-6.06m3.62 0c.32.03.64.07.96.07.34 0 .65-.04.98-.07v8.84c-.32-.03-.64-.06-.96-.06-.32 0-.65.04-.97.06v-8.84m9 0c-.04.18-.08.37-.08.55 0 .18.04.38.07.56-.8-.1-1.66-.2-2.96-.17v2.77h1.33c.6 0 1.1-.06 1.6-.12-.04.18-.07.37-.07.56 0 .17.03.37.06.55-.5-.07-1-.13-1.6-.13H93.4v3.28c1.3-.02 2.18-.08 2.96-.18-.03.18-.07.37-.07.55 0 .18.04.38.07.55h-4.88v-8.77h4.88m3.88 4.08c1.35.13 2-.52 2-1.85 0-.18 0-.37-.05-.64-.2-1.08-1.17-.98-1.95-.98v3.46zm-1.92-4.15h2.73c.6 0 1.53-.03 2.08.25.74.4 1.12.97 1.12 1.85 0 1.26-.8 2.06-2 2.32.7 1.24 1.5 2.42 2.27 3.62l.5.8c-.4-.03-.78-.07-1.17-.07-.4 0-.77.04-1.16.07l-1.52-2.7-.84-1.44h-.08v4.14c-.32-.03-.64-.07-.96-.07-.32 0-.64.04-.96.07v-8.84zm13.3 7.9c1.1 0 2.05-.08 2.92-.17-.02.18-.06.37-.06.56 0 .17.04.37.06.55h-4.86v-8.78c.32.02.64.06.96.06.33 0 .64-.04.97-.07v7.84m9.14-7.85c-.02.17-.06.36-.06.54 0 .18.04.38.07.56-.78-.1-1.66-.2-2.97-.18v2.77h1.34c.58 0 1.1-.06 1.58-.13-.03.18-.07.38-.07.56 0 .17.04.37.07.55-.48-.06-1-.1-1.58-.1h-1.33v3.26c1.3-.02 2.17-.08 2.95-.18-.02.18-.06.37-.06.55 0 .2.03.38.05.57h-4.88v-8.78h4.88m5.3 5.35l-1.13-3-1.2 3h2.34zm-2.68.8c-.34.97-.65 1.76-.9 2.65l-.6-.03-.6.03 3.65-8.93c.17.03.32.04.5.04.15 0 .3 0 .47-.03l3.57 8.96c-.37-.03-.73-.07-1.1-.07-.37 0-.73.04-1.1.07-.3-.96-.57-1.83-.9-2.7h-3zm15.63 2.02c-1.15.33-2.3.6-3.42.6-2.7 0-5.12-1.38-5.12-4.4 0-3.2 2.33-4.85 5.3-4.85 1.1 0 2.12.23 3.08.8-.18.4-.3.85-.36 1.3h-.17c-.58-.88-1.5-1.33-2.52-1.33-2.14 0-3.2 1.94-3.2 4.1 0 2.25 1.14 3.58 3.1 3.58.63 0 1.1-.18 1.4-.35v-3.02c.32.03.64.07.96.07.32 0 .64-.04.96-.06v3.57m1.56-8.28c.33.02.64.05.97.05.3 0 .64-.04.96-.06v3.64c0 .72-.04 1.78.08 2.44.1.64.22 1.03.68 1.5.4.37.9.54 1.46.54 1.2 0 1.83-.44 2.28-1.56.23-.57.23-2.04.23-2.67V122c.17 0 .35.03.5.03.18 0 .36-.02.53-.04v4.57c-.04 1.47-.03 2.8-1.36 3.74-.7.5-1.58.7-2.42.7-1.55 0-3.23-.5-3.7-2.17-.15-.5-.2-1.07-.2-1.58V122m14.14.08c-.03.18-.07.38-.07.55 0 .2.04.38.07.56-.8-.1-1.66-.22-2.96-.2v2.78h1.33c.57 0 1.1-.05 1.57-.12-.03.18-.07.38-.07.55 0 .2.04.4.07.57-.48-.06-1-.12-1.58-.12h-1.34v3.28c1.3 0 2.18-.08 2.96-.18-.03.18-.06.37-.06.55 0 .18.03.38.06.56h-4.9v-8.78h4.9"/>
    <path fill="#e24f3b" d="M41.36 6.2c.88 0 1.6-.72 1.6-1.6 0-.9-.73-1.62-1.6-1.62-.9 0-1.6.72-1.6 1.6 0 .9.7 1.62 1.6 1.62zm8.67-2.66c.88 0 1.6-.72 1.6-1.6 0-.9-.72-1.62-1.6-1.62-.9 0-1.6.72-1.6 1.6 0 .9.7 1.62 1.6 1.62zm9.8-.2c.9 0 1.6-.71 1.6-1.6 0-.9-.72-1.6-1.6-1.6-.88 0-1.6.7-1.6 1.6 0 .9.72 1.6 1.6 1.6zm9.44 2.85c.88 0 1.6-.73 1.6-1.63 0-.88-.73-1.6-1.6-1.6-.9 0-1.6.72-1.6 1.6 0 .9.7 1.62 1.6 1.62zm-26.79.66l2.84 11.75h19.05l3.76-11.56-6.03 5.12-2.45-7-4.15 7.2-5.1-7.4-2.44 7.4-5.47-5.5z"/>
  </g>
</svg>
