<svg xmlns="http://www.w3.org/2000/svg" width="360" height="48">
  <g transform="translate(20 0)">
    <path fill="#666" d="M120.93 40.9h-1.73l-.63 2.8c-.05.2-.08.4-.08.54 0 .43.23.65.72.65.2 0 .56-.1 1.05-.32v1.32c-.42.15-1 .22-1.72.22-.48 0-.86-.15-1.15-.45-.3-.3-.43-.68-.43-1.16 0-.14.02-.3.05-.45l.7-3.15H117l.25-1.17h.73l.25-1.3 1.67-.6-.44 1.9h1.72l-.25 1.17zm6.45 1.26l-.72 3.84h-1.5l.73-3.9c.02-.12.03-.25.03-.38 0-.58-.3-.88-.88-.88-.53 0-1 .23-1.42.67l-.84 4.5h-1.5l1.6-8.85h1.45l-.48 2.96c.52-.33 1.07-.5 1.65-.5.6 0 1.07.18 1.4.5.36.35.53.82.53 1.42 0 .2-.02.4-.07.64zm2.23 1.12v.26c0 .44.13.77.4 1 .25.24.6.36 1.07.36.24 0 .53-.07.85-.2.32-.14.57-.3.75-.46l-.17 1.54c-.5.23-1.1.34-1.8.34-.78 0-1.4-.25-1.9-.73-.47-.5-.7-1.17-.7-2.02 0-1.08.33-1.98 1.03-2.7.7-.7 1.6-1.07 2.72-1.07.66 0 1.2.15 1.6.43.4.28.62.68.62 1.2 0 .7-.3 1.26-.92 1.66-.6.4-1.36.6-2.26.6-.45 0-.87-.08-1.3-.22zm.3-1.1c.25.06.52.1.82.1.53 0 .98-.08 1.35-.24.36-.17.55-.4.55-.7 0-.34-.37-.5-1.12-.5-.3 0-.6.1-.9.37-.3.27-.54.58-.7.97zm12.17-.74c-.47-.4-.9-.6-1.3-.6-.23 0-.44.04-.62.15-.18.1-.26.25-.26.44 0 .23.2.45.62.67l.98.52c.22.13.4.3.55.52.15.2.22.46.22.74 0 .7-.26 1.24-.77 1.64-.52.4-1.18.6-2 .6-.68 0-1.35-.2-2-.58l.77-1.33c.5.47.97.7 1.44.7.3 0 .55-.07.74-.22.2-.15.3-.35.3-.6 0-.22-.2-.42-.56-.6l-.97-.54c-.27-.15-.5-.35-.64-.58-.14-.22-.22-.48-.22-.75 0-.6.25-1.1.73-1.45s1.1-.54 1.8-.54c.48 0 1.1.17 1.88.5l-.68 1.34zm6.1 4.57h-1.45l.1-.45c-.54.38-1.2.57-1.98.57-.54 0-.97-.16-1.27-.47-.3-.3-.46-.73-.46-1.28 0-.17.03-.37.07-.6l.76-4.05h1.48l-.73 4c-.03.16-.05.3-.05.42 0 .5.3.76.86.76.46 0 .85-.15 1.17-.46.3-.3.5-.66.6-1.1l.63-3.62h1.47L148.18 46zm2.85-.17l-.47 2.63h-1.47l1.27-6.8c.05-.25.07-.5.07-.75 0-.34-.04-.68-.1-1.03l1.42-.26c.06.16.1.36.14.6.54-.4 1.08-.6 1.62-.6 1.67 0 2.5.82 2.5 2.44 0 1.2-.33 2.17-1.02 2.93-.7.77-1.6 1.15-2.73 1.15-.44 0-.86-.1-1.23-.3zm.23-1.25c.2.2.47.3.85.3.77 0 1.35-.23 1.76-.7.4-.47.62-1.13.62-2 0-.4-.13-.7-.37-.95s-.58-.36-1-.36c-.2 0-.42.07-.68.2-.26.12-.46.26-.6.4l-.57 3.1zm6.75 1.25l-.47 2.63h-1.46l1.26-6.8c.05-.25.07-.5.07-.75 0-.34-.03-.68-.1-1.03l1.43-.26c.05.16.1.36.13.6.55-.4 1.1-.6 1.62-.6 1.68 0 2.5.82 2.5 2.44 0 1.2-.33 2.17-1.02 2.93-.68.77-1.6 1.15-2.72 1.15-.45 0-.86-.1-1.24-.3zm.23-1.25c.2.2.48.3.85.3.77 0 1.36-.23 1.77-.7.4-.47.6-1.13.6-2 0-.4-.1-.7-.36-.95s-.6-.36-1.02-.36c-.2 0-.42.07-.68.2-.26.12-.45.26-.58.4l-.6 3.1zm5.4-.93c0-1.13.34-2.1 1.03-2.87.7-.78 1.56-1.17 2.62-1.17.8 0 1.43.22 1.87.64.44.42.66 1 .66 1.8 0 1.14-.33 2.1-1.02 2.9-.68.78-1.56 1.18-2.65 1.18-.8 0-1.4-.22-1.85-.64-.44-.42-.66-1.03-.66-1.83zm1.5-.07c0 .9.4 1.34 1.17 1.34.6 0 1.1-.28 1.44-.85.36-.56.54-1.23.54-2 0-.85-.4-1.27-1.16-1.27-.6 0-1.07.28-1.43.84-.38.55-.56 1.2-.56 1.94zm9.8-2.37c-.35-.25-.66-.37-.92-.37-.37 0-.72.16-1.03.5-.32.32-.52.7-.6 1.12L171.7 46h-1.46l1.17-6.28h1.48l-.1.55c.52-.44 1.1-.66 1.73-.66.17 0 .45.04.87.12l-.44 1.5zm5-.3h-1.73l-.64 2.78c-.05.23-.07.4-.07.56 0 .43.23.65.7.65.23 0 .58-.12 1.07-.32v1.32c-.42.14-1 .22-1.72.22-.48 0-.86-.15-1.15-.45-.3-.3-.44-.68-.44-1.16 0-.14.02-.3.06-.45l.7-3.15H176l.25-1.18h.73l.24-1.28 1.68-.6-.44 1.9h1.72l-.25 1.16zm2.13 2.37v.27c0 .44.12.77.38 1 .26.24.62.36 1.08.36.25 0 .53-.07.85-.2.32-.14.57-.3.76-.46l-.17 1.54c-.5.23-1.1.34-1.82.34-.77 0-1.4-.25-1.88-.73-.48-.5-.72-1.17-.72-2.02 0-1.08.35-1.98 1.04-2.7.7-.7 1.6-1.07 2.72-1.07.66 0 1.2.15 1.6.43.42.28.62.68.62 1.2 0 .7-.3 1.26-.92 1.66-.6.4-1.36.6-2.25.6-.44 0-.87-.08-1.3-.22zm.28-1.1c.26.07.53.1.83.1.53 0 .98-.07 1.35-.24.36-.16.55-.4.55-.7 0-.34-.37-.5-1.1-.5-.3 0-.6.12-.9.38-.32.26-.55.58-.73.97zm9.23-.96c-.35-.25-.66-.37-.92-.37-.38 0-.73.16-1.04.5-.3.32-.5.7-.6 1.12l-.65 3.55h-1.47l1.17-6.28h1.47l-.1.55c.52-.44 1.1-.66 1.72-.66.16 0 .45.04.86.12l-.43 1.5zm4.7.24c-.47-.4-.9-.6-1.3-.6-.23 0-.44.04-.62.15-.18.1-.27.25-.27.44 0 .23.22.45.64.67l.98.52c.22.13.4.3.55.52.15.2.22.46.22.74 0 .7-.26 1.24-.78 1.64-.52.4-1.2.6-2 .6-.68 0-1.35-.2-2-.58l.77-1.33c.5.47.96.7 1.43.7.3 0 .55-.07.74-.22.2-.15.3-.35.3-.6 0-.22-.2-.42-.56-.6l-.98-.54c-.28-.15-.5-.35-.64-.58-.14-.22-.22-.48-.22-.75 0-.6.25-1.1.73-1.45s1.08-.54 1.8-.54c.48 0 1.1.17 1.88.5l-.68 1.34zm4.63-3.16c-.1 1.07-.72 1.96-1.9 2.65l-.42-.65c.3-.2.47-.36.56-.44.2-.2.3-.4.32-.6 0-.14-.07-.3-.24-.52-.17-.22-.25-.42-.23-.62.04-.63.38-.95 1-.95.6 0 .92.32.92.96l-.02.18zm8.15 2.62h-1.73l-.64 2.8c-.05.2-.07.4-.07.54 0 .43.25.65.74.65.2 0 .56-.1 1.05-.32v1.32c-.43.15-1 .22-1.73.22-.48 0-.86-.15-1.15-.45-.3-.3-.43-.68-.43-1.16 0-.14 0-.3.04-.45l.7-3.15h-.72l.25-1.17h.73l.25-1.3 1.67-.6-.44 1.9h1.72l-.25 1.17zm5.22.3c-.35-.25-.66-.37-.92-.37-.38 0-.73.16-1.04.5-.3.32-.5.7-.6 1.12l-.65 3.55h-1.47l1.17-6.28h1.47l-.1.55c.52-.44 1.1-.66 1.72-.66.16 0 .45.05.87.12l-.43 1.5zm5.5 4.8h-1.46l.1-.45c-.53.38-1.18.57-1.97.57-.54 0-.96-.16-1.27-.47-.3-.3-.46-.73-.46-1.28 0-.17.02-.37.06-.6l.76-4.05h1.5l-.76 4c-.03.16-.04.3-.04.42 0 .5.28.76.85.76.47 0 .85-.15 1.17-.46.3-.3.5-.66.6-1.1l.63-3.62h1.47L219.77 46zm5.7-4.56c-.48-.4-.9-.6-1.3-.6-.24 0-.45.04-.63.15-.18.1-.27.25-.27.44 0 .23.2.46.64.67l.98.52c.23.13.4.3.56.52.14.22.22.46.22.75 0 .68-.26 1.22-.78 1.62-.52.4-1.18.6-1.98.6-.7 0-1.36-.2-2.02-.58l.77-1.33c.5.47.97.7 1.44.7.3 0 .53-.07.73-.22.2-.15.3-.35.3-.6 0-.22-.2-.42-.57-.6l-.97-.53c-.3-.16-.5-.36-.65-.6-.15-.2-.22-.47-.22-.74 0-.6.24-1.1.73-1.45s1.08-.54 1.8-.54c.47 0 1.1.17 1.88.5l-.68 1.34zm5.6-.54h-1.74l-.63 2.8c-.06.2-.08.4-.08.54 0 .43.24.65.73.65.2 0 .56-.1 1.05-.32v1.32c-.42.15-1 .22-1.72.22-.48 0-.86-.15-1.15-.45-.3-.3-.43-.68-.43-1.16 0-.14 0-.3.05-.45l.7-3.15h-.72l.25-1.17h.73l.26-1.3 1.67-.6-.44 1.9h1.7l-.24 1.18zm4.75.54c-.47-.4-.9-.6-1.3-.6-.23 0-.44.04-.62.15-.18.1-.27.25-.27.44 0 .23.22.46.64.67l.98.52c.22.13.4.3.55.52.15.22.22.46.22.75 0 .68-.26 1.22-.78 1.62-.5.4-1.17.6-1.98.6-.7 0-1.36-.2-2-.58l.76-1.33c.5.47.97.7 1.43.7.3 0 .55-.07.74-.22.18-.15.28-.35.28-.6 0-.22-.18-.42-.55-.6l-.97-.53c-.3-.16-.5-.36-.65-.6-.13-.2-.2-.47-.2-.74 0-.6.24-1.1.72-1.45s1.1-.54 1.8-.54c.48 0 1.1.17 1.88.5l-.68 1.34zm5.98-3.73c0-.25.1-.47.28-.64.2-.18.4-.26.68-.26.26 0 .48.08.67.26.2.17.28.4.28.65 0 .27-.08.48-.27.66-.2.18-.4.26-.67.26s-.5-.08-.68-.26c-.2-.17-.28-.4-.28-.65zm.44 8.3h-1.5l.96-5.1h-.8l.24-1.17h2.27L242.25 46zm6.94 0h-1.52l.7-3.65c.04-.3.07-.54.07-.74 0-.5-.3-.77-.92-.77-.5 0-1 .22-1.4.66l-.84 4.5h-1.47l.87-4.7.03-.34c0-.35-.06-.72-.17-1.12l1.43-.26.14.7c.5-.45 1.16-.67 1.94-.67 1.28 0 1.93.6 1.93 1.82 0 .2-.03.47-.08.76l-.72 3.82zm2.9-8.3c0-.25.08-.47.26-.64.2-.18.42-.26.68-.26.26 0 .5.08.68.26.18.17.28.4.28.65 0 .27-.1.5-.28.66-.2.18-.42.26-.68.26-.26 0-.48-.08-.67-.26-.2-.17-.28-.4-.28-.65zm.42 8.3H251l.96-5.1h-.8l.24-1.17h2.27L252.5 46zm6.32-5.1h-1.73l-.64 2.8c-.05.2-.08.4-.08.54 0 .43.25.65.73.65.23 0 .58-.1 1.07-.32v1.32c-.43.15-1 .22-1.73.22-.47 0-.86-.15-1.15-.45-.3-.3-.44-.68-.44-1.16 0-.14.02-.3.05-.45l.72-3.15h-.72l.25-1.17h.72l.25-1.3 1.68-.6-.44 1.9h1.7l-.24 1.18zm2.02-3.2c0-.25.1-.47.28-.64.2-.18.4-.26.68-.26.26 0 .48.08.67.26.2.17.28.4.28.65 0 .27-.1.5-.28.66-.2.18-.4.26-.67.26-.26 0-.5-.08-.68-.26-.18-.17-.28-.4-.28-.65zm.44 8.3h-1.5l.96-5.1h-.8l.24-1.17h2.27L261.28 46zm7.18-2.25c-.03.15-.04.3-.04.48 0 .86.06 1.45.2 1.77h-.92c-.27 0-.47-.2-.6-.63-.5.5-1.13.75-1.87.75-.68 0-1.2-.2-1.58-.58-.38-.38-.56-.9-.56-1.6 0-1.2.35-2.2 1.07-3.06.72-.85 1.63-1.27 2.73-1.27 1.05 0 1.82.1 2.3.3l-.74 3.85zm-1.7-2.95c-.65 0-1.17.32-1.56.94-.4.63-.6 1.35-.6 2.17 0 .7.34 1.02 1 1.02.43 0 .8-.26 1.1-.78.32-.52.6-1.6.85-3.22-.28-.08-.54-.12-.78-.12zm7.75.1h-1.72l-.63 2.8c-.05.2-.08.4-.08.54 0 .43.25.65.73.65.22 0 .57-.1 1.06-.32v1.32c-.43.15-1 .22-1.73.22-.47 0-.86-.15-1.15-.45-.28-.3-.43-.68-.43-1.16 0-.14.02-.3.05-.45l.7-3.14h-.7l.24-1.17h.72l.25-1.3 1.7-.6-.45 1.9h1.7l-.24 1.18zm2.03-3.2c0-.25.1-.47.28-.64.2-.18.42-.26.7-.26.25 0 .47.08.66.26.2.17.28.4.28.65 0 .27-.1.5-.28.66-.2.18-.4.27-.67.27s-.5-.1-.7-.27c-.17-.17-.27-.4-.27-.65zm.44 8.3h-1.5l.96-5.1h-.8l.24-1.17h2.27L276.97 46zm4.38.12h-.52l-1.92-6.4h1.53l1.06 3.8 2.2-3.8h1.7l-4.05 6.4zm5.45-2.84v.26c0 .44.12.77.38 1 .26.24.62.36 1.08.36.24 0 .53-.07.85-.2.33-.14.58-.3.76-.45l-.17 1.54c-.5.2-1.1.32-1.82.32-.78 0-1.4-.24-1.88-.73-.48-.5-.73-1.17-.73-2.02 0-1.08.35-1.98 1.04-2.7.7-.7 1.62-1.07 2.74-1.07.66 0 1.2.15 1.6.43.4.28.62.68.62 1.2 0 .7-.3 1.26-.92 1.66-.6.4-1.36.6-2.26.6-.44 0-.86-.08-1.28-.22zm.28-1.1c.25.06.53.1.82.1.54 0 .98-.08 1.35-.24.37-.16.55-.4.55-.7 0-.34-.37-.5-1.1-.5-.3 0-.6.12-.9.37-.3.27-.55.6-.72.97z"/>
    <path fill="#f11" d="M216.72 31h-6.9L215 2.45c1.9-.34 3.7-.5 5.36-.5 4.36 0 7.73.98 10.1 2.98 2.4 2 3.6 4.87 3.6 8.65 0 5.3-1.6 9.53-4.74 12.68-3.15 3.16-7.36 4.74-12.62 4.74zm2.54-24.43l-3.47 19.88c.56.05 1.08.08 1.55.08 3.5 0 6.26-1.23 8.32-3.7 2.05-2.45 3.08-5.6 3.08-9.47 0-2.1-.7-3.8-2.13-5.08-1.4-1.27-3.24-1.9-5.46-1.9-.63 0-1.26.06-1.9.2zm20.5-3.2c0-.88.32-1.6.94-2.2.62-.56 1.37-.85 2.26-.85.87 0 1.62.3 2.24.86s.94 1.3.94 2.18c0 .86-.3 1.58-.94 2.17-.62.6-1.37.88-2.24.88-.88 0-1.63-.28-2.25-.86s-.93-1.3-.93-2.18zM241.23 31h-4.96l3.16-17h-2.68l.82-3.92h7.56L241.22 31zm21.48-15.96c-1.16-.86-2.18-1.3-3.06-1.3-1.27 0-2.42.56-3.47 1.66-1.05 1.1-1.7 2.36-1.98 3.78L251.97 31h-4.9l3.9-20.92h4.9l-.33 1.82c1.74-1.47 3.65-2.2 5.75-2.2.53 0 1.5.1 2.87.36l-1.47 4.98zm6.8 6.88c-.03.34-.04.63-.04.88 0 1.45.43 2.57 1.3 3.36.87.78 2.07 1.17 3.6 1.17.82 0 1.77-.23 2.83-.68 1.06-.44 1.9-.95 2.52-1.5l-.57 5.13c-1.65.74-3.67 1.1-6.06 1.1-2.58 0-4.67-.8-6.28-2.43-1.6-1.63-2.4-3.86-2.4-6.7 0-3.6 1.16-6.6 3.47-8.97 2.3-2.4 5.32-3.6 9.06-3.6 2.2 0 4 .48 5.35 1.4 1.38.94 2.06 2.27 2.06 4 0 2.36-1.02 4.2-3.05 5.55-2.03 1.34-4.54 2-7.52 2-1.46 0-2.9-.23-4.28-.7zm.94-3.7c.84.25 1.76.38 2.75.38 1.76 0 3.26-.27 4.48-.8 1.23-.55 1.84-1.33 1.84-2.35 0-1.13-1.24-1.7-3.7-1.7-1 0-1.98.43-3 1.28-1.02.86-1.8 1.92-2.38 3.2zm31.74-2.96c-1.37-1-2.75-1.5-4.15-1.5-2.24 0-4.04.83-5.4 2.5-1.36 1.68-2.04 3.77-2.04 6.28 0 1.3.38 2.42 1.15 3.34.76.93 1.75 1.4 2.96 1.4 1.76 0 3.8-.75 6.17-2.24l-.6 5.1c-1.98.83-4.03 1.25-6.14 1.25-2.64 0-4.74-.74-6.28-2.2-1.54-1.47-2.3-3.5-2.3-6.05 0-3.9 1.1-7.1 3.36-9.65 2.27-2.54 5.22-3.8 8.86-3.8 2.1 0 3.9.42 5.4 1.28l-.98 4.28zM319.4 14h-5.76l-2.1 9.29c-.18.73-.26 1.35-.26 1.84 0 1.43.8 2.15 2.42 2.15.72 0 1.9-.35 3.52-1.03v4.4c-1.4.48-3.32.72-5.75.72-1.6 0-2.86-.5-3.82-1.5-.97-.98-1.45-2.27-1.45-3.86 0-.52.06-1.04.18-1.54l2.36-10.5h-2.42l.84-3.92h2.42l.82-4.28 5.6-2.03-1.48 6.3h5.72l-.84 3.94z"/>
    <path d="M17.36 8.03c-1.5-1.1-3.05-1.66-4.6-1.66-3.15 0-4.72 1.2-4.72 3.56 0 1 .84 2.2 2.5 3.6l2.95 2.5c.9.77 1.54 1.34 1.9 1.7.34.36.7.85 1.1 1.5.4.63.68 1.28.88 1.93.2.65.3 1.3.3 2 0 2.6-1 4.65-2.95 6.12-1.96 1.47-4.5 2.2-7.62 2.2-2.56 0-4.98-.54-7.26-1.65l1.64-5.02c1.75 1.32 3.77 1.98 6.08 1.98 1.4 0 2.54-.3 3.46-.9.92-.58 1.38-1.42 1.38-2.52 0-1.08-.83-2.27-2.5-3.57l-3.07-2.45c-.93-.76-1.57-1.3-1.9-1.64-.33-.33-.68-.8-1.05-1.4-.36-.6-.63-1.24-.82-1.87-.18-.64-.27-1.3-.27-1.98 0-2.63.86-4.7 2.6-6.25 1.75-1.53 4.04-2.3 6.86-2.3.94 0 2.14.1 3.6.32s2.48.46 3.06.73l-1.56 5.08zm19.02 23H31.5l.3-1.53c-1.75 1.26-3.94 1.9-6.57 1.9-1.8 0-3.2-.52-4.23-1.55-1.02-1.03-1.53-2.46-1.53-4.28 0-.57.07-1.24.2-2l2.53-13.5h4.96l-2.48 13.3c-.1.55-.15 1.03-.15 1.42 0 1.68.95 2.53 2.85 2.53 1.55 0 2.85-.5 3.9-1.52s1.7-2.2 1.96-3.63l2.15-12.1h4.9l-3.92 20.95zm9.32-.6l-1.56 8.77h-4.9l4.23-22.65c.16-.84.24-1.68.24-2.52 0-1.15-.1-2.3-.35-3.46l4.77-.86c.18.5.33 1.17.45 2 1.8-1.34 3.6-2 5.4-2 5.58 0 8.37 2.7 8.37 8.12 0 3.97-1.15 7.22-3.44 9.76-2.3 2.54-5.32 3.8-9.08 3.8-1.5 0-2.87-.3-4.12-.95zm.76-4.16c.64.67 1.58 1 2.83 1 2.56 0 4.52-.78 5.88-2.34 1.36-1.55 2.04-3.76 2.04-6.63 0-1.32-.4-2.4-1.23-3.2-.83-.8-1.95-1.2-3.38-1.2-.64 0-1.4.22-2.26.64-.87.43-1.5.9-1.94 1.4l-1.96 10.33zm22.4 4.16l-1.58 8.77H62.4l4.22-22.65c.15-.84.23-1.68.23-2.52 0-1.15-.1-2.3-.35-3.46l4.77-.86c.18.5.33 1.17.45 2 1.8-1.34 3.6-2 5.4-2 5.57 0 8.37 2.7 8.37 8.12 0 3.97-1.16 7.22-3.45 9.76-2.3 2.54-5.32 3.8-9.08 3.8-1.5 0-2.87-.3-4.12-.95zm.75-4.16c.65.67 1.6 1 2.84 1 2.56 0 4.53-.78 5.9-2.34 1.35-1.55 2.03-3.76 2.03-6.63 0-1.32-.4-2.4-1.23-3.2-.82-.8-1.95-1.2-3.38-1.2-.64 0-1.4.22-2.26.64-.86.43-1.5.9-1.94 1.4L69.6 26.27zm17.84-3.1c0-3.78 1.15-6.97 3.46-9.57 2.3-2.6 5.22-3.9 8.75-3.9 2.7 0 4.77.7 6.23 2.1 1.46 1.4 2.2 3.38 2.2 5.96 0 3.85-1.15 7.1-3.43 9.7-2.28 2.62-5.22 3.93-8.83 3.93-2.64 0-4.7-.7-6.17-2.13-1.47-1.4-2.2-3.44-2.2-6.1zm5.08-.24c0 3 1.28 4.48 3.85 4.48 2.03 0 3.64-.93 4.82-2.82 1.18-1.88 1.77-4.1 1.77-6.68 0-2.82-1.28-4.22-3.85-4.22-2 0-3.6.92-4.8 2.78-1.2 1.85-1.8 4-1.8 6.47zm32.48-7.9c-1.16-.85-2.18-1.28-3.07-1.28-1.26 0-2.42.55-3.46 1.65-1.05 1.1-1.7 2.36-2 3.78L114.28 31h-4.9l3.9-20.92h4.9l-.32 1.82c1.73-1.47 3.65-2.2 5.74-2.2.53 0 1.5.1 2.87.36L125 15.04zm16.52-1.02h-5.76l-2.1 9.28c-.18.75-.26 1.37-.26 1.86 0 1.43.8 2.15 2.42 2.15.72 0 1.9-.35 3.52-1.03v4.4c-1.4.48-3.32.72-5.75.72-1.6 0-2.87-.5-3.83-1.5-.97-.98-1.45-2.27-1.45-3.86 0-.52.06-1.04.18-1.54l2.36-10.5h-2.42l.84-3.92h2.42l.82-4.28 5.6-2.03-1.48 6.3h5.73l-.84 3.94zm7 7.92c-.03.34-.04.63-.04.88 0 1.45.43 2.57 1.3 3.36.86.78 2.06 1.17 3.6 1.17.82 0 1.77-.23 2.83-.68 1.08-.44 1.92-.95 2.53-1.5l-.56 5.13c-1.66.74-3.67 1.1-6.06 1.1-2.57 0-4.66-.8-6.26-2.43-1.6-1.63-2.4-3.86-2.4-6.7 0-3.6 1.16-6.6 3.47-8.97 2.32-2.4 5.34-3.6 9.08-3.6 2.2 0 3.98.48 5.35 1.4 1.37.94 2.05 2.27 2.05 4 0 2.36-1.02 4.2-3.05 5.55-2.04 1.34-4.55 2-7.53 2-1.46 0-2.9-.23-4.28-.7zm.93-3.7c.85.25 1.77.38 2.76.38 1.78 0 3.28-.27 4.5-.8 1.22-.55 1.84-1.33 1.84-2.35 0-1.13-1.24-1.7-3.7-1.7-1 0-2 .43-3 1.28-1.02.86-1.8 1.92-2.4 3.2zm30.6-3.18c-1.15-.86-2.17-1.3-3.06-1.3-1.27 0-2.42.56-3.47 1.66-1.05 1.1-1.7 2.36-1.98 3.78L169.35 31h-4.9l3.9-20.92h4.9l-.34 1.82c1.74-1.47 3.66-2.2 5.75-2.2.54 0 1.5.1 2.88.36l-1.47 4.98zm15.56.77c-1.55-1.36-3-2.05-4.3-2.05-.8 0-1.5.2-2.1.56-.58.38-.88.88-.88 1.5 0 .77.7 1.5 2.12 2.23 1.4.72 2.5 1.3 3.25 1.7.75.43 1.37 1 1.85 1.73.48.72.72 1.55.72 2.5 0 2.3-.86 4.1-2.6 5.44-1.7 1.33-3.9 2-6.6 2-2.3 0-4.53-.65-6.72-1.94l2.58-4.44c1.63 1.54 3.23 2.3 4.8 2.3.98 0 1.8-.24 2.44-.73.64-.5.97-1.18.97-2.03 0-.7-.62-1.37-1.84-2-1.23-.65-2.3-1.23-3.24-1.76-.94-.5-1.65-1.16-2.14-1.92-.5-.76-.73-1.6-.73-2.53 0-2.03.8-3.65 2.42-4.85 1.62-1.2 3.6-1.8 5.96-1.8 1.62 0 3.72.54 6.3 1.63l-2.27 4.47z"/>
  </g>
</svg>
