<svg xmlns="http://www.w3.org/2000/svg" width="250" height="200"><linearGradient id="a" x1="277.5" x2="277.5" y1="-668" y2="-548.7" gradientUnits="userSpaceOnUse" gradientTransform="matrix(1 0 0 -1 -150 -530)"><stop offset="0" stop-color="#D14427"/><stop offset="1" stop-color="#E55225"/></linearGradient><clipPath id="b"><path d="M180 78.2c0 29-23.6 52.4-52.5 52.4-29 0-52.4-23.5-52.4-52.4 0-29 23.6-52.4 52.5-52.4 29 0 52.4 23.5 52.4 52.4z"/></clipPath><path fill="#fff" d="M184 78a56.6 58.3 0 1 1-113.3 0A56.6 58.3 0 1 1 184 78z"/><path fill="url(#a)" d="M179.7 78.3c0 29-23.4 52.2-52.2 52.2s-52.2-23.3-52.2-52.2S98.7 26 127.5 26s52.2 23.5 52.2 52.3zm7.5 0c0 33-26.7 59.7-59.7 59.7S68 111.3 68 78.3s26.6-59.6 59.5-59.6c33 0 59.7 26.7 59.7 59.6zm-5 0c0-30.2-24.5-54.7-54.7-54.7-30.2 0-54.7 24.5-54.7 54.7S97.3 133 127.5 133c30.2 0 54.8-24.4 54.8-54.7z"/><g clip-path="url(#b)"><path fill="#d5d7d8" d="M148.5 154.5c-1.8-8.2-12.3-27-16.2-35-4-8-8-19-6.2-26.2.5-1.4-3.3-11.4-2.2-12 8.4-5.6 10.6.5 14-2 1.7-1.2 4 1 4.7-1 2-7.6-3-20.7-8.8-26.5-2-2-4.8-3-8-3.7-1.3-1.6-3.3-3.3-6.2-4.8-3.2-1.7-10-4-13.7-4.5-2.5-.4-3 .3-4 .4 1 .2 5.6 2.6 6.5 2.7-1 .6-3.6 0-5.3.7-1 .4-1.5 2-1.5 2.6 5-.5 12.6 0 17 2-3.5.4-9 1-11.4 2-6.7 3.7-9.7 12.2-8 22.3l12.3 59c2.6 12.3-5.4 20.3-10.4 22.4l5.3.4-1.8 4c6.5.8 13.7-1.4 13.7-1.4-1.5 4-11.2 5.4-11.2 5.4s4.7 1.5 12.3-1.4c7.5-3 12.2-4.7 12.2-4.7l3.6 9.3 7-7 3 7.3s5.3-1.8 3.5-10z"/><path fill="#fff" d="M150.7 153c-1.8-8.4-12.3-27.2-16.3-35-4-8-8-19.2-6-26.4.2-1.3.2-6.7 1.3-7.4 8.4-5.5 7.8-.2 11.2-2.7 1.7-1.2 3-2.8 3.7-5 2-7.4-3-20.6-8.8-26.4-2-1.8-5-3-8-3.6-1.4-1.7-3.4-3.3-6.3-5-5.4-2.7-12-4-18.2-2.8 1 0 3.2 2.2 4 2.3-1.3 1-5 .7-5 2.8 5-.5 10.4.3 15 2.3-3.7.5-7 1.4-9.4 2.7-6.7 3.6-8.5 10.8-6.7 21 1.8 10 9.7 46.7 12.2 59C116 141 108 149 103 151l5.5.4-1.8 4c6.5.7 13.7-1.5 13.7-1.5-1.5 4-11.2 5.3-11.2 5.3s4.7 1.5 12.3-1.4l12.2-4.8 3.6 9.4 7-7 2.8 7.4s5.5-1.8 3.7-10z"/><path fill="#2d4f8e" d="M109.2 70c0-2 1.7-3.7 3.8-3.7 2 0 3.8 1.7 3.8 3.8 0 2.2-1.7 4-3.8 4-2 0-3.8-1.8-3.8-4z"/><path fill="#fff" d="M113.7 68.8c0-.5.4-1 1-1 .5 0 1 .5 1 1 0 .6-.5 1-1 1-.6 0-1-.4-1-1z"/><path fill="#2d4f8e" d="M135 67.8c0-1.8 1.5-3.2 3.3-3.2 1.8 0 3.3 1.4 3.3 3.2 0 1.8-1.5 3.3-3.3 3.3-1.8 0-3.2-1.4-3.2-3.2z"/><path fill="#fff" d="M139 66.7c0-.4.3-.8.8-.8.4 0 .8.3.8.7 0 .5-.4 1-.8 1-.5 0-1-.5-1-1z"/><path fill="#2d4f8e" d="M114 59s-2.8-1.2-5.6.6c-2.7 1.7-2.6 3.5-2.6 3.5s-1.5-3.2 2.4-4.8c4-1.6 6 1 6 1z"/><path fill="#2d4f8e" d="M140.3 58.8s-2-1-3.7-1c-3.2 0-4 1.4-4 1.4s.4-3.5 4.6-2.8c2.3.4 3 2.4 3 2.4z"/></g><path fill="#fdd20a" d="M124.6 84.7c.4-2.3 6.3-6.6 10.5-7 4.3-.2 5.6 0 9-1 3.6-.8 12.6-3 15-4.2 2.6-1.2 13.2.6 5.8 4.7-3.3 2-12 5.2-18.2 7-6.2 2-10-1.7-12 1.3-1.7 2.4-.4 5.8 7 6.5 10 1 19.7-4.6 20.7-1.7 1 3-8.6 6.5-14.5 6.7-6 0-17.8-4-19.5-5.2-1.8-1.2-4.2-4-3.7-7z"/><path fill="#6b4" d="M129 116s-14-7.5-14.2-4.5c-.2 3 0 15.5 1.6 16.5 1.7 1 13.4-6.2 13.4-6.2l-.7-5.8zM134.5 115.5s9.7-7.3 11.8-6.8c2 .5 2.6 15.5.7 16.2-2 .6-13-4-13-4l.5-5.5z"/><path fill="#43a244" d="M125.7 116.8c0 5-.7 7 1.4 7.5 2.2.5 6.2 0 7.6-1 1.5-1 .3-7.2-.2-8.4-.5-1.3-8.7-.3-8.7 1.8z"/><path fill="#6b4" d="M126.6 115.7c0 5-.7 7 1.4 7.5 2 .5 6 0 7.5-1s.3-7.2-.2-8.4c-.5-1.2-8.7-.2-8.7 2z"/><path fill="#444" d="M22.8 180v-24.6h9c8.4 0 12.2 6.2 12.2 12 0 6.2-3.8 12.6-12.3 12.6h-9zm2.8-3h6c6.6 0 9.6-4.8 9.6-9.6 0-4.5-3-9.3-9.5-9.3h-6v19zM55.2 180.2c-4.5 0-7.5-3-7.5-8v-9.5h2.7v9.5c0 3.5 2 5.6 5.4 5.6 3.2 0 5.6-2.5 5.6-5.8v-9.3H64V180h-2.4v-3l-.6.5c-1.4 1.8-3.3 2.7-5.8 2.7zM77 180.3c-4.5 0-9-2.8-9-9 0-5.3 3.6-9 9-9 2.3 0 4.4 1 6 2.6l-1.5 1.6c-1.2-1-2.8-1.7-4.5-1.7-3.7 0-6.4 2.5-6.4 6.3 0 4.5 3.2 6.5 6.4 6.5 1.8 0 3.4-.7 4.6-1.8l1.7 1.7c-1.7 1.7-4 2.6-6.3 2.6zM98 180l-8.6-8.5v8.5h-2.6v-24.6h2.6v15l7.4-7.7h3.4l-8 8 9 9.2zM104.5 180v-24.6h9c8.4 0 12.3 6.2 12.3 12 0 6.2-3.8 12.6-12.4 12.6h-9zm2.8-3h6c6.7 0 9.6-4.8 9.6-9.6 0-4.5-3-9.3-9.6-9.3h-6v19zM137 180.2c-4.6 0-7.5-3-7.5-8v-9.5h2.7v9.5c0 3.5 2 5.6 5.4 5.6 3.2 0 5.5-2.5 5.5-5.8v-9.3h2.8V180h-2.4l-.2-3-.4.5c-1.4 1.8-3.4 2.7-5.8 2.7zM158.7 180.3c-4.5 0-9-2.8-9-9 0-5.3 3.6-9 9-9 2.4 0 4.5 1 6.2 2.6l-1.8 1.6c-1-1-2.8-1.7-4.4-1.7-3.8 0-6.4 2.5-6.4 6.3 0 4.5 3.2 6.5 6.4 6.5 1.7 0 3.4-.7 4.5-1.8l1.7 1.7c-1.7 1.7-3.8 2.6-6.3 2.6zM179.6 180l-8.4-8.5v8.5h-2.6v-24.6h2.6v15l7.4-7.7h3.4l-8 8 9 9.2zM197 180.4c-9.5 0-13-6.7-13-12.5 0-4 1.4-7.2 3.7-9.6 2.3-2.3 5.5-3.5 9.2-3.5 3.2 0 6.4 1.2 8.8 3.5l-1.6 2c-2-2-4.7-3-7.3-3-7 0-10 5.4-10 10.4 0 4.8 3 9.8 10 9.8 2.5 0 4.8-1 6.8-2.6v-6H196v-2.6h10.4v9.7c-2.7 2.8-5.7 4-9.5 4zM218.6 180.3c-5 0-9-3.8-9-9s4-9 9-9c5.3 0 9 3.7 9 9 0 5.2-3.8 9-9 9zm0-15.6c-3.6 0-6.3 2.7-6.3 6.7 0 3.7 2.7 6.4 6.3 6.4 3.8 0 6.4-2.6 6.4-6.4 0-4-2.7-6.7-6.3-6.7z"/></svg>