<svg xmlns="http://www.w3.org/2000/svg" width="960" height="640">
  <style>
    .path {
      stroke: #212227;
      stroke-dasharray: 20,15;
    }

    .mask {
      animation: dash 12s linear forwards;
      animation-iteration-count: infinite;
      stroke: white;
      stroke-dasharray: 16,12;
      stroke-dashoffset: 1000;
    }

    @media screen and (prefers-reduced-motion: reduce) {
      .mask {
        animation: none;
        stroke-dasharray: 0;
      }
    }

    @keyframes dash {
      to {
        stroke-dashoffset: 0;
      }
    }
  </style>
  <defs>
    <path id="path1" fill="none" stroke-linecap="round" stroke-width="4" d="M216 534.5c64.6-2.6 110.7-1.1 138.5 4.5 89.5 18.2 176.8-3.7 225 0 71 5.4 87 18.2 99.5 0 21-30.5 19-118.5 7.5-134s-29.5 4-46-10.5-19-95-28.5-107-32.5-27.5-81.5-21.5-125.5 7-162.5-6-57.5-44-74-60.5-83.5 16.5-83.5 38.5c0 14.7 7.8 19.3 23.5 14 8-11.7 10-37.8 6-78.5s2.3-79.7 19-117c24.7-24.7 53.5-37 86.5-37 49.5 0 52.5-.5 63 23s-7 62.5 17.5 70c16.3 5 22.3-16 18-63 8.7-23.7 19-35.5 31-35.5 18 0 45-4.5 40 35.5s-15.5 64.5 0 70.5 26-26 26-54-9.5-51 0-58.5S568.5 2 624 2s76.5 9.5 83 23.5-10.5 39.5 7 47 21.5-9 25.5-38 44.5-32 57-20.5 27.5 42 17 67.5-28 17-28 38.5-5.5 75 0 96.5-21 17.5-28.5 30.5-13.5 67-13.5 90.5-29.5 26-43 11S714 311 666 311s-25.5-13-25.5-45-6-37-37.5-28-50.3 3.5-50.3-38.5S607.5 139 624 139s36.5-17 95.5-5 78-3 94 15.5 5 62 0 97.5-28 26.5-28 68.5-6.5 89.5-6.5 127-31.5 38-41.5 8-17-76 15.5-86 61.5 0 93.5 0H896"/>
    <mask id="mask1"><use class="mask" href="#path1"/></mask>
  </defs>
  <path fill="#fffc6C" d="M60 60h900v580H60z"/>
  <use class="path" href="#path1" mask="url(#mask1)"/>
  <path fill="#212227" d="M52 441.9c-7.3 2-14.2 5.2-20.5 9.5a71.4 71.4 0 0 0-21 27.4c-5.8 12.4-9 25.8-9.6 39.5-1.2 8.4-1 16.9.4 25.2 1.7 12.2 5.8 29.9 7.8 33.6a3.6 3.6 0 0 0 3 1.9c1.8 0 1.8-.2.5-2.3-1.9-2.8-6.1-19.9-7.5-30a144 144 0 0 1 2-46.2l2.1-8c.5-2.2 3.1-8.3 5.6-13.5 3.9-8 6-10.9 13.2-18a44.5 44.5 0 0 1 29.7-15.1c8.6-1.7 17.5-.6 25.4 3.1a74 74 0 0 1 26.4 18.4c10.5 10.7 15.7 17.8 18.3 24.9 2.7 7.2 2.7 7.7.2 7.7-1 0-3.9.6-6.2 1.4-2.4.8-9.9 2.2-16.8 3.1-6.9.9-16.1 2.5-20.5 3.6l-14.7 3.4c-8 1.7-22.9 7.4-31.5 12.1-5 2.8-6 3.8-5.6 5.4.7 2.5.8 2.5 6.3-.5 6-3.6 12.6-6.4 19.3-8.5a4 4 0 0 0 2.3-1c1.1-1.1 24-6.2 28.4-6.4 1.8-.1 2.6.6 3.2 2.4l2.8 9.2c1.1 3.7 2.4 10.7 3 15.5.4 4.2 1 8.3 1.6 12.4l.6 3.5-5.8 1.2-12.4 2.3c-11.9 2-18 4-18 6.1 0 2.2.7 2.2 5.1.4 1.9-.7 6.1-1.7 9.4-2 5.1-.6 14.5-2.5 20.6-4.2 1.7-.5 2.6 2.2 3.5 10.1.8 7.1 1.6 9.5 2.9 9.5 1.8 0 1.9-2.7.5-12.4-.6-3.8-.8-7.1-.5-7.4.7-.7 11.3 2.6 12 3.8 1 1.5-1.4 5-3.4 5s-3.1 2.6-3.1 7.8c0 4.6 3.4 4.2 3.8-.5.3-2.9.7-3.2 6.7-4.7 3.5-.9 8.8-1.6 11.7-1.6 2.9 0 8-.7 11.3-1.5 3.3-.8 8.5-1.4 11.6-1.5h5.6l.7 3.8c.3 2 .6 5 .6 6.5 0 2.2.4 2.8 1.8 2.5 1.4-.3 1.7-1.4 1.4-7.3-.1-3.8-.8-7.5-1.4-8.2-.6-.8-3.4-1.3-7.4-1.3-3.5 0-6.4-.3-6.4-.8 0-.4-1.7-1.6-3.7-2.7a58.2 58.2 0 0 1-9.8-7.5c-7.3-6.6-13.2-8.4-24.3-7.4l-8.8.7c-1.4.2-1.8-.7-2.1-3.8-.5-4.6-3.9-17.8-6.4-24.7l-1.7-4.6 6.2-1.1a318 318 0 0 1 10-1.6l11-2c3.9-.8 8.3-1.5 9.7-1.5 4 0 4.2-2.2.9-11-2.9-9.5-8.2-18-15.5-24.8-8-10-18.3-18-30-23.4-6.1-3.3-13-4.8-20-4.4-6-.1-12.6.1-14.5.5zm74.5 106.2c5.3 1.5 12.9 9.1 11.6 11.7-.5.9-1.2 2.5-1.5 3.5-.7 2.2-3.3 2.2-8.1-.3-2.2-1.1-4.5-2-5.1-2a28 28 0 0 1-6.1-2.4 41.2 41.2 0 0 0-8.8-3.2c-2.2-.4-4.3-1.2-4.7-1.8-1.4-2.1-.8-4.3 1.5-5.4 7-1.4 14.2-1.5 21.2-.1zm20 13.9c.3.5.2 1-.4 1-.5 0-1.3-.5-1.6-1-.3-.6-.2-1 .4-1a2 2 0 0 1 1.6 1zM67 450.7c.1 2.1 7.6 8 8.7 6.9 1.1-1.1-.7-3.6-3.9-5.6-3.5-2.1-4.8-2.5-4.8-1.3zm-24 6.8c-1 3.4-1 4.9-.2 5.7 1.5 1.5 2.2.7 3.2-3.9.7-2.8.6-4.2-.4-5.1-1.1-1.1-1.5-.5-2.6 3.3zm17-2v2.4l-3.4-2c-3.9-2.3-5.1-1.4-4.1 3 .7 3.3 4.2 7.4 5.8 6.8.6-.2 1.4-1.4 1.7-2.8l.6-2.4 1.2 2.2c.8 1.5 1.8 2 3.3 1.6 2.9-.8 3.3-2.6 1.3-6.5-2.7-5.3-6.4-6.7-6.4-2.3z"/>
  <path fill="#212227" d="M660.5 18.7c-4.2 1.1-6.4 3.6-8.4 9.6A36 36 0 0 0 650 37c0 3.9-2.8 11.5-5 13.5-3.2 2.9-5.4 1.6-6.2-3.9-.4-2.6-1.3-5.5-2.1-6.4a13 13 0 0 1-2.1-3.8c-.4-1.4-2.6-3-5.8-4.4-6.4-2.8-11.5-2.8-22.3-.1-2.2.6-5.8 1.1-8 1.1-3.5 0-4.5-.6-9.6-6.1-6.7-7.2-9.7-8.2-20-6.3-9.4 1.8-12.4 3.3-21.8 11.3a316 316 0 0 1-8.5 7.1 72.2 72.2 0 0 1-5.1 2.3c-3 1.2-11.5 1.9-14.9 1.3-3.3-.6-9.6-3.1-13.3-4-12.6-3-18.1-1.6-27.4 7.1-2.7 2.5-5.9 4.7-7.2 4.8-2.6.3-27.6 1.7-29.2 1.7-5.3-.2-24 0-27.7.3-4.4.2-8 .4-13 1-2.9.3-17.4.4-32.3.2-14.8-.2-28.7 0-31 .4-2.2.4-13.7 1.1-25.5 1.4-11.8.4-22 .8-22.7 1-3.4 1.1-2.2 19.6 1.4 20.9 2.2.9 16.3 1.6 42.7 2 13.1.3 24.3.9 24.8 1.4.6.6.7 4.3.3 8.9l-.7 7.9-6.7-.3a508 508 0 0 1-31.1-2.8l-25.2-2.1c-5.6-.6-5.7-.5-6.3 2.3-.8 4-2 8-3.6 11.8-1 2.8-2.1 5.4-3.5 8-.8 1.1-1.4 3.4-1.4 5.2 0 2.7.4 3.4 2.8 3.9 1.5.4 3.2 1 3.7 1.4 15.7 2.7 31.8 3.6 47.7 2.6 8-.7 15.9-.6 23.8.3l9.9 1.3.7 4.5c.7 4.7 0 12.6-1.7 18.3-1 3.2-1.4 3.5-5.2 3.6-14.6.5-27.4.5-51.4.2-22.3-.3-27.3-.1-27.8 1-.3.7-.5 4.5-.5 8.3 0 7.2 2.8 17.6 5.2 19 .7.5 6 .8 11.8.7 5.8 0 12.8.6 15.5 1.3 3.4.9 12.5 1.3 29.2 1.4 13.3 0 24.4.3 24.8.6.3.4.2 5.1-.2 10.5l-.8 9.8-3.2.7c-1.8.3-5.2.3-7.5-.1-4.4-.8-36.3-1.9-63.3-2.2l-15-.2.2 21.2c.4 7.1.2 14.2-.5 21.3l-12.2 1.2-11.5 1.2-.7 7.5c-.4 4.1-1 33.7-1.3 65.7-.5 54.8-.4 58.3 1.2 59.2 1 .5 7.7 1.2 14.8 1.6 7.2.4 13.8.9 14.8 1.1 1 .2 6.4.4 12.1.5l10.3.1 3.8 5c2.4 3.2 5.2 5.7 8.1 6.9 4.1 1.9 4.7 1.9 10.4.4 8.8-2.3 12.6-2.2 16.1.4 4.3 3.2 11.2 5.1 15.1 4.1 1.8-.4 6.1-1.7 9.5-2.9 7.4-2.5 13-2.7 18.1-.5 6 2.5 15.8 4.2 19.9 3.4 5.2-.9 8.7-2.9 16.6-9.4 3.8-3.1 7.4-5.7 8-5.7.7-.1 4.6-.1 8.8.1 10.9.3 15.5-2.4 17.9-10.7 1.4-4.5.8-8.3-1.5-10.6-.8-.8-3-4.8-4.9-8.9-3-6.4-3.4-8-2.6-11.2.5-2.1 2-5 3.4-6.5 2.8-2.9 3.3-5 1.4-6.9-.6-.6-1-1.4-.7-1.6.5-.4 17-1 24.7-.7l5.4.1-.7 4.8c-1 6.9-.8 13.5.5 18.4a58.3 58.3 0 0 0 10 17.8c2.5 2.5 12.5 9 13.8 9a36 36 0 0 1 6.5 2.5c10.8 5 23.1 6.4 55.7 6.5 15.9 0 29.9 1.5 34.5 3.6 1.7.7 5.2 2.1 7.9 3 2.7.9 6.8 2.8 9 4.2a63.7 63.7 0 0 1 19.2 20.8c3.6 8.2 3.6 8.4-4.8 8.5-6.4 0-15.1.4-18.4.8-.6 0-1.9 2-2.9 4.3-3 6.8-14.5 23.9-15.6 23.2-.6-.3-.8-1.6-.5-2.9.3-1.2.1-3.6-.4-5.1-.5-1.6-1.1-7.2-1.4-12.4-.6-14.9-2.8-35.4-3.9-36.8-2.6-3.3-5.8.5-15.3 18.4a200 200 0 0 1-22.4 34.7c-.3.4-.7-1.2-.9-3.5-.1-2.3-.9-5.8-1.9-7.7-2.1-4.4-5.9-15.2-7.6-21.6l-2.9-10.4c-1.4-5.1-3.1-7.4-5.2-6.8-.9.3-5.4 7.8-25.8 42.8-2.6 5.2-5.9 10-9.7 14.3-2.3-2.6-9.5-18.3-14.6-31.8-3.1-8.4-6.6-16.4-7.6-17.7-1.8-2.3-1.9-2.3-3.1-.5-8.9 14-42.8 58.6-44.6 58.6-.7 0-5.1-9.4-5.1-10.8 0-4.4-15.6-39.2-18.3-40.9-.6-.3-1.6.2-2.1 1.1-5.8 9.7-17.8 27-24.4 35-8.1 9.7-8.2 9.8-9.2 7.2-.5-1.5-2.7-6.4-4.9-10.9a93 93 0 0 1-5.6-15.7c-2.9-12.1-7-23.5-8.6-23.7-1.6-.3-5.1 5.7-17.7 30.7-4.9 9.6-9.2 17.4-9.7 17.3-1-.2-6.5-13.8-10-24.8-2.3-7-4.4-12.1-8.9-21.5-2-4.3-3.9-2.9-8.6 6.5-2.5 5-6.5 12.2-9 16l-9.1 14.7-4.6 7.7-3.8-10.2c-2-5.6-4.7-12.5-6-15.2l-3.9-9c-2.9-6.8-4.4-9-6.5-9.3-1.2-.2-2.1.1-2.1.6s-2.5 5.1-5.5 10.1c-3 5.1-5.5 9.5-5.5 9.9 0 .4-.9 1.8-1.8 3-1.7 2.2-2.6 2.4-14 2.7l-12.1.4-.6-3.7-.8-5.1c-.2-1.6-2.1-2.8-5.9-3.5-2.3-.5-2.7-1.2-3.2-5.3-1.7-14.5-2.1-15.7-6.1-14.8a80 80 0 0 1-10 .9l-8 .5v8.8c-.1 9.6 1.8 43.3 3.4 63.8 2.1 25.5 3.3 53.3 3.2 74.2-.1 20.4 0 21.3 1.8 21.3s1.9-1 2.1-19.8l.2-20.7-.5-8.5c-.4-4.1-.9-12.7-1.3-19l-1-18-.5-9-1-11.3c-1-9.8-1.8-24.7-2.3-44.5l-.4-13.2h3.3c1.8 0 5.2-.3 7.6-.6l4.4-.6 1.4 9.8c.9 6.5 1.5 23 1.7 47.9.2 20.9.6 42.5.9 48 .6 8.6 1.6 46.6 1.5 56.2 0 2.8.4 3.3 2.4 3.3 1.3 0 2.7-.7 3-1.5.3-.9.1-6.2-.5-11.8-.6-6-.7-12.4-.2-15.3.8-4.8.9-4.9 4.3-4.9 3.5 0 3.5-.1 4-5l.5-5c0-3.2-.2-4.9-.4-5a17 17 0 0 1-.3-4.9c0-5-1.2-6-6.4-5.7l-3.1.2-.7-8c-.4-4.4-.4-8.6-.1-9.2.4-.5 2.3-.9 4.3-.7 3.1.2 3.7-.1 4.3-2.2.4-1.4.7-4.1.8-6.1.1-3.5.4-3.8 4.9-5.2 11.8-3.7 15.5-3.1 20.2 3.5 7.6 10.8 13.9 14.9 23.2 14.9 9.3.1 13.9-1.4 18.1-6.1 4.8-5.5 11.5-9 18.7-9.7l6-.6 4.8 4.9c2.7 2.7 5.7 6.3 6.6 8 2 3.3 10.1 9.6 16.9 13.1 2.4 1.2 7 2.5 10.3 2.8 7.2.8 10-.2 20.9-7.3a36.4 36.4 0 0 1 22.6-7.2c6.4 0 9 1.5 16.5 9.2 3.4 3.5 7.2 6.8 8.5 7.5 16.8 8.1 23.3 9.9 33.2 9 6.7-.6 12.6-3.7 19.4-10.3 6.7-6.6 12.9-9.4 20.3-9.4 5.5 0 7 .5 14.3 4.8 10.4 6.1 15.7 8.2 20.8 8.2 5.7 0 9-2 15.3-9.7 6-7.3 16.3-14.6 23-16.4 4.3-1.2 18.2-.4 20 1 .6.5 3.1 1.2 5.6 1.5 2.5.4 7.8 1.4 11.9 2.3 13.4 2.9 25.1.3 32.8-7.2 6.2-7 11.2-15 14.9-23.5l2.1-8.9a54 54 0 0 0 1-17.1c-.5-10.3-.4-10.8 1.5-11.3 1.1-.3 3-.2 4.2.3 2.8 1 21.3 1.6 22.2.7 1.8-1.7 2.1-14.6 1.2-44.4-.2-5.6-.1-10.3.2-10.6 1-.9 14.5-1.5 18.5-.9 3.5.6 4 1.1 4.7 4.2 1.6 8.1 4 29.1 4.2 36.7.1 6.2.5 8.6 1.7 9.9 1.4 1.3 5.1 1.7 21 2.3 10.7.4 22.3.6 25.9.4 8.2-.4 22.9-.6 43.4-.4 8.8.1 16.3-.2 16.7-.6.5-.5 1-7.8 1.1-16.3l.3-15.5 11.2.4 11.3.3 1-2.8c.8-1.9 1-13.6.8-34.6-.3-31.3-.3-31.7 1.8-32.2 2.2-.6 9.8-7.6 11.5-10.7.5-1.1 4.1-3.5 7.8-5.4 6.9-3.4 8.1-4.8 8.1-8.8a56 56 0 0 0-6.9-18.3c-3.1-3.9-2.6-6.4 1.9-10.9a30 30 0 0 0 5.5-7.4c1.7-3.8 2-13.7.5-14.6-.5-.3-1-1.2-1-1.8 0-.9 3.3-1.2 11.4-1.2l11.3-.1 1.1 2.8c1.4 3.7 4.8 4.3 10.5 1.9 5.2-2.2 6.7-4.7 6.7-10.9 0-4.2-2.6-6.4-8.9-7.6-3-.5-3.7-.2-7.5 3.9l-4.1 4.5-12.4.3-12.3.2-2.8-3.3c-3.4-4.1-4.1-7.9-2.2-12.6 1-2.5 2.4-3.9 4.8-4.8 3.2-1.1 3.4-1.5 2.8-4.3-.3-1.6-1-3.5-1.5-4.1-1.4-1.7-1.3-12.5 0-15.9.7-1.7 2.1-4 3.2-5.1 1.8-1.9 2.5-2.1 5.6-1.2 1.9.5 4.1.7 4.8.4 1.2-.4 2.1-4.3 2.9-12.7.5-4.9 2.1-7.6 5.6-9.4 2.7-1.4 3.2-1.4 6.2.5 1.8 1.1 4.3 2 5.6 2 1.3 0 3.8 1.1 5.5 2.4 4.4 3.3 7 3.9 11.6 2.6 6.3-1.7 7.9-6.7 4-12.1a24.1 24.1 0 0 0-11.7-6.9c-1.9 0-6.5 4.5-7.8 7.7-1.6 3.6-2.7 3.9-6.4 1.8a18 18 0 0 0-6.7-1.5c-6.7 0-8.6 2.9-11.3 17.1l-1.1 5.7-3.6-1.1c-3.4-1.1-3.7-.9-6.8 2.5-4.8 5.2-6.4 12.8-4.3 21.4l1.5 6.4-2.8 2.1c-6.2 4.4-7.4 10.7-3.4 17.6l2.6 4.3-8.3.1-8.8.1-7.3-.6-6.8-.7.6 10.8c.6 9.9 1 14.6 2.1 21.3a276.3 276.3 0 0 1 2.9 34.5l.7 17.8-2.9-.7c-1.5-.4-5.7-2.1-9.3-3.9l-6.5-3.2-.1-14c0-15.3-.8-21.8-2.9-23.5-1.3-1.1-3.8-1.6-12.5-2.5-2.5-.2-15.2-1.8-21-2.2-14.2-1.1-14.7-1-15.4 3.5-1.5 9.4-2.5 18.8-3.1 27.3a86 86 0 0 1-1 10c-1 1.5-7 0-8.8-2.2-1.4-1.8-1.7-3.3-1.2-7.5.8-5.7-.4-8.9-3.4-9.9-1.7-.5-6-2.5-8.3-2.5a5.6 5.6 0 0 1-5.8-5.8c0-1.5-.7-3.7-1.5-4.8a74 74 0 0 1-3.6-15c-.7-4.8-1.7-9.6-3.1-14.2-.7-.8-4.6-1.2-13-1.2-11 0-12-.1-11.3-1.8 2.3-6.1 2-7.1-4.4-13.3a27 27 0 0 1-6.1-7.6c0-1.8 2.8-5.6 9.3-12.6 4.3-4.7 4.4-4.7 10.8-4.7h6.4l-.3 5.2c-.2 2.9.1 7.8.5 10.8l.8 5.5 16.5.1a92 92 0 0 1 23.2 1.9c.5-.2 4.2.5 11.3 2.2 5.1 0 18.6-1 22.3-1.7 3.8-.6 7.4-1 8.1-.8.7.2 2.1-.8 3.1-2.2 1.5-2.1 1.9-5.5 2.6-21.5.3-9.7.8-19.3 1.4-29 5.8 7.3 18.2 6.9 27.8-.2 3.5-2.6 3.8-4 1.8-9.5l-1.4-3.8 5.7-2.5c8.9-4.1 13.1-9.3 13.1-16.2 0-4.1-7.6-17.2-10.6-18.3-5.8-2.2-4.9-11.2 1.7-17.2 11.9-10.6 12.8-11.6 13.9-15.9 2.2-8.2-1.9-15-9.8-16.5a9.4 9.4 0 0 0-6.9 1.1c-1.8 1-3.6 1.6-3.9 1.3-.3-.3-2.5 0-4.9.8-4.4 1.3-11.1.9-12.1-.7a14 14 0 0 1-.9-3.8c-.6-5.2-1.4-6.5-5.2-9.1-3-2.1-5.1-2.6-12-2.9-9.4-.4-10.6.2-20.8 10.2-5.1 5-8.1 6.8-10.1 6-.7-.2-1.5-4.3-1.9-9.6-1-13.8-3.3-28.9-4.5-30.1-.5-.5-2-1.1-3.3-1.2-8.5-1.3-17.1-2.3-25.7-2.9-9.3-.3-32.2-1.5-34.2-2.1-2.7-.8-3.4-1.6-3.9-4.4-1.1-7.1-4.6-11.5-13.1-16.6-8-4.9-16.5-7-22.3-5.7zm17.9 7.3c7.9 4 9.4 5.8 11 8.8.8 1.5 1.7 4.4 2.1 6.4.8 4.5.7 4.5-13.9 5.2-7.2.4-11.2 1-11.7 1.8-1.3 2-3.7 14.6-4.4 22.8-.4 4.1-.6 16.1-.6 26.7.2 19.6-.5 23-3.5 18.8-3.6-4.9-9.9-6.8-12.8-4-.8.8-1.8 1.5-2.1 1.5-.4 0-1.8.9-3.2 2-1.5 1.1-2.8 1.8-3 1.6-.2-.2 1.2-3 3.3-6.1 3.7-5.8 5.1-11.4 4.1-15.7-.4-1.3-3.2-4.8-6.2-7.8l-5.6-5.5.4-7.2c.2-4 .9-7.8 1.4-8.5.6-.7 1.8-3.3 2.6-5.8 1.4-4.3 1.7-4.5 6.2-5.2 3-.4 5.4-1.5 6.7-3 3.2-3.6 5.7-9.9 5.8-14.3.1-5.9 3.1-13.8 5.7-15.1 2.9-1.4 9.8-1.4 17.7 2.6zm-73.1 10.4c8.8-2.5 16.6-2.9 21-1.1 4.1 1.8 7.7 7.7 7.7 12.7 0 2.7-.3 3-3.3 3-8.4 0-13.6 3.5-17.2 11.6-3 6.6-6.4 8.9-13.2 8.7-2.9-.1-5.7-.4-6.2-.7-.9-.6-.7-8.8.4-13.3.8-3.5-1.9-5.3-8.3-5.5a636 636 0 0 0-41.5-.2A925 925 0 0 1 481 50c-1.2-.7 4.2-5.5 8.7-7.9 2.1-1.1 11.3-.9 13.1.3.4.2 5.3 1.6 10.7 3a33.5 33.5 0 0 0 17.5.5c7.8-2.1 10.1-3.5 21.2-13.1 4.8-4 8.3-6.2 12-7.2 11.9-3.4 15.1-2.7 21.7 4.6 6.8 7.4 10.6 8.6 19.4 6.2zm109.5 15.1l11.2 1c1.9.2 5 .4 6.8.4 2.2.1 7.6.4 8.9.6l10.1 1.6c6.3.9 8.2 1.5 8.3 2.8.7 10.7 1.8 21.4 3.5 32 .5 2.4.5 2.4-5.8 1.8-3.5-.4-7.5-.9-9-1.3-2-.5-3.1-.1-4.5 1.7a73.5 73.5 0 0 1-11.9 11.6 45 45 0 0 1-1-7.8c-.3-4.1-.9-7.8-1.4-8.2-1.2-1.3-8-2.6-13.5-2.7-2.7 0-7.3-.6-10.1-1.4-2.9-.7-5.7-1-6.3-.7-1.2.8-3 10.2-3.6 18.1l-.4 5.1c-.2 1.5-4.3 1.6-5.7.2-1.2-1.3-2.2-1.4-5-.5-3.2 1-3.4.9-3.4-1.4 0-3.6 2.3-8.4 6.3-13.2 4.5-5.4 5.4-9.4 3.2-15.2-1-2.5-2.4-7-3.3-10.2-1-3.1-1.4-5.2-1.2-6.3.2-1.6 5.7-5.4 7.1-7.2 1.6-2 2.1-2.1 9.7-1.4l11 .6zM682.5 62c1 4.5 1.6 5.8 3 9.3 3.6 9.1 3.3 11.6-1.9 17.7-3 3.2-5 7.2-5.6 11.6-.7 3.5-1 7-.7 7.7.5 1.4-8.4 11.7-10.2 11.7-.8 0-1.1-6-1.1-19.5 0-18.2.5-25.5 3.1-41.7l1.1-6.7 5.1-.4 9.5-.5 4.3-.2-2.6 2.2c-2.8 2.5-5 4.3-4 8.8zm-217.1 9.8c0 .1-2.1-.6-4.5-1.7a42 42 0 0 0-8.1-2.6c-3.2-.6-7.4-.5-9.6-.5-4.1 0-14 3.6-17.7 6.4a14.9 14.9 0 0 0-4.4 5.5c-2 4.7-5.9 5.7-14.1 3.7-10.1-2.4-12.1-2.2-17.8 2.3-7 5.5-9.6 10-10.9 18.8-.6 3.8 3 12.4 7 16.7 3.4 3.6 3.5 8.5.6 14.6a24.8 24.8 0 0 0 2.4 23.5c4.3 7.1 4.8 12.1 1.6 16.6-3 4.2-6.9 14.4-6.9 17.9a36 36 0 0 0 3.5 10.3c4.8 10 5.4 14.6 2.3 18.1-2.1 2.5-2.9 2.8-9.2 2.7-9.1 0-12.9 1.9-18.4 9.6-3.2 4.5-3.1 9.2.1 13.5 3.2 4.2 4.4 9.3 2.2 9.3a74.4 74.4 0 0 1-3.7 5.6c-5.3 7.1-5.7 8-4.6 11.3a25 25 0 0 0 1.8 4.1c.4.5 1.1 2.9 1.5 5.3.5 3.2.3 4.9-.9 6.7-1.4 2.2-2.4 2.5-7.5 2.5h-5.8l-1.2-13.8c-1.4-16.3-3-25.1-4.9-27.4-1.2-1.4-4.2-1.6-26.8-1.5-21.4.1-25.7-.1-26.4-1.3-.6-.8-1-5.6-1-10.5 0-5-.3-12.7-.6-17.2l-.7-8.1 7.9-.4c8.5-.3 14.3-.3 17.4.1l17.7.5c9.8.4 21.4.9 25.8 1.3 13 1.1 19.6.8 20.6-.8.5-.8.9-4.6 1-8.4.2-8.7.6-13.1 1.3-16 1.5-5.8-4.2-6.8-33.5-6.3-9.5.3-19 0-28.4-1-4.4-.7-11.2-1.3-15.2-1.4l-7.2-.1-1.5-4.8c-1.9-5.7-2.1-12.5-.3-13.6.6-.4 19-.8 40.8-.8 30.4 0 39.9-.3 41.1-1.3 2.4-2 4.2-24.6 2.4-31.5-1.1-4.7-11.8-5.7-52.1-4.9-10.5.3-13.3.1-27.1-1.4-9.2-.9-9.2-1-6-9.6 1.5-4 3.3-8.6 4.1-10.1.9-1.6 1.3-3.2 1.1-3.5-.2-.4 2.1-.6 5.2-.5 3.2.2 8.9.3 12.7.3 3.9.1 10.6.7 15 1.5s14.5 1.6 22.5 1.7l14.5.3c.7-13.3.7-21.2 0-23.5-1-3.5-17.9-3.3-32.5-3.6-14.6-.3-28.9-.8-31.9-1.2-4.7-.6-5.5-1-6.1-3.2-.3-1.4-.3-3.9 0-5.6.4-2.6.9-3.1 3.5-3 6.1.1 32.3-1.5 34.6-2.1 1.3-.3 19.7-.7 40.9-.9 21.2-.2 40.3-.6 42.5-.8 2.2-.2 12.8-.5 23.5-.7 10.7-.1 22.2-.5 25.5-.8l6.1-.6-1.4 8-1.8 8.3zM526.3 56l23 .9c.5.1 6.8.2 14 .2 7.3 0 16 .2 19.5.6l6.3.5-.5 3.7-.6 5.3c0 1.5-.5 1.5-5.2.2-6.6-2-13.6-1.9-20.1.2-1.8.9-4.7 3-6.5 4.7-2.7 2.6-4.3 3.2-9.4 3.7-6.5.6-10.6-.7-19.6-6.4-5.8-3.6-11.5-4.2-20.9-2.1-11.6 2.5-16.2 4.2-20 7.1-4.1 3.1-9.3 4.1-13.3 2.4-2.7-1.1-3-1.7-3-5.4.1-5.3 1.4-11 3.3-13.9 1.4-2.2 1.9-2.2 18.6-2.2 11 0 29.5.5 34.4.5zm106.2 1.7c-2.6 6.3-5.5 17-5.5 20.6 0 4.3 1.9 8.1 5.2 10.5 1 .8 3 2.6 4.3 4 3.1 3.3 3.4 9.8.6 13.3-1 1.3-3 4.8-4.5 7.6-1.4 2.9-3.1 5.3-3.7 5.3-.5 0-2.8-1.4-4.9-3.2-2.3-1.8-4.9-3-7.7-3.7-3.8-.7-3.8-.7-3.5-5.1.2-2.5.8-6 1.4-7.9 1-3.1.8-3.7-1.2-5.3a7.8 7.8 0 0 0-4.9-1.6 62 62 0 0 1-9.3-.6c-6.7-.7-7.6-1.4-6.9-5 .1-.5.4-3.5.5-6.5.3-4.2.7-5.5 1.7-5.2a29 29 0 0 0 15.5-.8c3.3-1.5 4.6-3 7.2-8.2 3.6-7.3 6.9-9.8 12.6-9.9 3.2 0 3.7.3 3.1 1.7zM526 73c.3.4 2.1 1.8 4 3.1 3 2 6.5 4.2 15.1 4.3 8.6.1 9.1 0 11.7-2.7 1.4-1.5 4.6-3.9 7.1-5.4 3.9-2.2 5.1-2.5 10.4-1.9 3.3.3 6.7 1 9.9 1.8l4 1.2-.7 8a66 66 0 0 1-1 8.4c-.2.2-7 .5-15.2.7-8.1.2-20 .7-26.3 1-6.3.4-17.6.7-25 .8l-46.9.7-1-3.8c-2.1-8.7-2.6-7.9 5.1-7.8 4.1.1 7.2-.4 7.6-1 .8-1.3 11.2-6.7 11.2-5.9 0 .3.8.1 1.9-.4a55 55 0 0 1 22.7-3.4c3.4 1.3 5.2 2 5.4 2.3zm286.6 13.9c1 6.4 3.9 9.3 10 9.8 2.7.3 6.8 0 8.9-.7 12.2-3.6 13.7-3.9 16.3-2.9 3.4 1.3 4.2 2.6 4.2 7.2 0 4.8-2.3 8.8-6.3 11.2-8 4.7-13.7 13.1-13.7 20 0 3 3.4 8.1 6.8 10.1 3.4 1.9 7.5 9.8 7.5 14.3 0 3.9-3.7 8.7-8.6 11.2-2.6 1.3-6.3 2.7-8.7 4.4-2.1 1.5-2.1 3.5 0 5.9 1.1 1.9 2.5 2.2 2.5 6.1-1.3 3.5-9 6-13.5 6.6-4.5.5-12.4-4.2-13.7-9.1.6-13.3.6-26 0-38-.9-18-3.5-25-4.6-26.8-.5-.6-2.7-1.2-5.1-1.2h-25.3l-.7-7.5v-9.8l3.4-1c1.9-.3 4.5-1.1 8-4.7s9.5-11.1 15-11.1c3.7-1 10.3-1 11.8-.1 3.2-.2 5.1 1.8 5.8 6.1zm-92.1 3.7c2.8.3 5.1.7 5.3.9.6.6 1.8 11.1 1.4 12.3-.6 1.9-4.7 1.4-6.7-.8-.9-1-4.1-2.4-7-3.1-4.4-1-5.8-.9-8.4.4-2.9 1.5-3.1 1.4-3.1-.4 0-1.1.5-4.1 1.1-6.6l1.2-4.5 5.6.6 10.6 1.2zm34.7 6.5c.9.5 3 .9 4.7.9 1.7 0 3.1.3 3.1.7l.4 8.6.4 7.8-5.2-.1c-2.8-.1-8.5-.2-12.6-.1-6.4 0-9.6-.2-13.2-.8-2-.3-.5-4.2 2-5.5 1.5-.8 5.1-4.2 8-7.5 5.6-6.4 6.9-6.8 12.4-4zm-171.9 9.2c-.5 5.3-.8 5.7-2.7 5.1-2.1-.7-3.3-.8-7.2-.5-1.2 0-4.4 2.3-7.2 5.1-2.8 2.7-5.7 5-6.5 5-.8 0-3-1.6-5-3.5-3.1-3-4.3-3.5-8.5-3.5-2.6 0-5.3.5-5.9 1.1a22 22 0 0 1-3.4 2.3c-1.6.7-2.8 2.8-3.7 6-1.2 4.3-1.2 5.3.1 8.1l1.5 3.2-8.1.7c-17.5 1.3-17.1 1.4-24.6-5.8-3.6-3.6-8.2-7.7-10.1-9.2-6.3-5-17.3-19.5-15.8-21 .4-.3 6.3-.7 13.1-.7 9-.1 20.5-.8 22.5-.8l12.5-.5a493 493 0 0 1 38.1-1.2l22.9-.4-.7 2.4c-.3 1.2-.9 4.9-1.3 8.1zm18.9-8.6l5.8.6-.6 7.1c-.8 10.4-1 10.9-4.7 12.9-4.9 2.7-10.2 2.6-12.9-.1-2.5-2.5-2.5-5.3-.3-18 .7-4.1.9-4.3 3.9-3.7l8.8 1.2zm-130.9 1.1l3.1 6a69 69 0 0 0 12.4 17.2c.4 0 4.1 3.2 8.2 7l7.5 7-9.5-.1c-5.2-.1-13.9-.6-19.2-1.1-5.3-.5-18.4-1-29-1.2-25-.4-31.5-1.2-33.1-4a135 135 0 0 1-.6-29c.2-.2 6.4-.6 13.8-1l46.4-.8zm249.9 8.8c7 3.5 7.9 6.4 2.1 6.5-8.9.2-19.6-.1-20.4-.7-1.7-1-.9-4.1 1.6-6.8 2.2-2.4 3.2-2.7 6.8-2.3 2.3.2 6.8 1.7 9.9 3.3zm-25.9 5.4c1 0 1.5.4 1.2 1-.3.5.4 2 1.7 3.3 2.2 2.2 3.3 2.4 14.8 2.6 6.9.1 12.8.5 13.2.9.3.4.1 3.8-.5 7.7l-1.2 7a254.6 254.6 0 0 0-2.8 11.1c-.1.1-6.9.5-15.2.8-8.2.3-17.6.9-20.7 1.2-5.4.6-5.8.5-5.8-1.4 0-1.2 1.6-3.2 4.3-5.1l5.5-4.1c2.4-2.1 1-11.2-2.5-14.7-.6-.7-1.9-3.6-2.8-6.4-1.6-4.8-1.6-5.1.1-6.4 2.5-1.9 3.4-1.8 6.4.5a9 9 0 0 0 4.3 2zm-114 2.7c.2.5-.5 4.7-1.6 9.5l-2 8.8-7.6.1-19.6.4c-8.4.2-12.2 0-12.7-.8-.4-.7-.8-3.1-.8-5.5 0-4.8 2.1-7.5 7.6-9.8 4.7-2 5.1-1.9 9.5 2.6 5.2 5.3 7.7 5.2 13.7-.4 2.6-2.4 5.4-4.6 6.2-4.9 2.2-.8 6.8-.8 7.3 0zm78.7 10.4l-.2 10.6c-.3 7.8.3 15.1 1.5 16.7 1.1 1.5 2.9 1.9 8.8 2l7.4.1v6.2c0 5.1-.4 6.6-2.4 8.7-2.9 3.1-8.1 3.5-13.1 1-6-3.1-17.5.2-21.3 6a44 44 0 0 0-3.2 10.6c-1.9 9.5-3.5 12.5-7 13.4-1.3.3-4.6 3.1-7.3 6.2-4.9 5.4-5 5.5-9.8 5.2l-4.8-.3-.4-6.5c-.4-7.2 1.2-30.4 2.3-33.3.6-1.4 2.1-1.7 10.2-1.7 11.7 0 13.9-1 18.7-8.4 2.9-4.5 2.5-13.9-.8-20.5-2.4-4.6-5.6-9.5-5.6-13.9 0-4.8.1-5 3.2-5.6 1.8-.3 4.4-1.7 5.8-3a21 21 0 0 1 8.8-4.5c.2-.1 2.3 1.6 4.8 3.6 3.7 3.2 4.4 4.3 4.4 7.4zm25.4 2.5c.6 2.1.6 4.8.6 5.2 0 .5-2.5 2.6-5.5 4.6-4.9 3.2-5.5 4-5.5 7.1 0 2.1-.5 3.6-1.2 3.6l-4.8.3-3.5.1-.3-12.2-.3-12.3 4.7-1.1c3.8-1 4.9-1.8 6-4.5 1.7-4.2 3.6-4.8 4.9-1.5a87 87 0 0 0 2.6 5.6c.9 1.6 1.9 3.9 2.3 5.1zm-64.8-11.3c1.2.7 3.5 2.4 5.1 3.8 2.8 2.3 3 3 2.6 7.5-.3 3.5.1 5.8 1.4 8.1 7.4 13 8.3 16.3 6.2 23-1.8 5.7-5.3 7.3-15.8 7.2l-9.1-.1.1-13.7c.1-7.5.4-18.5.8-24.6.6-10.6.7-10.9 3.1-11.6 3.4-1 3.3-1 5.6.4zm-22.7 6.7c3.2 0 6.2-.5 6.9-1.2.6-.6 1.3-1 1.5-.7.2.2.1 10.6-.1 23.1-.4 22.2-.5 22.8-2.6 23.4-4.2 1.7-8 4.5-10.7 8.1-2.4 3.6-2.4 7.4.1 10.6 1.1 1.4 2.3 4 2.6 5.7.6 2.7.1 3.7-2.9 6.8-4.4 4.6-7.8 11.8-7.3 15.7l.5 5.3a11 11 0 0 0 6.1 7.9c8.5 4.3 5 10.4 4.2 13.7-.5 2-2 7-.5 10.1 1.9 3.8 6.7 7.7 10.1 8.2 7 1.2 12.1 1 16.7-.5 4.5-1.6 5-2.1 6.3-6.2.7-2.5 1.3-7.9 1.4-12 .1-7.3-.6-10.1-4.6-19.3l-1.7-3.9 8.8.7c4.8.3 10.5.8 12.5 1.1l3.7.6.6 6.1a41 41 0 0 1 0 8.7c-.9 4 1.5 26.4 2.9 27.5.7.6 5.4.9 10.7.7 21.5-.7 24.8-.7 23.8.3-1.9 1.9-.8 12.7 2.1 18.5a18 18 0 0 0 4.4 4c4.5 3.1 12.5 3.7 18.8 1.5 5.9-2 10.5-2 11.2.2.5 1.8.9 6.2 2.1 22.8.3 4.4.9 9.5 1.2 11.2l.5 3.3h-14c-12.5 0-17.2-.9-17.2-.5 0 .3-4.5.5-10 .5h-8.5c-.7-11.3-1.2-17.8-1.5-19.5-1.2-8.2-1.6-11.3-2.5-12.5-.7-.9-6.9-1-17-.9a163 163 0 0 1-22.5-.8l-7.7-.7c-10.5-.9-17.4-2.1-17.6-1.9-.2.1-2.8-.3-5.8-1.1-3-.7-8.3-1.7-11.9-2l-10.6-1.2-4-.6.3-20.1c.2-11.1.6-20.7.8-21.4.1-.5 0-1.9-.5-4.2l-.1-10.3c0-5.7-.2-12.1-.3-14.3a421.2 421.2 0 0 0-7.1-48.5c-1.2-5.2-3.6-6.9-18.1-7-13.6 0-15.5-.5-14.9-4.2.2-.9 1.5-2.9 3-4.5 2-2.2 2.5-3.6 2.3-6.5l-.3-3.7h19.4c10.7 0 19.8-.4 20.3-.9 1.1-1.1 2.6-6.8 3.4-12.7.8-5.8 2.1-6.9 5.1-4.5 1.9 1.5 4.1 2 8.2 2zm166-2.8l-.5 6.5c-1.2 8-2 16.2-2 24.4-.3 9-.8 16.6-1 16.8-.1.2-2.4-.4-5-1.3s-6.6-1.6-8.9-1.6c-3.4 0-4.3.4-5.8 2.9-.9 1.6-1.7 3.6-1.7 4.4 0 .8-1 2.7-2.2 4.2-1.9 2.4-2.6 2.7-6.4 2.1-2.4-.3-7-1.9-10.2-3.5-10-5-19.3-5.4-20.8-.8-.7 2.1-3.6 6.2-7.2 10.1-1.5 1.6-2.8 1.8-11.7 1.2-5.5-.3-10.9-.7-12-1l-8.1-1.1-6.2-.7-1.1 3.4c-.6 1.8-1.6 7.9-2.1 13.6-1.2 11.5-2.3 15.4-4.2 14.8-.7-.3-5.8-.7-11.3-1.1-5.5-.3-10.2-.8-10.4-1.1-.8-.8 6.3-7.5 9.8-9.1 3.6-1.7 6.1-6.3 6.1-10.9 0-1.5.8-5.2 1.7-8.2 1.9-5.9 5-9 11.5-11.2 3.1-1.2 4.3-1.1 8 .3 6 2.3 12.9 2.2 16-.3 2.8-2.1 5.3-9.6 4.4-12.9l-1.1-4c-.8-2.6 1.1-3.1 12.5-3.6l20.7-1.1 11.3-.6.9-3.6c1.9-7.4 4.1-20.8 4.1-24.5V120h13.4c7.3 0 14.7.3 16.4.6l3.1.6zm28.3 0l3.5.1 1.8 7.1c1.7 7 2.6 27.8 1.7 39.2l-.4 5.2-4.2-2.4c-4.7-2.6-12-3.6-15.1-2.1-1.1.5-2.8 1.8-3.8 2.8-1.9 2.1-8.1 2.6-9.2.8-.4-.5-.4-8.2 0-17l1.7-26.9c.2-3.6.6-6.7.9-7 .4-.3 3.6-.4 7-.2l16.1.4zm-254.4 21.1c.2 1-1.3 3.6-3.2 5.9-3.5 4.1-3.7 4.7-1.9 9.5.4 1-1.2 1.3-5.8 1.3-3.5 0-8 .3-9.9.6l-3.5.6-.1-7.4c0-4-.4-8.3-.8-9.4-.8-2.1-.6-2.2 9-2.3 4.4 0 8.7-.1 13.1-.5 1.8 0 2.9.7 3.1 1.7zm1.9 25.5c3.8 4.3 4.2 8.1 1.3 10.7-1.1 1-2.5 3.5-3.1 5.5-1.4 4.5 0 7 6.6 12.4 2.8 2.3 5 5.3 6.1 8.2l1.7 4.5-4 4.2a31.5 31.5 0 0 0-5.3 7.4c-1.4 3.8-3 4.3-3 1-.1-8.5-3-29-4.3-29.8-.5-.4-10-.7-21.1-.8l-21.4-.3c-1.4-.1-.4-1.4 8-10 3.7-3.8 6.3-7.6 7.6-11l2-5.3 7.3-.3c4.1-.1 8.1-.4 8.9-.6 4.5-1 9.6.7 12.7 4.2zM451 165c19.6-.2 32.1-.3 44.2-.1l10.8.2-1.5 3.7c-.8 2-4.6 6.7-8.4 10.4-3.8 3.7-7.5 7.6-8.3 8.7-1.2 1.8-3 2.1-13.9 2.7-6.8.3-12.7.8-13 1-.4.2-1 4.3-1.3 9.1-1 12.8-2.6 21-4.2 22.4-1.2 1-2.6.7-7.2-1.4-9.6-4.4-11.1-4.4-16.5.4-5.7 4.9-7 7.3-6.9 11.6.1 3.2.1 3.3-4.2 3.3h-4.4l-.5-5.8c-.5-6.1-.1-60.7.5-63.2.4-2 10.8-4 16.8-3.3 2.5.3 10.6.4 18 .3zm119.1 39.5c1.4 10.4 1.9 20.1 1.9 38.1l-.9 37.2-.1 4.4-11.7-.7c-6.5-.4-12-.8-12.3-1-.3-.2-5.7-.4-12-.5-6.3-.1-13.5-.4-16.1-.7-4.3-.5-4.5-.6-4.7-4a44.3 44.3 0 0 0-13.2-20.8c-2.9-2-7.8-6.8-10-9.5l-4.1-5 4.3.5a555 555 0 0 0 33.5 1.9c13.1.5 13.3.5 13.8-1.7.6-3 1.4-9.7 1.5-12.5 0-1.7.6-2.2 2.4-2.2 2.6 0 5.6-3.3 5.6-6.1 0-1 2-3.6 4.4-5.9 4-3.9 4.3-4.4 3.6-7.6-2-6-5.7-11.2-10.7-15.1-2.4-2-4.3-4.3-4.3-5.3 0-.9 1.6-3.8 3.5-6.3 4.3-5.6 4.4-8.6.5-12.9a15 15 0 0 1-3-4.2c0-1.1 20 0 21.1 1.1 1 1 4.4 19.9 7 38.8zm190.2-29.4c-1 11.6-1.8 23.1-2.6 34.7-.1.9-4.7 1.3-18.9 1.6l-18.6.3-.7-4.6c-1-6.7-4.4-16.4-6.3-17.9-.9-.7-4.4-1.2-8.2-1.2a28 28 0 0 1-7.3-.6c-.9-.9 3.2-7.1 6.5-9.9 3.1-2.6 4.2-2.6 10.1-.2l9.3 4.2c4.8 2.4 12.6 3.3 15 1.7.7-.4 2.2-3 3.5-5.7 1.2-2.8 2.7-5.6 3.2-6.3 1.2-1.6 5-1.5 10.7.2 3.8 1.1 4.5 1.7 4.3 3.7zm38.3 15.8l-1 16.1c-.3 2.5-.7 9-1.1 14.5l-.8 12c-.3 2.7-2.1 3.3-15 4.6-8 .7-13 .7-17.4 0l-12.5-2.2c-3.5-.6-11.7-1.1-18.3-1.2l-12-.2-.3-8.2-.3-8.2 4.8-.7c2.6-.4 12-.8 20.8-.8l16-.1 1.1-2.5c.7-1.4 1.5-9.3 1.8-17.5.3-8 1.3-14.4 1.6-19.5-.7.1.4.3 3.5.5 4.6.3 7.5-1 10-4 1.7-2 5.2-2.4 10.5-1.3 2.4.6 5.1 2.3 6.6 4.1 2.5 3 2.5 3.3 2 14.6zm-193.7-14.3c-.5 2.5-1.1 12-1.4 21-.6 19.6-.6 19.8 9.9 20.9 4.7.5 6.6 1.1 6.6 2.1 0 .8 1.1 3.6 2.4 6.2 1.3 2.6 2.6 6.4 3 8.6.7 3.7.5 9.9-1.5 16.7-1.3 4.3-4.4 5.9-11.1 5.9-8 0-13.8-4.4-13.8-10.5 0-3.9 2-3.4 2-11s-1.3-7.3-7.7-12.2c-3-2.3-3.3-3-3.3-7.7 0-4.2.6-6.2 3.1-9.9 1.7-2.6 3.4-4.7 3.8-4.7 1.3 0 3.1-4.9 3.1-8.3 0-1.8-.9-4.9-2-7-1.1-2-2-4.5-2-5.6 0-2.3 6-7.3 8.9-9.1 1.6-1 .5 2 0 4.6zm69.7 14.5c10.4 1.1 12 1.5 10.8 2.6-.8.8-1.4 3-1.4 4.9 0 2.7 1 4.4 5.1 8.6 5 5.1 5.1 5.2 2.7 5.9-1.3.3-7.1.9-12.8 1.3-5.8.4-13.6.9-17.4 1.3l-6.9.6.8-5.4c.4-3 .9-7 1-8.9a60 60 0 0 1 2.2-12.3c.2-.4 1.2-.6 2.1-.3 1 .2 7.2 1 13.8 1.7zm31.7 1.9c1.2 0 2.8.4 3.5.9 1.2.7 3.2 7.8 4.7 16.1l.5 3h-7.9c-6.9 0-8-.3-8.6-1.9-.3-1-2.6-3.7-5-5.9-4.9-4.4-5.8-7.8-2.7-10.5 1.6-1.5 9.1-2.7 12-2 .8.2 2.3.3 3.5.3zm-223.8 2.7c-1.7 4-3.3 10.2-4.5 16.9l-1.3 7.1-4-1.4c-2.3-.8-5.5-1.2-7.2-.9l-3 .6.8-10.7c.5-6 1.1-11 1.4-11.3.2-.2 4.1-.7 8.6-1.1l9.1-.7c.4-.1.5.6.1 1.5zm43.1-.3c6.1-.5 6.1-.5 6.7 2.3.4 1.5 1 8.3 1.3 15 .7 12.1.7 12.3-1.4 12.3a6 6 0 0 1-3.9-2c-6.6-7.5-7.4-8-12.7-8-5.5 0-8.7 1.5-14.6 7.1-2.2 2-4.8 3.5-7.6 4.5-3.7 1.1-4.5 1-7.3-.7-1.7-1-3.5-2.7-3.8-3.6-1.5-3.8 2.7-23 5.7-26.8.5-.6 6.3-.7 16.2-.3 8.4.4 18.1.5 21.4.2zm-2.3 26.9c1.9 2.3 5.1 4.9 7.1 5.7 3.5 1.3 3.6 1.5 3.6 6.7 0 4.8-.2 5.3-2.2 5.4l-8.8.3c-3.6.2-9.9-.1-14-.5-4.1-.5-10.8-.9-14.9-1-8.9-.2-12.1-2.4-12.1-8.4V227l4 2c6.9 3.5 11.4 2.4 19-4.7 8.2-7.7 13.2-8.2 18.3-2zm167.1.9l-6.1 6.8c-1.3 1.4-2.3 3.1-2.3 3.8 0 2.8 3.2 7.3 7.4 10.1a21 21 0 0 1 4.9 4.3c.4 1.4-1.1 7.9-2.1 8.9-.4.4-8.4 1-17.9 1.4-16.6.6-17.1.6-17.8-1.4-.3-1.1-.8-9.7-.9-19.1l-.4-17 4.7-.1 8.6-.3 14-1.1c5.5-.4 10.2-.9 10.4-1.1.2-.2.6-.2.9.1.3.2-1.3 2.4-3.4 4.7zm-216.2-1.1c2 .8 2.6 2.2 3.5 8.2.6 4 1.1 7.3 1 7.4-.3.2-10.4.5-14.8.4-3.6-.1-3.7-.2-3.4-3.9l.4-6.5c.1-1.9 1-3.3 3.4-4.7 3.6-2.2 6.5-2.5 9.9-.9zm-26.5 2.9c3.5 1.6 6.9 3 7.4 3s.8 2.3.7 5.1l-.1 5.2-8.1-.7c-4.4-.3-10.5-.6-13.3-.6-5.3 0-5.3 0-5.3-3.2 0-2.4 1-4.1 4.5-7.5 2.5-2.4 5.2-4.3 6.1-4.3.9 0 4.5 1.3 8.1 3zm-15.6 30c2.4 4.3 2.9 9.6 2.9 10.4 0 .8-1.6 2.7-3.5 4.2a13 13 0 0 0-4.1 4.9c-.8 3.2 1.2 9.8 3.6 12 3.3 3 8 12 8 15.4a26 26 0 0 1-3.2 9.1c-3.7 7.2-3.2 9.5 3.2 13.5 2.2 1.4 4 2.7 4 3 0 .3-6.3.5-14 .5h-13.7v-11.3c.1-6.1-.2-16.4-.7-22.7-1-12.6-1-13.4-.8-23.3l.2-6.7 1.6-19.3c.6-3.6.8-3.7 5.1-3.7 4.2 0 4.5.2 6.4 4.2a233 233 0 0 0 5 9.8zm23.9-2.3v18c0 2.8.4 6.3.9 7.6 1.1 2.8 3.5 3.3 20.6 4.2 5.5.3 10.9.7 12 .9l11.3 1.1c7 .6 9.2 1.1 9.2 2.2a52 52 0 0 1-11.2 19.8c-8.9 10.7-13.8 17.6-13.8 19.4 0 1.4-2.3 1.6-18.3 1.6h-18.3l-5.2-3.5c-2.8-1.9-5.3-4.3-5.5-5.2-.3-1 .9-3.9 2.5-6.5 3.8-5.9 4.6-10.9 2.4-15.1a68 68 0 0 0-8.9-13c-.7-.6-1.4-3.1-1.6-5.6-.1-3.7.2-4.7 2.4-6.4 1.4-1.1 3-2.2 3.6-2.4 2.1-3.3 1.1-4.5 1.4-5.8.2-1.4-4-10.3-5.6-14.3l-3-5.9c-.5-1-.9-2.1-.9-2.4 8.4-.6 17 0 25.2 1.8.4.7.8 5 .8 9.5zm-45.8 1.6c-.7 12.2-.7 24.6-.1 56.2l.4 17.5h-12.1c-6.7.3-12.9.4-13.7.2-1.4-.3-1.5-5-1.4-41.8.2-37 .4-41.7 1.8-42.7 1-.7 6.5-1.3 13.8-1.4l12.1-.3-.8 12.3zm84.7 3.1c1.4.8 3.5 2.3 4.5 3.5 6.1 6.6 10.4 12.4 11.1 16.5l.8 3.8-6.9-.6-12.9-1.6c-3.3-.5-11.2-1.2-17.5-1.5-6.3-.4-11.8-1-12.2-1.3-1.4-.7-1.4-1.7-1.4-8.2-.3-3.6.4-11 0-16.3l-.7-9.7h22.1l5.2 7c2.9 3.9 6.4 7.7 7.9 8.4zm369.7-1.9c1.7 4 1 11.9-1.3 15.5-.9 1.3-3.1 4-5 5.9-4.2 4.3-4.3 7.9-.3 13.5 3.1 4.3 5.9 14.9 4.7 17.9-.3.9-3.1 3-6 4.7-6 3.4-9.9 6.8-14.2 12.4-1.5 2-3.1 3.6-3.6 3.6s-.9-5.3-.9-11.8c-.1-6.4-.7-16.9-1.5-23.2-1.4-10.4-2.5-20.8-4-36l-.5-5.5 15.6-.2 15.5-.2 1.5 3.4zm-584.2 39l1.1 12c1.8 25.5 2.9 35.3 3.9 37.5 1.2 2.7 7.1 2 19.1 1.5.7 1.7 2.5 4.2 5.6 7.5 4.6 5 5.9 10.8 2.4 15a56 56 0 0 0-5.3 11.1c-.9 2.2-1.9 2.8-5.4 3.2-4.8.5-42.8-1.9-43.7-2.8-.9-.9-.7-94.4.2-109.7l.9-13.6 8.1-1 9.8-1.1c1.4-.1 1.7 2.1 2.2 17.6l1.1 22.8zm50.8-39.9c4.2.7 4 .4 6.1 19.9l1.3 11.6.6 4.6-5.9.5c-8.5.6-18.7 7.7-21.8 15.1-1.2 3-1.2 3.6.6 6.4 1.1 1.7 3.1 3.9 4.4 4.7 3.7 2.4 3.1 4.9-2.4 9.5a25 25 0 0 0-7 9.1l-2.2 5h-7.4c-6.9 0-7.5-.2-7.9-2.3-1.7-16-3-32.1-4-48.2-.3-5-.8-11.8-1.2-15.1a80 80 0 0 1 .1-13.8l.7-7.6h21.1c11.7 0 22.9.3 24.9.6zM721.4 275c.4 3.4 1 6.8 1.3 7.5.4 1.1-.7 1.4-4.9 1.4-2.9 0-7 .7-9.2 1.6-7.7 3.3-14.1 0-17.1-8.8-1.1-3.4-.3-10.1 1.6-12.4.8-.8 5-1.3 13.2-1.5l12.2-.3 1.1 3.2c.6 1.8 1.4 6 1.8 9.3zm73.8 11.7l8.2 1.2c4.4.5 5 .9 5.8 3.6.5 1.6.5 7.3.1 12.5l-.8 13.5c-.1 2.7-.5 3.9-1.4 3.7-1.7-.4-8.8 1.6-14 4-5.5 2.5-8.3 1.8-13.9-3.4-3.9-3.6-4.8-4-8.1-3.5-2 .3-4.5.8-5.5 1.3-1.8.7-1.9.3-1.2-7.7.8-10.5 2.5-22.6 3.6-25.4.7-1.8 1.5-2 6.6-1.8 3.3.1 7.8.5 10 .8 4.2.6 7.8.7 10.6 1.2zm-242.2.8l17.6 1.5-.2 9.7c-.4 11.1-2.3 26.5-3.3 25.9-.3-.2-5.5.3-11.6 1.1-14.9 1.8-65.5 2.5-65.5.8 0-1.5 5.4-8.8 13.7-18.3 5.2-6 6.7-8.6 8.5-14.7l2.3-7.5H525c5.8.1 18.4.7 28 1.5zm39 3.6c18 3 36.2 5.2 54.5 6.4 2.8.2 21.2-.5 22.3.5 1.1 1 2.3 19 2.5 22l.3 5.5-19-.3c-10.5-.2-21.3-.6-24-1-3.3-.5-8.8-.7-16.5-.7-4.7.4-10.6.6-13.1.6-2.5-.1-5 .2-5.7.6-1.5 1-1.9 13.2-.8 25.8.4 5.5.8 13.9.9 18.6.1 5.2.6 9.2 1.3 10.1 1 1.1 3 1.4 8.5 1.2 29.8-1.3 32.4-1.5 42.2-.8l15.6.9 8.1.4 2.6.1.7 18.3c.3 10 .3 21.6 0 25.6l-.7 7.4-12.5-.6-12.6-.9-2-6.3a53.5 53.5 0 0 0-22.7-26.8 125 125 0 0 0-29.4-10.2c-2.7-.3-15.3-.8-28-1-37.6-.7-39.8-1-58.3-10.3-11-5.5-19-14.6-19.4-22.3-.4-6.6.2-18.4 1-19.7.6-.9 6-1.3 19.3-1.7a776 776 0 0 0 55.9-3.1c7.4-.5 10-1.1 10.5-2.2.9-2.3 1.9-18.6 1.8-29V289l5.1.5c2.8.4 8 1 11.6 1.6zm-254.5 19.4c-.4 4.9-.9 13.5-.9 19l-.1 10-13.2.3c-4.4.3-7.3.3-13.3 1.2 0-1.9 2.8-7.1 8.1-12.1 5.6-5.4 5.9-5.8 4.9-8.5a24 24 0 0 0-4.7-6.6c-4.3-4.4-4.1-6.7 1.4-12 5.3-5 11.1-7.9 15.3-7.6 3.3.3 3.5.5 3.4 3.8 0 1.9-.4 7.5-.9 12.5zm405.6-6.5c.8 1 3.4 1.2 1.5 6.5-1.3 3.7-.3 7.6 2.9 11.5 5 3.3 9.6 2.4 9.9 2.8.3.5.4 4.7 1.2 11.8 2.2 19.4 1 19.2-.2 27.9-.7 5-.7 12.1 0 21.1.8 14.4 1 15.3 3.2 16.4 1.9 1 3 1 6.4-.4 2.4-1 5-1.5 7.5-1.6 2.8 0 7.3-.5 19.5-.1 6.9.2 12.8.5 13.3.8.7.4-.1 26.4-.9 27.2-.2.3-6.4.7-13.7.9l-32.9-.5a291.2 291.2 0 0 1-33.9-.4l-8-.2c-5.4-.1-8.2-.6-8.8-1.6-.5-.7-.9-4.1-1-7.5-.1-7-4.5-39.9-5.6-41.5-.4-.7-5.3-1.1-13.3-1.1h-12.7v-46l22-.1h25.8c5.4.1 8-1.5 7.3-4.4-.9-3.4-1.5-9.2-2.1-17.8l-.4-7.5c7.4 3.8 12.2 2.8 13 3.8zm41.4 25.4c1.1.5 3.2.5 6.3 0 2-.4 5.9-1.8 8.7-3 7.6-3.6 8.1-3.4 9 3.8a598 598 0 0 1 1.5 37.3l-.1 11c-.1 6-.4 12.3-.8 14l-.6 3-10-.3c-12.3-.4-21.7-.3-26.6.1l-6.6.6-.8-10.2c-1.2-14.9-1.2-16-.7-17.9.2-1 .5-5.2 1-7.4.2-1.4-.1-8.6-.8-15.9a109.4 109.4 0 0 1-1-20.5c.5-1 3-1 4.3-1.5 5-2.2 7.6-1.9 8.9 1.1 1.8 2.4 4.6 4.3 8.3 5.8zm34.4-1.8c2.8 1.4 7.3 3.2 10 4l4.9 1.4v15l.1 15-.8 18.5-.6 14-9 .3-9 .3-.1-27.8c.2-14.4-.2-28.9-1-43.3l5.5 2.6zm-151.7 2.1l4.6.5.8 8.7c.6 8.2-.1 36-1.1 36.9-.8.8-15.7.7-26.7-.1l-10.8-.9c-3 0-7.2.2-12.7.5-5.4.4-12.6.7-16 .7H599l-.1-7.3c0-3.9-.2-8.3-.4-9.7-.2-1.4-.5-8.8-.7-16.4l-.3-14 7.4-.3c4-.1 7.6-.5 7.9-.8a307 307 0 0 0 26.7 1.1c12.7.3 25.1.7 27.7 1.1zm-219 10.3c-1.2 0-4.2 6.7-4.2 9.4 0 1.2 2.3 6.9 5 12.5 2.8 5.6 5 11.1 5 12.1 0 3.7-3.1 9.7-5.6 10.9-1.4.6-6.7 1.1-11.9 1.1-2.4-.4-5.1 0-8 1a19 19 0 0 0-7.2 4.4c-11.8 10.9-16.5 12.1-30.7 7.7-10.3-3.2-17.3-3.9-20.8-2a62 62 0 0 1-8.7 3l-6.6 1.9-7.1-3.6c-7.6-3.9-7.9-3.9-24.5-1.8-4.3.5-4.7.4-8.2-3.5-4-4.5-4.7-6.9-1.9-7.1l27.7-.6c14.3-.3 31.2-1.1 37.5-1.9 6.4-.7 16.9-1.2 23.8-1 12.2.4 12.3.4 13.2-2 .8-2.1 1-18.3.5-48.5h16.4c16 0 17.1.1 18.1 2 1.1 2-.1 6-1.8 6zm141.3 74.6c.3 2 1.1 11.8 1.6 21.8 1.6 28.7 2.1 33 4.1 33.4.9.2 2.1-.3 2.7-1l4.4-5.3c1.9-2.2 4.5-6 5.7-8.5 1.2-2.5 2.6-4.7 3-5 .4-.3 1.9-2.8 3.3-5.6 4-7.9 3.8-7.8 19.3-8.9 10.9-.7 10.4-1.4 10.4 13.6 0 16.8-3.3 27-12.7 39.4a29 29 0 0 1-20.8 11c-5.1.4-22.6-2.2-32.5-4.9-6-1.3-12.3-1.5-18.4-.6a45 45 0 0 0-11.9 5.7c-6.6 4.4-8.3 6-17 15.8-3.4 3.8-3.8 4-9.4 3.9-6 0-14.8-3.6-21.8-8.9-9.7-7.3-23.7-4.5-36.8 7.3-3.4 3-8 6.3-10.2 7.3-11.6 5.4-32.2-1.5-47-15.7-8.6-8.2-10.5-9-21.5-8.2-7.3.6-15.5 4-27 11.3-3.2 2-6.8 3.5-8.6 3.5-8.5 0-24-8.4-27.4-14.9-2.6-5-9.8-11.6-14.2-13.1-2.1-.6-5.8-.9-8.2-.6a36 36 0 0 0-19.2 10.3c-3.2 4.3-6.2 5.4-13.9 5.5-8.3 0-14.6-3-18.7-9-2-2.8-4.2-5.5-6.6-7.9-3-3-4-3.3-9-3.3-3.2 0-8.1.7-10.9 1.4l-5.3 1.4v-3.9a18 18 0 0 0-1.6-7.1c-1.4-2.7-1.9-3-5-2.5-3.6.6-3.6.6-3.6-7.8 0-7.6-.1-7.6 4.5-7.3l4.2.3-.4-6.3-.3-6.2h26.9l3.5-5.8c1.9-3.1 5-8.5 6.9-12 1.8-3.4 3.6-6.2 3.9-6.2.3 0 2.3 4.2 4.5 9.2 4.1 9.2 5.9 14 11.1 28.1 2 5.6 3.2 7.7 4.3 7.5.9-.2 3.2-3.5 5.1-7.4 1.9-3.9 5-9.1 6.8-11.6a45 45 0 0 0 3.2-5.2c0-.3 2-3.6 4.4-7.3 2.4-3.7 5.3-9 6.5-11.8l2.2-4.9 2.3 4.1c1.3 2.3 5.8 14.2 9.9 26.5 5.9 17.4 7.9 22.3 9.3 22.3.9 0 2-.7 2.4-1.5l6.3-13 10.1-21c2-4.3 4.3-8.5 7-12.4l2.4-2.9 2 6.9c3.1 10.6 4.1 14.4 3.6 14.4-.5 0 3 8.9 6.7 16.9 1.6 3.5 3.3 8.1 3.8 10.3.5 2.2 1.1 4.2 1.4 4.5.9.9 4.4-1.5 6.2-4.3 1-1.5 6-7.9 11.1-14.2 5.2-6.3 9.4-11.9 9.4-12.4s.5-1.4 1-2.1l4.5-6.5c1.8-3 3.6-5.6 3.8-5.9 1-1 10.5 19.2 14 29.8 4.8 14.3 8.3 21.9 10.1 21.9 1.5 0 6.1-5.6 14-16.9 2.1-3.1 5.3-7.2 7.1-9.1 1.8-1.9 6.5-8 10.4-13.5l7.8-11 3.7-4.8c3.7-5 4.2-4.4 9.5 10.2 2.3 6.3 6.9 17.2 10.3 24.3 8 16.5 8.5 16.6 15.4 3.1 2.7-5.4 6.5-12.4 8.5-15.8 2-3.3 5.3-9.2 7.4-13a83 83 0 0 1 5-8.5c.7-.8 2.3-3.4 3.5-5.8a15 15 0 0 1 3-4.2c1.1 0 3 4.8 6.5 16.5 1.8 6 4.1 13 5 15.5.9 2.5 2.2 7.6 2.8 11.5 1 5.8 1.5 7 3.1 7 1 0 2.4-.9 3-2a250.7 250.7 0 0 0 20.9-33.5c4.8-9.3 11-18.9 11.8-18.4.4.2 1 2 1.4 4zm-380.4 20.1l.5 8.2c.1 3.6.5 7.5.9 8.8.5 2 .2 2.3-2.4 2.3-2.8 0-2.8 0-3.6-8.3a78 78 0 0 1-.6-9.7c.6-3.1 5-4.1 5.2-1.3zm2.3 55.8l-.3 5.2c-.1 1.9-.7 2.3-3.1 2.3h-3v-21.9l2.8-.3c2.6-.3 2.7-.1 3.3 5.7.3 3.3.4 7.3.3 9zm.6 42.3c0 8-.2 8.8-1.9 8.8-2.3 0-2.7-1.2-3.6-10.8-.7-6.4-.6-6.6 1.6-7 1.3-.2 2.7-.2 3.2 0 .4.2.7 4.2.7 9zm679-168.3c0-1-6-6.6-5.3-8 .7-1.4 3.8-3 5.3-3.5 2.3-.5 4 5 6.3 5.6 2.3.6 5.5-6.7 6.8-4.9.9 1.2 5.7 4.3 4.8 6.3-.7 1.5-5.7 4.3-5.5 5.5.5 2.4 5.4 4.6 4.8 6.1-.6 1.6-4.3 6.8-6.1 5-2.3-2.1-4.1-4.7-5.5-4.8-1.3-.2-4.1 4.2-6.1 4.2-1.4.7-4.3-2.2-5.4-5-.7-2.7 4.7-4 6-6.5zM411.1 93.8c-4.6 1-5.1 1.4-5.5 21.8-.5 21.6-.7 21.1 10.7 21.6 3.7.1 6.7.5 6.7.9s9.7.7 21.6.8c11.8 0 21.8.3 22.2.5.9.5 21.3 1.8 32.1 2 8.1.2 8.4.3 9.8 3 1.6 3.1 1 14.1-.9 15.2-.6.4-22 .7-47.5.8-42.8.1-46.6.2-47.7 1.8-2.2 3-3.1 62.2-1.1 71.3.9 4-.5 4.5-15.6 5.1-8.9.4-14.7 1-15.1 1.7-.4.6-1 1.9-1.4 6.7-.3 3.3-.7 14-1.3 32.3v33.8c-.2 14.8 0 17.7 1.3 18.8 1.2 1 5 1.2 16.6.6l14.8-.5c.3 15.1.4 27.9.3 38.2l-.1 7.8h-12.7c-7.1.1-17.5.7-23.3 1.4-5.8.7-19 1.3-29.5 1.4-10.4 0-22.5.4-26.7.7-6.2.6-7.8.4-7.8-.6 0-.8 1.8-4.7 4-8.7 2.2-4 4-8.5 4-10 0-3.3-2.2-8.4-7-13.2-1.7-1.7-2.5-2.8-2.5-3.5 2.5-.4 12.5-1.3 19.2-1.3 6.7.1 12.4 0 12.7-.3.3-.3.7-8.8 1-18.9 0-8.8.5-17.6 1.5-26.3.1-3.3.4-3.8 2.4-3.6 5.9.5 11.7-.2 12.9-1.6l2.6-3c1.8-2 1.5-5.7-1.1-12.7-1.3-3.5-2.2-7-1.9-7.8.3-.8 2.5-3.9 5-6.9 5.5-6.5 5.9-9.9 1.9-16-3-4.6-3.3-7-1.3-10.9 2.9-5.5 6.3-7.7 12.4-7.9 10.8-.4 15.1-2.3 17.3-8 1.6-4.3 1-7.6-3.1-16.3-2.2-4.7-4-9.9-4-11.6 0-1.6 2-7 4.5-11.8 6.1-12 5.9-17.4-.9-26.5-3.2-4.3-3.4-9.4-.7-17.7 3.8-12.1 3.8-13-1.9-21.6-7.3-11.1-6.1-16.9 3-25.3 4.1-3.8 5.8-4.5 8.5-4A69 69 0 0 0 415 88c5.5 0 6.2-2.7 10-6.9 4.6-5.2 6.5-6.5 11.5-8.1 3-1 7.5-1.7 11.5-1.5 5 .2 9.5 1.7 12.5 3.3 4.9 2.7 5 2.7 6.4 10 .7 4 1.2 7.4 1 7.6-.2.2-11.6.6-25.2.9-20 .1-30.6.3-31.6.5z"/>
</svg>
