<svg xmlns="http://www.w3.org/2000/svg" xmlns:xlink="http://www.w3.org/1999/xlink" width="980" height="330" viewBox="0 0 3920 1320">
  <g transform="translate(40 40)">
    <mask id="m" fill="#fff">
      <circle cx="2120" cy="360" r="360"/>
    </mask>
    <path fill="#191f2c" d="M593.92 998v-4.1l-3.14-.44c-.96-.13-1.02-.26-1.02-1.28v-16.45c0-8.83-3.46-11.46-12.74-11.46-5.44 0-12.92 1.03-12.92 9.22l6.9.6c0-4.4 2.38-4.7 5.9-4.7 4.92 0 5.63 2.1 5.63 6.2v3.2l-8.13.6c-7.8.6-11.78 3.7-11.78 10.1 0 3.6 1.1 9.1 9.16 9.1 5 0 8.44-1.9 11.26-4.6h.2l.63 3.8h10.05zm-11.4-8.77c-1.9 1.92-5.1 3.84-8.25 3.84-2.62 0-4.1-1.02-4.1-4.1 0-3.07 1.48-4.4 6.28-4.86l6.08-.5v5.7zm26.1 8.77l.37-3h.2c2.4 2.42 5.7 3.77 9.5 3.77 8.1 0 13.6-5.2 13.6-18.37 0-11.58-5.2-16.13-12.3-16.13-4.4 0-7.6 1.6-10.6 3.46v-18.05h-11.1l-.7 4.1 3.6 1.2c.6.2.8.65.8 1.36v32.44c0 3.08-.4 6.66-.8 9.22h7.1zm1.08-24.58c1.92-1.34 5.05-3.13 8.38-3.13 4.22 0 6.72 3.6 6.72 10.5 0 7.5-2.18 11.9-7.17 11.9-3.52 0-6.14-2-7.93-3.7v-15.7zm54.88 17.48c-2.05 1.08-4.93 1.98-8.13 1.98-5.57 0-9.6-2.88-9.6-11.58 0-8.52 4.1-11.6 9.02-11.6 1.6 0 3.14.27 3.97.6.5.18.64.44.7.88l.77 4.23 5.4.3v-9.1c-1.6-.9-5.5-2.3-10.4-2.3-9.9 0-17 5.6-17 17.6 0 9.8 4.9 16.9 16.1 16.9 4.4 0 8.8-1.2 11.5-2.9l-2.1-5zm42.78 7.1v-4.1l-3.14-.44c-.96-.13-1.02-.26-1.02-1.28v-42.5h-11l-.65 4.1 3.65 1.2c.64.2.83.65.83 1.3v10.87c-2.43-1.8-5.63-2.88-9.47-2.88-7.42 0-13.44 5.06-13.44 17.8 0 11.96 4.86 16.7 12.22 16.7 4.87 0 8.07-1.8 10.88-4.6l.4.05.56 3.78h10.18zm-11.52-9.54c-2.24 2.37-5.3 4.3-8.45 4.3-4.3 0-6.7-3.02-6.7-10.9 0-6.84 2.1-11.7 7.7-11.7 2.8 0 5.5 1.54 7.4 3.07v15.23zm43.1 2.18c-3.84 1.6-6.27 2.24-9.4 2.24-6.2 0-8.52-3.52-8.84-9.47h20.68c.12-1.2.2-2.8.2-3.7 0-11.1-5.52-15.4-13.58-15.4-8.38 0-15.1 5.5-15.1 17.1 0 9.9 3.9 17.5 15.8 17.5 4.68 0 8.77-1.2 12.3-3l-2.06-5.1zm-18.17-12.54c.32-5.83 3.45-8.26 7.1-8.26 3.46 0 6.34 1.98 6.34 8.26h-13.4zm47.9 19.9v-4.1l-7.6-.64c-.97-.06-1.04-.25-1.04-1.28v-21.82h10.82v-5.25h-10.3c-.52 0-.52-.1-.52-.6V960c0-3.58.7-5.88 4.8-5.88 2.63 0 3.84.65 3.84 3.97l6.85-.9c-.06-6.9-4.86-8.3-10.37-8.3-8.32 0-12.48 3.6-12.48 11.6v4.3h-5v5.2h4.5c.5 0 .5.2.5.6V992c0 .95-.13 1.2-1.02 1.27l-3.9.37v4.2h20.92zm40.1-28.42v-4.67h-11.65c-1.34-.3-3.7-.6-6.02-.6-9.15 0-14.14 5.2-14.14 12.3 0 4.5 2.05 7.8 5 9.4-1.16 1.2-2.5 2.8-3.53 4-1.1 1.2-1.6 2.3-1.6 3.7 0 1.6.83 3.1 2.95 4-2.18 2.1-3.9 3.9-3.9 7 0 4.9 4.02 7.9 15.3 7.9 11.12 0 17-3.9 17-10.7 0-7.7-5.43-8.3-16.82-8.9l-7.87-.4 2.9-4.8c1.2.4 3.2.6 5.4.6 7.5 0 13.3-4.1 13.3-11.5 0-2.9-1.2-4.9-2.5-6.6l6-.4zm-10.1 6.72c0 3.97-2.96 6.53-7.37 6.53-5.25 0-7.24-2.75-7.24-6.4 0-4.8 3.14-6.97 7.43-6.97 4.4 0 7.1 2.43 7.1 6.84zm-3.98 23.17c3.7.26 6.1.4 6.1 3.2 0 4.1-6.2 4.6-9.5 4.6-5.6 0-9-.95-9-3.9 0-1.66 1.2-3.26 2.4-4.47l9.8.57zM850 998v-4.1l-3.52-.44c-.95-.13-1-.26-1-1.28v-16.32c0-7.04-2.76-11.6-9.67-11.6-4.4 0-7.8 1.93-11 4.1V949.7h-11.2l-.6 4.1 3.7 1.2c.7.2.9.65.9 1.36v35.84c0 .96-.1 1.15-1 1.28l-3 .5V998h15.9v-4.1l-3.4-.44c-.9-.13-1-.26-1-1.28v-18.44c2.4-1.66 5.7-3.45 8.8-3.45 4.2 0 4.6 4 4.6 7v14.8c0 .8 0 1.2-1.1 1.3l-3 .4v4.1h16zm17-44.16c0-3-1.8-4.67-4.8-4.67-3.08 0-4.8 1.66-4.8 4.67 0 3.07 1.72 4.8 4.8 4.8 3 0 4.8-1.73 4.8-4.8zm4.5 44.16v-4.1l-3.76-.44c-.96-.13-1.03-.26-1.03-1.28V964.9h-11l-.7 4.1 3.6 1.22c.7.2.9.64.9 1.35v20.6c0 .97-.1 1.16-1 1.3l-3.8.5V998h17zm8.94 2.5c0 4.54-.96 6.27-4.1 6.27-2.3 0-4.6-1.03-5.7-1.8l-2.42 4.36c1.47 1.28 5.18 2.94 9.6 2.94 6.65 0 9.98-3.2 9.98-10.43V964.9h-11.45l-.64 4.1 4 1.22c.7.26.8.58.8 1.35v28.93zm7.74-46.66c0-3-1.8-4.67-4.8-4.67s-4.8 1.66-4.8 4.67c0 3.07 1.8 4.8 4.8 4.8s4.8-1.73 4.8-4.8zM932.9 998v-4.03l-3.05-.58c-1.1-.2-1.4-.3-1.92-1.1l-9.1-15.8 5.32-5.9c.58-.7.77-.9 1.6-1l3.52-.7v-4.1h-7.8L908.6 979v-29.37h-11.2l-.63 4.1 3.65 1.2c.64.2.83.65.83 1.36v35.8c0 .9-.13 1.1-1.03 1.3l-3.64.5v4.1h16.64v-4.1l-3.6-.5c-.95-.2-1-.3-1-1.3v-5.9l4.6-5.1 6.97 12.2-3.7.6v4.1h16.4zm20.53 0v-4.1l-3.58-.44c-.96-.13-1.03-.26-1.03-1.28v-42.5h-11.2l-.64 4.1 3.64 1.2c.64.2.83.65.83 1.36v35.84c0 .96-.13 1.15-1.02 1.28l-3.65.5V998h16.64zm59.42 0v-4.1l-3.52-.44c-.96-.13-1.02-.26-1.02-1.28v-16.96c0-6.66-2.3-10.95-9.4-10.95-4.6 0-8 1.86-11.1 3.84-1.6-2.9-4.5-3.8-7.6-3.8-4.3 0-7.7 1.8-10.9 4.3h-.2l-.5-3.6H959l-.65 4.1 3.52 1.3c.64.2.83.7.83 1.4v20.6c0 1-.14 1.2-1.04 1.3l-3.07.5v4h15.6V994l-3.2-.44c-1-.12-1-.25-1-1.3v-18.5c2.1-1.64 4.8-3.24 7.9-3.24 3.8 0 3.9 3.4 3.9 7.1v14.73c0 .77-.1 1.15-1 1.28l-3.4.46v4h15.7V994l-3-.45c-1-.13-1-.26-1-1.3v-15.6c0-1.26-.1-2.5-.3-3.56 1.9-1.3 5-2.6 7.8-2.6 3.6 0 4 3 4 6.7v15c0 .7-.2 1.1-1.1 1.3l-3.3.4v4h16.3zm41.9 0v-4.1l-3.53-.44c-.96-.13-1.02-.26-1.02-1.28v-16.2c0-7.36-2.62-11.7-9.53-11.7-4.6 0-8.38 1.78-11.97 4.22l-.25-.07-.5-3.52h-9.5l-.63 4.1 3.52 1.3c.64.2.84.7.84 1.4v20.6c0 1-.13 1.2-1.03 1.3l-3.07.4v4.1h15.87V994l-3.4-.44c-.95-.13-1-.26-1-1.3V973.8c2.1-1.54 5.5-3.33 8.75-3.33 4.1 0 4.55 3.2 4.55 7.04v14.9c0 .8-.13 1.2-1.03 1.3l-3.2.4v4h16.13zm21.14.77c11.2 0 16.2-7.04 16.2-17.8 0-9.72-4.4-16.7-15.6-16.7s-16.6 6.9-16.6 17.54c0 9.8 4.2 17 15.9 17zm.2-5.44c-5.5 0-8.5-3.7-8.5-11.9s3.2-11.6 8.7-11.6c5.4 0 8.2 3.4 8.2 11.53 0 8.38-3 11.97-8.5 11.97zm40.8 18.24v-4.1l-6.3-.5c-1-.07-1.1-.27-1.1-1.3v-10.23c2.7 2.1 6.1 3.33 9.6 3.33 10.5 0 13.2-10.1 13.2-18.37 0-11.58-5-16.13-12.2-16.13-4.4 0-8.2 1.86-11.3 4.3l-.2-.07-.6-3.6h-9.6l-.7 4.1 3.5 1.22c.6.26.8.64.8 1.35v34.1c0 1.03-.2 1.23-1.1 1.35l-2.7.4v4.15h18.3zm-7.3-37.9c1.6-1.27 4.9-3.38 8.4-3.38 3.7 0 6.7 2.6 6.7 10.5 0 7.3-2.1 12-7.2 12-3.2 0-6-1.7-7.9-3.4v-15.8zm64.2 37.9v-4.16l-3.2-.3c-.9-.1-1.1-.3-1.1-1.3v-31.3c0-3 .2-6 .6-9.5h-6.7l-.9 2.9c-2.5-2-5.7-3.5-9.7-3.5-7.4 0-13.5 5.1-13.5 17.8 0 12 5 16.7 12.5 16.7 4.8 0 7.9-1.8 10.8-4.4v11.4c0 1-.2 1.2-1.2 1.2l-5.2.6v4.1h17.2zm-11.6-23.1c-2.3 2.1-5.2 4.35-8.3 4.35-4.4 0-6.8-3.08-6.8-10.95 0-6.85 2.2-11.7 7.6-11.7 2.8 0 5.7 1.53 7.5 3v15.3zM1197 998v-4.1l-6.03-.5c-.96-.07-1.1-.26-1.1-1.3v-18.36c1.3-1.2 4.05-3.32 6.5-3.32.56 0 .7.12.76.7l.75 3.97 5.77.2v-10.5c-1.16-.3-3.5-.6-5-.6-4.3 0-7.3 2.6-9.4 5.4l-.2-.1-.7-4.7h-9.54l-.6 4.1 3.6 1.2c.7.2.8.6.8 1.3V992c0 .98-.1 1.17-1 1.3l-3 .38v4.2h18.5zm36.7-23.23v-8.64c-1.54-.64-6.02-1.86-10.76-1.86-6.9 0-13.38 2.88-13.38 10.63 0 6.78 5.1 8.32 10 9.4 4.26.96 8.35 1.54 8.35 5.12 0 3.27-2.4 4.42-6.4 4.42-2.9 0-4.9-.64-5.7-.9-.6-.2-.6-.38-.8-.9l-.6-3.9-5.3-.32v8.7c1.2.78 6.5 2.25 12 2.25 7.3 0 13.6-2.82 13.6-10.37 0-7.3-5.7-8.83-10.7-10.05-4-.96-7.6-1.73-7.6-5.12 0-2.56 2-4.03 6.1-4.03 2 0 3.8.38 4.6.64.5.2.7.45.7.9l.7 3.7 5.3.33zm28.76 17.15c-1.67.58-3.66 1.1-5.58 1.1-3.6 0-4.62-1.48-4.62-5.45v-17.4h9.8v-5.26h-9.27c-.5 0-.5-.1-.5-.6V956h-4.7c-.8 5.63-2.8 9.03-7.8 9.67v4.54h4.6c.5 0 .5.3.5.7v18.7c0 6.4 2.8 9.3 9.5 9.3 3.4 0 6.8-1 9.4-2.2l-1.5-4.6zm43.16 6.08v-4.1l-3.34-.44c-.7-.13-.83-.45-.83-1.28V964.9h-10.87l-.6 4.17 3.08.77c.98.2 1.05.38 1.05 1.4v17.16c-1.9 2.05-5.1 4.48-8.9 4.48-3.5 0-4.2-2.3-4.2-6.6V964.9h-11.1l-.6 4.18 3.3.77c1 .2 1 .38 1 1.4v16.65c0 7.35 2.3 10.87 9.2 10.87 5.6 0 9.2-2.5 12-4.74l.2.07.6 3.9h10.1zm26.9 0l10.5-27.4c.32-.82.76-.95 1.6-1.08l2.17-.38v-4.23h-13.2l-.7 4.3 4.2.5-8 21.3h-.3l-7.9-21.3 4.3-.5V965h-15.1l-.9 4.24 2.7.57c.7.2 1.1.4 1.3 1.1l10.6 27.2h8.5zm58.53 0l8.33-27.2c.24-.83.56-1.1 1.6-1.28l2.3-.38v-4.23h-12.62l-.7 4.3 3.9.5-6 20.9h-.25l-6.1-24.7h-7.9l-6.5 24.9h-.2l-6.1-21 3.9-.5V965h-14.4l-.8 4.23 2.7.57c.8.2 1.1.33 1.4 1.1l8.7 27.2h9l5.8-23.8h.2l6.1 23.8h8zm51.2 0v-4.1l-3.2-.57c-.78-.13-1.17-.5-1.74-1.15l-9.2-11.52 8.3-9.73c.5-.58 1-.96 1.8-1.22l2.8-.6V965h-13.1l-.6 4.17 3.9.5-6.4 7.63-5.9-7.62 3.6-.5V965h-14.8l-.6 4.16 2.7.7c.8.27 1 .53 1.5 1.1l8.8 10.88-8.7 10.5c-.6.7-1 .96-1.9 1.15l-2.9.5v4h14.4v-4.1l-3.9-.6 6.6-8.2 6.2 8.1-3.6.6v4.1h16.4zm27.86 13.57v-4.16l-6.4-.6 15-36.2c.4-.7.8-.9 1.6-1.1l2.2-.3V965h-13.2l-.7 4.24 4.3.5-7.9 19.78h-.3l-8-19.77 4.2-.5V965H1446l-.86 4.24 2.6.55c.8.2 1 .3 1.36 1.1l11.8 27.1-3.3 7.4c-.45.9-.64 1.2-1.73 1.4l-4.52.5v4.2h18.96zm44.4-13.57v-10.62l-5.4.25-.7 4.6c0 .4-.1.84-.7.84h-11.9l18.1-23.8v-4.36h-26.5v10l5.3-.3.8-3.8c.1-.4.2-.8.7-.8h11.2l-18.4 23.9v4.2h27.7zm-910.7 100v-2.82l-2.9-.7c-.7-.2-1.2-.32-1.5-1.1l-14.4-41.72h-5.9l-14.1 41.6c-.3.77-.8 1.03-1.5 1.22l-2.7.7v2.82H574v-2.82l-5.2-.57 3.84-11.5h18.7l3.9 11.5-5.3.6v2.8h14zm-13.8-18.7h-16.2l8.2-24.12 8.1 24.13zm39.7 18.7c10.1 0 17.1-3 17.1-12.48 0-6.4-3.6-10.75-10.9-11.58v-.2c3.9-1.28 7.8-4.67 7.8-10.75 0-6.4-2.9-11.4-13.9-11.4h-18.1v2.9l4.1.4c.9 0 1.1.3 1.1 1.2v37.2c0 .9-.1 1.1-1 1.2l-4.1.4v2.8h18.1zm-8.7-3.78v-18.04h9.9c6.5 0 11.5 2.62 11.5 9.2 0 7.76-5.6 8.84-12.8 8.84H621zm0-21.76v-17.08h7.8c7.2 0 10.5 1.92 10.5 8.06 0 7.36-6.1 9.02-11.4 9.02H621zm72 14.2h-3l-1 5.7c-.1.65-.4.9-.8 1.1-2.7 1.2-6.7 1.53-10 1.53-10.7 0-17.4-7.1-17.4-20.5 0-12.8 7.1-19.9 17.9-19.9 3.4 0 6.7.7 9.1 1.6.7.2.8.6.9 1.1l1.1 6 3.3.2v-9.4c-3-2.1-8.2-3.4-13.9-3.4-15.2 0-22.7 10.1-22.7 23.6 0 14.2 6.2 24.3 21.6 24.3 5.9 0 11.8-1.1 15.1-3.4v-8.8zm28.2 11.34c16.6 0 24.1-9.66 24.1-23.87 0-13.83-6.9-22.47-22.9-22.47h-18.5v2.88l4.1.45c.9 0 1 .3 1 1.2v37.2c0 .9-.1 1.1-1 1.2l-4 .4v2.8h17.4zm-8-3.78v-38.84h8.8c11.7 0 18.9 4.4 18.9 19.7 0 12.17-6.6 19.14-19.2 19.14H713zm75.6 3.78v-9.86h-3.2l-1 5.57c-.1.7-.3.8-1 .8h-18.2v-18h18v-3.6h-18v-17.5H782c.7 0 .96.2 1.1.9l.9 5 3.25.2v-9.6h-31.4v2.9l4.1.5c.9.1 1.04.3 1.04 1.3v37.2c0 1-.2 1.2-1.1 1.3l-4.1.5v2.8h32.8zm30.5 0v-2.82l-9.4-.5c-.9-.14-1-.26-1-1.3v-17.2h17.7v-3.6h-17.7v-17.33h16.5c.8 0 1 .2 1.1.83l.9 5 3.3.18v-9.6h-31.1v2.88l4.1.45c.9 0 1 .3 1 1.2v37.2c0 .9-.1 1.1-1 1.2l-4 .4v2.8h19.8zm62.8-18.37v-2.88h-16.7l-.6 3.52h9.3v12.48c0 .77-.4.96-.8 1.1-2.3.63-6.4 1.14-9.5 1.14-12.3 0-19.6-7.1-19.6-20.5 0-12.8 7.1-19.9 17.9-19.9 3.3 0 6.8.7 9.2 1.6.7.2.8.6.8 1.1l1.1 6 3.3.2v-9.4c-3-2.1-8.3-3.4-14.1-3.4-15.1 0-22.6 10.1-22.6 23.6 0 14 6.6 24.3 23.8 24.3 5.2 0 11.2-.7 14.9-2.5v-15.6c0-.7.3-.9 1.1-.9l2.7-.3zM934 1098v-2.82l-4.3-.5c-.95-.14-1-.26-1-1.3v-37.17c0-.9.05-1 1-1.2l4.3-.5v-2.8h-14.7v2.8l4.02.5c.9.1 1 .3 1 1.3v16.1h-23.9v-16c0-.9.07-1.1 1.03-1.2l4.3-.5v-2.8H891v2.8l4.03.5c.9.1 1.03.4 1.03 1.3v37.3c0 1-.14 1.2-1.04 1.3l-4.03.4v2.9h14.6v-2.8l-4.3-.5c-1-.1-1.1-.2-1.1-1.3V1076H924v17.6c0 .96-.1 1.15-1 1.3l-4.03.42v2.82h14.64zm27.43 0v-2.82l-4.93-.5c-1-.14-1.06-.26-1.06-1.3v-37.17c0-.9.08-1 1.04-1.2l4.93-.5v-2.8h-16v2.8l4.7.5c.9.1 1.1.3 1.1 1.3v37.3c0 1-.1 1.2-1 1.3l-4.6.5v2.9h16zm26.46-9.54c0 4.55-1.2 6.72-5.9 6.72-2.7 0-4.5-.64-5.2-.96-.6-.25-.7-.5-.8-.9l-.7-4.34-3.3-.2v7.88c1.1.76 5.1 2.1 9.9 2.1 7 0 10-3.13 10-9.78v-32.84c0-.9 0-1.02 1-1.15l4.3-.6v-2.8h-16v2.8l5.3.4c.8 0 1 .3 1 1.2v32.3zm59.8 9.54v-2.82l-3.9-.64c-1.1-.2-1.3-.25-1.8-1.02l-16.9-21.7 14.7-15.68c.6-.64.7-.83 1.9-1.02l3.5-.64v-2.82h-13.5v2.88l3.9.52-18.9 20.35v-19.2c0-.9 0-1 1-1.2l4.3-.5v-2.8h-14.7v2.8l4 .5c.9.1 1 .3 1 1.3v37.3c0 1-.2 1.2-1.1 1.3l-4.1.5v2.9h14.7v-2.8l-4.3-.5c-1-.1-1-.2-1-1.3V1081l5.4-5.75 15.4 19.7c-1.8.2-3.6.33-5.3.5v2.9h15.3zm41.9 0v-9.86h-3.2l-1.1 5.57c-.2.7-.3.8-1.1.8H1066v-38.1c0-.9.06-1.1 1.02-1.2l5.3-.5v-2.9h-15.67v2.9l4.03.5c.9.1 1.03.3 1.03 1.3v37.2c0 1-.1 1.2-1 1.3l-4 .4v2.8h32.8zm61.1 0v-2.82l-4.3-.5c-.9-.14-1.1-.4-1.1-1.22v-37.25c0-.9.1-1 1-1.2l4.3-.5v-2.8h-10.2l-15.8 30.6-15.3-30.5H1099v2.9l4.04.5c.9.1 1 .3 1 1.3v37.2c0 1-.1 1.2-1 1.3l-4 .5v2.8h15.9v-2.8l-5.57-.5c-.95-.1-1.02-.2-1.02-1.3V1059l14.4 27.7h4l14.4-27.38v34.36c0 1-.14 1.17-1.03 1.3l-5.3.45v2.8h15.93zm50.7 0v-41.8c0-.95 0-1.08 1-1.2l4.3-.52v-2.82H1192v2.82l4.05.45c.9.13 1.03.32 1.03 1.28v35.9l-23.82-40.4H1162v2.9l4.03.5c.9.2 1.02.3 1.02 1.3v37.3c0 1-.13 1.2-1.02 1.3l-4.03.5v2.8h14.65v-2.8l-4.3-.5c-.95-.1-1-.2-1-1.3v-36.2l24.57 40.9h5.37zm36.7.77c14.4 0 21.8-9.86 21.8-24.96 0-12.8-6.6-22.9-20.9-22.9-14.4 0-22.1 10.1-22.1 24s6.6 24 21.1 24zm.3-3.78c-10.3 0-17-7.1-17-20.3 0-13.1 7.2-20.2 17.4-20.2 10.1 0 16.5 7 16.5 19.8 0 13.7-6.9 20.5-17.1 20.5zm51.7 3v-2.9l-9.2-.5c-1-.1-1-.3-1-1.3v-13.1h7.6c10.8 0 17.5-4.1 17.5-15.1 0-7.4-3.6-13.7-15.4-13.7h-19v2.9l4 .4c.9 0 1 .3 1 1.2v37.2c0 .9-.2 1.1-1.1 1.2l-4 .4v2.8h19.4zm-10.2-21.5v-21.2h8.4c8.5 0 12.2 3 12.2 10 0 9.5-5.8 11.1-13.2 11.1h-7.5zm66.6 28.5c-.9.4-2.5.8-4.2.8-3.2 0-4.2-1.7-4.2-4.3 0-1.2 0-2.1.2-3 12.5-1.2 19-10.7 19-24.8 0-12.9-6.5-23-20.8-23-14.4 0-22.1 10.1-22.1 23.6 0 13.7 6 23.5 19.5 24.2-.2 1-.2 1.9-.2 3 0 5.1 2.1 7.7 8.2 7.7 2.1 0 4.3-.6 5.3-1.1l-1.1-3.3zm-10.5-10.1c-10.3 0-17-7.1-17-20.5 0-12.8 7.2-19.9 17.4-19.9 10.1 0 16.4 7 16.4 19.8 0 13.7-6.8 20.5-17 20.5zm70.1 3v-2.8l-4.3-.7c-.8-.2-1.3-.6-1.6-1.2l-3.9-9.7c-1.4-3.6-2.1-6-4.3-7.1 5.3-1.7 9-5.6 9-12.6 0-5.9-2.8-12.4-14.3-12.4H1368v2.9l4.04.4c.9 0 1.03.3 1.03 1.2v37.2c0 .9-.14 1.1-1.04 1.3l-4.03.4v2.8h14.66v-2.8l-4.36-.5c-.96-.2-1.03-.3-1.03-1.3v-15.5h8.65c2.3 0 3.46.8 4.23 2.6 1.72 4 4.28 10.4 5.88 14.1l-5.24.5v2.9h15.2zm-28.8-23.9v-18.8h5.7c8.7 0 13.5 1.6 13.5 8.7 0 7.9-5.5 10-12.2 10h-7.1zm65-11v-10.3c-2-.7-6.1-2.1-11.4-2.1-8.7 0-15.7 3.6-15.7 12.5 0 16.8 23.8 8.9 23.8 22.6 0 6.2-4.3 8.9-11.4 8.9-4.3 0-7.1-.9-8.2-1.3-.9-.4-.9-.6-1.1-1.4l-1.2-5.5h-3.1v9.6c1.8.9 7.1 2.3 13 2.3 8.9 0 16.5-3.4 16.5-13 0-17.4-23.9-9.9-23.9-22.8 0-5.1 3.5-8.2 10.9-8.2 3.8 0 6.4.8 6.9 1.4.2.3.2.7.4 1.2l1.1 5.5 3.3.3zm38.7 34.8v-2.9l-7.1-.5c-1-.1-1-.4-1-1.3V1055h11.2c.7 0 .9.07 1 .7l1 5.58h3.2v-9.88H1452v9.84h3.2l1-5.54c.12-.65.3-.7 1-.7h11.2v38.13c0 .94-.1 1.2-1 1.26l-6.6.4v2.9h20zm50.3-15.3c0 9.2-4.2 12.2-12 12.2-7.6 0-12.1-3.2-12.1-12.4V1056c0-.97 0-1.1 1-1.2l4.2-.54v-2.83H1498v2.84l4.03.44c.9.1 1.02.4 1.02 1.3v26.7c0 10.3 4.42 15.9 15.94 15.9 10.8 0 16.6-5.2 16.6-15.8V1056c0-.96 0-1.1 1-1.2l4.3-.5v-2.85h-14.7v2.8l4 .45c.9.06 1 .3 1 1.28v26.6zm40.8 15.2l13.4-41.6c.2-.8.8-1.1 1.6-1.3l2.6-.7v-2.8h-12.6l-.7 2.8 5.2.6-12.6 39.3-12.9-39.3 5.3-.6v-2.8H1548l-.66 2.8 2.9.7c.8.2 1.3.3 1.55 1.1l14.2 41.7h5.9zm67.1 0l10.8-41.7c.2-1 .4-1.2 1.3-1.3l3.4-.6v-2.8h-14l-.7 2.8 5.9.6-9.7 38.4-9.4-32.2h-4.9l-9.4 31.5-9.5-37.8 5.8-.7v-2.9h-14.7l-.6 2.8 3.9.6c.8.1 1.1.3 1.3 1.2l10.9 41.6h5l9.5-31.6 9.2 31.5h5.4zm60.5 0v-2.8l-3.3-.7c-.8-.2-1.1-.4-1.5-1.1l-13-19.3 11.6-17.7c.4-.7.8-1.1 1.6-1.3l2.7-.7v-2.9h-12l-.7 2.8 4.6.6-10.7 16.2-10.3-16.2 4.7-.6v-2.9H1661l-.64 2.8 2.9.7c.7.2 1.1.4 1.5 1.1l11.7 18.1-12.4 18.9c-.46.7-.85 1-1.6 1.2l-3.2.7v2.7h13.17v-2.8l-4.6-.6 11.2-17.3 11.5 17.3-4.75.6v2.8h13.8zm32.8 0v-2.8l-6.2-.5c-1-.2-1-.3-1-1.3v-13.8l12.3-23.2c.4-.7.9-1.1 1.6-1.3l2.7-.7v-2.9H1730l-.65 2.8 4.6.6-10.7 20.8-10.96-20.8 4.7-.6v-2.9h-12.7l-.7 2.8 2.9.7c.8.2 1.3.5 1.6 1.1l12.8 23.5v13.6c0 1-.1 1.2-1 1.3l-6 .4v2.8h18.5zm48.7 0v-11.2h-3.3l-1.2 6.8c-.1.6-.3.7-1 .7h-22.5l27.6-39.7v-3.1h-32v10.5l3.3-.2 1.2-6c.1-.7.3-.7 1-.7h21.2l-27.7 39.8v2.9h33.4zm-1203.5 101c12.5 0 15.3-9.8 15.3-19.7 0-9.6-2.6-18.3-14.7-18.3-12.3 0-15.6 9.3-15.6 19.1 0 9.5 2.4 18.8 15 18.8zm.2-3.6c-8.4 0-10.8-6.6-10.8-14.9 0-9.6 2.7-15.8 11.1-15.8 8.3 0 10.3 6.1 10.3 14.9 0 8.9-2.3 15.6-10.7 15.6zm41.6 2.8v-2.9l-5.8-.5c-1-.2-1.1-.3-1.1-1.3v-31.7h-11.2l-.3 2.9 6.3 1.1c.6.2.9.3.9 1.3v26.3c0 .9-.2 1.2-1.1 1.3l-6.9.3v2.9h18.9zm32.3 0v-9.9h-3.2l-1.1 5.5c-.1.6-.3.7-1 .7h-15l7.2-6.9c5.1-4.9 11.3-9.7 11.3-16.7 0-6-3.7-10.1-12.6-10.1-5.9 0-12.1 1.4-12.1 10.1l4.1.5c0-5.9 2.5-7.1 7.9-7.1 5.9 0 8.2 2.5 8.2 6.9 0 5.2-5 9-11.1 14.9l-8.6 8.4v3.2h26zm23.4-16.9c4.8-1.8 7.3-5.3 7.3-10.3 0-5.5-3.3-10-12-10-5.9 0-12.4 1.6-12.4 10.2l4.1.5c0-5.8 2.9-7.1 8-7.1 5.6 0 7.7 2.8 7.7 6.9 0 4.3-3 7.7-9.2 8.2l-4 .3v3.6c1.6-.3 3-.4 4.4-.4 6.1 0 9.7 2.6 9.7 8 0 6.3-4.4 8.1-8.9 8.1-4.7 0-7.9-1.6-10.6-4.4l-2.8 3c2.5 3.1 7.3 5.3 13.1 5.3 8.9 0 13.6-4.9 13.6-12 0-5.5-2.7-8.8-8.4-9.9v-.2zm38.3 21.2v-9.7h6v-3.8h-6v-14h-4.1v14H696l13.82-25.3-3.52-2-15.36 27.7v3.4h18.7v9.6h4.15zm36.9-36.8v-8.1l-2.8.2-.9 3.4c-.2.6-.4.7-1.1.7h-17.1l-1.3 20.2 3.3 1.5c2.1-1.6 4.5-3.1 8.5-3.1 3.9 0 8.6 2.1 8.6 9.3 0 6.9-5 9.5-9.5 9.5-4.8 0-8.3-1.5-11.1-4.4l-2.9 3.2c3 3.2 8.1 5.2 13.9 5.2 9 0 14-6.1 14-13.7 0-8.3-4.9-13-12.4-13-3.2 0-6.3 1-8.5 2.4l.9-13.7h18zm36.9.1c0-7.5-5.5-8.9-10.1-8.9-13.4 0-15.9 12.7-15.9 21 0 10.7 2.2 21 13.6 21 8.8 0 13.1-5.7 13.1-13.9 0-6.7-3.4-12.2-11.3-12.2-4.9 0-8.7 2.1-11.1 4.3 0-6.2 1.6-16.7 11.1-16.7 4.2 0 6.4 1.1 6.4 5.7l4.1-.5zm-21.6 15.6c1.8-1.9 6.1-4.7 10.4-4.7 5.2 0 7.5 3 7.5 8.8 0 6.3-3 9.9-8.6 9.9-8.4 0-9.2-9.6-9.4-14.1zm43.1 21.1c.4-13 8.1-30.2 15.4-37.3v-3.2H797v10.5l2.93-.2 1.23-5.8c.1-.6.3-.7 1-.7h17c-5.8 6.9-13.4 19.4-14.9 36.8h4.5zm40-25.5c3-2.5 6.6-6.5 6.6-10.9 0-5.1-4.1-9.2-11.7-9.2-6.3 0-11.9 3.4-11.9 9.8 0 4.8 2.8 7.5 6.3 9.5-4.3 3.1-8.1 6.8-8.1 12.3 0 6.7 5.5 10.4 12.8 10.4 7.8 0 13.5-3.9 13.5-11.1 0-5.6-3.7-8.5-7.8-10.8zm-6.9 1c5.1 2.4 10.3 4.4 10.3 10 0 4.2-3.5 7.3-8.6 7.3-5.4 0-9.1-2.5-9.1-7.1 0-3.7 2.7-6.9 7.3-10.2zm3.4-2.8c-4.7-2.2-9.1-4.3-9.1-8.9 0-3.8 3.2-5.7 7.2-5.7 3.8 0 7.5 1.3 7.5 5.8 0 3.5-2.7 6.4-5.7 9zm21.4 24.3c3 2.9 7.4 3.9 11.6 3.9 13.1 0 14.5-12.6 14.5-21.4 0-10.9-1.8-21-13.5-21-8.8 0-13.3 5.7-13.3 13.8 0 7.6 3.4 13.2 11.4 13.2 5.1 0 8.8-2.3 11.1-4.4 0 5.7-.6 16.2-10.2 16.2-3.4 0-6.5-1-9.2-3.4l-2.3 3.4zm21.7-20.2c-1.9 2-5.8 4.9-10.5 4.9-5.3 0-7.6-3.6-7.6-9.8 0-6.3 3-9.9 8.6-9.9 8.7 0 9.1 9.4 9.4 14.9zm30.6 16c0-2.4-1.4-3.6-3.7-3.6s-3.7 1.2-3.7 3.7c0 2.4 1.3 3.7 3.7 3.7 2.4 0 3.7-1.2 3.7-3.6zm10.3 10.4l3.8-7.1c.5-.9.9-1.9.9-2.9 0-3-2.4-3.6-6.1-3.8l-1.4 4.7 2.1.9c.3.1.4.3.3.7l-1.9 6.7 2.5.9zm19.5-10.3c0-2.4-1.3-3.6-3.7-3.6-2.4 0-3.7 1.2-3.7 3.7s1.4 3.6 3.7 3.6c2.4 0 3.8-1.2 3.8-3.7zm0-25.2c0-2.4-1.3-3.6-3.7-3.6-2.4 0-3.7 1.2-3.7 3.7 0 2.4 1.4 3.6 3.7 3.6 2.4 0 3.8-1.2 3.8-3.7zm10.4 35.6c1.7-3.2 4.7-7.6 4.7-10 0-3-2.4-3.6-6.1-3.8l-1.4 4.6 2 .9c.2 0 .3.1.4.2.4.7-1.6 5.5-2 7l2.5.9zm5-35.6c0-2.4-1.3-3.6-3.7-3.6s-3.7 1.2-3.7 3.7c0 2.4 1.4 3.6 3.7 3.6s3.7-1.2 3.7-3.7zm13.9 16.4l.7-24.2v-10.4H974v10.4l.8 24.3h3.5zm2 8.9c0-2.4-1.3-3.6-3.7-3.6-2.4 0-3.7 1.2-3.7 3.6s1.4 3.6 3.8 3.6 3.7-1.2 3.7-3.7zm20.5-8.8v-8.2c7.7-1.4 13.7-5.3 13.7-14.6 0-9.2-5.5-12-13.7-12-5 0-9.5 1.5-10.7 2v7.8l3.2-.2.6-3.4c.2-.9.3-1.2.6-1.4.9-.6 2.8-1.1 6-1.1 5.3 0 9.4 1.7 9.4 8.7 0 8.1-6.3 10.4-13.5 11.1v11.2h4.3zm1.6 8.7c0-2.5-1.3-3.7-3.7-3.7-2.4 0-3.7 1.2-3.7 3.6 0 2.4 1.4 3.6 3.7 3.6 2.4 0 3.8-1.2 3.8-3.6zm54.8 8.3c-3.4 1.2-7.2 2-11 2-11.5 0-19.2-5.8-19.2-19.2 0-12 7.8-21.1 20.1-21.1 11.7 0 17.7 6.2 17.7 17.7 0 8.4-3.6 12.5-7.3 12.5-2.4 0-3.6-1-3.6-3.4 0-1.5.3-3.7.7-6.2l1.8-11.3c-2.1-1.1-5.4-2-8.4-2-8.5 0-13.7 8-13.7 17.4 0 5.7 2.3 8.8 6.7 8.8 3.5 0 6.3-2.4 8.9-4.9.3 2.8 2 4.9 6.5 4.9 6.8 0 12.3-4.5 12.3-16.9 0-12.9-8.9-20.2-21.5-20.2-14.8 0-24.9 10.2-24.9 24.8 0 15.3 9.5 22.7 23 22.7 6.4 0 10.8-1.4 12.6-2.3l-1.1-3.4zm-7.1-13.8c-2 2.3-5.5 5-8.2 5-2.7 0-3.2-2.3-3.2-5.4 0-7.3 3.9-13.3 8.8-13.3 1.6 0 3.2.4 4.4 1.1l-2 12.5zm49.7 8.3l1.4-9.3h7.4l.7-3.3h-7.6l1.5-10.4h7.5l.7-3.4h-7.8l1.3-8.3h-3.8l-1.2 8.3h-8.5l1.3-8.3h-3.8l-1.2 8.3h-7.5l-.8 3.4h7.7l-1.6 10.4h-7.5l-.9 3.3h7.7l-1.3 9.3h3.8l1.4-9.4h8.6l-1.4 9.4h3.7zm-1.9-12.7h-8.7l1.6-10.4h8.5l-1.5 10.4zm47.7 1.9c0-7.2-5.4-9.2-10.6-10.7v-14.9c1.8.1 3.5.3 4.6.7.8.3 1.1.6 1.3 1.5l1.1 5.2 3.3.3v-9.4c-1.7-.7-5.7-2-10.2-2.1v-4.6h-3.6v4.7c-6.3.7-10.9 4-10.9 10.8 0 7.5 5.6 9.4 11 10.9v14.6c-3.1 0-5.8-.6-7-1.1-.7-.2-.9-.5-1.2-1.5l-1.1-4.8h-3.2v8.7c1.8.9 6.8 2.3 12.4 2.3v5.1h3.5v-5.3c6.7-.9 10.6-4.5 10.6-10.6zm-21-18.8c0-3.7 2.5-6 6.8-6.5v13.6c-3.8-1.2-6.9-2.9-6.9-7.1zm16.8 19.5c0 3.2-1.9 5.7-6.5 6.3V1181c3.6 1.2 6.5 2.85 6.5 6.95zm32.9-6.4c6.8 0 10.4-5 10.4-12.1 0-6.6-2.9-11.1-9.9-11.1-6.9 0-10.5 5-10.5 12 0 5.8 2.5 11.2 10 11.2zm4.1 17.6l24-40.9h-4.1l-24.1 40.8h4.2zm-4-20.9c-4.8 0-6-3.8-6-8.3 0-3.8 1.4-8.2 6.2-8.2 4.8 0 5.9 3.7 5.9 8 0 4.8-1.3 8.5-6.1 8.5zm27.8 20.5c6.8 0 10.4-5 10.4-12.1 0-6.6-2.9-11.1-9.9-11.1-6.8 0-10.5 5-10.5 12 0 5.8 2.5 11.2 10 11.2zm.2-3.3c-4.8 0-6-3.8-6-8.3 0-3.7 1.3-8.2 6.2-8.2 4.7 0 5.9 3.7 5.9 8 0 4.8-1.3 8.5-6.1 8.5zm59.4 2.6v-2.9l-3.5-.6c-1-.2-1.3-.3-1.9-1l-4.8-5.7c1.3-2.8 2.4-6.7 2.9-10.1.2-.9.4-1 1.1-1.1l3-.6v-2.9h-7.3c-.3 4.1-1 6.9-2.2 10.5l-.3 1.2-9.2-10.8c-4.7-5.5-6-7.5-6-10.7 0-2.9 2-4.7 6-4.7 1.7 0 3 .2 4.1.5.7.2.9.5 1 1.2l.7 4.4 3.2.2v-8c-1.3-.7-5.4-2.1-9.2-2.1-7.1 0-10.3 4.4-10.3 8.9 0 3 1.8 6.3 3.8 8.5-7.8 1.8-11.9 6.6-11.9 13.5 0 7.8 5.4 12.9 13.5 12.9 5.9 0 10.5-2.1 14.5-7.4l5.5 6.6h6.9zm-15.1-9.6c-2.8 4.4-7 6.7-11.5 6.7-6.8 0-9.7-4.9-9.7-9.4 0-6.3 4.2-9.3 10.1-10.2l11.2 12.8zm36.4 17.4c-4.2-7.4-8.2-14.5-8.2-25.9 0-9.6 3.1-17.2 8.5-26.3l-3.3-2.1c-4.7 6.9-9.6 16.9-9.6 28.3 0 11.6 4.5 20.6 9.1 27.7l3.4-1.9zm9.1 1.9c4.6-7.1 9.1-16.1 9.1-27.6 0-11.4-4.9-21.4-9.7-28.3l-3.3 2c5.4 9.1 8.6 16.7 8.6 26.3 0 11.3-4 18.4-8.1 25.8l3.4 1.9zm-1020.4-10v-28.1l-16.6-4c-4.3-1.1-7.2-1.8-8.6-6.1L168.1 937h-63.7l-78.5 222c-1.42 4.33-4.7 5.77-9 6.85l-15.8 3.95v28.1h100.4v-28.08l-28.44-3.24 12.6-37.44h89.24l12.97 37.43-29.5 3.24v28.1h113.8zm-108-107.6h-67l33.1-97.9h2.2L164 1090zm309.2-49.3v-30.6h-70c-8.2-2.2-17.6-3.6-33.1-3.6-55.1 0-82.4 28.4-82.4 69.8 0 26.6 13.3 45.3 30.9 54-8.7 7.9-15.9 14.7-22.3 21.6-6.5 6.8-10.5 14-10.5 21.9 0 9.7 3.9 18.7 15.8 23.7-12.6 11.9-19.8 20.5-19.8 36.7 0 28.5 24.8 45 90 45 62.6 0 99-23.4 99-64.8 0-47.8-36.7-49.6-99-53.6l-35.3-2.2 11.9-19.1c6.5 1.8 16.9 3.2 28.4 3.2 45.4 0 76.7-23.4 76.7-63.4 0-16.6-6.8-28.1-13.3-36.4l33.1-2.6zm-67.3 33.8c0 18.7-13.7 30.6-33.8 30.6-23.8 0-33.5-12.3-33.5-29.9 0-23.4 14.8-33.1 34.6-33.1 20.5 0 32.7 11.1 32.7 32.4zm-19.8 136.4c17.3 1.1 31 1.8 31 13.3 0 19.4-28.4 20.8-49.3 20.8-25.2 0-43.5-4.3-43.5-18.7 0-7.2 4.7-13.3 9.4-19.1l52.6 3.6z"/>
    <path fill="#555" d="M2563.46 967.86c1.7-.77 3.73-1.38 6.08-1.83 2.34-.45 4.8-.67 7.36-.67 2.2 0 4.07.27 5.56.8 1.5.53 2.68 1.3 3.56 2.27.87.98 1.5 2.16 1.85 3.52.36 1.37.55 2.9.55 4.6 0 1.9-.07 3.78-.2 5.67-.12 1.9-.2 3.77-.22 5.6-.02 1.84.03 3.62.16 5.35.13 1.73.45 3.36.96 4.9h-6.78l-1.35-4.42h-.4c-.9 1.32-2.1 2.46-3.6 3.42s-3.5 1.44-5.9 1.44c-1.5 0-2.9-.2-4.1-.6-1.2-.4-2.2-1.1-3.1-1.9-.9-.8-1.5-1.8-2-2.9-.5-1.1-.7-2.4-.7-3.8 0-1.9.4-3.6 1.3-4.9.9-1.3 2.1-2.4 3.8-3.2 1.6-.8 3.6-1.4 5.9-1.7 2.2-.3 4.8-.4 7.6-.3.3-2.3.1-4.1-.5-5.1s-2.1-1.5-4.3-1.5c-1.7 0-3.5.2-5.3.5-1.9.3-3.4.8-4.6 1.3l-2-6.2zm10.56 23.8c1.66 0 2.98-.37 3.96-1.12 1-.74 1.7-1.54 2.18-2.4v-4.16c-1.32-.12-2.6-.15-3.8-.06-1.22.1-2.3.28-3.24.58-.94.3-1.7.72-2.24 1.28-.55.55-.83 1.25-.83 2.1 0 1.2.35 2.13 1.05 2.8.7.65 1.68.98 2.92.98zm25.56-38.46h8.32v15.36h.26c.9-1.02 2.05-1.83 3.46-2.43 1.4-.6 2.96-.9 4.67-.9 3.8 0 6.7 1.3 8.8 3.94 2 2.62 3 6.62 3 12 0 5.76-1.4 10.13-4.3 13.12-2.9 2.9-6.8 4.4-11.7 4.4-2.8 0-5.3-.3-7.5-.7-2.3-.5-4-1-5.1-1.5v-43.4zm14.28 19.07c-1.54 0-2.8.4-3.75 1.2-.9.78-1.6 1.92-2.2 3.4v13.96c.7.34 1.5.58 2.2.7.8.13 1.7.2 2.6.2 2.3 0 4-.82 5.2-2.47 1.2-1.64 1.8-4.25 1.8-7.84 0-6.1-1.9-9.15-5.7-9.15zm46.88 23.75c-1.28.93-2.83 1.65-4.64 2.14-1.82.5-3.68.74-5.6.74-2.56 0-4.73-.4-6.5-1.22-1.77-.8-3.2-1.95-4.32-3.42-1.1-1.48-1.9-3.26-2.4-5.35-.5-2-.74-4.3-.74-6.9 0-5.4 1.22-9.6 3.65-12.5 2.4-2.9 5.9-4.4 10.6-4.4 2.3 0 4.2.2 5.6.6 1.4.4 2.7.9 3.8 1.5l-2 6.8c-1-.5-2-.8-2.9-1.1-1-.2-2.1-.4-3.3-.4-2.3 0-4.1.8-5.3 2.3-1.2 1.5-1.8 3.9-1.8 7.3 0 1.4.1 2.7.4 3.8.3 1.2.7 2.2 1.3 3 .6.9 1.4 1.5 2.3 2s2 .8 3.3.8c1.4 0 2.6-.2 3.6-.5.9-.3 1.8-.8 2.6-1.3l1.9 6.4zm34.9-9.28c0 1.8.03 3.58.07 5.37.1 1.8.3 3.8.6 6h-5.9l-1.1-4.1h-.2c-.8 1.5-2.1 2.7-3.7 3.7-1.6.9-3.5 1.4-5.6 1.4-4 0-7.1-1.3-9.3-3.9-2.2-2.6-3.3-6.8-3.3-12.4 0-5.4 1.3-9.7 3.8-12.7s6.1-4.5 10.9-4.5c1.4 0 2.4.1 3.3.3.9.2 1.7.4 2.6.8v-13h8.3V987zm-14.14 5.12c1.63 0 2.9-.4 3.84-1.2.94-.78 1.6-1.92 2-3.4v-13.58c-.6-.47-1.27-.82-2-1.06-.72-.23-1.66-.35-2.8-.35-2.36 0-4.12.8-5.3 2.37-1.17 1.58-1.75 4.3-1.75 8.13 0 2.73.4 4.93 1.4 6.6.9 1.65 2.5 2.5 4.5 2.5zm51.24 3.4c-1.28 1-3.02 1.88-5.22 2.58-2.2.7-4.53 1.06-7 1.06-5.17 0-8.95-1.5-11.34-4.52-2.4-3-3.58-7.13-3.58-12.38 0-5.63 1.34-9.86 4.03-12.67 2.7-2.82 6.47-4.23 11.33-4.23 1.62 0 3.2.22 4.74.64 1.53.43 2.9 1.13 4.1 2.12 1.2.98 2.15 2.3 2.87 3.96.73 1.67 1.1 3.74 1.1 6.2 0 .9-.06 1.87-.17 2.9-.1 1.02-.27 2.08-.48 3.2h-19.2c.13 2.68.82 4.7 2.08 6.07 1.26 1.3 3.3 2 6.1 2 1.76 0 3.33-.3 4.72-.8 1.38-.6 2.44-1.1 3.16-1.7l2.76 5.4zm-11.9-23.5c-2.18 0-3.8.65-4.84 1.95-1.05 1.3-1.67 3.1-1.9 5.3h11.92c.17-2.3-.2-4.1-1.06-5.3-.87-1.2-2.25-1.8-4.13-1.8zm20.06-5.76h4.4v-1.8c0-4.05.87-6.98 2.57-8.8 1.7-1.8 4.18-2.7 7.43-2.7 3.4 0 6.25.4 8.5 1.2l-1.6 6.66c-.97-.34-1.84-.57-2.58-.67-.75-.2-1.53-.2-2.34-.2-.85 0-1.53.1-2.02.4-.5.2-.85.6-1.08 1.2-.24.5-.4 1.2-.45 1.9-.07.8-.1 1.7-.1 2.7h7.04v7.1h-7.04v25h-8.32v-25h-4.4v-7zm54.75 32c0 4.65-1.26 8.07-3.78 10.27-2.52 2.2-6.04 3.3-10.56 3.3-3 0-5.4-.22-7.2-.64-1.7-.43-3.1-.88-4-1.35l1.8-6.6c1 .4 2.1.78 3.4 1.16 1.3.4 2.9.58 4.9.58 2.9 0 4.9-.63 5.9-1.9 1.1-1.25 1.6-3 1.6-5.27v-2.05h-.2c-1.5 2-4.1 3-7.9 3-4.1 0-7.2-1.27-9.2-3.83-2-2.56-3-6.57-3-12.03 0-5.72 1.4-10.05 4.1-13 2.8-2.94 6.7-4.4 11.9-4.4 2.8 0 5.2.18 7.4.57 2.2.4 3.9.9 5.3 1.4V998zm-14.08-6.14c1.62 0 2.87-.37 3.74-1.1.9-.72 1.6-1.8 2.1-3.26v-14.4c-1.3-.55-2.9-.83-4.9-.83-2.1 0-3.8.8-5 2.4-1.2 1.6-1.7 4.15-1.7 7.65 0 3.1.5 5.48 1.6 7.1 1.1 1.63 2.5 2.44 4.4 2.44zm45.1 6.14v-18.18c0-2.6-.38-4.48-1.1-5.63-.73-1.2-2.05-1.8-3.97-1.8-1.4 0-2.7.5-3.87 1.4-1.18.9-1.95 2.2-2.34 3.6V998h-8.4v-44.8h8.3v16.38h.2c1-1.36 2.3-2.45 3.7-3.26 1.5-.8 3.4-1.22 5.7-1.22 1.6 0 3 .22 4.3.64 1.2.43 2.2 1.13 3.1 2.12.8.98 1.4 2.3 1.8 4 .4 1.68.6 3.76.6 6.24V998h-8.3zm20.24-32h8.4v32h-8.3v-32zm-1.2-9.02c0-1.24.5-2.3 1.4-3.17.9-.8 2.2-1.3 3.8-1.3 1.7 0 3 .5 4 1.3 1 .9 1.5 2 1.5 3.2 0 1.3-.5 2.3-1.5 3.1-1 .9-2.3 1.3-3.9 1.3s-2.9-.4-3.8-1.2c-.9-.8-1.4-1.8-1.4-3.1zm22.7 9.02h8.3v33.34c0 3.9-.7 6.85-2.3 8.9-1.5 2.05-4 3.07-7.3 3.07-1.3 0-2.6-.1-4.1-.4v-6.9c.2 0 .3 0 .5.1s.3.1.4.1c2 0 3.2-.6 3.8-1.8.6-1.2.9-2.9.9-5.1v-31zm-1.1-9.02c0-1.24.5-2.3 1.4-3.17.9-.8 2.2-1.3 3.8-1.3 1.6 0 3 .5 4 1.3 1 .9 1.5 2 1.5 3.2 0 1.3-.5 2.3-1.5 3.1-1 .9-2.3 1.3-3.9 1.3s-2.9-.4-3.8-1.2c-.9-.8-1.4-1.8-1.4-3.1zm32.3 27.77h-2.2V998h-8.4v-44.8h8.4v26.43l1.9-.9 7.3-12.73h9.2l-7.7 12.16-3.2 2.43 3.5 2.5 8.6 14.9h-9.5l-7.8-13.3zm31.7 2.5c0 1.5.2 2.58.6 3.26.4.7 1 1.1 1.9 1.1.5 0 1 0 1.5-.1s1.1-.2 1.9-.5l.9 6.6c-.7.4-1.7.7-3.1 1-1.4.4-2.8.6-4.3.6-2.4 0-4.3-.5-5.5-1.7-1.3-1.1-1.9-3-1.9-5.6v-38.4h8.3v34.1zm32.6 10.75v-17.4c0-2.95-.2-5.04-.8-6.28-.5-1.24-1.7-1.86-3.4-1.86-1.4 0-2.6.4-3.5 1.2-.9.78-1.6 1.8-2 3.03V998h-8.3v-32h6.5l1 4.22h.3c1-1.36 2.2-2.56 3.7-3.58 1.6-1.02 3.5-1.54 5.9-1.54 2.1 0 3.7.42 5 1.25 1.3.83 2.4 2.23 3.1 4.2 1-1.67 2.2-3 3.8-3.97 1.5-1 3.4-1.48 5.6-1.48 1.8 0 3.3.22 4.6.64 1.3.43 2.3 1.17 3.1 2.2.8 1.06 1.4 2.45 1.8 4.2.4 1.75.6 3.97.6 6.66V998h-8.4v-17.98c0-2.52-.2-4.4-.8-5.67-.5-1.26-1.7-1.9-3.5-1.9-1.5 0-2.7.42-3.5 1.23-.9.8-1.5 1.92-1.9 3.33v21h-8.3zm57.2 0v-18.18c0-2.6-.4-4.48-1.1-5.63-.7-1.2-2-1.8-3.8-1.8-1.6 0-2.9.4-4 1.4-1.1.9-1.8 2-2.3 3.4V998h-8.3v-32h6.6l1 4.22h.2c1-1.36 2.3-2.56 3.9-3.58 1.7-1.02 3.7-1.54 6.3-1.54 1.6 0 3 .22 4.3.64 1.3.43 2.3 1.13 3.2 2.12.9.98 1.5 2.3 1.9 4 .5 1.68.7 3.76.7 6.24V998h-8.4zm18-16c0-5.42 1.4-9.6 4-12.5 2.7-2.93 6.4-4.4 11.2-4.4 2.6 0 4.8.4 6.7 1.22 1.9.8 3.5 1.95 4.7 3.42 1.3 1.48 2.2 3.26 2.8 5.35.6 2 1 4.3 1 6.9 0 5.4-1.3 9.6-3.9 12.5-2.6 2.9-6.3 4.4-11.1 4.4-2.6 0-4.8-.4-6.6-1.3-1.9-.8-3.5-2-4.7-3.4-1.3-1.5-2.2-3.3-2.8-5.4-.6-2.1-.9-4.4-.9-6.9zm8.6 0c0 1.4.2 2.7.4 3.9.3 1.2.7 2.24 1.2 3.14.5.9 1.2 1.6 2 2.08.9.5 1.9.74 3 .74 2.2 0 3.8-.8 4.9-2.37 1.1-1.6 1.6-4.1 1.6-7.5 0-3-.5-5.4-1.5-7.2-1-1.8-2.6-2.7-5-2.7-2 0-3.6.7-4.8 2.3-1.1 1.5-1.7 4-1.7 7.5zm31.6-16h6.1l1 3.84h.3c1.1-1.62 2.4-2.82 4-3.58 1.5-.77 3.4-1.16 5.5-1.16 4 0 7 1.27 9.1 3.8 2 2.55 3 6.64 3 12.27 0 2.73-.3 5.2-.9 7.4-.6 2.2-1.6 4.05-2.8 5.6-1.3 1.53-2.8 2.7-4.6 3.5-1.8.82-3.9 1.23-6.2 1.23-1.3 0-2.4-.1-3.2-.3-.9-.18-1.7-.5-2.6-.92v13.12h-8.4V966zm14.3 6.14c-1.6 0-2.9.4-3.8 1.22-.9.8-1.6 2.03-2.1 3.65v13.4c.6.5 1.3.9 2 1.1.7.3 1.7.4 2.8.4 2.4 0 4.2-.8 5.4-2.5 1.2-1.7 1.8-4.4 1.8-8.3 0-2.8-.5-5-1.4-6.5s-2.4-2.3-4.5-2.3zm51.6 38.66h-8.3v-15.55h-.3c-.7 1.1-1.7 2-2.9 2.65-1.2.67-2.8 1-4.8 1-4 0-7-1.35-9.1-4.04-2.1-2.68-3.2-6.76-3.2-12.22 0-5.72 1.5-10.05 4.4-13 2.9-2.94 7-4.4 12.4-4.4 1.2 0 2.3.05 3.5.15 1.2.1 2.3.2 3.3.4 1.1.2 2 .4 2.9.6.9.2 1.7.4 2.3.6v43.6zm-14.1-18.94c1.6 0 2.9-.37 3.7-1.1.9-.72 1.6-1.8 2.1-3.26v-14.4c-.6-.34-1.4-.56-2.2-.67-.8-.1-1.7-.16-2.7-.16-2.2 0-3.9.86-5.1 2.56-1.1 1.7-1.6 4.2-1.6 7.5 0 3.1.5 5.47 1.6 7.1 1 1.62 2.5 2.43 4.4 2.43zm43.1-18.06c-1.3-.4-2.5-.7-3.6-.7-1.4 0-2.7.4-3.7 1.2-1 .8-1.6 1.8-2 3.1V998h-8.3v-32h6.5l1 4.22h.3c.7-1.57 1.7-2.8 3-3.64 1.2-.86 2.7-1.28 4.4-1.28 1.1 0 2.4.23 3.8.7l-1.1 7.8zm22.3 15.4c0-.8-.3-1.5-1.1-2-.7-.5-1.6-1-2.7-1.4l-3.5-1.3c-1.2-.4-2.4-1-3.5-1.8-1-.8-1.9-1.8-2.7-3-.7-1.2-1.1-2.8-1.1-4.7 0-3.13 1-5.6 2.9-7.2 1.9-1.65 4.6-2.5 8.1-2.5 2.4 0 4.6.27 6.6.78 1.9.5 3.5 1.1 4.6 1.75l-1.9 6.05c-1-.4-2.2-.8-3.7-1.23-1.5-.4-3-.6-4.5-.6-2.5 0-3.7.96-3.7 2.9 0 .75.4 1.4 1.1 1.84.8.4 1.6.9 2.7 1.3l3.6 1.3c1.3.5 2.4 1.1 3.5 1.8 1.1.8 2 1.7 2.7 2.9.7 1.2 1.1 2.7 1.1 4.6 0 3.2-1 5.8-3.1 7.6-2.1 1.9-5.2 2.8-9.3 2.8-2.2 0-4.4-.3-6.4-.9-2-.6-3.6-1.3-4.8-2l2.3-6.2c1 .5 2.3 1.1 3.9 1.6 1.7.5 3.3.8 5 .8 1.3 0 2.3-.2 3-.7.7-.5 1.1-1.3 1.1-2.4zm14.6-23.1h4.5v-6l8.3-2.3v8.3h7.8v7.07h-7.8v12.3c0 2.2.2 3.8.7 4.76.5.97 1.3 1.45 2.6 1.45.9 0 1.6-.1 2.2-.26.7-.2 1.4-.44 2.1-.8l1.5 6.4c-1.1.6-2.5 1.1-4 1.5-1.5.38-3.1.58-4.7.58-2.9 0-5.1-.75-6.5-2.27-1.4-1.5-2-4-2-7.5v-16.2h-4.4V966zm37.9 0v18.2c0 2.6.3 4.5.9 5.6.7 1.2 1.9 1.8 3.7 1.8 1.6 0 2.9-.43 4-1.4 1.1-.9 1.8-2.1 2.3-3.43V966h8.3v22.27c0 1.75.1 3.47.3 5.15.2 1.7.4 3.2.8 4.58h-6.3l-1.5-4.74h-.3c-1 1.63-2.3 2.97-4.1 4.04-1.7 1.06-3.8 1.6-6.2 1.6-1.6 0-3-.22-4.3-.64-1.2-.43-2.3-1.13-3.2-2.12-.8-.98-1.5-2.3-1.9-3.96-.4-1.67-.6-3.76-.6-6.28V966h8.3zm40.4 16.8l1.1 5h.3l.9-5.04 5.5-16.64h9l-13.3 32.33h-5.1l-13.9-32.33h9.7l6 16.72zm43.7-16.7l5.8 16.4 1.2 5.3h.3l.9-5.36 4.1-16.32h7.6l-9.8 32.35h-6.2l-6.4-17.9-.8-4.02h-.3l-.7 4.1-6.1 17.86h-6.3l-10.3-32.3h9l4.7 16.1.8 5.7h.3l1.1-5.7 5.3-16h6.1zm31.8 15.64l-9.6-15.62h10l4.2 6.88 1.8 4.5 1.9-4.5 4.4-6.9h9.1l-9.7 15.38 10.3 16.66h-9.6l-4.9-7.7-1.9-4.7-2 4.73-4.9 7.7h-9.1l10.4-16.4zm39 2.36l1.2 5h.4l.9-5.08 4.9-17.9h8.6l-9.7 28.86c-.8 2.4-1.6 4.6-2.3 6.57-.7 2-1.5 3.7-2.4 5.18-.9 1.44-1.9 2.56-3 3.35-1.1.8-2.4 1.2-3.9 1.2-2.2 0-4-.35-5.3-1.1l1.6-6.63c.7.25 1.3.38 2 .38 1 0 1.9-.4 2.9-1.24.9-.8 1.6-2.3 2.1-4.5l-13.4-32h10l5.8 18zm19.2 6.96l12.6-15.2 3.3-2.75h-16V966h25.1v7.04l-12.5 15.42-3.2 2.5h15.7V998H3423v-7.04zm-836 94.24h-16.5l-4.5 12.4h-5.2l17-45.5h2.4l17 45.5h-5.5l-4.6-12.4zm-14.8-4.6h13.2l-5-13.7-1.6-6.8-1.6 6.9-4.9 13.5zm60.4-17.6c0 1.05-.1 2.14-.5 3.25-.3 1.1-.8 2.15-1.5 3.1-.7.97-1.5 1.8-2.6 2.54-1.1.7-2.3 1.3-3.8 1.6v.2c1.3.2 2.5.6 3.7 1.1 1.2.5 2.2 1.2 3.1 2.1.9.9 1.6 2 2.2 3.3.6 1.3.9 2.8.9 4.5 0 2.3-.4 4.3-1.4 6-1 1.7-2.2 3-3.8 4.1-1.6 1.1-3.4 1.8-5.4 2.4-2 .5-4 .7-6.1.7h-2.6c-1 0-2-.1-3.1-.1l-3.2-.3c-1-.1-2-.3-2.8-.5v-44.1c1.6-.3 3.5-.5 5.5-.7 2.1-.2 4.4-.3 6.9-.3 1.7 0 3.4.1 5.1.4 1.7.3 3.3.8 4.7 1.6 1.4.8 2.6 1.9 3.5 3.3.9 1.4 1.4 3.2 1.4 5.4zm-14.8 30.45c1.4 0 2.7-.15 4-.5 1.3-.3 2.4-.8 3.4-1.5s1.8-1.56 2.3-2.6c.6-1 .9-2.23.9-3.64 0-1.7-.3-3.1-1-4.2-.7-1-1.6-1.9-2.7-2.5-1.1-.6-2.4-1-3.8-1.2-1.4-.2-2.8-.3-4.2-.3h-5.6v16.1c.3.1.7.2 1.3.2l1.8.1 2 .1 1.8.1zm-3.5-21c.7 0 1.6 0 2.6-.05 1.1-.04 1.9-.1 2.6-.2 1-.33 2-.75 2.9-1.24.9-.5 1.7-1.05 2.4-1.7.7-.66 1.3-1.4 1.7-2.3.4-.87.6-1.8.6-2.85 0-1.4-.2-2.6-.8-3.5-.5-.9-1.2-1.6-2.1-2.2-.9-.5-1.9-.9-3-1.2-1.1-.2-2.3-.3-3.5-.3-1.4 0-2.7 0-3.8.1-1.1.1-2 .2-2.6.3v15.2h3.3zm62.5 23.25c-1.3.98-2.9 1.66-4.9 2.05-1.9.4-4 .56-6.2.56-2.7 0-5.2-.4-7.5-1.4-2.3-.9-4.4-2.3-6.1-4.2s-3.1-4.2-4.1-7.2c-1.1-2.9-1.6-6.4-1.6-10.4 0-4.2.6-7.7 1.7-10.6s2.6-5.3 4.5-7.1c1.9-1.9 3.9-3.2 6.3-4.1 2.3-.9 4.7-1.3 7.1-1.3 2.5 0 4.6.1 6.2.4 1.6.3 3 .7 4.1 1.1l-1.3 4.7c-2-1-5-1.5-8.8-1.5-1.8 0-3.5.3-5.2 1-1.7.6-3.2 1.7-4.6 3.1-1.3 1.5-2.4 3.4-3.2 5.7-.8 2.4-1.2 5.3-1.2 8.7 0 3.1.4 5.8 1.2 8.1.8 2.3 1.8 4.2 3.2 5.8s2.9 2.7 4.7 3.5c1.8.8 3.8 1.2 5.9 1.2 1.9 0 3.6-.2 5-.6 1.4-.4 2.6-.8 3.6-1.4l1.3 4.1zm10.2-42.9c.8-.14 1.7-.24 2.7-.3 1-.07 2.1-.1 3.2-.13l3.2-.03c1.1-.05 2-.06 2.9-.06 3.6 0 6.7.56 9.3 1.67 2.6 1.1 4.8 2.66 6.5 4.65 1.7 2 3 4.38 3.8 7.15.9 2.8 1.3 5.85 1.3 9.2 0 3-.4 5.92-1.2 8.7-.8 2.8-2 5.27-3.7 7.43-1.7 2.13-3.9 3.86-6.6 5.16-2.7 1.3-6 1.94-9.9 1.94-.7 0-1.6 0-2.7-.04-1.1-.03-2.2-.07-3.3-.14l-3.2-.15c-1 0-1.7-.1-2.1-.2V1053zm12.1 4.2h-1.8c-.6 0-1.3.03-1.9.07l-1.8.16-1.3.14v35.87c.2.04.6.07 1.2.1l1.9.06 1.8.05 1.2.07c2.9 0 5.5-.52 7.5-1.54 2-1 3.6-2.4 4.8-4.13 1.2-1.76 2.1-3.7 2.6-5.98.5-2.23.7-4.54.7-6.93 0-2.1-.3-4.2-.7-6.3-.5-2.15-1.3-4.06-2.5-5.77-1.1-1.7-2.7-3.1-4.6-4.2-2-1.05-4.4-1.6-7.3-1.6zm34.8-4.2h24.4v4.72h-19v14.66h17.5v4.73h-17.5v15.9h19.4v4.8H2734V1053zm39.4 0h24.4v4.72h-19v15.3h17.8v4.7h-17.8v20.06h-5.3v-44.8zm53.3 22.45h15.1v19.7c-.7.5-1.5 1-2.4 1.4-.9.44-2 .8-3.1 1.1-1.1.3-2.2.5-3.4.67-1.1.15-2.3.2-3.4.2-2.8 0-5.5-.44-7.9-1.36-2.3-.9-4.4-2.32-6.2-4.22s-3.1-4.3-4.1-7.2c-.9-2.93-1.4-6.38-1.4-10.34 0-4.13.6-7.67 1.8-10.62 1.2-2.9 2.8-5.3 4.7-7.2 2-1.8 4.1-3.2 6.5-4.02 2.4-.85 4.8-1.3 7.2-1.3 2.6 0 4.7.16 6.4.4 1.7.3 3.1.68 4.2 1.15l-1.3 4.7c-2-1-5-1.5-8.8-1.5-1.8 0-3.6.3-5.3 1-1.7.7-3.3 1.7-4.7 3.1-1.4 1.5-2.5 3.4-3.4 5.7-.8 2.3-1.3 5.2-1.3 8.7 0 3.2.4 5.9 1.1 8.2.7 2.3 1.7 4.2 3 5.7s2.9 2.7 4.7 3.4c1.9.7 3.9 1.1 6.1 1.1 2.8 0 5.1-.5 7-1.6v-12.5l-10.5-1.3v-3zm56 1.8H2861v20.5h-5.3v-44.8h5.3v19.5h21.5v-19.5h5.32v44.8h-5.34v-20.56zm22.5-24.3h5.3v44.8h-5.3v-44.8zm24.2 0h5.3v34.96c0 3.4-.7 6-2.3 7.8-1.5 1.8-3.8 2.7-6.8 2.7-.3 0-.8 0-1.3-.1-.5 0-1-.1-1.5-.2l-1.5-.3c-.5-.1-.9-.3-1.2-.4l1-4.5c1.2.6 2.5.8 3.9.8 1.8 0 3-.6 3.5-1.9.5-1.2.8-2.9.8-5.1V1053zm30.3 24.08h-3v20.76h-5.3V1053h5.3v20.84l2.9-.9 15.1-19.95h6.2l-14.9 19.2-2.7 2.1 3.3 2.5 16.4 20.8h-6.7l-16.3-20.8zm60.4 20.76h-26.5V1053h5.3v40h21.2v4.75zm43.4-30.1l.7-6.7h-.3l-2.4 6.1-11.6 20.2h-1.6L3036 1067l-2.3-6.1h-.3l.9 6.6v30.2h-5v-44.8h4l14 22.9 2.1 5h.1l1.9-5.1 13.4-22.8h4.1v44.8h-5.3v-30.1zm29.4.7l-3.5-6.5h-.2l.7 6.5v29.3h-5v-45.5h2.8l21.4 29.9 3.3 6.1h.4l-.7-6.2v-29h5v45.5h-2.9l-21.3-30zm38.2 6.9c0-7.5 1.6-13.2 4.7-17.2 3.2-4 7.7-6 13.5-6 3.2 0 5.9.5 8.2 1.6 2.3 1.1 4.2 2.7 5.7 4.7s2.6 4.4 3.4 7.3c.8 2.8 1.1 6 1.1 9.5 0 7.4-1.6 13.2-4.7 17.1-3.2 4-7.7 5.9-13.6 5.9-3.1 0-5.8-.5-8.1-1.7-2.3-1.1-4.2-2.7-5.7-4.7-1.5-2.1-2.6-4.5-3.3-7.3-.7-2.9-1.1-6-1.1-9.5zm5.6 0c0 2.4.3 4.8.8 7s1.3 4.1 2.3 5.8c1.1 1.7 2.4 3 4 4s3.5 1.5 5.7 1.5c4 0 7.1-1.5 9.3-4.5 2.2-3 3.4-7.7 3.4-13.9 0-2.5-.3-4.8-.8-7-.5-2.3-1.3-4.2-2.3-5.9-1.1-1.7-2.4-3.1-4-4.1s-3.5-1.5-5.7-1.5c-4 0-7 1.5-9.3 4.5s-3.4 7.6-3.4 13.9zm45.1-22c1.7-.4 3.4-.7 5.3-.8s3.8-.2 5.6-.2c2 0 4 .2 6 .6 2.1.3 3.9 1.1 5.6 2.1 1.7 1 3 2.4 4.1 4.2 1.1 1.8 1.6 4 1.6 6.8 0 2.7-.5 5-1.4 6.9-1 1.9-2.3 3.4-3.9 4.6-1.6 1.2-3.5 2-5.6 2.5-2.1.5-4.2.8-6.4.8h-2.6l-1.6-.1c-.5-.1-.9-.1-1.1-.2v17h-5.3v-44.4zm11 3.6c-1.1 0-2.2 0-3.2.1-1 0-1.9.1-2.5.3v18.5c.2.1.6.2 1 .2h3.9c1.4 0 2.9-.2 4.3-.4 1.4-.3 2.7-.8 3.8-1.5 1.2-.8 2.1-1.8 2.8-3.1.7-1.4 1.1-3 1.1-5.1 0-1.8-.3-3.2-1-4.4-.6-1.2-1.5-2.1-2.6-2.8-1.1-.7-2.3-1.2-3.7-1.5-1.3-.3-2.7-.5-4.1-.5zm67 51.6c-1 .3-2.1.5-3 .6-1 .1-2 .2-3 .2-2.2 0-4.2-.3-6.3-.7-2.1-.4-4-.9-5.9-1.5-1.9-.5-3.7-1-5.5-1.5-1.8-.5-3.5-.7-5-.7-1.1 0-2 .1-3 .3v-4.7c.6-.2 1.1-.3 1.7-.4.5-.1 1.1-.1 1.7-.1 1.8 0 3.6.2 5.3.7 1.8.4 3.6.9 5.4 1.5l5.7 1.5c1.9.4 4 .7 6.1.7 1.9 0 3.7-.3 5.6-.7v4.6zm-41.5-33.3c0-7.5 1.5-13.2 4.7-17.2 3.1-4 7.6-6 13.5-6 3.1 0 5.9.5 8.2 1.6 2.3 1.1 4.2 2.7 5.7 4.7s2.6 4.4 3.4 7.3c.7 2.8 1.1 6 1.1 9.5 0 7.4-1.6 13.2-4.8 17.2-3.2 4-7.7 5.9-13.6 5.9-3.2 0-5.9-.6-8.1-1.7-2.3-1.1-4.2-2.7-5.7-4.7-1.5-2.1-2.7-4.5-3.4-7.3-.8-2.9-1.1-6-1.1-9.5zm5.6 0c0 2.4.2 4.8.7 7 .5 2.2 1.2 4.2 2.2 5.9 1 1.7 2.3 3 3.9 4s3.5 1.5 5.6 1.5c3.9 0 7.1-1.5 9.3-4.5s3.4-7.7 3.4-13.9c0-2.5-.2-4.8-.7-7-.5-2.3-1.3-4.2-2.4-5.9-1-1.7-2.3-3.1-3.9-4.1s-3.5-1.5-5.8-1.5c-3.9 0-7 1.5-9.2 4.5-2.3 3-3.4 7.7-3.4 13.9zm45.1-22c1.6-.3 3.5-.5 5.6-.7 2.1-.1 4-.2 5.8-.2 2 0 3.8.2 5.6.6 1.8.4 3.3 1.1 4.7 2.1 1.3.9 2.4 2.2 3.2 3.8.8 1.6 1.2 3.5 1.2 5.8 0 3.5-1 6.3-2.9 8.5s-4.4 3.6-7.3 4.3l3.1 2.3 11.1 17.7h-6.2l-12.4-19.3-6.3-1v20.3h-5.3V1053zm11.5 3.7h-1.7c-.6 0-1.2 0-1.7.1l-1.6.1c-.5 0-.9.1-1.2.2v16.5h5c2.9 0 5.3-.8 7.3-2.2 1.9-1.5 2.8-3.7 2.8-6.8 0-2.3-.8-4.2-2.4-5.7-1.6-1.5-3.8-2.3-6.6-2.3zm51.9 29.3c0-1.8-.5-3.3-1.6-4.4s-2.4-2.2-4-3c-1.6-.9-3.3-1.7-5.2-2.5-1.9-.8-3.6-1.7-5.2-2.8-1.6-1.1-2.9-2.4-4-4s-1.6-3.7-1.6-6.1c0-3.5 1.2-6.3 3.6-8.4 2.4-2.1 5.8-3.1 10.3-3.1 2.6 0 5 .2 7.1.5 2.1.4 3.8.9 5 1.5l-1.6 4.7c-1-.5-2.4-.9-4.3-1.4-1.9-.5-4.1-.7-6.5-.7-2.8 0-5 .6-6.4 1.9-1.4 1.2-2.1 2.7-2.1 4.4 0 1.6.5 3 1.6 4.1 1.1 1.1 2.4 2.1 4 3 1.6.9 3.3 1.7 5.2 2.6 1.9.8 3.6 1.8 5.2 2.9 1.6 1.1 3 2.5 4 4 1.1 1.6 1.6 3.5 1.6 5.9 0 1.9-.3 3.6-1 5.2-.7 1.5-1.7 2.8-3 3.9s-2.9 2-4.8 2.6c-1.9.6-4 .9-6.4.9-3.2 0-5.8-.2-7.9-.7-2.1-.5-3.7-1.1-4.8-1.6l1.8-4.8c1 .5 2.4 1.1 4.3 1.6s4.1.8 6.5.8c1.4 0 2.7-.1 3.9-.4 1.3-.3 2.3-.7 3.2-1.4.9-.7 1.6-1.4 2.2-2.4.6-1 .8-2.1.8-3.4zm45.8-28.7h-14v40.1h-5.3v-40.1h-14v-4.7h33.2v4.7zm34.9-4.7h5.1v29.8c0 2.7-.4 5-1.1 7-.7 1.9-1.7 3.5-3 4.8-1.3 1.2-2.9 2.2-4.7 2.8-1.9.6-3.9.9-6.1.9-5.3 0-9.3-1.2-12-3.6-2.7-2.4-4.1-6-4.1-10.9V1053h5.3v28.4c0 2.27.2 4.18.7 5.74.4 1.53 1.1 2.8 2 3.75.9.9 2 1.6 3.3 2.1 1.3.4 2.9.6 4.7.6 3.5 0 5.9-1 7.4-2.9s2.3-5 2.3-9.4V1053zm30.8 30.7l1.5 6.8 1.7-6.9 10.8-30.7h5.3l-17 45.5h-2.4l-17.3-45.5h5.8l11.4 30.8zm35.4-.8l1 7.4 1.1-7.6 9.2-29.9h2.5l9.3 30 1.1 7.4 1.1-7.5 7.5-29.9h5.2l-12.4 45.5h-2.9l-9.1-30-1.1-6.8h-.3l-1.1 6.9-9.1 29.9h-3l-12.8-45.5h5.7l8.1 30zm56.9-8l-13.7-22h6.4l9 15.1 1.6 3.6 1.5-3.7 9.6-15.2h5.9l-14.1 21.5 14.7 23.3h-6.2l-10.1-16.1-1.8-3.9-1.7 3.8-10.4 16.1h-5.9l14.9-22.8zm39.5 5l-14.8-27h6.2l10.5 19.5 1.1 3.9 1.1-4 10-19.5h5.7l-14.6 26.9v17.9h-5.3V1080zm24.9 13l22.6-32.7 2.7-2.6h-25.3v-4.7h30.1v4.8l-22.7 32.9-2.7 2.4h25.4v4.7h-30.1v-4.8zm-1037.7 82c0-7.7 1.2-13.5 3.7-17.4 2.5-3.9 6.1-5.9 10.9-5.9 5.1 0 8.9 1.9 11.2 5.7 2.3 3.8 3.5 9.6 3.5 17.4 0 7.6-1.3 13.4-3.8 17.3-2.5 3.9-6.2 5.8-11 5.8-5.1 0-8.8-2-11.2-6.1-2.4-4-3.5-9.7-3.5-17.1zm5.3 0c0 2.8.2 5.3.5 7.6.3 2.2.9 4.2 1.7 5.8.7 1.6 1.7 2.9 2.9 3.8 1.2.9 2.6 1.4 4.2 1.4 3.2 0 5.6-1.5 7.1-4.5 1.5-3.1 2.3-7.8 2.3-14.2 0-2.8-.2-5.3-.5-7.6-.4-2.3-.9-4.3-1.6-6-.8-1.7-1.8-3-3-3.9-1.2-.9-2.7-1.4-4.4-1.4-3.2 0-5.6 1.5-7.1 4.5-1.5 3.1-2.3 7.8-2.3 14.2zm38.8 17.6h8.9v-31l.6-3.8-2.6 3-7 5-2.4-3.3 14.1-10.9h2.3v40.8h8.8v4.7H2607v-4.8zm61.6-29.9c0 2.3-.4 4.6-1.3 6.9-.8 2.3-1.9 4.7-3.3 7.1-1.4 2.4-2.9 4.7-4.5 7-1.7 2.3-3.4 4.4-5 6.5l-3.2 2.7v.3l4.1-.7h14v4.7H2644v-1.8c.94-1 2.07-2.2 3.4-3.7 1.32-1.5 2.7-3.1 4.12-4.8 1.43-1.8 2.84-3.7 4.23-5.6 1.36-2 2.62-4 3.75-6.1 1.1-2.1 2-4.1 2.7-6.1.7-2 1.02-3.9 1.02-5.7 0-2.1-.6-3.8-1.8-5.2-1.2-1.4-3-2.1-5.43-2.1-1.7 0-3.2.3-4.8 1-1.6.7-2.9 1.4-4 2.3l-2.1-3.6c1.5-1.3 3.2-2.3 5.3-3 2-.7 4.2-1.1 6.6-1.1 1.8 0 3.4.3 4.9.8 1.4.5 2.6 1.3 3.6 2.3.9.9 1.7 2.1 2.2 3.4.5 1.3.8 2.8.8 4.4zm26.4 30.9c1.4 0 2.8-.2 4-.7 1.2-.5 2.3-1.1 3.2-1.9.9-.8 1.6-1.8 2.1-3s.8-2.4.8-3.8c0-3-.9-5.2-2.7-6.7s-4.2-2.2-7.3-2.2h-4.8v-1.8l9.2-14.2 2.9-2.9-4.1.6h-12.7v-4.7h22.9v1.9l-10.2 15.3-2.2 1.9v.1l2.2-.4c1.7.1 3.3.4 4.7.9 1.5.6 2.7 1.4 3.8 2.5 1.1 1.1 1.9 2.4 2.5 3.9.6 1.5.9 3.3.9 5.2 0 2.3-.4 4.3-1.2 6.1-.8 1.8-1.9 3.3-3.3 4.5-1.4 1.2-3 2.1-4.9 2.8-1.9.6-3.9.9-6 .9-1.9 0-3.6-.2-5.1-.5-1.5-.3-2.9-.7-4-1.2l1.4-4.5c.9.5 2.1.8 3.5 1.2 1.3.3 2.8.4 4.5.4zm58.5-10.1h-7.6v13.8h-5v-13.8H2721v-2.1l21.24-29.7h3.44v27.2h7.55v4.5zm-12.6-18.4l.6-5.2h-.2l-2.3 4.3-9 12.2-3 3.1 4.5-.5h9.4V1165zm32.6 28.5c2.9 0 5.4-.9 7.3-2.6 1.9-1.7 2.9-4.2 2.9-7.4s-1-5.5-2.9-7-4.5-2.3-7.9-2.3l-5.4.3v-22.2h20v4.7h-15.1v12.7l2.7-.2c4.2.1 7.5 1.2 10 3.5 2.4 2.3 3.7 5.6 3.7 9.9 0 2.4-.4 4.5-1.3 6.3-.8 1.8-1.9 3.4-3.3 4.6-1.3 1.2-3 2.2-4.9 2.8-1.8.6-3.8.9-6 .9-1.9 0-3.5-.1-4.8-.3-1.3-.2-2.5-.5-3.7-1l1.3-4.3c1 .4 2.1.7 3.2.8 1.2.2 2.6.3 4.2.3zm57.8-9.8c0 2-.3 3.8-.9 5.5-.6 1.7-1.5 3.2-2.7 4.5-1.1 1.3-2.6 2.3-4.3 3.1-1.7.7-3.6 1.1-5.8 1.1-2.1 0-4-.3-5.7-1-1.7-.7-3.2-1.7-4.4-3.1-1.3-1.3-2.2-3-2.9-5-.6-2-1-4.2-1-6.8 0-4.2.6-8.1 1.7-11.7 1.1-3.5 2.6-6.6 4.5-9.3 2-2.6 4.2-4.8 6.9-6.4s5.5-2.7 8.6-3.1l1.1 4.1c-2.4.4-4.5 1.2-6.5 2.4-1.9 1.2-3.6 2.6-5.1 4.4-1.4 1.7-2.6 3.7-3.6 5.9-.9 2.2-1.5 4.4-1.9 6.7.7-1.2 1.8-2.2 3.5-3.2 1.6-1 3.6-1.5 5.9-1.5 4 0 7.2 1.1 9.5 3.4s3.5 5.5 3.5 9.7zm-5.4.5c0-3-.7-5.3-2.1-6.9-1.4-1.6-3.6-2.3-6.5-2.3-2.1 0-3.9.5-5.4 1.5-1.5 1-2.5 2.1-3.1 3.4-.1.6-.1 1.1-.1 1.5v1.2c0 1.4.2 2.7.5 3.9.4 1.3 1 2.5 1.7 3.5.8 1 1.8 1.8 2.9 2.4 1.1.6 2.4.9 4 .9 1.2 0 2.3-.2 3.3-.7s1.9-1.1 2.6-1.9c.7-.8 1.3-1.8 1.7-3 .4-1.2.6-2.4.6-3.7zm20.9 13l16.1-37.5 2.8-3.2-3.8.5h-18.2v-4.7h26.7v1.7l-18.5 43h-5.2zm33.8-10.7c0-2.7.7-5 2.1-7 1.5-2 3.7-3.8 6.6-5.4-1-.7-2-1.3-2.9-2-.9-.7-1.7-1.5-2.4-2.4-.7-.9-1.2-1.9-1.7-3-.4-1.1-.6-2.4-.6-3.9 0-1.7.3-3.2.9-4.5.6-1.4 1.4-2.6 2.5-3.5 1.1-1 2.4-1.8 3.9-2.3 1.5-.6 3.2-.8 5.1-.8 1.8 0 3.4.2 4.9.7 1.5.5 2.7 1.2 3.7 2.1 1 .9 1.8 1.9 2.3 3.2.6 1.2.9 2.6.9 4.1 0 2.4-.5 4.6-1.6 6.4-1.1 1.8-3 3.7-5.5 5.5 1.1.6 2.1 1.3 3.1 2.1s1.9 1.6 2.6 2.6c.8.9 1.4 2 1.8 3.1.4 1.1.7 2.5.7 4 0 1.8-.3 3.5-.9 5-.6 1.5-1.5 2.8-2.6 3.9s-2.6 1.9-4.2 2.6c-1.7.6-3.6.9-5.7.9s-3.9-.3-5.4-.9c-1.6-.6-2.9-1.4-4-2.5-1.1-1-1.9-2.2-2.5-3.6-.5-1.4-.8-2.9-.8-4.5zm21.2-.6c0-1.3-.2-2.4-.7-3.4-.5-1-1.2-1.9-2-2.7-.8-.8-1.8-1.5-2.9-2.2-1-.6-2.2-1.2-3.3-1.8-2.6 1.4-4.4 3-5.5 4.8-1.1 1.8-1.6 3.5-1.6 5.1 0 1 .2 2 .5 2.9.4 1 .9 1.8 1.6 2.4.7.7 1.5 1.3 2.5 1.7 1 .4 2.2.6 3.5.6 1.1 0 2.1-.2 3.1-.5s1.9-.8 2.6-1.4c.8-.6 1.4-1.4 1.8-2.4.5-.9.7-2.1.7-3.3zm-15.1-23.2c0 1.2.2 2.2.7 3.1.5.9 1.1 1.8 1.9 2.5.8.7 1.7 1.4 2.7 2 1 .6 2.1 1.2 3.2 1.7 1.9-1.5 3.4-3 4.3-4.4.9-1.5 1.4-3.1 1.4-4.8 0-2.2-.7-3.9-2-5-1.4-1.2-3-1.8-4.9-1.8-1.1 0-2.1.2-3 .6-.9.4-1.7.9-2.3 1.4-.7.6-1.1 1.2-1.5 2-.3.8-.5 1.6-.5 2.5zm32.9 3.2c0-2 .3-3.9.9-5.7.6-1.7 1.5-3.2 2.6-4.5 1.1-1.3 2.6-2.3 4.3-3 1.7-.8 3.7-1.1 6-1.1 4.4 0 7.8 1.4 10.2 4.2 2.5 2.8 3.7 6.8 3.7 11.9 0 4.8-.5 9.1-1.6 12.7-1.1 3.6-2.6 6.6-4.5 9.1s-4.2 4.4-6.8 5.8c-2.6 1.4-5.5 2.2-8.5 2.6l-1.1-4.1c2.5-.4 4.7-1.1 6.7-2.2s3.7-2.4 5.1-4.1c1.4-1.6 2.6-3.4 3.5-5.5.9-2.1 1.5-4.4 1.8-6.8-1.1 1.4-2.4 2.4-3.8 2.9s-3.2.8-5.5.8c-1.7 0-3.4-.3-4.9-.9-1.5-.6-2.9-1.5-4.1-2.6-1.2-1.1-2.1-2.5-2.8-4.1-.7-1.6-1-3.5-1-5.6zm5.3-.5c0 3 .8 5.3 2.4 6.8 1.6 1.5 3.7 2.3 6.3 2.3 2.1 0 3.9-.3 5.4-1s2.5-1.6 3.2-2.7c0-.5.1-1 .1-1.5v-1.3c0-1.5-.2-3-.6-4.5-.4-1.5-.9-2.7-1.6-3.9-.8-1.2-1.7-2-2.9-2.7-1.2-.6-2.6-1-4.1-1-2.6 0-4.6.8-6.1 2.4s-2.1 4-2.1 6.9zm44.7 28.8c0-1.1.3-2.1 1-2.7.6-.7 1.5-1 2.6-1 1.2 0 2.1.3 2.8 1 .7.6 1 1.5 1 2.7 0 1.1-.3 2-1 2.7-.7.6-1.6 1-2.7 1s-2-.4-2.6-1c-.6-.7-1-1.6-1-2.7zm13 .2c0-1 .3-1.8 1-2.5.6-.6 1.5-.9 2.6-.9 1.3 0 2.4.5 3.2 1.4.8.9 1.2 2.3 1.2 4.1 0 1.5-.2 2.9-.7 4-.4 1.1-.9 2.1-1.6 3-.7.8-1.5 1.5-2.3 2-.8.5-1.6.9-2.4 1.2l-1.6-2.5c1.5-.6 2.7-1.5 3.4-2.8.7-1.3 1.1-2.5 1.1-3.8-.4.1-.7.2-1.1.2-.8 0-1.5-.3-2.1-.9-.6-.6-.8-1.4-.8-2.5zm15.2-26c0-1.2.4-2.1 1-2.7.7-.7 1.6-1 2.7-1s2 .3 2.7 1c.7.7 1 1.6 1 2.7s-.3 2-1 2.7c-.6.7-1.6 1-2.7 1s-2-.3-2.7-1c-.7-.7-1-1.6-1-2.7zm0 25.8c0-1.2.4-2.1 1-2.7.7-.7 1.6-1 2.7-1s2 .3 2.7 1c.7.6 1 1.6 1 2.7s-.3 2-1 2.7c-.6.7-1.6 1-2.7 1s-2-.4-2.7-1.1c-.7-.7-1-1.6-1-2.7zm19 .2c0-1 .4-1.9 1-2.5.7-.6 1.6-1 2.6-1 1.4 0 2.4.4 3.3 1.4.8.9 1.2 2.3 1.2 4.1 0 1.5-.2 2.9-.6 4s-1 2.1-1.7 3c-.7.8-1.4 1.5-2.2 2-.8.5-1.7.9-2.5 1.2l-1.6-2.5c1.5-.6 2.6-1.6 3.4-2.8.7-1.3 1.1-2.5 1.1-3.8-.4.1-.8.2-1.1.2-.9 0-1.6-.3-2.2-.9-.6-.6-.8-1.4-.8-2.5zm.5-26c0-1.2.3-2.1 1-2.7.7-.7 1.5-1 2.7-1 1.2 0 2.1.3 2.8 1 .7.6 1 1.5 1 2.7 0 1.1-.3 2-1 2.7-.7.7-1.6 1-2.8 1-1.1 0-2-.3-2.7-1-.7-.7-1-1.6-1-2.7zm23.5-16.1h5.3v22.2l-1 11.1h-3.1l-1.1-11.3V1152zm-1.1 41.9c0-1.2.4-2.1 1-2.8.7-.7 1.6-1 2.7-1 1.2 0 2.1.3 2.8 1 .7.6 1 1.6 1 2.7s-.4 2-1 2.7c-.7.7-1.6 1-2.8 1-1.1 0-2-.3-2.6-1-.6-.7-1-1.6-1-2.7zm27.2-8.4v-1.4c0-1.8.2-3.4.8-4.8.5-1.4 1.2-2.6 2-3.7.8-1.2 1.6-2.2 2.5-3.2.9-1 1.8-2 2.6-3s1.5-2.1 2-3.2c.6-1.1.8-2.4.8-3.9 0-2-.5-3.6-1.7-4.8-1.1-1.3-3-1.9-5.6-1.9-1.5 0-3.1.2-4.6.8-1.6.5-2.9 1.1-4.1 1.9l-1.7-4c1.6-1 3.4-1.8 5.1-2.3 1.8-.6 4-.9 6.7-.9 1.9 0 3.5.3 5 .8 1.4.6 2.6 1.3 3.6 2.2.9 1 1.6 2.1 2.1 3.4.4 1.3.7 2.6.7 4.1 0 1.9-.3 3.6-.9 5-.5 1.4-1.3 2.7-2.1 3.9-.9 1.2-1.8 2.3-2.8 3.3-1 1-2 2.1-2.9 3.2-.9 1.1-1.6 2.4-2.2 3.7-.6 1.3-.9 2.9-.9 4.6h-4.2zm-1.3 8.4c0-1.2.4-2.1 1-2.8.7-.7 1.6-1 2.7-1 1.2 0 2.1.3 2.8 1 .7.6 1 1.6 1 2.7s-.3 2-1 2.7c-.7.7-1.6 1-2.7 1s-2-.3-2.6-1c-.7-.7-1-1.6-1-2.7zm70-28.5h2.2l-3.3 18.3c-.2 1.1-.4 2.1-.5 3-.1.9-.1 1.7-.1 2.3 0 1 .2 1.8.5 2.3.3.5 1 .7 1.9.7 1.5 0 2.9-.4 4.3-1.2 1.4-.8 2.7-1.9 3.8-3.3 1.1-1.4 2-3.1 2.7-5.1.7-2 1.1-4.3 1.1-6.7 0-3.3-.5-6.2-1.7-8.7-1.1-2.5-2.7-4.7-4.7-6.4-2-1.7-4.3-3-7.1-3.9-2.8-.9-5.8-1.3-9.1-1.3-3.4 0-6.7.7-9.7 1.9-3 1.3-5.7 3.1-7.9 5.3-2.2 2.3-4 5-5.3 8.2-1.3 3.1-1.9 6.6-1.9 10.3 0 3.8.6 7.2 1.7 10.2 1.2 3 2.9 5.5 5.1 7.5 2.2 2.1 4.8 3.6 7.8 4.7 3.1 1.1 6.4 1.6 10.2 1.6 1.2 0 2.6-.1 4.2-.4 1.6-.3 3-.8 4.3-1.4l1.3 4.1c-1.9.8-3.7 1.3-5.3 1.6-1.6.2-3.4.4-5.22.4-4 0-7.7-.6-11.2-1.8-3.5-1.2-6.5-3-9.1-5.3-2.55-2.4-4.6-5.3-6.1-8.8-1.5-3.5-2.2-7.5-2.2-12 0-4.6.8-8.8 2.4-12.6 1.6-3.7 3.76-6.9 6.5-9.6 2.7-2.6 5.9-4.7 9.5-6.1 3.6-1.4 7.44-2.1 11.5-2.1 3.8 0 7.4.6 10.7 1.7 3.3 1.1 6.1 2.8 8.5 4.9 2.4 2.1 4.3 4.7 5.7 7.7 1.4 3 2.1 6.5 2.1 10.4 0 2.7-.45 5.3-1.4 7.8s-2.2 4.7-3.8 6.5c-1.6 1.9-3.4 3.4-5.6 4.5-2.1 1.1-4.4 1.7-6.74 1.7-1.8 0-3.2-.4-4.3-1.2-1-.8-1.6-2.2-1.6-4.3 0-.4 0-.8.1-1.3.04-.5.1-.9.2-1.4h-.27c-.6 1-1.3 2-2.1 2.9-.8 1-1.72 1.9-2.72 2.6s-2.04 1.4-3.2 1.9c-1.1.5-2.3.8-3.52.8-1 0-2-.3-2.94-.7-.96-.5-1.8-1.1-2.46-2-.7-.8-1.2-1.8-1.6-3-.4-1.1-.6-2.5-.6-4 0-2.7.4-5.4 1.3-8 .9-2.7 2.1-5 3.6-7.1 1.6-2.1 3.3-3.7 5.4-5 2-1.3 4.1-1.9 6.4-1.9 1.57 0 2.8.2 3.77.7.9.5 1.9 1 2.8 1.7l2.2-2zm-3.7 6.2c-.7-.9-1.4-1.5-2.2-1.8-.7-.4-1.6-.5-2.7-.5-1.6 0-3.2.5-4.6 1.5s-2.7 2.3-3.7 3.9c-1.1 1.6-1.9 3.4-2.5 5.4-.6 2-.9 3.9-.9 5.8 0 1.7.4 3.1 1.1 4.3.7 1.2 1.9 1.8 3.7 1.8.9 0 1.7-.3 2.7-.9.9-.5 1.9-1.3 2.8-2.2.9-1 1.7-2.1 2.6-3.3.8-1.2 1.5-2.4 2.15-3.7l1.9-10.4zm49.5 10.7h-6.7l-2.5 10.7h-4.4l2.5-10.7h-5l.9-4.1h5.1l2-8.4h-4.7l.9-4.1h4.8l2.4-10.1h4.4l-2.4 10.1h6.7l2.5-10.1h4.4l-2.4 10.1h4.9l-1 4.1h-4.8l-2 8.4h4.7l-1.1 4.1h-4.6l-2.5 10.7h-4.4l2.5-10.7zm-5.7-4.1h6.7l2-8.4h-6.7l-1.9 8.4zm43.3 19.2c-2.3 0-4.4-.2-6.2-.6-1.8-.4-3.3-.9-4.4-1.5l1.7-4.7c.9.5 2 1 3.5 1.4 1.5.4 3.3.7 5.4.7v-17c-1.2-.6-2.5-1.3-3.8-2-1.2-.7-2.3-1.6-3.3-2.6s-1.8-2.2-2.4-3.6c-.6-1.3-.9-3-.9-4.8 0-3.1.9-5.6 2.6-7.5 1.7-2 4.3-3.2 7.8-3.6v-5.8h4.4v5.6c2.2.1 4 .3 5.4.6 1.4.3 2.6.7 3.8 1.2l-1.6 4.5c-.9-.4-1.9-.8-3.1-1.1-1.2-.3-2.7-.5-4.5-.6v15.8c1.3.7 2.7 1.4 4 2.2 1.4.8 2.5 1.7 3.6 2.7 1 1 1.9 2.2 2.5 3.6.7 1.3 1 2.9 1 4.8 0 3.3-.9 6-2.8 8.2-1.8 2.2-4.6 3.5-8.2 4.1v5.9h-4.4v-5.7zm10.1-12.2c0-1.1-.2-2-.5-2.8-.3-.8-.8-1.5-1.4-2.2-.6-.6-1.3-1.2-2.1-1.7s-1.7-1-2.6-1.5v15.6c1.9-.3 3.5-1 4.8-2.3 1.3-1.2 1.9-3 1.9-5.2zm-15.2-23.1c0 1.8.6 3.3 1.8 4.4 1.2 1.2 2.6 2.2 4.4 3.1v-14c-2.3.2-3.9 1-4.8 2.2-.9 1.2-1.4 2.6-1.4 4.1zm45.2-.2c0-2 .2-3.6.7-5 .5-1.4 1.2-2.5 2.1-3.4.9-.9 2-1.5 3.2-1.9 1.2-.4 2.5-.6 3.9-.6s2.7.2 3.9.6c1.2.4 2.3 1 3.1 1.8.9.9 1.5 2 2.1 3.4.5 1.4.8 3.1.8 5.1s-.3 3.7-.8 5.1c-.5 1.4-1.2 2.5-2 3.3-.9.9-1.9 1.5-3.1 1.9-1.2.4-2.5.6-3.9.6s-2.8-.2-4-.6c-1.2-.4-2.2-1-3.1-1.9-.9-.9-1.6-2-2.1-3.4s-.7-3.1-.7-5.1zm4.7 0c0 2.5.5 4.4 1.4 5.5.9 1.1 2.2 1.6 3.8 1.6.8 0 1.6-.1 2.2-.3.6-.2 1.2-.6 1.6-1.1.5-.6.8-1.3 1.1-2.2.3-.9.4-2.1.4-3.5s-.1-2.6-.3-3.5c-.2-1-.6-1.7-1-2.2-.4-.6-1-.9-1.6-1.2-.6-.3-1.4-.4-2.2-.4-1.6 0-2.9.5-3.8 1.5-.9 1-1.4 2.9-1.4 5.6zm18.1 23.6c0-1.9.3-3.6.8-4.9.5-1.4 1.2-2.5 2.1-3.4.9-.9 1.9-1.6 3.1-2 1.3-.4 2.6-.6 4-.6s2.7.2 3.9.6c1.2.3 2.3 1 3.2 1.8.9.8 1.6 2 2.1 3.3.5 1.4.8 3.1.8 5.1s-.3 3.7-.8 5.1c-.5 1.4-1.2 2.5-2.1 3.3-.8.8-1.9 1.5-3.1 1.8-1.2.4-2.5.6-3.9.6s-2.7-.2-3.9-.6c-1.2-.4-2.3-1-3.1-1.9-.9-.9-1.6-2-2.1-3.4s-.8-3.1-.8-5.1zm4.8 0c0 2.6.5 4.4 1.4 5.5.9 1.1 2.2 1.7 3.8 1.7.8 0 1.5-.1 2.2-.4.7-.3 1.2-.6 1.7-1.2.4-.5.8-1.3 1-2.2.2-.9.4-2.1.4-3.5s-.1-2.6-.3-3.5c-.2-.9-.6-1.6-1-2.2-.5-.5-1-.9-1.6-1.1-.6-.2-1.4-.3-2.2-.3-1.6 0-2.9.5-3.8 1.5-.9 1-1.4 2.9-1.4 5.7zm8.7-34.6l3.2 2.4-32.8 43.9-3.2-2.5 32.9-43.9zm21.4 33.6c0-1.7.3-3.4.9-4.9.6-1.6 1.4-3 2.4-4.3 1-1.4 2.2-2.6 3.5-3.7 1.3-1.1 2.7-2.1 4.1-2.9-1-1.5-1.9-3.1-2.7-4.6-.7-1.6-1.1-3.2-1.1-5 0-1 .2-2 .5-3 .4-1 .9-1.9 1.7-2.6.8-.8 1.7-1.4 2.9-1.9s2.6-.7 4.3-.7c1.7 0 3.2.2 4.4.6 1.2.4 2.1 1 2.9 1.7.7.7 1.2 1.5 1.5 2.4.3.9.5 1.8.5 2.7 0 1.8-.7 3.6-2.1 5.5-1.4 1.9-3.5 3.7-6.5 5.5.7 1.2 1.5 2.5 2.4 3.8.9 1.3 1.9 2.6 2.9 3.9l3.2 3.8c1.1 1.3 2.2 2.4 3.2 3.5.5-.5 1-1.2 1.4-2 .5-.8 1-1.6 1.4-2.5.5-.9.9-1.8 1.2-2.8.4-.9.7-1.8 1-2.7l4 1.9c-.3.7-.6 1.6-1.1 2.6-.5 1-1 2-1.6 3-.5 1-1.1 2-1.7 3-.6 1-1.2 1.8-1.7 2.4.9.9 1.7 1.6 2.4 2.2.7.6 1.4 1.2 2 1.6.6.5 1.2.9 1.8 1.2l1.8 1.1-3.2 3.5c-2.2-1.1-4.8-3.1-7.7-6-.8.8-1.6 1.5-2.5 2.2-1 .7-2 1.3-3.1 1.9-1.2.5-2.5 1-3.9 1.3-1.4.4-2.9.5-4.54.5-2 0-3.9-.25-5.7-.8-1.7-.56-3.3-1.4-4.6-2.5-1.3-1-2.3-2.4-3.1-4-.8-1.5-1.2-3.4-1.2-5.4zm25.7 3.6c-1.2-1.3-2.5-2.6-3.6-4.1-1.2-1.5-2.4-2.9-3.5-4.4-1.1-1.4-2.1-2.8-3-4.2-.9-1.3-1.7-2.5-2.3-3.5-1.2.8-2.3 1.7-3.2 2.6-1 .9-1.9 1.8-2.6 2.8-.8 1-1.3 2.1-1.8 3.2-.4 1.1-.6 2.4-.6 3.7 0 1.3.3 2.5.8 3.6.6 1 1.3 1.9 2.3 2.6.9.7 2 1.3 3.3 1.6 1.2.4 2.5.6 3.9.6 1 0 2.1-.1 3.1-.4s1.9-.6 2.8-1.1c.9-.5 1.7-.9 2.5-1.5.7-.6 1.4-1.1 1.8-1.7zm-13.6-29c0 1.3.3 2.5.8 3.8.5 1.2 1.2 2.5 2.1 3.7 2.2-1.5 3.8-2.8 4.7-4 .9-1.2 1.3-2.2 1.3-3.1 0-1.4-.3-2.5-1-3.3-.7-.9-1.8-1.3-3.4-1.3-1.6 0-2.7.4-3.4 1.1-.7.7-1.1 1.7-1.1 3zm52.1 51.4c-2-2.1-3.6-4.3-5-6.8s-2.5-5-3.3-7.6c-.8-2.6-1.4-5.2-1.8-7.8-.4-2.6-.6-5.2-.6-7.5 0-2.4.2-4.8.6-7.4.4-2.6 1-5.3 1.8-7.9.9-2.7 2-5.2 3.4-7.8 1.4-2.5 3.1-4.8 5.1-7l3.1 2.2c-1.7 2.2-3.2 4.4-4.3 6.8-1.1 2.3-2 4.7-2.7 7.1-.7 2.4-1.2 4.8-1.4 7.1-.3 2.4-.4 4.7-.4 6.8 0 2.1.1 4.3.4 6.7.3 2.4.8 4.8 1.5 7.2.7 2.4 1.6 4.8 2.8 7.1 1.1 2.3 2.5 4.4 4.1 6.3l-3.2 2.4zm11.9-59.7c1.9 2 3.6 4.3 5 6.7 1.3 2.5 2.4 5 3.3 7.6.8 2.6 1.4 5.2 1.8 7.8.3 2.7.5 5.2.5 7.6 0 2.4-.2 4.9-.6 7.5-.4 2.6-1 5.2-1.9 7.8-.8 2.6-2 5.2-3.4 7.7s-3 4.9-5.1 7l-3-2.2c1.7-2.1 3.2-4.4 4.3-6.8 1.2-2.4 2.1-4.7 2.7-7.1.7-2.4 1.2-4.7 1.5-7.1.3-2.3.4-4.6.4-6.8 0-2.07-.1-4.3-.5-6.68-.3-2.4-.8-4.8-1.5-7.25-.7-2.4-1.6-4.8-2.7-7.1s-2.5-4.4-4.1-6.27l3.3-2.4z"/>
    <path fill="#333" d="M2270.48 1128.16h-92.88l-25.2 69.84h-29.52l95.4-255.96h13.68l95.76 255.96h-31.32l-25.92-69.84zm-83.16-25.92h74.16l-28.08-76.68-9-38.16h-.36l-9 38.88-27.72 75.96zm304.2 104.04c0 23.28-6.18 40.44-18.54 51.48s-30.66 16.56-54.9 16.56c-14.4 0-25.98-.9-34.74-2.7-8.76-1.8-16.26-4.14-22.5-7.02l7.56-24.48c5.52 2.16 11.64 4.2 18.36 6.12 6.72 1.92 15.48 2.88 26.28 2.88 10.08 0 18.3-.9 24.66-2.7 6.36-1.8 11.46-4.8 15.3-9s6.48-9.6 7.92-16.2c1.44-6.6 2.16-14.46 2.16-23.58v-17.28h-1.44c-4.8 6.96-10.92 12.3-18.36 16.02-7.44 3.72-17.16 5.58-29.16 5.58-24.24 0-42.06-7.56-53.46-22.68-11.4-15.12-17.1-38.64-17.1-70.56 0-30.72 7.32-54.06 21.96-70.02 14.64-15.96 36.24-23.94 64.8-23.94 13.68 0 25.38 1.08 35.1 3.24 9.72 2.16 18.42 4.68 26.1 7.56v180.72zm-72.36-29.52c12.24 0 21.84-3.06 28.8-9.18 6.96-6.12 11.88-15.66 14.76-28.62v-92.16c-9.6-4.56-21.84-6.84-36.72-6.84-16.32 0-29.16 5.52-38.52 16.56-9.36 11.04-14.04 28.32-14.04 51.84 0 10.08.84 19.32 2.52 27.72 1.68 8.4 4.32 15.6 7.92 21.6 3.6 6 8.28 10.68 14.04 14.04 5.76 3.36 12.84 5.04 21.24 5.04z"/>
    <circle fill="#85b" cx="2880" cy="160" r="160"/>
    <circle fill="#d93" cx="2880" cy="560" r="160"/>
    <circle fill="#d49" cx="3280" cy="160" r="160"/>
    <circle fill="#58e" cx="3280" cy="560" r="160"/>
    <circle fill="#d74" cx="3680" cy="160" r="160"/>
    <circle fill="#5bb" cx="3680" cy="560" r="160"/>
    <circle fill="#e63742" cx="360" cy="360" r="360"/>
    <circle fill="#191f2c" cx="1240" cy="360" r="360"/>
    <path fill="#d0e7ff" d="M2120 0h360v360h-360z" mask="url(#m)"/>
    <path fill="#258" d="M2120 360h360v360h-360z" mask="url(#m)"/>
    <path fill="#acbfcc" d="M1760 0h360v720h-360z" mask="url(#m)"/>
    <circle fill="#f9f9f9" cx="2120" cy="360" r="240" mask="url(#m)"/>
  </g>
</svg>
