<svg xmlns="http://www.w3.org/2000/svg" viewBox="0 0 550 464">
  <path d="M47 24c-1 1-1 3 1 11 1 5 5 6 4 1-1-4 0-5 2-4 3 2 4 0 0-3l-3-4c0-1-2-2-4-1zM106 31l-1 3c0 3 0 3 4 3 2 0 3 0 3-2l-2-1c-2 0-3 0-3-2l-1-1zM120 32c-1 2-1 3 1 5s2 3 0 4c-1 2-1 2 1 2 3-1 4-4 2-7-1-1-2-3-1-4 0-3-2-3-3 0z"/>
  <path d="M67 32l-2 4c-2 3-2 3-5 1-4-2-4 0-1 4l3 5 7 8a180 180 0 0 1 19 24l8 18 8 17c1 4 0 5-5 5l-6 2c-2 2-3 3-5 2l-3 1c-1 2-4 3-4 1l2-7c1-7 1-9-2-10-3 0-4 1-4 4l-1 2c-1-1-3-4-5-15-2-6-4-7-7-4-2 2-2 2-1 3 2 2 4 8 8 20l2 9v7l-1 6c0 2 6 2 7 0 0-2 2-1 4 2 1 2 4 2 3 0-1-6-1-8 1-8l3-2c3-2 5-1 6 4l6 23c1 3 2 7 4 9l4 8c4 11 13 22 25 32a716 716 0 0 1 24 18l9 7 9 8c2 1 3 2 4 1 1 0 4 1 7 4l8 6 6 5a688 688 0 0 0 50 41v10c0 6 2 7 2 1 0-3 1-4 3-4s2 0 2 6c0 5 2 11 3 11v-4-4l1-9c3 0 24 19 29 26l3 12c3 18 3 18 4 17l3-1 2 1c0 3 3 2 4 0l1-13v-10c2-2 3 3 3 14 1 10 0 12-1 16l-4 4c-2 0-15-6-17-9-3-2-8-2-14 0-5 2-5 2-12 1-7-2-7-2-15 0l-12 4-4 2-1-3-2-8-6-14-4-8 2-14v-18c-2-5-10-12-14-15-3-1-8-7-10-13-4-11-27-40-31-40l-5-2-13-4c-21-5-34-11-40-18l-4-6a242 242 0 0 0-25-25c-6-5-9-12-9-23a112 112 0 0 0-10-44l-3-7-4-11c-1-5-4-7-4-3s3 12 5 15l3 6 2 6 3 6 2 9 2 18c0 7 2 15 3 18 1 6 6 12 11 15 3 2 17 16 23 25 5 6 9 9 16 13 4 2 23 8 30 9 8 2 18 7 23 11 7 9 18 24 24 35l6 10 13 11c3 2 4 17 1 29-1 5 0 10 3 14 3 3 7 16 8 23 0 7 1 8 6 6l6-2 7-3c5-2 8-2 19-1l11-1c5-2 9-1 15 2l8 5 5 2c2 2 2 2 5 0 5-5 6-10 6-23 0-12-1-13-3-16-3-4-8-18-8-23l-1-5c-2-4-2-7 0-10 3-5 20 0 22 6 1 7 5 11 10 11 1 0 6-5 8-9l6-7c10-8 16-15 16-20 0-6-4-17-11-28l-4-11c0-4 0-5 4-9l6-8 3-3c2 0 15-14 20-22 2-2 19-14 21-14s15-8 16-10c2-3 10-7 16-8 3 0 5-1 5-2 1-5-19 2-30 10l-10 7c-10 6-16 10-19 14l-4 5-4 5-5 6-1 1v-2l4-11c5-16 10-22 25-35a72 72 0 0 1 32-17c7-2 10-3 17-3l7-1c-1-2-13-2-20 0l-11 2c-5 1-18 9-24 15l-8 6c-7 4-17 18-21 30-3 10-7 19-10 23l-3 4-4 4c-3 4-4 5-4 10-1 6-1 7 3 15l7 12 3 11c0 6 0 7-2 11l-9 8-9 9c-6 11-9 11-13 2-3-8-8-11-19-12l-9 1c-2 1-2 10-1 17a400 400 0 0 1 5 19c2 7-8 1-35-23-3-3-4-5-5-9 0-3-1-4-2-4-3 0-4-3-4-23l-1-18h3l4-2c2-1 3-5 1-5l-4-4c-2-3-2-4-1-5 2-1 2-32 0-34-1-1 4-1 20-3l10-1 8-2 8-2 11-2c14-3 16-4 27-9 14-7 15-7 31-19l18-12c5-2 9-7 8-9 0-1-2-1-4 1-1 1-1 1-2-1s-1-2 2-4l4-2 6-4c12-8 32-12 42-9l8 3 6 2 10 4 9 4 5 2 9 3c6 2 7 3 8 2 0-1 1-2 6-1l5-1c0-4-11-13-15-13-3 0 0 4 4 6l6 4c1 1 1 1-5 1-4 0-6-1-6-2l-4-2-9-4-12-4a270 270 0 0 0-39-12l-5-2-7-2c-7-2-15-3-53-5a443 443 0 0 1-47-3 159 159 0 0 1-31-4l-13-2h-5l-1-6-1-6-7-1c-6 0-8-1-8-4l-5-9-2 6-2 7-8-1h-9v14h-7a1625 1625 0 0 1-30-2c-6 2-37 0-50-2a144 144 0 0 1-50-18c-1 0-18-17-28-29-4-5-2-6 17-7l4-1h2c1 1 1 1 3-1 2-3 2-4 0-5s-2-1-3 1h-4c-2-1-3-1-5 1l-2 1c-1-1-5-2-7-1-1 1-1 1-2-1 0-2-1-2-3-1zm39 54l5 2 11 2a199 199 0 0 0 73 9l37 2c1 2 2 2 4 1 4-1 14 1 14 2l-4 2c-4 1-6 3-4 5l1 5c0 4 0 5 2 5l2 4-4 13-2 6v3l-1-4c-1-4-2-7-5-7-2 0-3 3-3 10l-1 6h-7a301 301 0 0 0-25-4l-14-4-19-5-20-9c-27-14-30-15-30-13l5 4c5 2 5 2 4 11 0 4-7-2-10-8l-4-6-5-9-5-11a1147 1147 0 0 0-7-17c0-1 8 2 12 5zm144 6v4l-8 1h-7v-4l1-5 7-1h7v5zm21-3v8h-5l-7-1c-1-1-2-7-1-8s12 0 13 1zm18 12a527 527 0 0 1 50 7l13 2h22a236 236 0 0 1 60 7c2 2 2 2-2 2l-24 7h-3c-1-1-2 0-6 2l-6 4-5-6 3-2c5-3 2-5-3-3l-11 5a1255 1255 0 0 0-60 19l-9 3-5 2-12 2-15 3c-7 0-8 0-9-2l-1-4-2-6-2-4c-2-2-5-14-4-16l2-4c1-1 1-10-1-13-2-4 0-5 5-5h9l7-1 9 1zm-180 22c0 2 0 2-2 1l-2-2c0-2 3-1 4 1zm2 9l7 6c2 0 1 2-1 5-3 3-1 5 2 2l4-3v2c-1 2-1 2 1 3l4 1 2 2 1 2c-3 0-3 2 0 2 5 2 8 2 9 0 0-1 1-1 4 1l5 4 3 2 7 3 34 11a180 180 0 0 1 28 7h4l-1 7v7l-31-5-12-5-9-3-9-6-11-5c-2 0-8-4-17-10l-11-8c-4-1-12-8-11-10 0-2-3-5-6-5h-3l2 4c2 4 8 10 13 13l8 7c3 3 5 4 8 4l4 1c1 2 17 10 19 10l5 4 11 5 11 4 15 4 14 4 6 1 4 1h2c2-2 4-1 12 1 9 3 9 3 8 19v12l2 1c2 0 3 3 1 4s-7 10-6 11h11v6a632 632 0 0 1 0 34c-2 2-2 2-7-2l-8-5-3-2-6-5-7-6-2-2-15-11-20-15-22-18-18-12-14-12-7-5c-7-5-15-24-24-53l-2-10-1-5c1-2 7 0 13 6zm276-2c2 4 1 5-1 6a1193 1193 0 0 0-73 34l-10 2-5 1-10 1c-7 1-7 1-7-1-1-4-4-4-4-1s0 3-3 3l-4-2c-1-2-2-14-1-15l11-1a130 130 0 0 0 25-5 153 153 0 0 0 44-13l10-4 6-2 4-1 14-5c1 0 3 1 3 3zm-249 3l17 6 11 3 8 3 5 1 13 3 17 5c6 2 15 4 23 4l7 1-2 9c-2 6-3 7-5 7-1 0-2 0-2-3v-5c-2-2-4 0-5 3 0 4-3 5-5 3l-7-1c-9 0-30-5-34-8l-19-10c-5-1-12-5-19-10l-11-6c-4-2-5-2-2-6 2-3 2-3 10 1zm111 22c-2 1-3-1-4-7 0-4 0-7 2-10l2-6 1 10-1 13zm10-13l1 3c-1 1 0 2 1 3v4c-1 3-2 4-4 3-2 0-2-2-2-8 0-8 1-13 2-8l2 3zm132 7l-4 3-7 4c-15 11-35 23-44 27-11 4-48 11-52 10v-4c0-3 3-5 6-5s13-3 38-12l12-5 4-1 42-22 6-3 1 2c2 2 2 2-2 6zm-150 4l-1 2c-2 0-3-2-3-4 1-2 3-1 4 2zm127-3l-4 3-4 2-1-1 4-2 5-2zm-208 9l6 2c5 1 12 5 11 6l-19-8v-1l2 1zm90 8c0 7-1 10-3 8l-1-8 1-7c2-2 3 0 3 7zm8-5l-2 6v-8c1-2 2-1 2 2zm9 10c0 2-1 3-2 3l-1-8 1-3 1 3 1 5zm-23 0c0 2 0 3-2 3-4 0-4-1-2-4s4-3 4 1zm15 1c0 3-3 4-3 2l4-5-1 3zm48 3c-4 2-16 5-20 4-6 0-7-2-1-2l9-1c8-2 14-2 12-1zm-69 3l-3 1-4-1 3-1 4 1zm7 1v1l-2-1 1-1 1 1zm14 0l-2 1-1-1 1-1 2 1zm8 0l-2 1-2-1 2-1 2 1zm9 0l-3 1-2-1 3-1c2 0 3 0 2 1zm-42 5c0 2 1 2 10 2h4v10l-5 1-11-1c-6 0-6 0-4-9 1-4 1-5 4-5l2 2zm40 1l2 2c2 0 2 1 3 3 0 2 0 2-14 4h-5v-4l-1-4h6l6-1h3zm-15 45l-1-1-1-24c1-1 3 24 2 25zm-6-11c0 8-1 10-2 11l-1-2 1-11 1-9 1 11zm0 22h-1l-1-1c1-2 2-1 2 1zm50 94l-1 1-1 1c-1 2 0 2 1 3 3 1 3 1 3 7 0 7 0 7-3 7l-3-3-1-7-1-8v-5l3 2 3 2z"/>
  <path d="M271 138l-2 5c0 5 0 5 2 6l2 2 2 1c2 0 1-12-1-14h-3zM96 34c0 3 1 4 4 4 5-1 5-7-1-7l-3 3zM114 33l1 2 1-2-1-2-1 2zM436 313c-5 1-6 2-7 5-2 8 0 12 7 14l6 1c2 1 2 3-2 12l-2 5-5-1h-5l-2 4c-1 3-2 4-3 3-2-2-2 0-1 3s1 4-1 7l-3 2c-2 0-13-10-14-13-1-2-1-4 1-9 2-4 4-6 9-10 7-5 9-5 7-1-1 2-2 3-1 4l3-4v-5c-2-1-3 0-10 5-8 5-13 15-11 21 2 4 7 10 11 13 4 2 4 2 7 1 2-2 6-9 8-15 1-4 3-5 6-3v3 4c2 0 6-5 6-6-1-1 0-4 1-7l4-8 1-2v2l-2 9-2 7c0 2 2 1 4-2s3-4 6-4c5-1 6-2 5-7 0-4-2-7-6-8-3-1-4-1-4-4 0-4-2-4-2-1 0 2-1 2-2 2-12-3-14-4-12-10 1-3 2-4 6-5 7-2 8-2 13 0s19 15 23 21c5 7 10 12 10 10l-2-3-5-7c-4-5-7-9-17-17-9-8-14-10-23-6zm18 25l1 4c0 3 0 3-3 3l-4 2c-2 1-2 1-2-1l2-7c0-4 0-4 2-3l4 2z"/>
  <path d="M451 351l-1 4-1 6v4h1l1-7 2-6c0-2-1-3-2-1zM367 364c0 2 6 10 8 10l1-1c0-1-9-11-9-9zM348 370c-3 4-5 11-6 22-1 4-3 7-6 7l-4 1h-6c-6-2-13-1-18 1l-10 4c-7 3-15 10-15 13s3 3 7 0c3-2 7-3 11-3 6-1 10-3 22-9 5-2 7-3 13-3l9-1 8-6c1-2 1-2 4 0 3 1 3 1 5-1l1-3 2-1c2 0 2 0 0-2-4-2-6-1-5 2 0 4 0 4-4 1l-3-2-1 3c-2 4-5 6-11 7l-3 1 2-1c3-2 3-3 4-11l4-11 3-7c0-1-2-2-3-1zm-28 32l3 1c-1 3-14 8-21 9l-11 3-5 2c-1-2 7-7 16-11 11-5 12-5 18-4zM376 381c-6 5-7 5-6 2l-1-2c-2 1-2 6 0 7l6-4c5-4 5-4 8-3 4 1 7-1 5-3 0-2-2-3-2-1l-1 2-2-1c0-3-1-2-7 3z"/>
</svg>
