<svg xmlns="http://www.w3.org/2000/svg" viewBox="0 0 960 960">
  <defs>
    <path id="disc" d="M100 427a382 382 0 1 1 765 1 382 382 0 0 1-765-1"/>
    <filter id="disc-shadow" width="118%" height="118%" x="-8%" y="-8%" filterUnits="objectBoundingBox">
      <feOffset dy="16" in="SourceAlpha" result="shadowOffsetOuter1"/>
      <feGaussianBlur in="shadowOffsetOuter1" result="shadowBlurOuter1" stdDeviation="20"/>
      <feColorMatrix in="shadowBlurOuter1" values="0 0 0 0 0 0 0 0 0 0 0 0 0 0 0 0 0 0 0.5 0"/>
    </filter>
    <path id="banner" d="M887 850c0 7-5 14-13 14l-744 39c-8 0-14-5-14-13l-6-106c0-7 5-14 13-14l744-39c8 0 14 5 14 13l6 106z"/>
    <filter id="banner-shadow" width="118%" height="179%" x="-8%" y="-30%" filterUnits="objectBoundingBox">
      <feOffset dy="16" in="SourceAlpha" result="shadowOffsetOuter1"/>
      <feGaussianBlur in="shadowOffsetOuter1" result="shadowBlurOuter1" stdDeviation="20"/>
      <feColorMatrix in="shadowBlurOuter1" values="0 0 0 0 0 0 0 0 0 0 0 0 0 0 0 0 0 0 0.5 0"/>
    </filter>
  </defs>
  <use fill="#000" href="#disc" filter="url(#disc-shadow)"/>
  <use fill="#fff" href="#disc"/>
  <path fill="#000" d="M744 320v23l-45-1 1 39 40 1v24h-41l1 57h47l2 27c-28 1-52-1-78-1l-1-169h74m-440 0h29c2 50 1 108 4 169h-31c-13-25-44-97-55-116-2 34 3 79 1 116l-31-1c0-55 3-108 2-167 9 0 19-1 33 1 15 31 35 76 50 101 1-30-1-72-2-103m314 69c-8-7-28-18-28-28 0-15 18-20 39-14 0 0 3-15 3-26-43-12-73 12-72 35 0 23 18 37 36 51 25 18 26 25 26 36 0 15-12 18-24 18-11 0-20-3-32-10l-15 26c12 8 28 14 51 14 31 0 48-22 48-50 0-26-13-38-32-52m-80-268l-1 23-42-5-1 39 37 3-1 21c-5 0-31-2-38-1l-2 53 44 4 1 25c-22 0-50-3-75-5 2-50 5-108 9-161 18 1 51 4 69 4m-129 68c42-16 39-85-46-76-6 54-6 103-11 159 1 0 26 2 30 1l3-76 33 78 34 2c-16-36-37-74-43-88m-21-55c33 3 26 37-2 36l2-36m258 43a82 82 0 0 0-58-52c-9-2-16-3-25-3l-2 43-7 118c9 2 19 2 29 2 33 0 67-19 70-65 1-16-2-30-7-43m-35 70c-6 5-16 8-27 7l3-103c27 6 40 36 39 62-1 15-6 27-15 34m-60 439c-1-17-5-57-4-76l38-85h-31l-24 56-32-51h-29c14 25 33 54 47 82 2 19 4 56 3 75 10 1 25-1 32-1M442 532l52 157-32 1-23-76-24 2-4 32-8 48h-31l12-58 17-104 41-2m-25 62l18-1-12-36-6 37m-126-53l-25-1 3 44 4 119 29-2c31-2 64-31 62-66 0-32-21-88-73-94m10 131l-7-103c26 1 43 36 44 56 2 26-14 44-37 47"/>
  <path fill="#e2001a" d="M520 338c-34-40-101-34-135-1-30 29-35 84-15 117 16 27 48 43 79 43 41 0 73-14 87-45 19-40 14-79-16-114m4 61c0 6-4 5-4 5h-20c-5 0-8-3-8-7 0 0 1-33-16-62 0 0-1-2 2-2l8 2s36 16 38 64m116 176c-6 0-11 4-13 13-3 10-3 20 2 30 6 13 19 12 24 3 5-8 3-29-1-37-3-6-8-9-12-9m61-3c-6 0-11 2-11 10-1 12 14 11 21 5 0-9-4-14-10-15m-8-48c-35-8-78 7-94 39a88 88 0 0 0-5 74c14 31 43 44 75 43 42-1 67-17 77-55 13-45-7-89-53-101m-25 97c-4 16-13 22-26 22-9 0-20-6-25-17-7-13-6-42 3-54 9-14 30-16 41 0 9 16 11 32 7 49m55-7c-4 17-12 23-22 26-8 2-14 1-19 0l2-14c24 2 28-17 28-25-13 8-37 3-36-19 1-14 9-22 22-23 26-1 30 36 25 55"/>
  <use fill="#000" href="#banner" filter="url(#banner-shadow)"/>
  <use fill="#fff" href="#banner"/>
  <path fill="#e2001a" d="M490 817c-1-18 8-24 25-21l3-14c-5-2-12-2-16-2-28 5-30 27-27 45s17 26 33 26c4 0 11-1 15-3l-4-15c-20 7-28-4-29-16m223-36c-10-14-30-12-39 0-8 10-9 35-3 48 5 9 15 14 24 14 12 0 20-5 24-19 4-15 2-29-6-43m-9 40c-4 7-15 7-20-2-3-8-4-16-2-23s6-10 11-10c4 0 8 2 10 7 3 6 4 22 1 28m69-43c-10-14-30-12-39 0-8 10-9 35-3 48 5 9 15 14 24 14 12 0 20-5 24-19 4-15 2-29-6-43m-9 40c-4 7-15 7-20-2-3-8-4-16-2-23s6-10 11-10c4 0 8 2 10 7 3 6 4 22 1 28m41-53c-12 1-20 8-21 21-1 21 18 26 30 21 0 8 0 17-22 15l-2 14c5 1 11 2 18 0 8-3 16-8 20-22 5-17 0-50-23-49m9 25c-5 5-16 4-16-5 0-5 4-7 8-7 5 0 8 6 8 12m-152 39l-21 1 15-25c2-4 3-10 3-15-1-12-13-16-22-16s-16 8-20 13l11 10c3-5 7-8 11-9 5 0 8 7 1 18l-22 29 1 11 44-2-1-15zm-403 15c-1-10-7-16-17-17 9-5 12-9 11-18-1-7-9-15-18-15-9 1-16 3-21 9l8 11c7-8 17-9 17-1 1 6-3 8-14 11l2 12c9 0 18 0 17 9 0 7-12 10-23 4l-6 13c5 2 11 5 22 5 13-1 23-12 22-23m325-67l-15 1 1 23-24 1-1-23-16 1 3 70 17-1-2-32 24-1 2 32 16-1-5-70m-129 41c20-9 10-40-31-32l2 70 16-1-2-32c2 0 14 19 22 31l17-2-24-34m-16-22c16 0 13 15 1 16l-1-16m-107 21c2 12 2 25 3 44l15-1-5-70h-13l-15 23c-5-4-12-14-17-21l-14 1 2 70 14-1v-44l16 17c6-6 11-14 14-18m64-30l24 69-17 1-11-31h-12l-3 14-5 20h-17c4-11 5-20 7-26l11-46 23-1m-15 27h10l-6-16-4 16m-173 39l-10 1-3-57-15 1s-5 11-14 18l5 11c4-2 8-6 10-9l2 37h-11l1 14 36-2-1-14"/>
</svg>