<svg xmlns="http://www.w3.org/2000/svg" width="100%" viewBox="0 0 500 80">
  <style>
    #tail {
      fill: url(#tail-light);
    }
    #wordmark {
      fill: #0035ad;
    }
    @media (prefers-color-scheme: dark) {
      #tail {
        fill: url(#tail-dark);
      }
      #wordmark {
        fill: #fff;
      }
    }
  </style>
  <defs>
    <linearGradient id="tail-light" x1="90%" x2="60%" y1="30%" y2="50%">
      <stop offset="0%" stop-color="#fff"/>
      <stop offset="100%" stop-color="#0035ad"/>
    </linearGradient>
    <linearGradient id="tail-dark" x1="90%" x2="60%" y1="30%" y2="50%">
      <stop offset="0%" stop-color="#fff" stop-opacity="0.1"/>
      <stop offset="100%" stop-color="#fff"/>
    </linearGradient>
  </defs>
  <path id="wordmark" d="M388.9 43c2.4 0 5.8.3 8 1.3l.4 6.4a9.1 9.1 0 00-7.8-4.9c-2.5 0-5 1.3-5 4 0 6.8 15.5 8.4 15.5 18.2 0 7-6.2 10-12.5 10-3.3 0-7.8-.6-10.6-2.5a22.4 22.4 0 01.1-7.6c1.7 3.9 5.3 7 9.8 7 3.4 0 6-1.5 6-5.2 0-6.5-15.4-8-15.4-18.2 0-6.4 6.1-8.5 11.5-8.5zm-250 0c2.4 0 5.9.3 8.1 1.3l.4 6.4a9.1 9.1 0 00-7.9-4.9c-2.5 0-5 1.3-5 4 0 6.8 15.5 8.4 15.5 18.2 0 7-6.2 10-12.5 10-3.3 0-7.8-.6-10.5-2.5a24.5 24.5 0 010-7.6c1.8 3.9 5.4 7 9.8 7 3.4 0 6-1.5 6-5.2 0-6.5-15.3-8-15.3-18.2 0-6.4 6-8.5 11.4-8.5zm-108 .5h12.4c5.4 0 12 2 12 8.4 0 5.4-4.4 8.2-9.4 8.2C53 60 57.2 76.7 65 76.7c-2 .6-4.3.9-6.5.9h-1.2c-1 0-1.9 0-2.7-.3-2.4-.7-5.6-6-6.9-8l-.2-.4c-1.9-3.3-3.7-7.5-7.9-7.5v13c0 1 .5 2.5 1.6 3H31c1-.6 1.6-1.9 1.6-3V46.5c0-1.2-.5-2.5-1.6-3zm219.8 0h12.4c5.3 0 12 2 12 8.4 0 5.4-4.8 8.2-8.5 8.2 7.3.4 11.7 16.6 19 16.6-2 .6-4.3.9-6.5.9H278c-.9 0-1.9 0-2.8-.3-2.3-.7-5.5-6-6.8-8l-.8-1.3c-1.8-3.1-4.3-6.6-8.1-6.6v13c0 1 .5 2.5 1.6 3h-10.3c1.1-.6 1.6-1.9 1.6-3V46.5c0-1.2-.5-2.5-1.6-3zm-86.7 0c-.7.3-1.5 1.5-1.5 3V58c1.8.2 4 .3 6.8.3h.5c3 0 5.5-.1 7.3-.3V46.5c0-1.5-.8-2.7-1.5-3h10c-.7.3-1.5 1.5-1.5 3v27.9c0 1.5.8 2.6 1.6 3h-10.1c.7-.4 1.5-1.5 1.5-3V61.7c-1.7-.2-4-.2-6.7-.3h-.6c-2.9 0-5.4.1-7.3.3v12.7c0 1.5.8 2.6 1.5 3h-10c.7-.4 1.5-1.5 1.5-3V46.5c0-1.5-.8-2.7-1.6-3H164zm-41.7 0c-.9.4-1.7 1.5-1.7 3v27.9c0 1.5.8 2.6 1.7 3h-10.5c.9-.4 1.7-1.5 1.7-3V46.5c0-1.5-.8-2.6-1.7-3h10.5zm-11.7-.5c-1 2.6-3.8 4.5-5.5 4.5l-3.7-.2h-4.3v27c0 1.2.6 2.6 1.7 3H88.3c1.2-.4 1.7-1.8 1.7-3v-27h-7.5c-1.8 0-3.8.3-5.3 1.1l2.3-5h25c2 0 4.1 0 6-.4zm108.5.5l11.5 31.2a5.2 5.2 0 002.3 2.7H223l.2-.2c.2-.3.4-.5.4-1l-.2-1-3.2-8.6c-2.1-.3-4.3-.3-6.5-.3-2 0-4 0-6 .3l-3.6 9a3 3 0 00-.3.9c0 .5.4.7.8.9h-6.9c1-.5 2-1.6 2.3-2.6l11.3-29 .1-.4c0-.8-.5-1.6-1.3-2h8.9zm-143 0c-1 .4-1.8 1.5-1.8 3v27.9c0 1.5.8 2.6 1.8 3H65.5c.9-.4 1.8-1.5 1.8-3V46.5c0-1.5-.9-2.6-1.8-3h10.6zM0 43.5h13.3c6 0 11.8 2.4 11.8 9.1 0 3.6-3.1 6.4-6.5 7 4.9 0 9.5 3 9.5 8.2 0 7.6-8 9.6-13.6 9.6H0c1.1-.6 1.6-2 1.6-3V46.5c0-1.2-.5-2.5-1.6-3zm245.1 0c-.9.4-1.7 1.5-1.7 3v27.9c0 1.5.8 2.6 1.7 3h-10.5c.9-.4 1.8-1.5 1.8-3V46.5c0-1.5-1-2.6-1.8-3h10.5zm42 0c-.4.3-.6.7-.6 1.4l.2 1.2 7.6 20.3 8-23 9 22.1 6.6-20 .2-.5v-.5c0-.5-.1-.7-.5-1h6.7a6 6 0 00-2.6 3.3l-10.4 30.6a4 4 0 01-2.1-.6c-1-1-2.7-5.1-3.3-6.6l-4.6-11.8-6.8 19h-3.2l-11.6-30.7a6 6 0 00-2.6-3.2h10zm63.4-.5h.8c2.7.1 4.3.6 6.1 3.5l6.5 10.2.7-1.2 5.4-9.3c.4-.8.7-1.3.7-1.6 0-.5-.2-.8-.7-1.1h7.2a8.8 8.8 0 00-3.4 3.5l-8 14.1v13.3c0 1 .4 2.5 1.5 3h-10c1-.6 1.4-2 1.4-3V61l-7-11.2-.3-.5c-1-1.7-3.7-5.4-6.8-5.4 1-.4 3.9-1 5.9-1zm-11.5.5l11.5 31.2a5.2 5.2 0 002.3 2.7H343l.2-.2c.2-.3.4-.5.4-1l-.2-.8-.1-.4-3.1-8.4c-2.1-.3-4.3-.3-6.5-.3-2 0-4 0-6 .3l-3.4 8.3-.2.6c-.3.6-.3.8-.3 1 0 .5.4.7.8.9h-6.9c1-.5 1.9-1.6 2.3-2.6l11.3-29 .1-.4c0-.8-.5-1.6-1.3-2h8.9zm-327.1 18H8.6v12.6c1.5.3 3.1.3 4.6.3 3.4 0 6.9-1.5 6.9-6.7 0-5-4-6.2-8.2-6.3zm202.3-11.6L209 63.1c1.6.2 3.2.2 4.7.2 1.8 0 3.6 0 5.3-.2L214.2 50zm119.9 0l-5.2 13.2c1.6.2 3.2.2 4.7.2 1.8 0 3.6 0 5.3-.2L334.1 50zm-73-3.5c-.6 0-1.1 0-1.7.2v11.7h1.6c3.8 0 6.6-2 6.6-6.2s-2.8-5.7-6.5-5.7zm-250.3 0h-.5l-1.7.1v11.9H10c4 0 8-1.3 8-6s-3.1-6-7.2-6zm30.5 0c-.6 0-1.1 0-1.7.2v11.7h1.6c3.8 0 6.7-2 6.7-6.2s-2.8-5.7-6.6-5.7z"/>
  <path id="tail" d="M486.1 19.2l4.3 1.1c4.8 1.7 6.1 3.3 6.9 3.9 1.1 1 1.9 2.3 2 2.8l.3 1.1v.6l.1.7-.1 1.3c-.5 2.7-2.6 4.9-3.4 5.6a118.5 118.5 0 01-30 15.6s-15.6-2-37.6-8.5c0 0 10.7-3.2 16-5 4.7-1.5 8.4-2.6 16.7-5.7a79.2 79.2 0 0024.4-13l.4-.5z"/>
  <path fill="#c33" d="M499.7 29.3s0-.7-.2-1.2c0-.4-.3-.9-.6-1.3l-1.6-2-2-1.5c-3-2-6.8-3-10.3-3.5-5.3-.7-11.3-.6-12-.6l-17.8.1c-14.4.3-32.1.4-36.8.4-47.8.2-68.6-.8-91.7-5.5-19.8-3.9-30.7-7.6-30.7-7.6 17.4-.6 118.8-4.8 137.3-5.3a332 332 0 0127.6 0c3.5.2 6.8.5 11 1.2 3.6.6 7 1.7 9 2.4a21.4 21.4 0 0110.5 7.4l2 3c2.4 3.7 3.6 6.1 4 7l1.3 2.6.6 1.8.4 2v.6z"/>
</svg>
