<svg xmlns="http://www.w3.org/2000/svg" width="600" height="92" viewBox="-145.5 445.333 600 92">
  <linearGradient id="a" x1="1482" x2="1412" y1="-1425" y2="-1465" gradientTransform="matrix(1 0 0 -1 -1027 -958)">
    <stop offset="0" stop-color="#11266f"/>
    <stop offset="1" stop-color="#4266ae"/>
  </linearGradient>
  <linearGradient id="b" x1="1314" x2="1475" y1="-1440" y2="-1381" gradientUnits="userSpaceOnUse" gradientTransform="matrix(1 0 0 -1 -1027 -958)">
    <stop offset="0" stop-color="#e0162b"/>
    <stop offset=".6" stop-color="#ff0108"/>
    <stop offset=".8" stop-color="#ffb8bb"/>
    <stop offset=".8" stop-color="#ffb0b3"/>
    <stop offset=".8" stop-color="#ff010a"/>
    <stop offset="1" stop-color="#f00"/>
  </linearGradient>
  <path fill="#00054c" d="M-123.3 514.7c4-.7 7.7-4 7.7-8.4 0-8-7-11-14-11h-16c1.4.8 2 2.3 2 3.8v33.4c0 1.4-.6 3-2 3.7h17.3c6.8 0 16.3-2.2 16.3-11.4 0-6.4-5.5-10-11.3-10zm-12-15.6h2.7c4.8 0 8.6 1.5 8.6 7 0 5.8-4.8 7.3-9.6 7.3h-1.6V499zm5.5 33.5c-1.8 0-3.7 0-5.4-.4v-15h3.6c5 0 10 1.4 10 7.5 0 6.2-4 8-8.2 8zm79-37l-2.7 6c1.8-1.2 4.2-1.4 6.3-1.4h9v32.4c0 1.4-.7 3-2 3.7h12.4c-1.3-.5-2-2.2-2-3.6V500c3.4 0 7.3 0 9.6.2 2 0 5.4-2.3 6.5-5.4-2.3.5-4.8.6-7.2.6h-29.7zm51 0H-12c1 .4 2 1.7 2 3.6v33.4c0 1.8-1 3.2-2 3.7H.3c-1-.4-2-1.7-2-3.6V499c0-1.8 1-3 2-3.6zm-91 19.8c6 0 11.3-3.3 11.3-9.8 0-7.7-8-10-14.4-10h-14.6c1.3.6 2 2 2 3.6v33.4c0 1.4-.7 3-2 3.7h12.2c-1.3-.5-2-2.2-2-3.6V517c5.4 0 7.5 5.4 9.8 9.4 1.5 2.5 5.4 8.7 8 9.5 1.6.4 3.3.3 5 .3 2.5 0 5-.3 7.6-1-9.3 0-14.3-20-22.7-20zm-5.6-2h-2V499h2.2c4.4 0 7.8 1.7 7.8 6.8 0 5-3.4 7.5-8 7.5zm41.6-18h-12.6c1 .6 2 2 2 3.8v33.4c0 1.8-1 3.2-2 3.7h12.6c-1-.4-2-1.7-2-3.6V499c0-1.8 1-3 2-3.6zm130.6 0h-12c1 .5 1.8 2 1.8 3.8v13.7c-2.2.2-5.2.4-8.6.4-3.6 0-6.6 0-8.8-.3V499c0-1.8 1-3.2 1.8-3.6H38c1 .4 1.8 1.8 1.8 3.7v33.4c0 1.8-1 3.3-1.8 3.7h12c-1-.4-1.8-1.7-1.8-3.6v-15c2.2-.3 5.3-.5 8.8-.5 3.4 0 6.4 0 8.6.3v15c0 2-1 3.4-1.8 3.8h12c-1-.4-1.8-1.7-1.8-3.6V499c0-1.8 1-3.2 1.8-3.6zm-61 7.8c0-3.3 3-4.7 6-4.7 3.7 0 7.8 2.4 9.4 5.7l-.5-7.6c-2.6-1.2-6.7-1.6-9.6-1.6-6.3 0-13.6 2.5-13.6 10.2 0 12.4 18.3 14 18.3 22 0 4.3-3 6-7 6-5.4 0-9.7-3.6-11.8-8.3-.3 1.6-.5 3.3-.5 5 0 1.3 0 2.7.3 4 3.3 2.4 8.7 3 12.6 3 7.5 0 15-3.4 15-12 0-11.6-18.6-13.6-18.6-21.6zm280.7-7.6c.6.4 1 .7 1 1.3 0 .5-.6 1.4-1.4 2.7 0 0-6 10.7-6.6 12l-7.8-12.4c-2.4-3.8-4.4-4-8.3-4-2.3 0-6 .5-7 1 4.2 0 7.7 5.8 8.5 7l8.3 13.5v16c0 1.2-.4 3-1.6 3.6h12c-1.3-.5-2-2.2-2-3.6v-15.8l9.8-17c1-1.6 2.3-3.4 4-4.2h-8.7zm-54.5 0h-8c.6.4.8.7.8 1.2 0 .4 0 .6-.3 1.3l-8 23.8-10.5-26.4-9.7 27.4-9-24.3c0-.5-.3-1-.3-1.4 0-.8.3-1.2 1-1.6h-12.2c1.5.8 2.5 2.3 3.2 4l13.8 36.7h3.8l8-22.7 5.6 14c.7 2 2.6 6.8 4 8 .4.4 1.4.8 2.5.8l12.3-36.6c.5-1.6 1.6-3.3 3-4zm71.8 7.7c0-3.3 3-4.7 6-4.7 3.7 0 7.8 2.4 9.4 5.7l-.5-7.6c-2.6-1.2-6.7-1.6-9.6-1.6-6.3 0-13.6 2.5-13.6 10.2 0 12.4 18.3 14 18.3 22 0 4.3-3 6-7 6-5.4 0-9.7-3.6-11.8-8.3-.3 1.6-.5 3.3-.5 5 0 1.3 0 2.7.3 4 3.3 2.4 8.7 3 12.6 3 7.5 0 15-3.4 15-12 0-11.6-18.6-13.6-18.6-21.6zm-40.5 30l-13.7-37.6H248c1 .4 1.6 1.3 1.6 2.3v.5L236 533c-.5 1.2-1.5 2.5-2.7 3h8.2c-.5 0-1-.4-1-1 0-.3 0-.8.6-2l4-10c2.5-.2 5-.2 7.4-.2 2.5 0 5 0 7.7.3l3.8 10.2.4 1.4c0 .8-.4 1-.8 1.5H275c-1-.5-2-1.6-2.7-3zm-20-13.8c-2 0-3.8 0-5.7-.2l6.2-16 5.7 16c-2 .2-4 .2-6.2.2zm-123 13.7l-13.6-37.6H105c1 .4 1.7 1.3 1.7 2.3v.5L93 533c-.4 1.2-1.5 2.5-2.7 3h8.2c-.4 0-1-.4-1-1l.7-2 4-10c2.3-.2 4.8-.2 7.2-.2 2.6 0 5.2 0 7.7.3.5 1 3.8 10.2 3.8 10.2l.4 1.4c0 .8-.3 1-.7 1.5H132c-1-.5-2-1.6-2.6-3zm-20-13.8c-1.8 0-3.8 0-5.6-.2l6.2-16 5.6 16c-2 .2-4.2.2-6.3.2zm37.4-23.8h-12.5c1 .5 2 1.8 2 3.7v33.4c0 1.8-1 3.2-2 3.7h12.5c-1-.4-2-1.7-2-3.6V499c0-1.8 1-3 2-3.6zm25.6 20c4.4 0 10.2-3.4 10.2-10 0-7.6-8-10-14.4-10h-14.6c1.3.7 2 2.2 2 3.7v33.4c0 1.4-.7 3-2 3.7h12.2c-1.3-.5-2-2.2-2-3.6V517c5.4 0 8.5 5.4 10.8 9.4 1.5 2.5 5.4 8.7 8 9.5 1.6.4 3.3.3 5 .3 2.5 0 5-.3 7.6-1-8.7 0-14-19.5-22.7-20zm-6.7-2l-2-.2v-14l2.2-.3c4.4 0 7.8 1.7 7.8 6.8 0 5-3.4 7.5-8 7.5z"/>
  <path fill="url(#a)" d="M437.8 468c-5 4.7-11.7 8-18 10.7-6.5 3-13.3 5.4-20 7.8-10.2 3.6-20.5 6.6-30.7 10 13 3.8 26 7 39.2 9 1.8.4 4 1.2 6 1 2.6-.2 5.7-2 8-3 6.7-3 13.2-6.2 19.6-9.8 4-2.2 9.2-5.3 11.5-9.6 2.3-4.3 1.2-8.6-2.6-11.6-1.5-1.2-12.4-7-13-4.5z"/>
  <path fill="url(#b)" d="M454.5 479.2c-3-12.5-22.6-12-32.7-12-10 0-20 .3-30 .5-28 .4-55.7.5-83.4-.3-17.4-.5-34.8-1.5-52-4.4-15.7-2.6-31.7-5.8-47-11 35.4-1 70.7-2.7 106-4 17.2-.8 34.5-1.5 51.8-2 9.5-.3 19-.7 28.7-.7 6.2 0 12.7 0 19 1 7.3 1 15.3 2.4 21.8 6 5.7 3 9 8.5 12.2 14 2.3 3.8 5 8.4 5.5 13z"/>
</svg>
