<svg xmlns="http://www.w3.org/2000/svg" width="100%" viewBox="0 0 480 512">
  <style>
    #wordmark {
      fill: #00739c;
    }
    @media (prefers-color-scheme: dark) {
      #wordmark {
        fill: #fff;
      }
    }
  </style>
  <path id="wordmark" transform="translate(40 40)" d="M202.8 126.8v4.7l-1.2 22-.3 3.2c0 1 0 1.5-.3 2.3h5.2c-.2-1-.2-1.4-.2-3.3v-1.5l1-21.2 7.6 26h4.6l7.6-26 .8 21v5h5.7l-.3-1.6-.3-3.3v-.4l-1.2-21.6v-5.2h-6.7L217 153l-7.6-26.2h-6.6m57 2.2l-1 5-5.2 22.8c-.4 2-1 3.5-1.4 4.8l6 1.4v-1l.8-4 5.3-22.8.8-3 .7-1.8-6-1.4m35 9.3c-.3 1.4-1 3-2 5l-10.8 23c-1 2-2 3.4-2.7 4.6l17 8 2-4.2c-.7-.2-2-.7-4.4-2l-7-3.2L298 146c.4-1 1-2.3 1.6-3.2l1-1.7-6-2.7m44 23.6c-.8 1.2-2 2.6-3.6 4.4L316.4 186c-1.6 1.7-3 3-4.3 4l15 14 3.4-3.6c-.8-.4-2-1.4-4-3.5l-6-5.8 19.4-20.4 2.7-2.6c.7-.7 1-.8 1.6-1.3l-5-5m38 40.7c-1.2 1-3 2-5.2 3.2L346 219.2c-2.2 1.2-4 2-5.6 2.6l11 20.8 4.8-2.5c-.5-.5-.7-.8-1.2-1.6l-1.5-2.8-5.2-10 12.5-6.6 5 9.8.7 1.3.7 1.7 4.8-2.5-1.3-2.2-1-1.7-4.5-8.7 11-5.5 4.6 9c.3.7 1 1.7 1.5 3 .3.8.5 1 .7 1.8l4.6-2.5-10.5-20m22.4 63.2c-1.7.3-4 .4-6.6.4H362c-2.7 0-5 0-6.6-.4v7c2-.3 4.3-.5 6.6-.5h28.4l-35 18.4v7.8h37.4c2.8 0 5.2.2 6.6.4v-7c-2 .3-4.3.5-6.6.5h-28l34.6-18V266m-4.4 72.7c-1.8-.5-4-1.2-6.7-2.3l-30-12.5c-2.8-1.2-4.8-2.2-6.4-3.2l-3 7c2.2.4 4.4 1.2 6.7 2l28 11.7-42 3.7-3 7.7 36.5 15c2.8 1.3 5 2.4 6.4 3.3l2.8-7c-2-.4-4.4-1.2-6.7-2.2L350.4 351l41-3.5 3.6-8.6m-38 68c-1.6-1.2-3.5-2.7-5.7-5l-25-23.7c-2.3-2-4-3.8-5-5.4l-6.4 6.6 1.2 1 4.4 3.8 25 23.8 3.4 3.4c1 1 1 1.3 1.7 2l6.3-6.5m-35.4 32.6c-1.3-1.8-2.6-4-4-6.8l-12-22c-3.8-7.2-6.5-10-11-11.4-4.3-1.3-9.7-.4-15.2 2.5-5.7 3-9.3 7.2-11 12.4-1.4 5-.7 9.3 3.3 16.6l11 20.5c1.4 2.8 2.6 5.4 3.3 7.4l8-4.3-1-1.3c-1-1.3-2.3-3.8-3-5.4L279 427c-3-5.4-3.6-8.2-3-11.5.3-3.4 2.5-6.4 6-8.3 2.8-1.5 6.2-1.7 8.7-.7 2.7 1 5 3.5 7.6 8.5l11.5 21.6 2.3 4.6c.6 1.2.8 1.6 1 2.6l8.6-4.5m-79 30.5c0-1 0-1.6-.2-2.8v-5l1.5-36 .2-5.4c0-1.6.2-2.4.5-3.7h-8.5c.2 1.7.3 2.4.3 5.4v2.5l-.8 34.7-13.4-42.4h-7.5l-11.8 43-2-34.5v-2.2c0-1.3 0-3-.2-3.4 0-1.3 0-1.6.2-2.5h-9.4l.5 2.7c.3 1 .2.7.7 5.5v.7l2.5 35.5c.2 2.5.4 4.4.4 6v2.4l11-.2 11.7-43.3 13.4 43 11-.2M146.4 463c.5-2.2 1.3-4.8 2.5-8l14-36.6c1.2-3.3 2.3-5.8 3.4-7.8l-9.6-3.7-.4 1.7-2.2 6.3-5.8 15.3-3.8-1.5c-6-2.3-10-3-14-2.3-4.8 1-8.8 4.5-11 10-2 5.3-1.5 10.5 1.3 14.2 2 2.7 4.5 4.3 10.2 6.5l15.2 5.8zm-.4-26.5l-6.4 16.8-3-1c-8.6-3.4-10.8-6.6-8.4-12.7 1-3 3.2-5 5.7-5.7 2.3-.7 4.6-.4 8.6 1l3.4 1.5zm-63.2-4.8c1.4-2 3-4 5.7-6.7l28.5-29.6c2.5-2.6 4.6-4.5 6.5-6l-7.7-7.5c-1.3 1.8-3.3 4-5.8 6.7l-12.5 13-2.8-2.7c-4.7-4.6-4.8-6.8-.5-15.2l4.6-8.8 2-4c.6-1 1-1.3 1.5-2l-7.8-7.6c-.6 1.8-.7 2-2.2 5.2l-1.6 3.2-5 10c-3.4 7-3.5 10.5-.5 15-7.3-4-13.4-3.4-18.3 1.7-3.6 3.6-5 8.6-3.4 13 1 3.7 3.3 7 7.6 11l11.6 11.2zm10-25l-12.7 13-2.5-2.6c-6.5-6-7.4-10-3-14.5 4.3-4.6 9.4-4.2 14.7 1l3.5 3.2zM18 354.5C26 369 43 372.3 60.4 362.8c18.2-10 24.3-23.5 16.6-37.6-8-14.6-24.6-17.7-42.8-7.8-9.3 5-16.2 12.6-18.4 20-1.6 5.3-.7 11.5 2.4 17zm7.3-2.8C21 343.3 26 334 39.2 327c8.6-4.8 14.8-6.3 21-5.3 4 .8 7.5 3.2 9.5 6.7 4.5 8.5-.7 17.5-14.7 25-8 4.5-15.4 6-21 4.7-3.6-.8-7-3.3-8.5-6.3zM.3 288.5c2.8-.4 6-.6 10-.6h45.5c4.2 0 7.2 0 9.8.5v-19.2c0-10-1.8-17-6-22.2-5.5-6.6-16-11-27.3-11-9.7 0-18 2.6-24 7.5-6 5.3-8 10.7-8 24v21zM57.5 277H8v-7c0-8.2 1.4-13 4.6-16.4 4-4 11.4-6.4 20.3-6.4 7.2 0 13.7 1.7 17.8 4.6 5 3.6 6.7 8.3 6.7 18v7.2zM1.7 195.2c2.8.4 6 1 10 2.3l31.5 9c10.2 3 15.3 3 20.7 0 5-3 9.2-8.7 11.4-16.4 2.3-8 1.8-15.2-1.6-21.4-3.4-6.2-8-9.4-18.5-12.4l-29-8.3c-4-1.2-7.6-2.5-10-3.6L13 156c1 0 1.5 0 2.2.2 2 .4 5.6 1.3 7.8 2l29 8.3c7.6 2 11 4 13.6 7.5 2.8 3.5 3.5 8.3 2 13.3-1 4-4 7.4-7 8.8-3.6 1.6-8 1.5-15-.6L15 186.6l-6.4-2-3.4-1.4-3.5 12m67.7-133c-6.2 3.8-9.8 6.6-14.2 11.5-14 15.6-11.8 33.3 6.2 49.6 7 6.4 15.4 10.6 23 11.8 9 1.4 16.5-1.3 22.5-8 6-6.8 9.2-15.5 10.2-28.8l-8.6-1c0 3-.3 5.2-1 8.6-1.4 6.2-3 10-6 13.3-7.3 8-20.4 5.8-33.2-5.7-5.6-5-10-11.6-11.5-16.7-1.7-6-.3-11.8 4.3-17 3.8-4 8.5-7.5 13.5-9.5l-5.4-8m56.2-29.6L146 82c1 1.7 2 4.7 2.6 6.5.6 1.7.7 2.3 1 3.8l12.6-5.2c-1.4-2-3-5.5-4.8-9.8L137 27.7l10-4.2c3.5-1.4 6-2.4 9-3.4l-3.4-8.4-49.4 20.6 3.5 8.4c1.2-.6 1.8-1 3.4-1.6 1.7-1 3.8-1.7 5.4-2.4l10.2-4.2m68 43.8c7 2.4 13 3.4 20 3.4 15.5 0 26.2-9.6 26.2-23.6 0-9.5-4.8-15.4-18.3-22.7-5-2.7-8.4-4.8-10-6-3-2.4-4.5-5-4.5-8 0-6 5.4-10.3 13-10.3 4 0 7 .8 12.3 3l2.4-9.6C229.2.7 224 0 218.7 0c-14.4 0-24.2 8.5-24.2 21.3 0 9 4.6 14.3 18.3 21.7 11.3 6 14.5 9.4 14.5 15.3 0 3.2-1.5 6-4 8.4-3 2.4-6.3 3.4-11.4 3.4-5.7 0-10-1-16-4l-2.5 10.2"/>
</svg>
