<svg xmlns="http://www.w3.org/2000/svg" viewBox="0 0 920 640">
  <g fill="none" fill-rule="evenodd">
    <path fill="#58585A" d="M552 191h50v22h-6v-4c0-8-5-12-14-12v38c0 2 1 3 4 3h6v6h-30v-6h6c2 0 3-1 3-3v-38c-9 0-13 4-13 12v4h-6v-22zm82-2c18 0 29 13 29 29 0 15-11 28-29 28-17 0-28-13-28-28 0-16 11-29 28-29zm0 7c-12 0-16 10-16 22 0 11 4 21 17 21 12 0 16-10 16-21 0-12-4-22-17-22zm-23 149v6h-2c-4 0-5 1-7 5l-16 42h-11l-15-43c-2-4-3-4-6-4h-2v-6h28v6h-5c-3 0-4 0-4 2l1 3 10 29 11-29 1-3c0-2-2-2-4-2h-5v-6h26zm32-2c18 0 29 13 29 29 0 15-11 28-29 28-17 0-29-13-29-28 0-16 12-29 29-29zm0 7c-12 0-16 10-16 22 0 11 4 21 17 21 12 0 16-10 16-21 0-12-4-22-17-22zm33-5h50v22h-6v-4c0-8-4-12-13-12v38c0 2 1 3 3 3h6v6h-30v-6h6c3 0 4-1 4-3v-38c-9 0-14 4-14 12v4h-6v-22zm106 53h-53v-6h5c3 0 4-1 4-6v-31c0-3-1-4-5-4h-4v-6h53v21h-6c-1-11-2-15-13-15h-14v17h4c5 0 7-3 7-9v-1h6v26h-6v-2c0-6-2-9-7-9h-4v19h16c8 0 10-4 11-16h6v22zm41-49l3-4h4v20h-6c-1-9-7-15-16-15-7 0-11 2-11 7 0 12 36 3 36 26 0 12-10 17-21 17-6 0-12-3-17-7l-1 5h-6v-22h6c1 11 8 17 19 17 7 0 11-3 11-7 0-14-36-4-36-27 0-11 10-16 20-16 6 0 11 3 15 6z"/>
    <path fill="#9B3F96" d="M580 321h-29v-6h5c3 0 4-2 4-4v-34c0-2-1-3-4-3h-5v-6h50v22h-6c-1-13-4-16-15-16h-9v17h4c5 0 7-4 7-8v-2h5v26h-5v-3c0-5-3-8-8-8h-3v15c0 3 1 4 5 4h4v6zm42 0h-24v-6c4 0 7 0 8-4l15-43h11l16 43c2 4 5 4 9 4v6h-28v-6h6l3-1-1-2-2-8h-18l-3 8v2l2 1h6v6zm-3-23h13l-6-19h-1l-6 19zm69 23h-28v-6h4c3 0 4-1 4-3v-35c0-2-1-3-4-3h-4v-6h28v6h-4c-2 0-5 1-5 4v33c0 3 2 4 4 4h5v6zm33 0h-30v-6h6c2 0 3-1 3-3v-35c0-2-1-3-3-3h-6v-6h35c12 0 17 5 17 13s-7 12-15 13c9 1 11 5 11 11 0 9 1 10 3 10s3-2 3-6v-3h5v3c0 10-5 14-11 14-8 0-11-5-11-11 0-13-2-16-12-16h-5v16c0 2 1 3 4 3h6v6zm-10-47v16h10c9 0 11-3 11-9 0-4-3-7-10-7h-11zm95 47h-53v-6h5c2 0 4-1 4-6v-31c0-3-1-4-5-4h-4v-6h53v21h-6c-1-11-2-15-13-15h-14v17h4c5 0 7-3 7-9v-1h6v26h-6v-2c0-6-2-9-7-9h-4v19h16c7 0 10-4 11-16h6v22zm35 0h-30v-6h6c2 0 3-1 3-3v-35c0-2-1-3-3-3h-6v-6h35c12 0 17 5 17 13s-7 12-15 13c9 1 11 5 11 11 0 9 1 10 3 10s3-2 3-6v-3h5v3c0 10-5 14-11 14-8 0-11-5-11-11 0-13-2-16-12-16h-5v16c0 2 1 3 4 3h6v6zm-10-47v16h10c9 0 11-3 11-9 0-4-3-7-10-7h-11z"/>
    <path fill="#9B3F96" fill-rule="nonzero" d="M455 488v110L342 488H96c-30 0-54-24-54-54V96c0-30 24-54 54-54h364c30 0 54 24 54 54v338c0 30-24 54-54 54h-5z"/>
    <path fill="#FFF" d="M413 278l-10 24c-24-17-49-11-49 3 0 8 3 10 19 12 19 3 28 6 34 13 15 16 11 49-8 62-20 13-59 13-86-7l12-24c25 16 49 17 54 7 6-11 0-19-18-20-31-2-42-19-42-39 0-23 13-39 41-44 7-1 38 0 53 13zm-276 32h1l22-42h35l-43 76v53h-34v-54l-42-75h40l21 42zm161-16h-56v24h49v27h-49v26h57v26h-91V268h90v26zm163 61h-24l-5-87h35l-6 87zm3 42h-30v-30h31l-1 30z"/>
  </g>
</svg>
