<svg xmlns="http://www.w3.org/2000/svg" width="100%" viewBox="0 0 162 47">
  <style>
    #football {
      fill: #0cb359;
    }
    #foundation {
      fill: #13365c;
    }
    #ball {
      fill: #333;
    }
    @media (prefers-color-scheme: dark) {
      #ball {
        fill: #ccc;
      }
      #foundation {
        fill: #396fAc;
      }
    }
  </style>
  <g transform="translate(10 0)">
    <path id="ball" d="M122.6 21.3l.6 2.3v.5l.2.3.3.2.6.3 1 .4 1.2.4 1.2.2h1.2l.5.2.2-.2.4-.4 1.6-1.6-2.8-2.3-.8-.6-.3-.4-5 .7zm13.8-4l-.8 5H138.6l.5-.4.8-1 .7-1 .6-1 .6-1.3V17l-.2-.4-1.2-2-4.2 2.8zm-9-8.2l-.6.4-.5.4-.3.5v.5l-.2.5v.6l.2.4.5 1 .7 1.2.7 1 .4.6.4.4h.2l1.7-.7 1-.6 1-.6.5-.4.4-.3.3-.4.2-.5v-1.6l-.2-.2-.2-.4-.3-.3-.3-.2h-.5l-.2-.2h-1.1l-.6.3h-.5l-.4-.5-.7-.5-.8-.3h-1.2zm-10.6 1.4v.4l-.2 1.3V15l.4 1.3.2.5.6.3 2 1 1.5-3.4.2-.8.2-.4L120 10l-.4-1V9l-2.8 1.6zM134.5 3l1 3.5.2 1 .2.3.7.5 3.7 2 1-2.4V7l-.2-.4-.6-1-.7-1-1-.8-.7-.8-.5-.4-.3-.2-3 .5zm-7-3h-.5l-1 .3-1 .3-1 .5-1 .6-1 .6-.3 3 4 .2h1.1l.2-.2.7-.7 2.7-2.6-2.4-2h-.4z"/>
    <path id="foundation" d="M104 31v15.8h5.6V31H104zm0-6v3.6h5.6V25H104zM85 42.3V39c-2.3.8-2.7 1-2.7 2v2c.2.6.7.8 1.2.8 1.5 0 1.5-1 1.5-1.5m5.6-7v11.2H85V45c-1 .8-2.2 1.8-4.4 1.8-1 0-2-.3-2.5-.6-1.2-1-1.3-2-1.3-3.7 0-3.6 1-4.3 5.2-5.3 1.8-.4 2-.5 3-1 0-1.5 0-1.7-.3-2-.3-.3-.7-.3-1-.3-1.2 0-1.2.7-1.2 2h-5c0-2.3 0-3.6 1.7-4.7 1.2-.7 2.8-1 4.8-1 .8 0 2 0 3.5.4 3 1 3 3.2 3 4.5zM.3 25.4v21h6v-8.7h5v-4h-5v-4.2h5.3v-4H.3zM13 41.7c0 1.5 0 3.2 2 4.2 1 .4 2.3.8 5.3.8 1 0 3.2 0 4.7-1 2-1 2-3 2-4.4v-6c0-2 0-5.2-7.3-5.2-1.3 0-2.6.2-3.6.5-3 .8-3 3.2-3 4.6v6.4zm8.3-.2c0 .7 0 1.7-1.3 1.7-1.5 0-1.5-1-1.5-1.6v-6.2c0-.5 0-1.5 1.4-1.5 1.3 0 1.3 1 1.3 1.5v6zM37 30.7V42c0 .7 0 1.7-1 1.7-1.3 0-1.3-1-1.3-1.6V30.8H29v11c0 1.4 0 5 4 5 2.5 0 3.4-1 4-1.8v1.5h5.7V30.7H37zm21.7 5c0-1.4 0-2.8-.8-3.8-1-1.2-2.2-1.7-3.6-1.7-2.2 0-3.2 1.3-3.7 2v-1.6H45v15.7h5.7V35.2c0-.5 0-1.5 1.2-1.5 1 0 1 1 1 1.5v11.2h5.7V35.7zM69 25.5v7c-.4-1-1.3-2-4-2-3.6 0-4 2.2-4 4.6V42c0 2 0 5 4.3 5 2.6 0 3.3-1.4 3.8-2.2v2h5.7v-21H69zm0 16.7c0 .5 0 1.4-1.2 1.4-1.3 0-1.3-.8-1.3-1.3V35c0-.4 0-1.2 1.3-1.2s1.3.8 1.3 1.2v7.2zm25.3-16.7v5.2H92v3h2.3v8.8c0 1 0 2.3 1 3.2 1 .7 2 .7 3 .7h4v-3.2c-1.8 0-2 0-2.2-.3-.2-.3-.2-.8-.2-1v-8.3h2.5v-3h-2.5v-5.2h-5.5zm18 16.2c0 1.5 0 3.2 2 4.2 1 .4 2.3.8 5.3.8 1 0 3.2 0 4.7-1 2-1 2-3 2-4.4v-6c0-2 0-5.2-7.3-5.2-1.3 0-2.6.2-3.6.5-3 .8-3 3.2-3 4.6v6.4zm8.4-.2c0 .7 0 1.7-1.4 1.7-1.5 0-1.5-1-1.5-1.6v-6.2c0-.5 0-1.5 1.4-1.5s1.5 1 1.5 1.5v6zm21.3-5.8c0-1.4 0-2.8-.8-3.8-.8-1.2-2-1.7-3.5-1.7-2.2 0-3.3 1.3-3.7 2v-1.6h-5.6v15.7h5.6V35.2c0-.5 0-1.5 1.2-1.5 1 0 1 1 1 1.5v11.2h5.8V35.7z"/>
    <path id="football" d="M80.4 17.6V14c-2.3 1-2.6 1.2-2.6 2.4v1.8c.2.6.6.8 1.2.8 1.4 0 1.4-1 1.4-1.4m5.6-7v11h-5.6v-1.3c-1 .8-2 1.8-4.4 1.8-1 0-2-.2-2.5-.6-1.3-.8-1.3-2-1.3-3.6 0-3.7 1-4.3 5.2-5.3 2-.5 2-.5 3-1 0-1.5 0-1.7-.3-2 0-.3-.5-.3-.8-.3-1.2 0-1.2.8-1.2 2.2h-5.2c0-2.4 0-3.8 2-5 1-.5 2.7-.8 4.7-.8.7 0 2 0 3.4.4 3 1 3 3.2 3 4.5zM.3.7v21h6V13h5V9h-5V5h5.3v-4H.3zm12.7 16c0 1.7 0 3.4 2 4.4 1 .5 2.3 1 5.3 1 1 0 3.2 0 4.7-1 2-1.2 2-3 2-4.5v-6c0-2 0-5.2-7.3-5.2-1.3 0-2.6.2-3.6.4-3 .8-3 3.2-3 4.6V17zm8.3 0c0 .7 0 1.7-1.3 1.7-1.5 0-1.5-1-1.5-1.7v-6.2c0-.5 0-1.4 1.4-1.4 1.3 0 1.3 1 1.3 1.5v6zm7.7 0c0 1.7 0 3.4 2 4.4 1 .5 2.3 1 5.3 1 1 0 3.2 0 4.7-1 2-1.2 2-3 2-4.5v-6c0-2 0-5.2-7.3-5.2-1.3 0-2.6.2-3.6.4-3 .8-3 3.2-3 4.6V17zm8.3 0c0 .7 0 1.7-1.4 1.7-1.5 0-1.5-1-1.5-1.7v-6.2c0-.5 0-1.4 1.4-1.4 1.3 0 1.3 1 1.3 1.5v6zm9.3-16v5h-2.4v3h2.4v9c0 1 0 2.3 1 3 1 1 2 1 3 1h4v-3.3c-1.8 0-2 0-2.2-.3-.3-.3-.3-.7-.3-1V8.8h2.5V6H52V.7h-5.4zm10 21h5.6v-2c.6.8 1.5 2.2 4 2.2 2 0 3.5-.8 4-2.5.3-1 .3-2.3.3-2.8V11c0-2 0-5.5-4.3-5.5-2.7 0-3.5 1.5-4 2.3v-7h-5.6v21zm8.3-4.4c0 .7 0 1.6-1.5 1.6-1.2 0-1.3-1-1.3-1.5V10c0-.5 0-1.4 1.3-1.4 1.2 0 1.4.7 1.4 1.4v7.4zM88 1v21h5.6V1H88zm8 0v21h5.6V1H96z"/>
  </g>
</svg>
