<svg xmlns="http://www.w3.org/2000/svg" width="100%" viewBox="0 0 280 216">
  <style>
    #text {
      fill: #004990;
    }
    @media (prefers-color-scheme: dark) {
      #text {
        fill: #fff;
      }
    }
  </style>
  <g transform="translate(40 0)">
    <path id="text" d="M17.2 128.88l-6.3.83-.06-.77c1.64-.33 3.65-1.18 4.36-2.03.6-.7.92-1.44.84-2.5-.05-.73-.36-1.07-1.1-1L1.7 124.44c-.64.04-.77.5-.72 1.06l.12 1.7-.84.07-.6-7.8.84-.08.15 1.9c.04.46.4.8.77.76L14.9 121c1.4-.1.74-2.47-.28-3.35-1.26-1.05-3.07-1.34-4.76-1.42l-.07-.86 6.34-.12 1.06 13.63zm1.8 7.43l-.82.24-.38-1.4c-.17-.6-.5-.9-1.03-.74l-5.6 1.54 2.05 7.43 5.62-1.55c.5-.13.62-.6.5-1.07l-.4-1.4.83-.24 1.9 6.92-.83.23-.4-1.46c-.1-.38-.4-.83-1.07-.64l-13 3.58c-.56.16-.5.9-.36 1.42l.3 1.06-.82.24-1.88-6.9.82-.23.3 1.06c.2.84.55 1.17 1.14 1l6.3-1.73-2.04-7.44L3.76 138c-.57.15-.6.72-.46 1.24l.35 1.3-.8.22-1.9-6.92.8-.22.37 1.3c.14.54.53.87 1.07.73l13.03-3.6c.5-.15.54-.67.42-1.13l-.35-1.3.8-.24 1.9 6.93zm9.1 22.4l-5.05 2.94-.34-.67c3.17-2.1 3.43-4.3 2.63-5.88l-1.5-2.98c-.14-.32-.66-.5-1.08-.3l-5.37 2.7.67 1.3c1.26 2.3 3.68 1.14 4.2.88l.33.7-6.94 3.5-.34-.7c.74-.33 1.74-1.14 2.1-1.95.33-.72.1-1.57-.14-2.18l-.6-1.18-5.95 3c-.24.1-.58.5-.2 1.28l1.23 2.42c.84 1.48 1.77 2.4 3.7 2.5 1.25.1 2.4-.22 3.46-.6l.35.72-5.87 2.6-6.24-12.48.77-.38.52 1.03c.52.98 1.02.87 1.37.68l11.86-5.98c.54-.27.6-.75.33-1.3l-.63-1.23.76-.38 5.96 11.9zm13.68 17.32l-4.22 4.03-.52-.6c.74-.94 1.86-2.3 1.96-3.77.08-1.14-.45-2.06-1.22-2.94l-1.8-2.1c-.33-.34-.85-.26-1.08-.06l-4.55 4 .93 1.07c.65.67 1.24 1.02 2.28.9.5-.06 1.38-.48 1.98-1.03l.55.62-5.8 5.1-.54-.64c.96-.83 1.44-1.63 1.57-2.38.1-.58-.1-1.4-.6-1.93l-1-1.17-4.8 4.25c-.63.54-.5 1 0 1.6l1.17 1.32-.64.57-5.3-6.08.64-.57 1.04 1.2c.32.36.84.67 1.22.35l10.17-8.97c.47-.4.4-.82-.12-1.42l-1-1.15.64-.57 9.04 10.36zm1.68 4.46c-1.68.52-3.04 1.65-4.78 3.85-2.06 2.57-2.7 4.13-2.75 5.84-.06 1.44.62 2.64 1.6 3.4 1.65 1.35 3.6 1.43 5.74-.03 1.34-.9 2.22-1.93 3.1-3.06 1.6-2.02 2.48-3.72 2.66-5.37.17-1.42-.38-2.86-1.67-3.9-1.12-.9-2.5-1.15-3.9-.72zm7.18 4.98c.2 1.5.05 4.18-2.06 6.8-2.23 2.82-4.93 3.47-6.05 3.6-1.9.2-4.07-.36-5.6-1.58-.84-.68-1.9-1.97-2.33-3.6-.56-2-.33-3.12-.13-4.25.2-1.12 1.02-2.68 2.04-3.96.96-1.2 2.36-2.28 3.38-2.72 1.7-.75 2.76-.86 4.46-.72 1.1.1 2.5.63 3.6 1.52 1.2.97 2.46 2.78 2.7 4.9zm6.08 4.53c-1.55.82-2.66 2.18-3.96 4.68-1.54 2.93-1.87 4.57-1.6 6.25.2 1.43 1.1 2.48 2.2 3.07 1.88 1 3.8.7 5.65-1.14 1.14-1.15 1.8-2.33 2.47-3.6 1.2-2.3 1.73-4.1 1.6-5.8-.1-1.42-.92-2.7-2.4-3.48-1.25-.67-2.65-.67-3.95 0zm8 3.5c.46 1.46.83 4.12-.73 7.1-1.67 3.2-4.22 4.33-5.3 4.67-1.8.56-4.05.42-5.78-.5-.96-.5-2.23-1.57-2.98-3.08-.9-1.86-.9-3-.9-4.15-.04-1.14.47-2.82 1.24-4.28.7-1.36 1.88-2.68 2.8-3.3 1.53-1.07 2.55-1.4 4.23-1.57 1.13-.08 2.57.15 3.82.82 1.4.73 2.97 2.25 3.6 4.3zm16.67 3.86l-1.57 6.16-.73-.23c.3-1.64.25-3.84-.27-4.82-.43-.83-1-1.4-2-1.72-.7-.22-1.12-.04-1.34.66l-3.96 12.75c-.18.6.2.9.73 1.07l1.63.52-.26.8-7.43-2.3.25-.83 1.8.57c.45.13.88-.07 1-.44l4-12.97c.4-1.36-2.02-1.62-3.2-1-1.44.8-2.38 2.38-3.08 3.9l-.8-.24 2.24-5.95 13 4.06m4.96 9.37l-.76 6.43c-.08.64.28.96 1.1 1.06h.03l2.1.26c2.85.34 4.08-.82 4.37-3.2.27-2.3-1-3.85-3.28-4.12l-3.56-.43zm1.83-7.57c-.6-.06-.97.3-1.03.76l-.7 5.97 3.27.38c1 .12 2.04-.23 2.46-.62.6-.54 1-1.48 1.16-2.68.3-2.54-1.1-3.28-2.9-3.55l-2.27-.27zm3-.5c.8.1 2.08.43 2.94.96 1.15.7 2.04 1.98 1.84 3.7-.24 1.93-1.8 3.07-4.27 3.46v.04c1.1.38 2.15.8 2.97 1.6.9.83 1.38 1.94 1.23 3.27-.17 1.4-1.18 2.5-2.27 3.03-1.25.63-2.9.84-4.7.62l-8.54-1.02.08-.85 1.44.16c.87.15 1.23-.3 1.26-.5l1.6-13.44c.1-.65-.37-1-.98-1.06l-1.52-.18.1-.86 8.8 1.07zm8.75 10.9l5.92-.25-3.22-7.4-2.7 7.65zm3.64-10.93l6.65 15.12c.24.53.86.9 1.52.88h.53l.03.84-6.68.27-.04-.84.53-.02c1.56-.07 1.98-.48 1.65-1.22l-1.53-3.5-6.6.28-.8 2.2c-.43 1.6.44 2.52 1.9 2.45l.56-.02.04.85-6.06.25-.05-.84h.2c.97-.05 1.85-.83 2.32-2.18l5.1-14.5.74-.03zm14.36-1.6l.18.84-1.8.4c-.74.14-.77.64-.67 1.1l2.8 13c.16.76.6.76 1.65.55l2.18-.47c1.32-.34 2.14-.9 2.8-1.94.7-1.06.78-3.33.73-4.58l.78-.17 1 6.42-13.68 2.97-.2-.84 1.3-.27c1.08-.24 1.2-.7 1.05-1.4l-2.77-12.84c-.13-.6-.56-.76-1.1-.64l-1.66.35-.18-.8 7.6-1.66zm12.96-4.07l.3.8-1.72.68c-.68.27-.64.76-.46 1.2l4.9 12.37c.27.7.7.65 1.7.28l2.07-.84c1.26-.55 1.97-1.23 2.46-2.37.5-1.18.22-3.43-.04-4.65l.75-.3 2.03 6.17-13.02 5.18-.32-.8 1.24-.47c1.02-.4 1.06-.88.8-1.55l-4.83-12.2c-.22-.55-.68-.65-1.2-.45l-1.57.63-.3-.8 7.22-2.87zm18-10.14l.5.7-1.52 1.1c-.6.42-.43.88-.15 1.27l7.78 10.77c.44.6.84.44 1.72-.18l1.8-1.3c1.08-.86 1.6-1.7 1.8-2.93.2-1.26-.63-3.36-1.18-4.5l.65-.47 3.48 5.48-11.34 8.25-.5-.7 1.07-.76c.9-.66.8-1.13.4-1.7l-7.68-10.64c-.35-.5-.82-.47-1.26-.14l-1.38.98-.5-.68 6.3-4.6zm14.1-12.85l4.37 3.88-.54.53c-3-2.33-5.14-1.9-6.4-.64l-2.32 2.36c-.26.24-.28.8.07 1.13l4.25 4.27 1.03-1.04c1.75-1.92-.1-3.88-.5-4.28l.55-.55 5.5 5.5-.56.56c-.54-.63-1.63-1.3-2.5-1.4-.8-.08-1.53.38-2.02.82l-.94.95 4.73 4.72c.2.2.67.4 1.28-.24l1.93-1.92c1.13-1.27 1.7-2.44 1.2-4.3-.33-1.23-1-2.24-1.67-3.12l.56-.56 4.3 4.75-9.82 9.9-.6-.6.82-.8c.77-.82.5-1.25.2-1.54l-9.38-9.4c-.44-.46-.9-.36-1.3.06l-1 .98-.6-.6 9.38-9.43zm11.15 2.4l3.4-4.87-7.8-1.9 4.4 6.78zm-6.42-9.54l16 3.9c.57.12 1.25-.14 1.63-.7l.3-.4.7.47-3.84 5.5-.7-.48.3-.43c.9-1.3.84-1.87.05-2.06l-3.72-.9-3.8 5.43 1.27 1.97c1.02 1.3 2.25 1.2 3.1 0l.32-.5.7.5-3.5 5-.7-.5.12-.15c.54-.8.47-1.98-.3-3.16l-8.38-12.9.43-.6zm24.75-8.8c-.88-.08-2.25-.4-2.96-.46 1.5 2.15 1.22 4.1.58 5.45-.94 2-2.8 3.5-4.72 4.06-2.05.6-4.22.43-6.5-.64-2.67-1.28-4.13-3.18-4.84-5.3-.66-1.92-.52-4 .12-5.37.76-1.6 1.96-2.55 3.35-3.16l-1.1-1.58.3-.68 6.24 2.48-.3.67c-1.47-.18-2.93-.42-4.65.03-1.7.46-2.53 1.47-2.97 2.4-.5 1.08-.5 2.42-.13 3.43.8 2.2 3.37 3.64 5.37 4.58 2.5 1.2 7.02 2.87 9-1.32.44-.92.58-2.18.38-2.82-.3-1.12-.96-1.8-2.26-2.56l-1.45-.7c-.52-.2-.98.33-1.22.85l-.6 1.27-.72-.35 3-6.36.72.34-.4.86c-.3.64-.3 1.16.28 1.44l5.8 2.75-.33.68zM179.75 138l.82.23-.4 1.55c-.13.47-.16 1.1.55 1.3l9.12 2.4c1.2.28 2.24.48 3.45-.1.8-.33 1.8-1.38 2.22-2.97.4-1.52.14-2.9-.34-3.74-.55-1-1.73-1.73-2.67-1.98l-7.43-1.97c-1.06-.28-2.83-.8-3.43 1.5l-.07.28-.82-.23 1.62-6.15.8.22-.1.44c-.4 1.48.38 2.3 1.62 2.62l7.96 2.1c2.16.6 3.3 1.77 3.9 3.32.45 1.25.42 3.02.1 4.25-.44 1.68-1.7 3.9-3.1 4.72-.9.5-2.28.54-3.7.2l-9.8-2.6c-.54-.15-.92.33-1.04.8l-.4 1.57-.82-.22 1.95-7.52zm3.3-23.7h5.8l-.04.76c-3.78.24-5.08 1.98-5.2 3.75l-.2 3.34c-.03.35.33.78.8.8l6 .38.08-1.46c.03-2.6-2.62-2.85-3.2-2.88l.05-.8 7.75.5-.04.78c-.82-.1-2.1.1-2.8.63-.64.45-.88 1.3-.98 1.94l-.08 1.34 6.66.4c.28 0 .76-.14.82-1.02l.18-2.7c0-1.7-.35-2.97-1.96-4.04-1.04-.7-2.2-1-3.3-1.23l.06-.8 6.36.7-.86 13.94-.85-.05.07-1.16c.04-1.1-.44-1.27-.85-1.3l-13.24-.8c-.62-.05-.9.33-.94.92l-.08 1.4-.84-.06.82-13.3z"/>
    <path fill="#ed1c2e" d="M147.32 42.37l1.93-.04-4.28-10.7s-6.08-3.06-9.32-3.45l-1.4-6.94s19.23-9.12 3.18-17.3c0 0-5.33-1.87-30.73 5.4 0 0-6.13-.78-2.37-2.94 0 0 .7-.5 3.6.6 0 0 10.38-1.87 10.2-7.4 0 0-11.45 1.07-14.48.2 0 0-11.26 7.57 3.14 12.66 0 0 17.2-6.06 27.5-5.53 0 0 10.88 3.64 0 8.18 0-.1-.52-1.06-1.72-.9L99 16.2s.17-2.04-1.04-2.97l.93-.6s.03-2.8-3.3-6.4h-.38s2.4-3.93-.3-6.37L91 2.1s-4.62-2.13-8.5.28l-.33.24-4.02-1.55s-1.2 3.88 1.5 5.85c0 0-3.07 1.77-3.04 6.22l1.1 1.05s-3.72 4.8-1.65 4.73l-2.04.07-4.8-16.1-8.5.26-3.57 4.32 1.92.8-.54 2.05 2.65.4-.4 2.66 2.5-.33-.3 2.17 2.4-.07s.27 16.47.38 16.34c.13-.1 6.5.4 6.5.4l-2.9 3.6-10.17.18s-4.1 3.14-3.97 3.13c.1 0-.06 10.36-.06 10.36s6.57-4.53 6.58-4.42c0 .13.17 1.57.17 1.57l3.88-2.03 1.35 2.5s10.52-6.12 20.1-6.3l6.05-9.43 18.9-.6s1.88 2.25 1.42 3.22l-9.87-1.74s-3.67 4.8-2.87 7.42c0 0 2.03-.4 7.7.63l2.2-1.36s15.45 5.14 15.57 5.02c.12-.12-.5-9.64-.5-9.64s2.33 5.5 2.2 5.37c-.12-.1 9.24.57 10 1.74 0 0 .56 2.87.1 3.12 0 0-2.18-.3-2.04.17 0 0-1.5 1.5-.6 4.1 0 0 6.15 2.8 12.07 8.64l.22-6.36 2-1.02-2.5-7.4"/><ellipse cx="99" cy="115" fill="#FFF" rx="76" ry="75.84"/>
    <path fill="#004990" d="M99.46 162.9c26.77 0 48.45-21.72 48.45-48.45C147.9 87.7 126.24 66 99.47 66c-26.75 0-48.43 21.7-48.43 48.45 0 26.73 21.68 48.44 48.43 48.44z"/>
    <path fill="#ed1c2e" d="M58.72 82.1c-1.4 1.74-2.7 3.58-3.85 5.5l2.94-32.82c1.3-.88 2.6-1.75 3.93-2.56l-3 29.87zm-10.84 41.23c-.44-2.74-.66-5.54-.66-8.4 0-6.17 1.05-12.08 3-17.56L35.3 80c-3.38 6.25-5.88 13.03-7.33 20.2l19.88 23.13zm25.1 36.8c-1.97-1.18-3.86-2.47-5.65-3.88l-30.08-3.1c.85 1.4 1.77 2.8 2.73 4.14l33 2.82zm35.26 6.42c-2.88.5-5.84.76-8.87.76-6 0-11.78-1.02-17.15-2.9l-17.26 15.03c6.23 3.37 13 5.85 20.17 7.28l23.1-20.15zm32.48-19.7c1.36-1.76 2.6-3.63 3.73-5.56l-2.97 33.38c-1.33.94-2.7 1.84-4.08 2.7l3.32-30.52zm7.8-14.36c1.95-5.5 3-11.4 3-17.58 0-2.75-.2-5.45-.6-8.08l19.84 23c-1.48 7.14-4 13.9-7.36 20.1l-14.88-17.45zm-16.66-58.56c-1.7-1.37-3.5-2.63-5.4-3.78l32.73 2.88c.93 1.36 1.82 2.73 2.67 4.15l-30-3.26zm-14.7-8.27c-5.55-2.02-11.54-3.13-17.8-3.13-2.66 0-5.28.2-7.84.6l22.74-19.9c7.06 1.46 13.75 3.96 19.9 7.3l-17 15.13z"/>
    <path fill="#004990" d="M53.3 90.35c-.7 1.35-1.36 2.72-1.96 4.13L36.88 77.25C41.82 69 48.33 61.8 56 56.1l-2.7 34.25zm8.93 61.34c-6.36-6.48-11.05-14.62-13.38-23.72l-21.5-24.13c-.55 3.6-.84 7.3-.84 11.05 0 12.27 3.02 23.83 8.33 33.98l27.4 2.8zm17.63 11.8c-1.44-.56-2.82-1.2-4.18-1.9l-34.55-2.72c5.78 7.7 13.04 14.23 21.36 19.15l17.36-14.53zm56.45-11.62c-6.53 6.6-14.8 11.46-24.06 13.82L88.2 187.25c3.64.57 7.4.85 11.2.85 12.26 0 23.83-3.04 33.97-8.42l2.94-27.8zm9.78-13.64c.6-1.2 1.14-2.4 1.65-3.66l14.57 17.3c-4.9 8.4-11.4 15.7-19.1 21.52l2.88-35.16zm3.9-35.98c-2.25-9.17-6.93-17.4-13.3-23.94l27.47 2.96c5.2 10.06 8.12 21.5 8.12 33.62 0 3.88-.3 7.67-.87 11.4L150 102.25zM123.96 68.7c-1.46-.78-2.97-1.5-4.53-2.15l17.27-14.57c8.23 4.94 15.4 11.45 21.12 19.12l-33.86-2.4zm-37-4.67c-9.08 2.24-17.22 6.85-23.74 13.15l.03-.13 2.57-27.12c10.05-5.26 21.47-8.24 33.6-8.24 3.85 0 7.62.3 11.33.87l-23.8 21.46z"/>
    <path fill="#fff" d="M59.3 142.93l17.5 1.77 8.72-12.33-7.1-23.2-15.1-4.56-12.8 11.7v.04c.26 9.8 3.42 18.92 8.62 26.48l.16.1zm54.76 18.9l6.7-15.85-9.5-12-24-.03-8.5 12.37L86 162.15l.33.1c4.15 1.15 8.52 1.77 13.04 1.77 5.1 0 10-.8 14.64-2.24l.06.06zm34.08-45.2L135.1 104.9l-15.3 5.53-6.76 22 9.28 11.98 17.9-2.52h.02c4.75-7.25 7.64-15.85 7.98-25.1l-.08-.15zm-32.14-48l-15.65 8.8.06 16.13 19.26 14.35 15.15-5.36 3.53-17.4-.02.1c-5.65-7.46-13.38-13.26-22.32-16.5l.02-.12zm-55.26 16.3l3.3 17.78 15.23 4.64 18.9-13.73.04-16.26-15.07-8.72.02-.02c-8.93 3.15-16.68 8.84-22.38 16.2l-.03.13zM82.7 8.83l2.8 1.22v1.78l-2.8-1.43V8.83m8.82 0l-2.76 1.22v1.78l2.76-1.43V8.83"/>
  </g>
</svg>
