<svg height="60" width="440" xmlns="http://www.w3.org/2000/svg"><path d="m56.8 59.6h-4.2zm-4.4.5h-3 3.1zm-3.7-.3h1zm-1.7.2-.5-.3h1.7c.3 0-.3.2-1 .2zm-7.6-.7h-1c0 .2-.6.2.4.4h-2 1.2c-.8 0-1.8 0-3-.3l-1.5-.7h.3l.8.3h.2l-1-.5h.4l1 .3c.5 0 1 0 1.3.2h1.3c.5.2 2.3.2 1.6.3zm-6.2-.8-.5-.5v-.2h.2-.2v.2c.2 0 .3 0 .4.3h.3l-.3.2zm-1 .3h-.6l.7-.2c-.2 0 .3-.2 0-.2l-1 .2 1.3-.6.5.5c-.4 0-.7.2-1 .3zm-1.6-1.8-.4.2h.3l-1.6.3h-.3s1.4-.4 2.7-1v.2l-.8.4zm-2.8.4h-.3c.2 0 .8 0 1.4-.2.3 0 2.2-.6 2.8-1l-.3.4c-1 .2-2.8.8-3.7.8zm.6 1.2h-1.2zm4-2.4v.3l.2.3c0-.2-.2-.4-.3-.5zm.8 1.5.2.2s.3 0 .5.2h-.4l-.2-.3-.3-.2h.2zm0-7.6.4-.4-.3.8v-.5zm.8-1s0-.3.2-.5l.3-.4h.2l-.3.4-.4.7zm.8-.5h.2zm0-.3h.2l-.2.3s-.2 0-.3.2v-.2l.4-.3zm.2-.3v.2-.2l.4-.2h.2l.7.8c.3.4.7 1 1 1l-.2.2c0-.3-.5-.8-1.2-1.8h-.2l-.3.3.2-.3s-.2 0-.3.2h-.3zm2.4 2-.3.4v-.4l.2-.2.2.2zm-.4.8c0 .2-.2.3-.3.5v-.3l.2-.2zm-.5-1v-.8c-.3 0-.4-.3-.4-.3h-.3v-.2h.2l.8 1c-.2 0-.2.2-.3.3zm.2 3.3c0 .4 0 .6-.2.8v-.9c0-.3.2-.4.2-.4zm0 1v.2zm-.4-4v-.2zm.2 4-.3 1.7c-.2-1-.3-.5-.3-1.3v-.5l.2-.8c0 .5.2.5.3.8zm-.3 2-.7-.4h.3l.3.3v-.4.2h.2c.3-.8.2-1.2.4-1.7v.3c0 .4 0 1-.4 1.8zm-.7-7.3.2.2-.2-.3zm0 .3v-.3zm.2 7.8-.4-.4h.7zm20 1.4h.5v.2h-1zm12 1s-6.6 0-12.2.2h.6-3 .6-3.7l-2.7.2h-1.3c-.4 0-.7 0-1-.2l-.5.2h-2.7l3.4-.4c.3 0 .5.2.7.3l-.7-.3h25.3c0-.2-3.8 0-1.3-.6h-11.7s-.6 0-1-.2h-.3l-.2-.5h.8c.4 0 .3 0 .5-.3l-1.8-.3c-1.5 0 1.6.2-.4.2l-8-.3c2.3.2 3.6.5 4.5.6h-3.6l-3.4-.4c-1.8 0-3.8 0-5.5-.2h2.3c-1.8 0-4.8 0-5.6-.6 1.3.3 2.4.2 3.4.3h4c1.4.2-2 .2-2 .3h1.6c-.3 0 3.2 0 2.4-.4h-5.5c-1.3-.2-2.7-.2-3.5-.5 0-.2 0-.3.2-.4 0 0-.2 0-.3.2h-.2l.2-.5v.2c.3-.4 1-1 .8-1s-.2 0-.3.2l.4-1.3v.2c.2-.3.3-.7.6-2v.5c0-.5.3-1 .5-1.4 0 .2 0 .3-.2.5l.3-1h.2l-.3.2c-.3.2-.4.5-.5.8 0 .3-.2.6-.3.7l.3-1v-.3h-.2v.2c0 .2 0 .5-.2.7v.2l-.3.8c0-1 .3-1.2.6-1.8h-.5.2v-.1h.2v-.2l-.2.2h-.2v-.4l.3-.3s0-.2.2-.2c0 0 0-.2-.3-.3l-1.7-2.2h-.2c0 .2-.2.3-.3.4h-.2v-.2l-.3-.2h-.5l-.3.3-.5.7s.2 0 .3-.3c0-.2.3-.4.5-.6l.2-.2.2.2-.5.7-.6 1v-.3s-.7 1-1 2.2v.4c0 1-.4 1.6-.4 3v.2h-.4v1.2l-2.5.9c-.5 0-1 .2-1.3.3l-5.6.4h-3.8c.4 0 0 1-1.4 0 0-.2-.2-.2-.6-.2l-3 .2c.4 0 3 .4 1.7.6l-3 .2h-3.3c0-.2-.3-.2-.5-.2h.5c.5.3-.2.5 1 .7h6l2-.2 4.3-.4h2c.2 0 .3.2 0 .3-1 .2-3.5.2-3.5.2h1c.3.3-4 .2-4.3.2h-.4c.3 0 .8 0 .7.2h-3.5l-.5-.2c.3.2-1 .5-1.5.6h2.5l9-.4h3s.2-.2.5-.2h1.5-1.3c0 .2-.8.4-.6.4 2 0 2.7-.5 4.4-.7-.5 0 .7 0-.3.2 1 0 1.8-.2 2.6-.4l1 .5 2 .6c-.5 0-1.2-.2-1.7-.4h-.4l.6.2 2.3.3h-.5 3.4c2.5.2 1.3.5 5 0h1-3.6l2-.3h2l.8.4h1.8l-.3.2h-1.2 5.2-1.4 1.9c1.2 0 3.3 0 4.3-.2h1.5l2 .4 1.2-.2h-1 .7l-1-.2h3.6l.6-.3h-3.8l-1 .2h-.6l-.5-.2h-1.2l-1.5-.3c5.5 0 11-.2 11.2-.3zm-30.9-3.1h-.2l-.2.3.3-.3zm-2.8-9.5.6.6-.3.3.3-.2-.6-.8zm.7.7-.2-.2zm-15.2 10c.5 0 1.7.2 1.7 0h1.3-5.5 2.4zm12.3-2.4h.3v-1.5l.3-1-.3.3-.2 2v.2zm-2.8 4.5h-.6l-.3.2h1v-.2zm6.4-12v-.5.2zm0 0v-.3zm-.4.4v-.3.2zm344.3.4v-5.2c3.5 1.5 6.4 2.3 9 2.3 1.2 0 2.2-.3 3-1 .8-.4 1.2-1 1.2-2 0-.7-.3-1.3-1-1.8-.5-.5-1.4-1-2.6-1.5l-2.4-1c-2.5-1-4.3-2-5.4-3.2-1.2-1.2-1.8-2.7-1.8-4.6 0-2.2 1-4 2.7-5.6 1.8-1.5 4.5-2.2 8-2.2 2.2 0 4.8.3 7.7 1v5c-2.8-1-5.2-1.6-7-1.6-1.5 0-2.6.2-3.3.7s-1 1.2-1 2c0 .6 0 1 .6 1.6.5.5 1.3 1 2.5 1.4l2 .8c3.4 1.3 5.6 2.5 6.7 3.7 1 1.2 1.5 2.7 1.5 4.4 0 2.2-1 4-2.8 5.8-2 1.6-4.7 2.5-8.3 2.5-3 0-6.2-.6-9.4-1.6zm-19-14.8h9c0-2.3-.3-4-1-5-.8-1-1.8-1.6-3-1.6-1.4 0-2.5.5-3.4 1.7-1 1-1.5 2.8-1.7 5zm16 14.8c-3.3 1-6.4 1.5-9.4 1.5s-5.3-.7-7.4-1.7c-2-1-3.8-2.7-5-5-1-2.2-1.6-4.6-1.6-7.3 0-2.4.5-4.7 1.4-6.7 1-2 2.4-3.7 4.2-5 2-1 4-1.7 6.8-1.7 3.3 0 6 1 8 3.2 2 2 3 6 3 11.8h-16c0 1.8.5 3.2 1.2 4.2.6 1 1.4 1.8 2.5 2.4 1.2.6 2.6 1 4.4 1 2.4 0 5-.7 8-1.8v5zm-40 1-9.7-26.3h7.4l7 18.8 7.3-18.8h5l-10 26h-7zm-19.2 0v-26.3h7v26h-7zm0-30.6v-5.7h7v5.8h-7zm-3.1 30.3c-1.6.6-3 1-4 1-2 0-4-.5-5.2-1-1.2-.8-2.2-1.7-2.8-2.8-.6-1-1-2.7-1-5v-13.5h-2.8v-4.4h3v-4.4l6.8-.8v5.2h5.6v4.4h-5.6v12.8c0 2 .4 3 1 3.8.7.6 1.7 1 3 1 .5 0 1.2 0 2-.3zm-26-6.3v-5.3h-1.6c-2.3 0-4 .4-5 1.2-1.2.8-1.8 1.8-1.8 3 0 1 .3 2 1 2.5.7.8 1.5 1 2.4 1 .8 0 1.7 0 2.5-.5 1-.4 1.7-1 2.6-1.8zm0 3.7c-1 1-1.8 1.7-2.6 2.2l-2.3 1c-.7 0-1.5.3-2.4.3-2.3 0-4.2-1-5.6-2.3-1.4-1.5-2-3.2-2-5.3 0-2.6 1-4.8 3-6.5 2-1.8 5.5-2.7 10.2-2.7h2v-2.1c0-1.6-.6-2.7-1.5-3.2-.8-.6-2-1-3.3-1-2.7 0-5.4 1-8.2 2.4v-4.8c3.2-1.2 6.3-1.8 9.4-1.8 2 0 3.6.3 5.2.8 1.5.5 2.7 1.3 3.6 2.4 1 1 1.3 2.8 1.3 5v11.5c0 1.4.3 2.2.7 2.6.4.2 1 .3 1.3.3h1v4c-1.4.3-2.7.6-3.8.6-1.4 0-2.5-.4-3.5-.8s-1.6-1.4-2-2.8h-.5zm-31.8 3-10-26.2h7.5l7.3 18.8 7-18.8h5l-9.8 26h-7zm-28.4 0v-26.4h7v5c.8-1.8 2-3 3.4-4 1.5-1 3-1.6 5-1.6h1.2v6.6c-1-.3-2-.5-2.8-.5-1.4 0-2.6.3-3.8 1-1 .7-2 1.8-3 3.2v16.6h-7zm-19.8-15.9h9.3c0-2.3-.4-4-1.2-5-.7-1-1.7-1.6-3-1.6s-2.4.5-3.2 1.7c-1 1-1.4 2.8-1.7 5zm16.2 14.8c-3.3 1-6.5 1.5-9.4 1.5-2.8 0-5.3-.7-7.4-1.7-2-1-3.7-2.7-4.8-5-1.2-2.2-1.7-4.6-1.7-7.3 0-2.4.3-4.7 1.3-6.7s2.4-3.7 4.2-5c1.8-1 4-1.7 6.8-1.7 3.3 0 6 1 8 3.2 2 2 3 6 3 11.8h-16c0 1.8.5 3.2 1 4.2.8 1 1.6 1.8 2.7 2.4 1 .6 2.5 1 4.3 1 2.3 0 5-.7 8-1.8v5zm-46.2 0v-5.2c3.4 1.5 6.4 2.3 8.8 2.3 1.3 0 2.4-.3 3-1 1-.4 1.3-1 1.3-2 0-.7-.2-1.3-.8-1.8-.5-.5-1.4-1-2.6-1.5l-2.4-1c-2.4-1-4.2-2-5.4-3.2s-1.7-2.7-1.7-4.6c0-2.2 1-4 2.7-5.6 1.8-1.5 4.4-2.2 8-2.2 2.2 0 4.7.3 7.6 1v5c-2.8-1-5-1.6-7-1.6-1.5 0-2.6.2-3.3.7s-1 1.2-1 2c0 .6.2 1 .6 1.6.5.5 1.3 1 2.6 1.4l2 .8c3.4 1.3 5.6 2.5 6.6 3.7s1.5 2.7 1.5 4.4c0 2.2-1 4-2.8 5.8-2 1.6-4.6 2.5-8.2 2.5-3 0-6.2-.6-9.3-1.6zm-27 1v-26.3h7v5c1.3-2 2.7-3.5 4.2-4.4 1.5-.8 3-1.2 4.6-1.2 2 0 4 .7 5.3 2 1.6 1.3 2.3 3.4 2.3 6.2v18.5h-7v-16.5c0-1.5 0-2.4-.3-3-.3-.4-.6-.8-1-1-.5-.3-1-.5-1.6-.5-1 0-2 .4-3 1-1 .7-2.2 2-3.4 4v16.3h-7zm-16.5-4c2 0 3.5-.8 4.5-2.6 1-1.7 1.5-4 1.5-6.6s-.5-4.8-1.5-6.6c-1-1.7-2.5-2.6-4.5-2.6s-3.5 1-4.5 2.6c-1 1.8-1.5 4-1.5 6.6 0 2.7.5 5 1.5 6.6 1 1.8 2.5 2.7 4.5 2.7zm0 4.5c-2.8 0-5.2-.7-7.2-1.8-2-1-3.5-2.7-4.6-5-1-2-1.6-4.4-1.6-7s.6-5 1.7-7c1-2.2 2.5-3.8 4.5-5 2-1 4.5-1.6 7.3-1.6s5.2.6 7.2 1.7c2 1 3.6 2.7 4.6 4.8 1 2.3 1.6 4.6 1.6 7.2s-.6 5-1.7 7c-1 2.3-2.6 4-4.6 5s-4.4 1.7-7.2 1.7zm-15.2-2-4 1.2c-1 .3-2.4.5-3.8.7h-4.3c-6 0-10.7-1.6-13.7-5-3-3.5-4.5-8-4.5-13.3 0-5.4 1.5-9.8 4.5-13.2 3-3.5 7.7-5.2 14-5.2 4 0 7.7.5 11.5 1.3v5.8c-1.8-.7-3.3-1-4.5-1.4l-3.2-.7-3-.2c-4 0-7 1.4-8.8 4s-2.8 5.8-2.8 9.6c0 4 1 7.2 3 9.7 2.3 2.7 5.3 3.9 9.3 3.9 3.4 0 6.8-.8 10.3-2.5v5.5z" fill="#0090c5"/><path d="m45.3 9.7v-.2zm-18 14c-.2 0-.3.2-.6.4l.5-.3zm22 3.5h.2zm-4.3 3.2h-.4.3zm-39.7 5.6s0 .2.2.3l-.2-.4zm4.2-4.8h-.2zm22-9.6 3-2.4c-1 .5-2.5 2-3 2.4zm41 17.7.8-1-1 1zm-64.1-6.3.6-1-.6.7zm-3 3.4.4.4h-.2v-.2l-.2-.4zm0-.2c.5-.6 1-1.2 3-3l-.4.2.4-.5-1.7 1.6-.8.8-.5.4v.4zm5.8 2.8s.2 0 .3-.2v-.2l-.3.2zm54.6-10-.2-.3.2.2zm-10 22c.2 0 .3 0 .5-.3h-.2v.3zm14.2-9-.2.2zm3-2.5c0 .2-2.3 1.8-2 1.8h.2c.6-.6 2-1.8 1.7-1.8zm-10-11 1.7-1.4-1.3 1-.3.5zm-41.2-21.8c-.2 0-.3.2-.6.4l.7-.3.3-.2c.2 0 .4-.2.3-.2l-.6.4zm-4.8 3.3c.4-.3.6-.5.8-.5l1.5-1.2-1.6 1-1.4 1.3.8-.7zm19-2h.5v-.3l-.4.4zm42.3 31.3-.2.3-.2.3v-.4c.2 0 .3-.2.5-.3zm-1 .5v-.2l.4-.3v-.3h.2v.2l-.2.3c-.2 0-.3.2-.5.3zm.7-.6h.2l-.3.2v-.2zm-2.5 2.4-.2.2c0-.2.2-.4.3-.5l.7-.5zm-1 1-.6.6c0-.3.4-.8 1-1.4l-.5.8zm-1 2c-1.3 2-2 3.5-2.6 4.5-.3.7-.2 1-.3 1.4l-1.6-1.7 1.5-.8c1.4-1.6 1.6-1.6 1.4-2 .4-1 1.2-1.8 1.3-1.8l-.3.7 1-1.4-.4 1zm1.5-7.6.4.2v.2l-.3.3-1.3 2h-.2l.3-.4-.3.3.7-1.4.4-.6.2-.4zm.5 0v.2l-.2.8.4-.5v-.2l1.3.8-.2.3-1 1-2 1.6c-1.2 1-2.3 1.7-2.7 2.2l1.6-1.2c-1 1-2.3 2-3.5 3-.3 0-1 .5-1.8 1-.7.5-1.5 1-1.8 1 1.3-1 2.6-1.7 3.6-2.4-.3 0-3.7 2.2-5 3l1.7-1c-1.5 1-3.4 2-5.2 3l-1.7 1.4v-.3l.4-.6.5-1.3c1-.5 2-1 3-1.7l-.3.2h.3c3.2-1.8 4-3 6.7-4.4l-.2.3c.2 0 1.5-1 1-1l-4 2.7c.6-.6 2.2-1.7 3.3-2.5v-.4c1-1.2 2.7-1.8 3.7-3l-.3.5c0 .3-.2.6-.4 1l-.8.6.7-.6-1.2 2.2 2.6-3.7.8-1 .3-.4.2-.2zm-16.9 14h-.4v-.5c0-.4.2-.6 0-.6v-.4l1.3-.6-.5 1-.4 1zm-.4.4v-.4l.2.2h-.2zm-.2-.2-1.3-1h.2l1 1zm-.2.2-1.3.7-.2.2-.7-.5-1-.8v-.7l.5-1.2.3.2c0 .6-.3 1-.3 1s.3-.4.4-1l.6.5v.6l.6-.3 1.3 1h-.2zm-3.5-3v-.6zm.2.3h.2zm.6.4.4.2h-.5zm.5.3.5.3v.2l-.6-.4zm.7-1.7c0-.4 1-2.6 1-2.6-.2 0-.3.2-.6.6.7-1 2-3.4 3.2-4.5h.2l-.2.2.4-.2-1.2 1.5c-1 1.5-1.8 3.4-2.4 5l-.5.2h.2zm8-16.2c-.5.4-2 1.2-2.3 1.2l2.3-1.7c.2-.3.5-.5 1-.7 0-.2.3-.3.6-.5v-.2h.2l3 2.2 1.8 1.5v.2l-.5.8.3-.8v-.2c0 .2 0 .3-.2.4l-.3.4-.3.6h-.2l.4-1 .2-.2v-.5c-2.3-2-3.4-3-4-3.3l-.3.2c0 .3-.4.5-.7.7v-.2h-.3.2l-.2-.2v.7h-.2c-1 1-1.8 1.8-3.5 2.8l-.8.4c-.5 0 4-2.7 3.7-3zm5.5 3-.3-.2.4-1v-.5c-.3-.3-1-1-2.8-2.3l-.2.2-.4.3-.3.2-.3-.3.4-.4.6-.4 2.1 1.9 1.3 1v.3l-.3.3c0 .3-.2.5-.3.8zm-3.8-3.3v.2l-.5-.3h.5v.2zm-1 0v-.4h.2v.3zm1 .2-1.2.6c0-.2 0-.3.2-.5.2 0 .3-.3.5-.4 0 .2.2.3.4.4zm-2 1 .7-.6c0 .2-.2.3-.3.4l-.3.2zm-3 13 .3-.2-.2.3zm0 0c0 .3 0 .5-.2.6h-.2c.2 0 .3-.3.4-.5zm-.9.6.4-.2h.4s-.2 0-.2.2l-.2.2-.5.3h-.2c0-.2.2-.3.3-.5zm2-.8-1 .7c0-.3.4-.8 1-1.8l-1 1.4h-.2l-.6.3c.4-1 .8-1.2 1.4-2.2 0 0 .2 0 .3-.2l.7-1h-.4l.7-1 1.3-1.2h.2v.3h.3c-3 4 .3.2-2.8 4.5zm12.5-8.5h.2zm-20.6 0-2 1-1.3.8c.5-.5 1-1 1.4-1h-.1l2.7-2.3v.6c1.8-1.4 3.6-3.6 3.4-3.6h-.3l1.3-1v.4c-.8 1.2-2.8 3.7-3.8 4 .2 0 .6-.5.6-.6zm-2 5.5-4.3 2.8c2.3-1 2.3-1.7 5-3 0 .5.3.6-2.4 2.3l-1.2.5v-.2c.2 0 .3-.2.2-.2h-.3c-1.6 1.4-2.5 1-4.3 2.3-1.3.6-1.7.7-2 .7h-.7c1.4-.6 1-.5.6-.5l.6-.6.6-.3-.4.3.3-.2-.6.4c-.2 0 .3-.5 1-1.3.4 0 .8-.3 1.3-.5 0 0 .2 0 .3-.2l-.3.2h-.4.4l-2.4 2.3c1.3-1 2.3-2 3-2.8h.2l.2-.4 1.6-.8v.4c.4 0 2.5-1 5-2.3l-1 .7c-.5.5-1.2 1-2 1.4l2-.8zm-7.6-1.8 1.2-.6-.5.7.8-.6-.7.8v.2l-.8.8-1.5.7.2-.4c0 .2-.2.4-.3.5-.3 0-.5.2-.7.3l2.4-2.4zm-6.3 3-2.4 1.2-2.7 1.4h-.8c-.6 0 3-1.6 2.8-1.6l-3.2 1.6c1-.8-.3-.4 1.6-1.5-2 1-2.4 1-4.2 2l.4-.5.6-.6 2-.6 2-1c.3 0 .7-.2 1.2-.5.2 0 .4 0 .5-.2l.3-.2 3-1.8-.2.2s-.2 0-.3.2c0 .3-1.7 1.2-1.6 1.5l-2.4 1-.2.3c.4 0 3.4-1.7 4-1.8h.3c.3 0 0 .2-.6.4-.3.2-.8.4-.6.4h.2c2-1 2-1.3 2.8-2l1.4-.3c-3 1.6-1.4 1.3-4 2.5zm1.2.4h-.5c-1.2 1-1.6 1-2 1.4l-.5.2-.4-.5 4.8-2.6-1.4 1.4zm.3 3.4.2-.3-.2.2zm-1.2 1v.2h-.4.2l-.2-.4h-.2v-.2h.3l.2-.2 1.5-.7zm-.4.5h-.2l-.5-.8h.3v-.2h.2v.2c-.2.2-.2.4 0 .6l.3-.2h.2l-.3.3zm-1.3-2.4-.3-.4c.2 0 .3 0 .3.3zm-9.2.3.4-.4 1.6-.6c-.2 0-.5.3-.4.4-.4 0-1 .3-1.5.5h-.2zm-1 .3h-.8c.5 0 1-.4 1.6-.6l-.8.5zm-2.8.2.5-.5v.4l.8-.8c.3 0 .3-.3.5-.5h.2s0-.2.2-.3h.5l-.6 1-2.3.8zm1.2 1.5h-.3c-.3.3-.3.6-.4.8v.2l-.3-.3.3-.6c.3 0 .5-.2.8-.3v.2zm-1 1v-.2l.2.2h-.1zm-.3 0-.7.2c-.2 0-.2-.2.6-.6l.4.4zm-1.2-.5h.4v-.1h.2l.3.3c-.3 0-.5.2-.7.3l-.3-.4zm0 .5-.4-.4h.5l.3.3h-.3zm-1.5-10c.3-.6 1.5-1 2.2-2-.7 0-1 1-1.5 1.2.2-.4.3-.5 0-.5h-.3v.4c-.4 0-1 .5-1 .5h.5l-2.5 2.4h-.3l1-1.3h.2l1-.7c-.5 0-.3.2-1 .6l.3-.4c.7-.8 1.5-1.8 3.4-3.4l1.1-.4-.7.8 1.4-1.2 1.4-1-.3.6c-.2 0-.6 0-1 .6l.6.3-.3.5h-.7v.3l-.6.2v.3c.3 0 .7 0 1-.5l-.3.8c-1.6 1.2-2.2.6-3.7 2zm-1 10 .4-.2s0 .2-.3.2zm0-1.7v-.5h.3l-.2.4c.2 0 .2 0 .3.2l-.2.2v-.2zm-.8.3h-.6v-.2h-.2l-1-.8h.4c.2.2.4.2.5.2h.4v.2h-.4l.4.3c.2 0 .3.2.5.3zm-1.7-1 1 .7h-.4l-.8-.8zm1 1h-.2l-1.2-1.2h.2l.2-.5-.5.4c.2-1 .4-1.5.7-2l.8.8v.4c-.2 0-.3.2-.4.4l.3-.5-.2.6-.3.3c-.2 0 0-.5 0-.7l-.4.7v.2l1 1h.2zm-1.4-4.5h-.2zm.4-1c0 .2 0 .4-.2.5l-.4.2.6-.6zm-1.7 2.3-.7.5.5-.4-4 2.7h-.5l.3-.2c1-.5 1.7-1 1.6-1l-1 .2c1.3-.6 2.6-1.6 3.8-2.4l-.2.7zm3-.8c0 .2-.4.4-.4.5l.8-.3v.2l-.6.4.2.2h-.7l.2.2h.2v.2l-.4-.6v.2s0-.2-.2-.3v-.2c-.2-.2-.3-.3-.2-.4l.3.3c0-.2.2-.4.4-.6h.2v.2h-.2zm-8.7 3.6c-.2.3-.2.4 0 .4l1-1-1 1v.2c-.4-.2-.8-.5-1-.8h-.2l1 1-.4.2-.8-.8.2-.3c-.2 0-.3-.2-.5-.4h.3l.4.3.4-.5v.5l2-2c1-1 2-2.2 3.3-3.3l5.2-3.3c-1 1-2 1.8-1.7 1.8l-6.7 5v.3l1.3-1c-1.3 1.2-1 1.6-2.5 2.8zm-2.5-1.3c.3 0 .5.2.6.4h-.2l-.5-.5zm-1.5-.8-.4.5v-.2l.2-.2v-.2h.2zm0-.5h.3v.2h-.3v-.4zm0 0c-.2 0-.3-.2-.5-.3l.2-.3.3.4v.3zm1 2.4h-.3v.2l-1-1-1-.8h.3v-.2l.3-.7.6.6-.3.4-.2.2h-.2l.5.4.5.5h.2l.5-.3.5.5-.3.3-.3.2.2-.4-.3.3zm1 1.8v.2s-1.6-1.4-3-3c-.8-.5-1.5-1.2-2-1.8l.4-.6.6-.8.7.7h.3l-1-.8.3-.6.4-.3 1.4-.8-1.5.7 1.4-1.3-1.4.7v-.2l.8-.5s.2 0 .5-.3c2-1.5 4.5-3 6.3-4l-1 1c-2.7 2-5.8 4.2-7 5.4 1-.3 2.5-2 3.6-2.2l.7-1 2.2-1.5-.6.6c.2 0 .4-.3.6-.5v-.2c.8-.5 1.5-1 1.7-1v.2l-3.3 2.6 1-1c-1.3 1-1.3 1.2-2 2l-.7.5.2-.4c-.5.4-1 .7-1.2 1l-1.4 1-.5.4.3.4v.2l-.6-.5-.2.2.6.7-.2.2-.2.3v.2l-.2-.2v.2l2 1.9 1.5 1.4s-.2 0-.6-.5l.8-.5 1.4 1.3-1 .6zm-3.5-8 .8-.5v.2l-.8.4zm2-1.3h.5c0-.2.2-.2.3-.2l-1.3 1 .8-.7zm7.5-4-.2.2h.2l.2-.2-3 2c.4-.2.7-.6 1-1zm8.6 0 .2-.3.8-.4zm-1.6 1.2v.2l-1 .6zm-1.2-5.3 1-.8-.4.5zm-2.5 7.5 1.3-.7 1-.8v.2l1.4-1.2c0-.2.4-.3.6-.5l-1.6 1.5c-1.4 1-2.8 2-4.5 3zm.7-5.5 1.3-.8-.3.4-1 .5zm.5 0-.6.6c-.3 0-.6 0-1 .3l1.5-1zm1.2 5.3s-.2 0-.3.2h-.4l1.7-1.3 1-.7v.3l.3-.4 1-.6c-2 1.7-2.5 2-4 3.5zm6.8-5.6h-.5l1-.6-.5.7zm0 3.3v-.3l1.3-1c-.2.4 0 .8-1.2 1.3zm-1 2h.5v.2l-.8.5h-.4l.6-.5h.2-.5.2c0 .2-.3.3-.5.4 0-.2.5-.6.7-1h.3v-.6c.4 0 .7-.3 1-.3-.4.3-.5.5-.5.7l-.5.5h-.2zm-8.5-6.2c-.3.5-.5 1-.3 1s.8-.4 2-1.4c4.5-4.4 7.3-8 11-12l2-1-.6 1c-1 .7-2.4 2.2-3.8 3.3.2 0 0 0 0 .3v.3l1.6-1.5c-.3.2 0 0-.3.4 2.2-1.6 2.7-2.6 4.4-4 0 0 .2 0 .3-.2 0 .2-.3.3-.4.5l-.7.6h.2l1.2-1 1-.5-.6.4 2.7-1.2c-.8 1-1.7 2-3.7 3.5-2.5 1.3-5.6 3-7.5 4.3-.6.5-.7.8-.7 1l-1.3 1.2.7-.6.6-.6c0 .4.6.5.8.8h.3c-1.3 1-3.2 2.3-5 4l-.3.2c.8-1 2-2 1.7-2l-.3.2-.7 1h-.3c-.4.5-2.7 2-2.4 2 0 0 .3 0 1-.4-1 .8-2.6 2-4 2.7 1.5-1 .5-.5.7-1-1.2 1-1 1.2-1 1.5-.4 0-.7.3-1 .4 1-1.3.5-1.2 2.8-3.2zm2-10-1 .6.5-.5.6-.5h-.3l-.8.8-1.6.6v-.2h-.4c.2 0 .4-.4.7-.6l1.4-1c3-1.7 3.4-2.8 7-4.5-.2 0-.5.4-.3.4s.6 0 1.5-.6c0 0 2-1 2.7-1.2s-1 .7-1.2.8l-1.7 1.2-2 1.6h-.5l-.3.5c-1.6 1.1-3.3 1.8-4.3 2.8zm12.3-8v.4c1.7-1.2 5-2.8 7-3.8l1.5-.7-5.7 4.5c-2.6 1.4-5.2 2.8-7 4l.4-.3-2 1.3-.7.3h-.2c-.2 0-.5 0-1.3.5.5-.6 3.4-1.8 5.3-3-.7 0-1 .3-1 .3-.3 0 .4-.5 1-1 .6-.3 1.3-.7 1-.7l-.4.2c-.2.4-1 1-2.2 1.7 0 0 0-.2.3-.3h-.5l1-1c.3 0 .5 0 .5-.2l.8-.5.4-.4c.6 0 1-.2 2-1zm9-4.3.4-.2-.8.6.3-.5zm1-.5 1.3-.6c.4 0 .7-.3 1.3-.5h-.2.2l.2.2h-.1l-.3.3-.7.4h-.2v-.5c-.3 0-1 .4-2.5 1.5 0-.2.5-.6 1-1zm3-.6-.2.3h.3v-.2l.2.3v.2l-.7.4-2.4 1.4-1.4.6v-.7l2.7-1.7-.8.8-1 1 1-.5 1.7-1.6.4-.3zm0-.7h.3v-.2h.2l.2.3 2.5 5c-1.3-2.4-2-3.6-2.2-4.2v-.3h-.3l.3.3-.4.3h-.2v-.4l-.6-.8zm3.3 5c0 .3.2.5.3.6-.3 0-.4.2-.6.3 0 0 .5 0 .2.3l.4-.4.2.4-.6.4v-.2.2-.2l.3-.3v-.3h-.2l-.3.3-.4-.6.4-.2h.2v-.2zm1.8-.7c-1 .7-.5.8-1.4 1.3l-.3-.6c.7-.4 1.4-.7 1.7-.7zm0 1-.6.6.2-.4c-.3 0-.5.4-.7.7v-.5l1.4-1c0 .3-.2.5-.3.6zm1-.4c0 .2-.4.3-.6.5l.7-.4zm-3.4 15 .2.2.7-.6c-.5.4-.7.8-.5.8l-.4.2zm-1.7 11c0-.2.3-.3.3-.3zm-4-.3c-.3.2-.3.3-.2.3.4 0 1.4-.5 1.7-.6l.5-.4v.4c-1 .7-1.8 1-2.7 1.5.2-.4.3-.8.7-1.2zm-3.3.5c-.4.5-1 .5-1.5.8v.2l-.7.4.2-.5s-.2 0-.3.2l1.6-1.5c1.7-1 3.4-1.8 5-2.6l-.4.4c-.7.5-2.5 1.6-3.4 1.6-1 .3-.5.5-.6.8zm-4.5 2.8 1-.7v-.2l1-.4h.2l.6-.4-.2.4-.7.4-.6.4s0-.2.2-.3c-.8.4-1 0-1.5.6zm-1.5-1c.3 0 .7-.3 1-.4l-.3.3-.5.2c-.2.2-.5.4-1 .5zm0-6.4-.4.3zm0-.8 2.4-1.8c-.2 0-.4.4-.6.6l-.3.4 1-.6c-.2 0 0-.2 0-.4l1-.6c0 .3-.4.7-1 1l1-.5-.7.6-1.8 1.5.8-1c-1 .5-2 2-2.6 2 .2-.5.5-.8.8-1zm2.8-2v-.2h.2zm2.3-9 .4-.3v.3h-.5zm-2.4 15.6h-.2.4zm0 2.7.5-.2-.4.3zm1-3c-.3.3-.5.3-.7.4v-.3l2.2-1c-.8.6-1.8 1-1.6 1zm2.3-16.7.5-.2-.4.2c.2 0 .2 0 0 0zm2-1.2 1.5-1-.2.2zm-2.2 2 1-1h.3l-1.2 1zm6 .7h.2c0 .3-1.2 1-2 1.8v-.3l-.5.6-1 .8-.8.6.2-.2-.3.2-2.2 1.2v-.2c.2 0 .4-.2.5-.3 1.5-1 1.2-1.5 3.3-2.2v-.2c-.2 0-.4 0-.6.2 0-.2.2-.4.3-.5l1.8-1 1-.5h.2zm1.4 13.3h.2c0 .3-.2.4-.4.5h-.2l-1.4 1 .7-.8 1.2-.7zm-1.6-.2v-.2l-1 .5v-.3l1.7-1c0 .3 0 .6-.7 1zm1.3-6c-.4 0-.7.4-1 .6h-.2c0-.2 0-.3.2-.4l.6-.4h-.2l.2-.2s-.2 0-.2.2l1-1v.2l-.4.3c.5-.3 0 .3 0 .5zm1.9-15.6h.2l-.4.4-.3.2h-.3l-.2.2.4-.2 1-.4-.4.2-.8.7v.2l-1 .6.6-.5-.3.2c-.2 0-.4.3-.5.4-.3 0-.7.2-1.3.6-.2 0-.3 0-.5.2l2-1.5 1.3-1h.3l.3-.2zm.5.5h-.3l-.2.2.4-.3zm-1.4 1 .4-.2.4-.2-.6.5zm.7 12.2c-.2 0-.4 0-.5.2h-.1l1.2-1v.2h-.2l-.3.5zm1.8-9.2-1.4.5c.8-.4 1.6-1 2.4-1.3zm.2 7 .2-.4v.2c0 .2-.2.2-.3.2zm.8-11.4.5-.3-.6.4zm.2 11.4v.5h-.4c0 .4-.4.7-.6 1v-.2c-.6-.2.4-.8 1-1.4zm-2.6-12h.2l.2.5v-.2l-.3-.3h.2zm0 .2h-.2.2l.2.2-.5.3.3-.4zm-4.7 4.3c-2.4 1.4-2 1.5-2.6 2l-.3-.2c-.4.4-1.2.8-2 1.2l.6-.6c1.7-.8 3.8-2.4 4.3-2.4zm-4-6 1.2-.7-.4.5-.6.3zm1 7.2-1 .7s.3-.4 1-.8zm-2.5-2.7.6-.6-.4.4h-.2zm.3 4.2h.2v-.2l.7-.3-.6.4h-.2.2l-.7.4zm-.3 1 .3-.3h.6c.2 0 .4-.3.5-.4l.6-.2-1.2 1-.6.6-.6.5c-.3 0-.2-.3 1-1.3l.2.2v-.3l.3-.2s-1 .5-2 1.4c.5-.6 1.2-1 1-1.3zm-6.8 12.7v-1c0-.2 0-.3 1.6-1.2l.5-.4-.6.4-.7.4.2-.3c2.3-1.4 1.6-1.7 4-3l-.6.5h.3l.4-.2v.2c.3 0 .7-.6.8-.8v.2c.2-.4.5-.5.7-.5h.2l-1.8 1.3.8-.5c-.4.4-.8.8-1.2 1-.2.3-.6.5-1 .8l-.4.4c-.3.2-.4.4-.4.5-1 .7-2 1.5-2.7 2.2zm.2 1v-.3h.2l.2.2-.4.3zm-.5-12-.6.3s0-.2.6-.6h.3s0 .2-.3.4zm.6 19.8h-.3l-.2.3c0-.2.3-.3.5-.3zm1.6.2h-.2c.5-.4.8-.6 1-1h1.3c0 .2-.3.2-.3.2zm4.3-2-1.4.7c-.7 0 .6-.7.6-.8l-1 .7v-.6l.7-.4c.2 0 .4 0 .7-.2l.6-.3c.7 0-.5.4 0 .5l.8-.8.4-.2h.2c-1 .5-.4.7-1.3 1l-.4.5zm8.2-2.2-.4.3h.2l-1.3 1 .7-1 1.6-1-.3.3.3-.2zm2-1c-.2.3-.4.4-.5.4.2 0 .3-.2.4-.3zm.2-10-.2.2-.8.5.3.2-1 .3c.2.2-.4.5-.6.7h-.2l1.4-1.3.6-.6v-.2h.3l.4-.2-.8.6h.5zm2 6s-.4 0-.7.3c-.2 0-.4.2-.5.3.5-.5 1-1 1.5-1 .5-.3.6-.6.4-.7.2 0 .4 0 .5-.2l1.4-1.5v.3l-2.2 2.2zm2.8-21.6-.4.3.5-.3v.5l-1 .7c.5-.5-1.2 0 .3-.7h-.2c-.2 0-.3.2-.6.4l-.4.2c0-.2.3-.4.4-.5l1.5-1zm-.2-1 1-.6s.2 0 .5-.3v.5c-.2 0-.4.2-.5.3v-.2h-.2v.3l-1 .6c.3-.2.3-.4.3-.6zm1.7 18v-.2zm-.4.2.2-.2h-.4.6-.2.2l-.4.4zm1-1.6-.5.7.7-.8zm.5-19.2v.3s.2 0 .3-.2h.5c-.2.3-.5.5-.8.6-.2 0-.4-.2-.5-.4 0 0 .3 0 .5-.2zm1.2.5s.2 0 .3.2l-1 .6-.2-.2c.3 0 .6-.2.8-.4h.2zm.6.7-1 .5.2-.2h-.4c-.2 0-.3 0 1-.8 0 0 0 .3.2.5zm2.4 2.5.2.2-.2-.3zm.2-.2h.2l.2.2 1 1.3-.2.2h-.2v-.2h.2v-.2l-.8-1v-.2h-.2l-.2.3c0-.2 0-.3-.2-.4zm1 2v-.5.2zm-49.4 11.1-2 1.5-.2.4c-.2 0-.3.2-.5.3l.5-.4-.7 1-2.5 1.2.4-.3h-1l2-1c-.8 0-2 1-3.7 2v-.2l2.5-1.5c-.7.4-1.6 1-2.7 1.4 0-.3-.2-.5-.4-.8l4.2-2c1.5-.6 3-1.4 4.6-2.2l-.4.5zm-7 7.4v.3s0-.2-.3-.5c0-.3-.3-.5-.3-.5l.3-.5.3.3v.8h.2v.2zm-1.5-4-.4-.3h.5l.6-.4 1.8-.6c-1 .4-1.4.7-1.8 1-.2 0-.4.2-.5.3zm33.5-26-3.8 1c1.2-.6 2-1 4.6-1.5-1.4.2-2.7.5-4 1 1-.5 3-1.2 4.8-1.4h1.4c.4 1.3.7 2 .8 2.7l.2.5-.2-.3-.3-1-.6-1.7h-.4l-1 .3c-.6 0-1 .2-1.6.4zm-30 18.6v-.6h.3c.2 0 .3 0-.4.6zm56.4-4.6.2.3-.2.2h-.2l.2-.4zm.3.4v.2h-.2zm.2.2h.2v.3h-.1v-.4zm.5.4v.2zm2.3 2v-.2h.2zm0-.5.8.6v.2l-.3-.2-.3-.3h-.3v-.2zm.5.5-.3-.2s.2 0 .3.2zm-.2.2v-.2h.2v.2zm3.1 2.1h.2l-.3.3c-.5.5-1 1-1.2 1l.6-.7.3-.5.2-.2zm6.5 13.2v.2zm3.8 2.8.3-.2-.4.3-3.7-2.7-1-.7-.3-.4.4.3-.4-.4.4.3-.3.3-.7 1-3.4 3.4 3-2.6 1.3-1 .5-.6h.3v.2c-1.6 1.4-2.6 2.6-4.6 4 1.5-1 3-2 4-3.3l.6-.4.2-.2c0 .4-.6 1-1.2 1.6l.8-.6-.3.7-1.5 1 .2-.2c-.7.6-1.3 1-1.4 1.3-2.5 2-4.2 2.4-4.7 2.5l-.5.3c-.3 0 .7-1 .5-1-2 1.3-1.7 1.6-3.8 2.8l-.4.3c.6 0 1.8-1.5 3.6-3.6l-.6.4v-.5c-.3 0-.5 0-1 .6 2.7-3.5 2-3.4 5.4-7.8l.3.2-.2.5c0-.2.2-.4.3-.5h.2v.2c-.7 1.3-2.7 4.2-4.4 5.8.3 0 2-1.8 3-3l1.7-2.5.4.2.5.4-.4-.4c-.2 0-.5-.3-.5-.3l.7-1.4v-.2l.3.2v.3l-.4.6.4-1 .3.3.4.2-.6-.5 1.2.7-1-.8-5.5-4.3v-.1h-.4.3l-.2.2-.3.3-.4.3c.3 0 .6-.3 1-.5l3.2 2.5 2.2 1.7h-.8l-4.7-4-.4-.2.2.2-.3.2-.6.3-3.4 2.4-1.4.7s.2 0 .4-.3l.5-.4c-2.7 1.5-1 1-1.8 1.5-1.4 1-2.4 1.5-3.2 2 1-1 2.8-3.2 3.8-4.4-1.6 2-2.7 2.7-4.3 4 1.2-1.2 1.2-1.6 2.4-2.5l-.3.3 1.3-1.4 1.2-1c.6-.6 1-1 1.2-1l-.5.7c1.7-2 .4-1 2-2.6-1 1.2-2.2 2.2-3.3 3.2l-.3-.3c1-1.4 1.5-1.5 2.7-2.8h-.2l2.5-2.2c.2-.3.4-.5.8-.7.5-.5 1-1 1.4-1.7l.3-.4.3-.2.3-.2v.4l-2.3 2.4c.3-.3.6-.4.7-.4.3 0 .2.4 0 1l2-2.4.2-.2.2-.2 1.4 1-.5-.3h-.3l-1-1-.2-.2-.2-.2.2-.2-2.7-2-2-1.5-.7-.3-.3-.2v-.4h-.5l.2-.3.2-.4c-.2-.6-1.6-2.5-3-4.3l-2-2.8-.7.4c0 .2.3.4.5.8l-.6-.8h-.2c-.2 0-.3-.2-.4-.4l-.6-.2-.3-.6-.6-.7s.4.3.6.7h-.3l-.6.5-1 .6.5-.3-.8.8-1 .6c.3 0 .5 0 .5.2l-1 .3h-1l-1.5 1-1 .6-1.5-2.8-1.2-2.9v.3l-.3-.8-1-2 .5 1 .5 1-.7.2h-.2l-.4-.5s0 .2.4.6l-.3-.3v-.2l.2.6c-6.3 2.5-12.3 5.5-18 8.7 1.2-1 2.7-2.3 4.3-3.4l.6-.2 6.6-5c-.2 0-.5.3-.8.5l-.7.4.2-.3c-1 .7-2 1.4-1.7 1.4-1 1-1.3.7-2.3 1.3l4.3-3.3.6-.4v-.6l1.6-.7.4-.3h.2v.5l-.5.3c-.3.2-.4.4-.2.4h.2l.6-.5.3-.2h.2v.3-.3l-1.3-4-.3.2h-.2l-2 .3-3.6 1c-2.5 1-4.6 2.2-6.2 3.2-2 .7-4.2 2.6-7 4.3 0 .2-.6.5-.8.5v-.2l.8-.6c-3.5 2.5-7 5.7-9.8 8.2l-1.7 1-1.8 1.3v-.2c.7-1.6 1.4-3 1.6-3 .5-1 .8-1.6.7-1.8l-1.3 2v-.3c1-2 1.7-2.7 2.7-4l-.4.7c2.2-3.7 8.5-8.5 12-10.8l-3.3 2s1-.7 1.2-1c-.5 0-1.7 1.3-3.5 2.3l2.8-2.3c-.7.3-1.3.5-2 1 2.2-2 4.5-3.5 7-5-6.4 3-8.4 5.7-12.7 9.3l.3-.3-.5.3c-1.2 1.4-2.6 3-3 4l-1.5 2.6s0-1.3 1.8-3.7c-1.5 2-2.7 4.3-3.4 6.6l-1 3.3v1.6h-.2v.2c.3 0 .6.3 1.2.7l.7-.5.7-.6c3.3-2.8 6.6-5.8 10.6-8.8l-.2.3c-.2 0-.3.3-.3.3h.2c.8-1 2.2-2 2.5-2.4l-.7.7c4-3.3 6.5-4.4 9.2-6 .3 0-2 1-1.7 1 4-2 6.2-3.6 10.4-4.5-3.7 3-10 7.7-14.3 11.5.2-.2.2-.3 0-.3s-1.6 1.4-3.1 2.4c-1.5 1.3-3 2.4-3.3 2.4-1 .8-2 2-2.5 2.5 0 0-.2 0-.2.2 0-.2.3-.3.5-.5l1.5-1-.4.4-.8.8-2.8 1.5 1-.2.2.3c-2.4 1-2.5 1-2.8 1-.2 0-.4 0-1.8.6l-4.6 2h.3c-.4 0-.5 0-.7.2l-.4.3h-.2c-.8-1-1-1.6-1-1.6v.3l1.4 1.8-.4-.5s0 .3.5 1l.6.7c0-.2-.3-.4-.4-.6h-.2l-.8-1.3 1.3 2h-.3l.8 1-.4.5v.2l1.2 1.7.4-.3h.2l1.4 2-.6-1 .7.7-.5-.7.5.6c0-.3-.3-.6-.5-.8l.8-.7 1.3-1.3 1-1c1-.3 1.8-.8 2.7-1.3l-1.2.2-1 .7 1-1 3-1.6-1.2 1-.6.5.6-.4v.2h-.3l-.3.2-1.3 1.7 1.5-1.2-3.8 4-1 1h-.5l.2.4v-.2l.2-.3.8-.7 1.5-1.5 3.2-3 2.6-2.4c1.4-1 3-2 4.5-2.7l-.3.3c2.7-1.8 3-1.7 4.4-2.4l-1.5 2.3c-3 3.5-5.7 7-8.7 10.7l1.2-1.2 1-.5c.2 0 0 .3-.5 1l-2 1 .3-.3-.2.2c-1.8.8-3.4 1.5-5.4 2.8 1-1 2.5-2 3-2.5 0 0 .4 0 1.2-.8 0-.2-.3 0 1-1 .3 0-.2.3-.7.8s-1 1-.8 1l.3-.2c3-2.5 1.7-2 2-2.5l-.6.5c0-.2 1.3-1.2 1-1.2l-1.3 1.2s.2 0 0 0c0 0-2 1.4-2.6 2-1 1-2.8 2.2-4.8 4.3l-.4.6h-.5l-.4.3-1.8-1.2 2 1.7h-.2c-.8-.6-1-1-1-1l1 1-.2.4-.6 1v.3h-.2l-.5-.5.4.6 6 6v-.5l-.7-.5s.2 0 .6.5l.4-.3 1.4-1 .5.3.4-.4 4.5-3v.5l-.2.3 2.2 2.4 2.7 2.2-1-.8h.4l.5-.3.2-.2.6.6.2.2 1 1-.3-.3.2.2-1-.8-.8-1h.3l.3.2v-.2l1-.5h.5l.3.4c-.7.3-.6.3-.4.3h.4c0 .2-.2.2-.4.3l-.3.2h-.3v.2h-.4.3l.3-.2.7-.2 1-.2h.5s.2 0 0 0h.2l.2.2-.2-.2h.3v-.2l.4-.7.5-.6c.2 0 .4 0 .7-.2 1.7-.5 3.3-1 4-1 .2 0 .2 0 0 .3 1-.3 3.2-1.3 5.6-2.6l.6.8-.3-.3.7.8-.7.7c1 1.7 1.8 2.6 2 3l.3.4 1-.4.2.4-.2-.3.3.4v-.2l.7-.7.7-.3-.7.6-.6.5.2.6-.2-.2.2-.2.2-.2 1-1.3 2.7-1h-.6l4-1.5-.8.5 2.8-1c.4 0-.6.6-1.7 1.2l-1 .3h.3l-.8.4 1-.5 1-.3-.4.3-2.2 1c3.4-1.3 4.7-2.6 7-3 1-.8 2.5-2 4.4-3l-.6 1.6.5-1-1.5 2.7c-.3 0 .3-1.2 1-2.3-.6.5-1 1.4-1.5 2.6l.3-.6-.8 2.8h-.4.4c0 .6-.2 1 0 1l.2-.7-.2 1-.2.8v.5l-.4-.2.4.3v-.2l.3.3.3.2 2.4 1.7 2-1c.3 0-.7.7-.4.7h.2l3.6-2-.4.2v-.2c-.2 0-.4 0-1 .4.5-.5 2.4-1.5 2.2-1.5l-2 1 6-3.2-.4.4c2.5-2 6.4-4.3 7.7-6l-.6.5-2.3 1.7c.6-.4.7-.6.6-.6h-.4c0 .2-.3.2-.3.2-.2 0-.2 0 .4-.5 1.3-1 2.6-2 3.6-3 .6-.4 1-.8 1.4-1.3l.3-.4v-.2h.3v.2c-.5.5-.7 1-.6 1l.5-.8v-.2s.2 0 .3.2l-.3-.3-.3-.2c-.2 0-.3-.2-.5-.3l-.2-.2-.2-.2h-.2c0-.2-.6-.5-1-.7v-.2h.3v.2h.2v.2h.3v.2c.2 0 .3.2.5.3l.2.2h.3c.4.3.8.6 1 1l-.2-.2-.6 1.2.5-.5.2-.3-.4.7h-.2l-1 .7.4-.5h-.3l-.6 1-1.5 1.6v-.3c-.8 1-2 2.8-2.6 3.3l.4-.8c-1.8 2.2-2 2.3-2 2.6v.5l-.6.6-.3.2-.6-.5h-.2v.2l-.4-.4.5.5v.2l.8.6-.3.2-.6-.3 1 1.2 1.4 1-2-1.8h-.2l.4-.3c.4.2 1 .6 1.3 1l.7.6v.2-.2c1 .7 1.6 1.4 1.6 1.4l-.8-.7-.8-1h.6c0-.7.5-1.3.8-2l-.3 1.8v1h-.2v.2l.2.2.4-.7.7-1.5c.5-1 1-2.2 1.6-2.8l-.5.4v-.3l-1 1.5c0-.7.2-1.3.4-2 .6-1 1.3-2 2-2.8-.2 0 .6-1.4.4-1.4l-.4.5c0 .2-.5.8-.8 1.3l.5-1.6c.4-.2.8-.6 1.2-1l-.4.4.7-.8.2-.2v.2l.3-.4.6-.4-.5 1-1.4 2h.2v.5l1.1-2.3h.2c.2 0-.6 1.3-1.3 2.3l.2-.3v.4l-.2.5s0-.2.5-.7l1.8-2.8.4-.7c0-.3-.3-.4-.4-.5zm-55.4 10h.2v-.3s-.2 0-.3.2v.2zm-5.2-4.5.3.3h.2l-.3-.3zm52.3-12 .2.3s-.2 0-.3-.2zm-34.6 11.8-.2-.3zm31-14.7-.4-.4.3.3zm-19 14.4h.2c.8-.4 1.3-.8 2-1.3-.8.6-2 1-3.2 1.6l1-.2zm-23.5-7.3v-.2zm40.5-10.8.8-.6zm-24.7 24.8v-.2zm-1.3-.3-.5-.7.3.4zm-14.5-45.4-.5.3h.3c0-.2.3-.3.2-.3zm-8-.7 1.4-1c-1.4 1-4.2 3-4.8 3.7.6-.7 2.8-2 3.5-2.7zm27.2 2.6v.2zm9.4 3.3c-.3 0-.5.2-.7.3l.6-.4zm-43 0h.2l.8-1.2c-.8 1-1 1-1 1zm63.7 31.9.2-.2zm-8.3 6.6.7-.6zm-21.4.5.8-.5-2.5 1.2 1.6-.7zm-1.6 0 1-.5v-.2zm-40-5.7v.2zm.3-19h.2zm-.3 19.2.4.3c-.2 0-.3-.2-.4-.3zm37.5 6.4.2.3-.2-.2zm-37.5-17.4v-.3.2zm54-24c-.2 0 .3.6 1 1.5-.8-1-1-1.6-1-1.6zm-47.7 41.2.3.2zm53.7-32v-.2zm-27.7-16.5c1-.4 2.3-.6 3.4-1l.2.4h-.2.2l.8 2.6 1.3 3.8h-.2l-1 .7c-.7.5-1.4 1-1.6 1.3l.2.7c1.3-1 1.6-1.5 1.3-1.5l-1 .4c1-.7 1.3-.8 1.5-.8l.4-.2.2-.2.2-.2-1.3-3.8-.3-1-.6-1.6v-.5l-.5-1 .4 1c-2 .2-3.8.6-5.6 1l-.2.5c.4-.3 2.4-.8 3-1l-.6.5zm28.7 17.1-1-.8c.2 0 .6.4 1 .7zm-36.6-14.8 1.2-.5 3-1.2-4 1.6h-.2l-.4.3c-.6.2-1 .6-1.7 1 0-.2.3-.3.4-.4l-.4.2 2-1zm36 14-.3.2.4-.2z" fill="#5eb345"/></svg>
