<svg height="76" width="440" xmlns="http://www.w3.org/2000/svg"><path d="m383 22.1c-1.6 1.8-2.2-1-2.2-1s-.6-2.3-1.1-3.7c-.5-1.5-1.7-1.7-1.7-1.7h-3.9c-.9 0-1.5.7-1.5 1.5l-.1 55.8c0 .8.6 1.5 1.5 1.5h8.8c.8 0 1.5-.7 1.5-1.5v-34.9c.4-2.8 2-11.1 10.9-12.2 3.3-.4 5-.1 5-.1 1.5 0 2.3-.2 2.3-1.9 0-1.8-.1-6.9-.1-6.9s-.1-2.2-2.1-2.1c-2.1.1-9.3.6-12.6 2.9-3.4 2.4-4.7 4.3-4.7 4.3m-28.7 25.5v-29.8c0-.8.7-1.5 1.5-1.5h8.8c.9 0 1.5.7 1.5 1.5v55.3c0 .8-.6 1.5-1.5 1.5h-3.9s-1.2-.2-1.7-1.6c-.5-1.5-1.1-3.8-1.1-3.8s-.6-2.7-2.2-.9-8.7 7.3-22.4 7.2c-21.9-.3-20.7-22-20.7-26.6v-31.3c0-.8.7-1.5 1.5-1.5h8.8c.9 0 1.5.7 1.5 1.5v31.9c0 3.8-.3 15.7 13.5 15.7 12.7 0 16-5.9 16.4-17.6m-76.7 27.8c-23 0-28.8-14.5-28.8-30.1 0-15.5 6-30 28.9-30 22.7 0 29 14.5 29 30 0 15.8-6.3 30.1-29.1 30.1m.1-50c-13.5 0-16.5 8.9-16.5 19.9 0 11.2 3 20.1 16.4 20.1 13.7 0 16.7-8.8 16.7-20.1 0-10.9-2.7-19.9-16.6-19.9m-57.6-10.1c-13.8-.1-18.6 5.8-18.6 5.8s-1.9 2.1-1.7-.5c.2-2.5-.1-17.6-.1-17.6 0-.8-.7-1.5-1.5-1.5h-8.9c-.8 0-1.5.7-1.5 1.5v70c0 .9.7 1.5 1.5 1.5h3.9s1.2-.2 1.7-1.6c.5-1.5 1.1-3.8 1.1-3.8s.6-2.7 2.3-.9c1.6 1.8 8.6 7.9 22.4 7.2 13.7-.8 23.6-9.4 23.4-30.4-.2-21.1-10.2-29.5-24-29.7m11.7 31c-.1 3.9 1.1 19.4-16.7 19.1-13.7-.3-15.5-9.8-15.6-19.3-.1-11.8 2.5-20.9 16.7-20.7 14.3.3 15.9 9.5 15.6 20.9m-56.4-25.7c-6.7-6.6-20.6-5.9-20.6-5.9-26.8-.9-25.7 18.5-25.7 18.5v1.7c0 .8.7 1.4 1.5 1.4h8.6c.8 0 1.5-.6 1.5-1.4l.1-1.9s1-9.1 13.5-8.6c13.4.6 14.3 5.7 14.9 11.8 0 0 .1 1.3-.9 1.5-1.1.2-24 1.9-33.1 5.9s-8.1 13.1-8.1 14.2c0 1-.4 16.4 23.2 16.9 13.7.3 20.7-7.6 20.7-7.6.6-.6 1.2-1.1 1.8.3.6 1.5 1.2 6.5 3 6.6 1.9.2 3.6.1 3.6.1s1.9.1 1.9-1.7l-.1-34.3s.5-11.4-5.8-17.5m-6.2 29s0 1.5-.3 3.8c-.8 6-6.2 11.1-13.6 11.8-7.5.7-15.4-1.1-15.7-8.3-.4-7.3 13.4-7.9 15.6-8.2s9.7-1.1 12.4-1.3c1.1 0 1.8.6 1.6 2.2m-47.5 14.5h-24.6c-.8 0-1.5-.6-1.5-1.5v-60c0-.8-.7-1.5-1.5-1.5h-9.4c-.8 0-1.5.7-1.5 1.5v70c0 .8.7 1.5 1.5 1.5h37c.8 0 1.5-.6 1.5-1.5v-7c0-.8-.7-1.5-1.5-1.5m-56.4-6.9c-.5 1-1.3 1.2-1.8 1.3s-.6.4-1.2 1.1-1.3 1.7-3.8 5.4-10 2.3-14.2 1.4c-4.2-.8-4.8-2.2-5.2-5.1-.3-2.9 1.8-4.7 2.5-5 .6-.3 3.3-1.3 5-2.8s4.4-1.8 4.8-1.8 1.5-.1 5.2-.5 7.5.6 10 1.4c2.2.6 6.5 3.1 8.5 4.2v-50.2c0-3.1-2.5-5.6-5.6-5.6h-5.7c2 1.7 5.1 5.2 5.6 8.7.7 4.3-4.1 5.7-4.5 5.9-.4.1-.6.2-.6.2-1.4-3-.1-4.3.5-5.2s-.3-1.3-1.2-1.7-1.2-.8-1.4-1.3c-.1-.4-.2-1.1-.5-1.8-.4-.7-1-.8-1.6-.9s-1.1-.4-1.4-.5c-.4-.1-.9-.1-.9-.1l.1.5s-1.7-.8-3.2-2c-1.2-.8-1.5-1.1-1.9-1.8h-2.5c.1.6.4 1 .6 1.3.3.4-.5 1.5-1.2 1.7-.8.2-2.5-.3-2.5-.3-2.4.7-2.3.3-5.1.7-2.9.4-3.4 2.3-3.9 3.5-.5 1.1.4.7-.9 2.6-1.4 2-4.3 2.6-5.5 2.6-1.2-.1-.8-.2-.7 3.5 0 3.8.5 3.3 1.8 3.6 1.2.3 1.7-1.4 1.9-1.6.2-.3.2-.6 0-.7-1.4-.1-2.2-.4-2.6-.8-.4-.3.1-1.1.8-1.5.6-.5 2.6-1.5 3.1-1.8.6-.2 2.2-.8 3-.9.7-.2.8.5 1 .8.1.3 0 .7.7.6 3.8-.5 4.7.1 4.9.1.3-.1.6-.3.7-.8 0-.5-1.3-.8-2-1-.6-.1-4.1-.2-4.1-.2s-.9-.7-1.1-2.4 4.1-3.4 5.6-3.9c1.5-.4 5.2-.9 9.4-.3 4.2.5 6 3.2 6.7 6 .8 2.9-1.5 3.8-1.8 3.9-.3 0-1.1.7-1.4 1.2-.3.6-1.3 1.3-2 1.7-.7.5-1.8 1.4-1.8 1.4s0 .7-.9 1.1c-.8.3-1.5-1.5-2-2.7s-1-1.7-1.5-2.6c-.4-1-1.2-1.2-1.4-1.2-.3 0-.4.5-.4 1.3s-.7 1.5-1.9 2.3-3.6-.5-3.9-.7c-.2-.1-1.6-.6-2-.8s-.5-.4-.9-.8c-.3-.4-.9.3-1.1.4-.2.2-.5.4 0 1.1.5.6 2.1 1.2 2.9 1.4.7.2 1.6 1.2 2 1.6.5.4 1 .7 1.3.5 2.1-1.3 4.6-1.7 5.1-1.7.4 0 2.2 0 1.3 2.8-1.2 3.7-5.1 4.5-8.1 4.6-3.1.1-4.6-.7-4.8-.7-.1 0-.2.4-.1.4s1.1.7 1.8 1.2c.8.5 2 1.3 2.5 1.3s2.2-.6 2.7-.7c.6-.2 2-.5 3.1-.8 1.1-.4 5.3-3.8 6.1-4.6.7-.7 1.3-2.5 1.6-2.6s.8.4 1.2.4c.5.1 1.4-1.2 1.6-2.1s.3-1 .5-1.1c.3 0 .4.6.4.6s.3 1.6.1 3.8c-.1 2.2-.3 2.8-1 4.6-.6 1.9-2.8 2.1-3.6 2.3-.7.2-2.5.8-3.8 1.1-1.3.2-2-.5-2.9-.9-.3-.2-2-.4-2.1 0-.6 2.1 3 3.2 3.6 3.4 3.9.9 9.3-.9 9.5-3.3.5-3.5.9-3.9 1.3-4.4.5-.5 1.7-.1 1.7-.1.4-.4 2.5-2 2.5-2s.7-.3.4-.9c-.4-.5-.6-2.7 2.1-2.4s3.6 4.1 3.6 4.1 1 2.2.3 7.9c-.8 5.7-8.3 11.5-15.2 13.7s-10.2 2-11 2-2.5-.7-3.1-.8c-.6-.2-2-1.1-2.5-1.3s-2.1-1.1-2.5-1.2c-.4-.2-1.6-1-2.4-1.6-.8-.5-1-1.1-1.2-1.6-.3-.6-1.7-1.7-1.8-1.8-.2-.2 0-.4 0-.4 1.6.7 12.2 2.2 13.1 2.2.8 0 4.7.1 5.2.1s1.4.3 1.4-.3c0-.7-3-1.1-3.3-1.1-.3-.1-1.8-.1-2.9-.2-1.1-.2-3.8-4.3-4.1-4.9-.4-.5-.5-.4-1.2-.7s-3.1-2.2-3.3-2.5l-.1-1.8c-.3-.3-1.2.2-1.9.5-1.7.8-2.3-.1-2.3-.1l-2.3-2.4-.6 1.2s5.9 4.7 7.5 6.1c1.6 1.3.4 1.7.4 1.7s-1.2 1.3-1.6 1.5c-.4.1-4-.6-6.7-1.4-2.7-.7-3.6-1.6-6.4-4-2.7-2.5-3.8-8.8-3.5-10 .4-1.2.5-3.1.3-3.6-.3-.6-.7-2.4.3-2.4s1.7 2.2 4 4.8c2.3 2.7 4.9 3.5 5.9 3 .9-.6-.4-2.2-.9-3.2-.6-1-.5-1.3-2.7-4.1-2.1-2.7-.6-4.8-.2-5.8.5-1 1.8-2.9 2.1-6 .2-1.6.8-2.7 1.8-3.7h-23.4c-3.1 0-5.6 2.5-5.6 5.6v20c1.5.5 4.9 1.7 5.6 2.2.7.6 7.7 6 7.5 15.5-.1 1 .3 1.3.7 1.8.3.3 2.7 2.7 2.3 4.2-1.1-1.7-2.2-2.6-2.6-2.8-.3-.1-.7-.3-.9.3-.3.6-.5 2.3-3.9 1.8-3-.4-5.6-.9-8.7-5.2v24.1c0 3.1 2.5 5.7 5.6 5.7h4.5c.5-1.1.7-1.7 1.1-2.6.5-1.2 2.3-5.6 3.1-7s2-3.3 2-3.3-.4-2.9-.3-4.6 1-5.5 1-5.5.3-.6.2-1.3c-.2-.6-.4-1.3-.3-2.5.2-1.2.7-3.1 1.7-4 .9-.8 1.6-1.3 2.1-1.3.5.1 1.4.8 2.4 3.4 0 0-.5 0-1-.1-.4-.1-.2.3-.1.4s1.2.9.6 2c-.5 1-3 4.1-2.5 4.9.4.5.6 0 1.1-.6.6-.6 1.9-2.1 2.1-2 .2 0-.4 2.2-2.6 4.5 0 0 .6.3 0 1.4-.6 1.2-1.5 2.4-1.7 2.6-.1.3-.1.9.3.5.3-.3 3.8-3.1 7.3-3.1 2.4 0 2.6.8 3.1 1 .4.2 1 .9 1.1 1.3.2.3.3.6.9.8.7.3 2.7.7 3 3.4 0 0 1 1.3-.3 3.3 0 0 10.3-1.4 14.7 8.4h20.4c3.1 0 5.6-2.6 5.6-5.7v-10.8c-1.7-1.1-5.5-1.5-6-1.5-.6 0-3.3-.1-3.8 1m-44.9-23.5c-.3 0-.7-.1-1.2.4-.2.2-.4.5-.4.9 0 1.1-2.4 0-2.7-.1-.7-.3-1.8-1-4.4-3.9-2.5-2.9-3.4-8.8-3.5-11.2-.1-2.3.9-6.6 4-10.7 3-4 8.3-4.7 9-4.7s1.4 0 1.4.5c0 .4-.1.4-.1.9 0 0 .4.9.3 2.3-.3 3.3-3.4 5.9-5 7.2-1.5 1.3-1.3 3-1.3 4.7.1 1.6 1.4 7.3 1.7 8.2.3 1 2.1 4.2 2.4 4.7.3.4.1.7-.2.8m8.1 17.3c-1.6-1.2-2.6-3.4-3.6-6.3s-1.6-4.9-2-6.2c-.5-1.3-.8-1.4-.9-1.8 0-.3.1-.5.2-.7 0 0 2.5.4 4.6 1.4 2 .9 2 1.1 3.8 2.3 1.7 1.2 2.4 3.6 2.9 4.5s2.1 1.6 2.4 1.7c.2.2.9.7.9.7 7.2 2.7 12 3 12.2 3 .2.1.3.3.3.3-.6 1-7 1.2-7 1.2s-2.2 0-5.8 1c-3.6 1.1-6.3.1-8-1.1m-3.2 22.6c-.4.1-.8.4-1 .7h6.5c-.7-1.2-1.5-2.8-1.6-3.2 0 0-3 2.3-3.9 2.5m-9.9-2.3c.1-.7 0-2.9-.4-3.4 0 0-.2 1.4-.4 1.8-.2.3-1.3 3-2.1 4.6h3.8l-.4-.9c-.2-.4-.5-1.5-.5-2.1" fill="#e32"/></svg>
